M48
; DRILL file {KiCad 9.0.6} date 2026-04-14T00:24:25+0200
; FORMAT={-:-/ absolute / metric / decimal}
; #@! TF.CreationDate,2026-04-14T00:24:25+02:00
; #@! TF.GenerationSoftware,Kicad,Pcbnew,9.0.6
; #@! TF.FileFunction,MixedPlating,1,4
FMAT,2
METRIC
; #@! TA.AperFunction,Plated,PTH,ViaDrill
T1C0.300
; #@! TA.AperFunction,Plated,PTH,ComponentDrill
T2C0.600
; #@! TA.AperFunction,Plated,PTH,ComponentDrill
T3C0.850
; #@! TA.AperFunction,Plated,PTH,ComponentDrill
T4C1.300
; #@! TA.AperFunction,NonPlated,NPTH,ComponentDrill
T5C0.650
%
G90
G05
T1
X51.463Y-120.6
X51.594Y-126.547
X52.186Y-119.661
X52.324Y-78.276
X54.58Y-126.547
X55.293Y-102.304
X57.475Y-77.896
X58.164Y-128.605
X60.776Y-104.507
X61.311Y-105.925
X63.49Y-109.921
X63.696Y-111.071
X64.202Y-87.693
X64.638Y-96.621
X67.185Y-95.773
X67.919Y-107.942
X67.941Y-110.291
X68.245Y-108.904
X69.337Y-93.386
X69.851Y-96.806
X69.906Y-111.819
X70.102Y-91.403
X71.227Y-76.393
X71.476Y-77.912
X71.723Y-108.335
X72.245Y-99.563
X72.504Y-107.414
X72.557Y-84.77
X72.965Y-96.804
X73.11Y-76.004
X73.41Y-110.201
X74.614Y-108.249
X75.741Y-81.509
X75.95Y-109.905
X76.081Y-87.445
X76.346Y-93.413
X76.865Y-108.295
X77.004Y-99.9
X78.589Y-81.455
X78.613Y-79.69
X78.642Y-70.159
X78.649Y-99.9
X78.902Y-119.838
X78.902Y-128.412
X79.049Y-67.237
X79.768Y-113.606
X79.782Y-82.691
X81.808Y-93.378
X81.983Y-108.307
X82.019Y-89.887
X82.019Y-90.921
X82.142Y-128.605
X82.372Y-70.159
X82.397Y-115.107
X82.664Y-78.894
X83.181Y-88.484
X83.388Y-81.025
X83.765Y-94.343
X84.837Y-87.084
X84.988Y-76.004
X85.268Y-96.366
X85.997Y-95.64
X86.306Y-87.084
X86.748Y-102.663
X86.922Y-96.286
X87.141Y-88.073
X87.314Y-91.247
X87.383Y-92.973
X87.958Y-83.894
X87.958Y-117.696
X88.496Y-90.516
X88.998Y-89.865
X89.194Y-70.159
X89.416Y-88.843
X89.466Y-93.737
X89.637Y-109.599
X90.03Y-81.717
X90.476Y-88.975
X90.518Y-80.771
X90.846Y-89.896
X90.846Y-113.455
X90.927Y-66.115
X90.927Y-116.135
X90.927Y-125.683
X91.505Y-93.169
X91.51Y-88.284
X91.612Y-106.007
X91.612Y-107.561
X91.736Y-84.578
X91.754Y-98.567
X91.819Y-89.276
X91.826Y-69.463
X92.006Y-96.829
X92.644Y-91.726
X92.934Y-107.612
X93.183Y-86.76
X93.567Y-84.623
X93.897Y-81.848
X93.897Y-110.552
X94.016Y-87.084
X94.016Y-96.46
X94.689Y-104.282
X94.789Y-67.278
X95.521Y-90.372
X96.074Y-116.916
X96.866Y-106.007
X97.086Y-90.809
X97.296Y-84.77
X97.421Y-88.224
X98.792Y-99.382
X99.027Y-84.794
X99.836Y-61.392
X99.836Y-102.304
X100.8Y-104.446
X102.028Y-97.249
X102.435Y-96.399
X102.535Y-64.314
X102.78Y-84.77
X102.805Y-128.605
X103.594Y-85.585
X104.785Y-92.532
X107.04Y-84.503
X107.898Y-110.191
X108.249Y-84.77
X108.434Y-90.803
X108.495Y-111.071
X108.744Y-94.093
X108.744Y-96.46
X111.98Y-84.503
X112.019Y-89.934
X112.219Y-90.748
X112.244Y-110.09
X117.494Y-90.42
X117.584Y-129.344
X122.565Y-65.374
X123.441Y-64.5
X123.592Y-67.237
X123.592Y-87.693
X123.592Y-106.007
X124.384Y-90.615
X124.648Y-83.994
X126.408Y-63.553
X127.31Y-65.397
X128.171Y-65.188
X129.531Y-127.824
X132.5Y-128.605
X137.857Y-65.274
X138.342Y-85.348
X141.409Y-67.237
X143.801Y-84.76
X159.226Y-76.004
X162.195Y-101.926
X163.203Y-101.521
X164.69Y-111.361
X164.69Y-115.05
X176.165Y-100.09
X180.073Y-101.547
X189.288Y-99.382
T3
X49.6Y-122.3
X54.6Y-122.3
T4
X185.0Y-70.0
X190.0Y-70.0
T5
X52.79Y-81.35
X58.57Y-81.35
T2
G00X48.6Y-125.35
M15
G01X48.6Y-124.65
M16
G05
G00X51.36Y-80.27
M15
G01X51.36Y-81.37
M16
G05
G00X51.36Y-84.7
M15
G01X51.36Y-85.3
M16
G05
G00X55.6Y-124.65
M15
G01X55.6Y-125.35
M16
G05
G00X60.0Y-80.27
M15
G01X60.0Y-81.37
M16
G05
G00X60.0Y-84.7
M15
G01X60.0Y-85.3
M16
G05
M30
