%TF.GenerationSoftware,KiCad,Pcbnew,9.0.6*%
%TF.CreationDate,2026-04-14T00:22:13+02:00*%
%TF.ProjectId,USB Type C PD & Tester,55534220-5479-4706-9520-432050442026,rev?*%
%TF.SameCoordinates,Original*%
%TF.FileFunction,Soldermask,Top*%
%TF.FilePolarity,Negative*%
%FSLAX46Y46*%
G04 Gerber Fmt 4.6, Leading zero omitted, Abs format (unit mm)*
G04 Created by KiCad (PCBNEW 9.0.6) date 2026-04-14 00:22:13*
%MOMM*%
%LPD*%
G01*
G04 APERTURE LIST*
G04 Aperture macros list*
%AMRoundRect*
0 Rectangle with rounded corners*
0 $1 Rounding radius*
0 $2 $3 $4 $5 $6 $7 $8 $9 X,Y pos of 4 corners*
0 Add a 4 corners polygon primitive as box body*
4,1,4,$2,$3,$4,$5,$6,$7,$8,$9,$2,$3,0*
0 Add four circle primitives for the rounded corners*
1,1,$1+$1,$2,$3*
1,1,$1+$1,$4,$5*
1,1,$1+$1,$6,$7*
1,1,$1+$1,$8,$9*
0 Add four rect primitives between the rounded corners*
20,1,$1+$1,$2,$3,$4,$5,0*
20,1,$1+$1,$4,$5,$6,$7,0*
20,1,$1+$1,$6,$7,$8,$9,0*
20,1,$1+$1,$8,$9,$2,$3,0*%
G04 Aperture macros list end*
%ADD10RoundRect,0.075000X-0.662500X-0.075000X0.662500X-0.075000X0.662500X0.075000X-0.662500X0.075000X0*%
%ADD11RoundRect,0.075000X-0.075000X-0.662500X0.075000X-0.662500X0.075000X0.662500X-0.075000X0.662500X0*%
%ADD12RoundRect,0.250000X-0.250000X-0.475000X0.250000X-0.475000X0.250000X0.475000X-0.250000X0.475000X0*%
%ADD13RoundRect,0.140000X-0.140000X-0.170000X0.140000X-0.170000X0.140000X0.170000X-0.140000X0.170000X0*%
%ADD14RoundRect,0.135000X-0.135000X-0.185000X0.135000X-0.185000X0.135000X0.185000X-0.135000X0.185000X0*%
%ADD15R,2.000000X2.000000*%
%ADD16RoundRect,0.100000X-0.225000X-0.100000X0.225000X-0.100000X0.225000X0.100000X-0.225000X0.100000X0*%
%ADD17RoundRect,0.250000X-1.150000X-0.250000X1.150000X-0.250000X1.150000X0.250000X-1.150000X0.250000X0*%
%ADD18C,0.650000*%
%ADD19R,0.600000X1.450000*%
%ADD20R,0.300000X1.450000*%
%ADD21O,1.000000X2.100000*%
%ADD22O,1.000000X1.600000*%
%ADD23RoundRect,0.147500X-0.147500X-0.172500X0.147500X-0.172500X0.147500X0.172500X-0.147500X0.172500X0*%
%ADD24RoundRect,0.075000X-0.650000X-0.075000X0.650000X-0.075000X0.650000X0.075000X-0.650000X0.075000X0*%
%ADD25RoundRect,0.250000X-0.362500X-1.425000X0.362500X-1.425000X0.362500X1.425000X-0.362500X1.425000X0*%
%ADD26R,1.500000X1.100000*%
%ADD27R,0.400000X1.350000*%
%ADD28O,1.200000X1.900000*%
%ADD29R,1.200000X1.900000*%
%ADD30C,1.450000*%
%ADD31R,1.500000X1.900000*%
%ADD32RoundRect,0.250001X-1.149999X-1.149999X1.149999X-1.149999X1.149999X1.149999X-1.149999X1.149999X0*%
%ADD33C,2.800000*%
%ADD34RoundRect,0.100000X-0.712500X-0.100000X0.712500X-0.100000X0.712500X0.100000X-0.712500X0.100000X0*%
%ADD35RoundRect,0.250000X-1.000000X-0.650000X1.000000X-0.650000X1.000000X0.650000X-1.000000X0.650000X0*%
%ADD36RoundRect,0.225000X-0.225000X-0.375000X0.225000X-0.375000X0.225000X0.375000X-0.225000X0.375000X0*%
%ADD37RoundRect,0.062500X-0.275000X-0.062500X0.275000X-0.062500X0.275000X0.062500X-0.275000X0.062500X0*%
%ADD38RoundRect,0.062500X-0.062500X-0.275000X0.062500X-0.275000X0.062500X0.275000X-0.062500X0.275000X0*%
%ADD39R,1.450000X1.450000*%
%ADD40RoundRect,0.150000X-0.512500X-0.150000X0.512500X-0.150000X0.512500X0.150000X-0.512500X0.150000X0*%
G04 APERTURE END LIST*
D10*
%TO.C,U2*%
X85587500Y-88087500D03*
X85587500Y-88587500D03*
X85587500Y-89087500D03*
X85587500Y-89587500D03*
X85587500Y-90087500D03*
X85587500Y-90587500D03*
X85587500Y-91087500D03*
X85587500Y-91587500D03*
X85587500Y-92087500D03*
X85587500Y-92587500D03*
X85587500Y-93087500D03*
X85587500Y-93587500D03*
D11*
X87000000Y-95000000D03*
X87500000Y-95000000D03*
X88000000Y-95000000D03*
X88500000Y-95000000D03*
X89000000Y-95000000D03*
X89500000Y-95000000D03*
X90000000Y-95000000D03*
X90500000Y-95000000D03*
X91000000Y-95000000D03*
X91500000Y-95000000D03*
X92000000Y-95000000D03*
X92500000Y-95000000D03*
D10*
X93912500Y-93587500D03*
X93912500Y-93087500D03*
X93912500Y-92587500D03*
X93912500Y-92087500D03*
X93912500Y-91587500D03*
X93912500Y-91087500D03*
X93912500Y-90587500D03*
X93912500Y-90087500D03*
X93912500Y-89587500D03*
X93912500Y-89087500D03*
X93912500Y-88587500D03*
X93912500Y-88087500D03*
D11*
X92500000Y-86675000D03*
X92000000Y-86675000D03*
X91500000Y-86675000D03*
X91000000Y-86675000D03*
X90500000Y-86675000D03*
X90000000Y-86675000D03*
X89500000Y-86675000D03*
X89000000Y-86675000D03*
X88500000Y-86675000D03*
X88000000Y-86675000D03*
X87500000Y-86675000D03*
X87000000Y-86675000D03*
%TD*%
D12*
%TO.C,C7*%
X104050000Y-95000000D03*
X105950000Y-95000000D03*
%TD*%
D13*
%TO.C,C5*%
X110000000Y-90000000D03*
X110960000Y-90000000D03*
%TD*%
D14*
%TO.C,R24*%
X75000000Y-75000000D03*
X76020000Y-75000000D03*
%TD*%
D13*
%TO.C,C2*%
X95000000Y-85000000D03*
X95960000Y-85000000D03*
%TD*%
D15*
%TO.C,TP2*%
X130000000Y-130000000D03*
%TD*%
%TO.C,TP3*%
X140000000Y-130000000D03*
%TD*%
D16*
%TO.C,Q1*%
X60000000Y-109350000D03*
X60000000Y-110000000D03*
X60000000Y-110650000D03*
X61900000Y-110650000D03*
X61900000Y-110000000D03*
X61900000Y-109350000D03*
%TD*%
D14*
%TO.C,R8*%
X63980000Y-95000000D03*
X65000000Y-95000000D03*
%TD*%
%TO.C,R14*%
X80000000Y-100000000D03*
X81020000Y-100000000D03*
%TD*%
D17*
%TO.C,SW1*%
X167100000Y-111000000D03*
X172900000Y-111000000D03*
X167100000Y-115000000D03*
X172900000Y-115000000D03*
%TD*%
D18*
%TO.C,J3*%
X52790000Y-81350000D03*
X58570000Y-81350000D03*
D19*
X52430000Y-79905000D03*
X53230000Y-79905000D03*
D20*
X54430000Y-79905000D03*
X55430000Y-79905000D03*
X55930000Y-79905000D03*
X56930000Y-79905000D03*
D19*
X58130000Y-79905000D03*
X58930000Y-79905000D03*
X58930000Y-79905000D03*
X58130000Y-79905000D03*
D20*
X57430000Y-79905000D03*
X56430000Y-79905000D03*
X54930000Y-79905000D03*
X53930000Y-79905000D03*
D19*
X53230000Y-79905000D03*
X52430000Y-79905000D03*
D21*
X51360000Y-80820000D03*
D22*
X51360000Y-85000000D03*
D21*
X60000000Y-80820000D03*
D22*
X60000000Y-85000000D03*
%TD*%
D14*
%TO.C,R20*%
X133980000Y-85000000D03*
X135000000Y-85000000D03*
%TD*%
%TO.C,R22*%
X145000000Y-85000000D03*
X146020000Y-85000000D03*
%TD*%
%TO.C,R5*%
X196880000Y-100000000D03*
X197900000Y-100000000D03*
%TD*%
%TO.C,R9*%
X70000000Y-95000000D03*
X71020000Y-95000000D03*
%TD*%
D23*
%TO.C,FB1*%
X70000000Y-130000000D03*
X70970000Y-130000000D03*
%TD*%
D14*
%TO.C,R27*%
X79490000Y-130000000D03*
X80510000Y-130000000D03*
%TD*%
D13*
%TO.C,C4*%
X104520000Y-85000000D03*
X105480000Y-85000000D03*
%TD*%
%TO.C,C3*%
X100000000Y-85000000D03*
X100960000Y-85000000D03*
%TD*%
D24*
%TO.C,U3*%
X125000000Y-63000000D03*
X125000000Y-63500000D03*
X125000000Y-64000000D03*
X125000000Y-64500000D03*
X125000000Y-65000000D03*
X129400000Y-65000000D03*
X129400000Y-64500000D03*
X129400000Y-64000000D03*
X129400000Y-63500000D03*
X129400000Y-63000000D03*
%TD*%
D16*
%TO.C,Q4*%
X75000000Y-109350000D03*
X75000000Y-110000000D03*
X75000000Y-110650000D03*
X76900000Y-110650000D03*
X76900000Y-110000000D03*
X76900000Y-109350000D03*
%TD*%
D25*
%TO.C,R28*%
X115000000Y-65000000D03*
X120925000Y-65000000D03*
%TD*%
D15*
%TO.C,TP1*%
X120000000Y-130000000D03*
%TD*%
D13*
%TO.C,C9*%
X139040000Y-65000000D03*
X140000000Y-65000000D03*
%TD*%
D14*
%TO.C,R13*%
X75000000Y-100000000D03*
X76020000Y-100000000D03*
%TD*%
D26*
%TO.C,D2*%
X164900000Y-100000000D03*
X167900000Y-100000000D03*
X167900000Y-101500000D03*
X164900000Y-101500000D03*
%TD*%
D27*
%TO.C,J1*%
X50800000Y-122300000D03*
X51450000Y-122300000D03*
X52100000Y-122300000D03*
X52750000Y-122300000D03*
X53400000Y-122300000D03*
D28*
X48600000Y-125000000D03*
D29*
X49200000Y-125000000D03*
D30*
X49600000Y-122300000D03*
D31*
X51100000Y-125000000D03*
X53100000Y-125000000D03*
D30*
X54600000Y-122300000D03*
D29*
X55000000Y-125000000D03*
D28*
X55600000Y-125000000D03*
%TD*%
D23*
%TO.C,FB2*%
X105000000Y-90000000D03*
X105970000Y-90000000D03*
%TD*%
D14*
%TO.C,R17*%
X85000000Y-115000000D03*
X86020000Y-115000000D03*
%TD*%
D16*
%TO.C,Q2*%
X65000000Y-109350000D03*
X65000000Y-110000000D03*
X65000000Y-110650000D03*
X66900000Y-110650000D03*
X66900000Y-110000000D03*
X66900000Y-109350000D03*
%TD*%
D14*
%TO.C,R15*%
X80000000Y-95000000D03*
X81020000Y-95000000D03*
%TD*%
D32*
%TO.C,J4*%
X185000000Y-70000000D03*
D33*
X190000000Y-70000000D03*
%TD*%
D14*
%TO.C,R4*%
X186880000Y-100000000D03*
X187900000Y-100000000D03*
%TD*%
%TO.C,R11*%
X65000000Y-100000000D03*
X66020000Y-100000000D03*
%TD*%
%TO.C,R2*%
X110000000Y-110000000D03*
X111020000Y-110000000D03*
%TD*%
D34*
%TO.C,U5*%
X90000000Y-105000000D03*
X90000000Y-105650000D03*
X90000000Y-106300000D03*
X90000000Y-106950000D03*
X94225000Y-106950000D03*
X94225000Y-106300000D03*
X94225000Y-105650000D03*
X94225000Y-105000000D03*
%TD*%
D16*
%TO.C,Q3*%
X70000000Y-109350000D03*
X70000000Y-110000000D03*
X70000000Y-110650000D03*
X71900000Y-110650000D03*
X71900000Y-110000000D03*
X71900000Y-109350000D03*
%TD*%
D13*
%TO.C,C6*%
X115000000Y-90000000D03*
X115960000Y-90000000D03*
%TD*%
D14*
%TO.C,R16*%
X80000000Y-115000000D03*
X81020000Y-115000000D03*
%TD*%
%TO.C,R26*%
X90000000Y-80000000D03*
X91020000Y-80000000D03*
%TD*%
%TO.C,R6*%
X115000000Y-110000000D03*
X116020000Y-110000000D03*
%TD*%
%TO.C,R10*%
X75000000Y-95000000D03*
X76020000Y-95000000D03*
%TD*%
D35*
%TO.C,D4*%
X105000000Y-65000000D03*
X109000000Y-65000000D03*
%TD*%
D14*
%TO.C,R7*%
X58980000Y-105000000D03*
X60000000Y-105000000D03*
%TD*%
D13*
%TO.C,C8*%
X109520000Y-85000000D03*
X110480000Y-85000000D03*
%TD*%
D36*
%TO.C,D1*%
X60000000Y-130000000D03*
X63300000Y-130000000D03*
%TD*%
D14*
%TO.C,R19*%
X129490000Y-85000000D03*
X130510000Y-85000000D03*
%TD*%
D13*
%TO.C,C10*%
X80000000Y-70000000D03*
X80960000Y-70000000D03*
%TD*%
D26*
%TO.C,D3*%
X174900000Y-100000000D03*
X177900000Y-100000000D03*
X177900000Y-101500000D03*
X174900000Y-101500000D03*
%TD*%
D14*
%TO.C,R1*%
X105000000Y-110000000D03*
X106020000Y-110000000D03*
%TD*%
D37*
%TO.C,U6*%
X80000000Y-80000000D03*
X80000000Y-80500000D03*
X80000000Y-81000000D03*
D38*
X80512500Y-81762500D03*
X81012500Y-81762500D03*
X81512500Y-81762500D03*
X82012500Y-81762500D03*
D37*
X82525000Y-81000000D03*
X82525000Y-80500000D03*
X82525000Y-80000000D03*
D38*
X82012500Y-79237500D03*
X81512500Y-79237500D03*
X81012500Y-79237500D03*
X80512500Y-79237500D03*
D39*
X81262500Y-80500000D03*
%TD*%
D14*
%TO.C,R3*%
X53980000Y-105000000D03*
X55000000Y-105000000D03*
%TD*%
%TO.C,R12*%
X70000000Y-100000000D03*
X71020000Y-100000000D03*
%TD*%
D13*
%TO.C,C1*%
X99040000Y-105000000D03*
X100000000Y-105000000D03*
%TD*%
D14*
%TO.C,R18*%
X124490000Y-85000000D03*
X125510000Y-85000000D03*
%TD*%
D40*
%TO.C,U1*%
X100000000Y-98100000D03*
X100000000Y-99050000D03*
X100000000Y-100000000D03*
X102275000Y-100000000D03*
X102275000Y-98100000D03*
%TD*%
D14*
%TO.C,R23*%
X70000000Y-75000000D03*
X71020000Y-75000000D03*
%TD*%
D13*
%TO.C,C11*%
X90000000Y-70000000D03*
X90960000Y-70000000D03*
%TD*%
D14*
%TO.C,R21*%
X140000000Y-85000000D03*
X141020000Y-85000000D03*
%TD*%
M02*
