%TF.GenerationSoftware,KiCad,Pcbnew,9.0.6*%
%TF.CreationDate,2026-04-14T00:22:13+02:00*%
%TF.ProjectId,USB Type C PD & Tester,55534220-5479-4706-9520-432050442026,rev?*%
%TF.SameCoordinates,Original*%
%TF.FileFunction,Legend,Top*%
%TF.FilePolarity,Positive*%
%FSLAX46Y46*%
G04 Gerber Fmt 4.6, Leading zero omitted, Abs format (unit mm)*
G04 Created by KiCad (PCBNEW 9.0.6) date 2026-04-14 00:22:13*
%MOMM*%
%LPD*%
G01*
G04 APERTURE LIST*
%ADD10C,0.150000*%
%ADD11C,0.120000*%
%ADD12C,0.100000*%
G04 APERTURE END LIST*
D10*
X88988095Y-84442319D02*
X88988095Y-85251842D01*
X88988095Y-85251842D02*
X89035714Y-85347080D01*
X89035714Y-85347080D02*
X89083333Y-85394700D01*
X89083333Y-85394700D02*
X89178571Y-85442319D01*
X89178571Y-85442319D02*
X89369047Y-85442319D01*
X89369047Y-85442319D02*
X89464285Y-85394700D01*
X89464285Y-85394700D02*
X89511904Y-85347080D01*
X89511904Y-85347080D02*
X89559523Y-85251842D01*
X89559523Y-85251842D02*
X89559523Y-84442319D01*
X89988095Y-84537557D02*
X90035714Y-84489938D01*
X90035714Y-84489938D02*
X90130952Y-84442319D01*
X90130952Y-84442319D02*
X90369047Y-84442319D01*
X90369047Y-84442319D02*
X90464285Y-84489938D01*
X90464285Y-84489938D02*
X90511904Y-84537557D01*
X90511904Y-84537557D02*
X90559523Y-84632795D01*
X90559523Y-84632795D02*
X90559523Y-84728033D01*
X90559523Y-84728033D02*
X90511904Y-84870890D01*
X90511904Y-84870890D02*
X89940476Y-85442319D01*
X89940476Y-85442319D02*
X90559523Y-85442319D01*
X104833333Y-93679580D02*
X104785714Y-93727200D01*
X104785714Y-93727200D02*
X104642857Y-93774819D01*
X104642857Y-93774819D02*
X104547619Y-93774819D01*
X104547619Y-93774819D02*
X104404762Y-93727200D01*
X104404762Y-93727200D02*
X104309524Y-93631961D01*
X104309524Y-93631961D02*
X104261905Y-93536723D01*
X104261905Y-93536723D02*
X104214286Y-93346247D01*
X104214286Y-93346247D02*
X104214286Y-93203390D01*
X104214286Y-93203390D02*
X104261905Y-93012914D01*
X104261905Y-93012914D02*
X104309524Y-92917676D01*
X104309524Y-92917676D02*
X104404762Y-92822438D01*
X104404762Y-92822438D02*
X104547619Y-92774819D01*
X104547619Y-92774819D02*
X104642857Y-92774819D01*
X104642857Y-92774819D02*
X104785714Y-92822438D01*
X104785714Y-92822438D02*
X104833333Y-92870057D01*
X105166667Y-92774819D02*
X105833333Y-92774819D01*
X105833333Y-92774819D02*
X105404762Y-93774819D01*
X110313333Y-89199580D02*
X110265714Y-89247200D01*
X110265714Y-89247200D02*
X110122857Y-89294819D01*
X110122857Y-89294819D02*
X110027619Y-89294819D01*
X110027619Y-89294819D02*
X109884762Y-89247200D01*
X109884762Y-89247200D02*
X109789524Y-89151961D01*
X109789524Y-89151961D02*
X109741905Y-89056723D01*
X109741905Y-89056723D02*
X109694286Y-88866247D01*
X109694286Y-88866247D02*
X109694286Y-88723390D01*
X109694286Y-88723390D02*
X109741905Y-88532914D01*
X109741905Y-88532914D02*
X109789524Y-88437676D01*
X109789524Y-88437676D02*
X109884762Y-88342438D01*
X109884762Y-88342438D02*
X110027619Y-88294819D01*
X110027619Y-88294819D02*
X110122857Y-88294819D01*
X110122857Y-88294819D02*
X110265714Y-88342438D01*
X110265714Y-88342438D02*
X110313333Y-88390057D01*
X111218095Y-88294819D02*
X110741905Y-88294819D01*
X110741905Y-88294819D02*
X110694286Y-88771009D01*
X110694286Y-88771009D02*
X110741905Y-88723390D01*
X110741905Y-88723390D02*
X110837143Y-88675771D01*
X110837143Y-88675771D02*
X111075238Y-88675771D01*
X111075238Y-88675771D02*
X111170476Y-88723390D01*
X111170476Y-88723390D02*
X111218095Y-88771009D01*
X111218095Y-88771009D02*
X111265714Y-88866247D01*
X111265714Y-88866247D02*
X111265714Y-89104342D01*
X111265714Y-89104342D02*
X111218095Y-89199580D01*
X111218095Y-89199580D02*
X111170476Y-89247200D01*
X111170476Y-89247200D02*
X111075238Y-89294819D01*
X111075238Y-89294819D02*
X110837143Y-89294819D01*
X110837143Y-89294819D02*
X110741905Y-89247200D01*
X110741905Y-89247200D02*
X110694286Y-89199580D01*
X74867142Y-74284819D02*
X74533809Y-73808628D01*
X74295714Y-74284819D02*
X74295714Y-73284819D01*
X74295714Y-73284819D02*
X74676666Y-73284819D01*
X74676666Y-73284819D02*
X74771904Y-73332438D01*
X74771904Y-73332438D02*
X74819523Y-73380057D01*
X74819523Y-73380057D02*
X74867142Y-73475295D01*
X74867142Y-73475295D02*
X74867142Y-73618152D01*
X74867142Y-73618152D02*
X74819523Y-73713390D01*
X74819523Y-73713390D02*
X74771904Y-73761009D01*
X74771904Y-73761009D02*
X74676666Y-73808628D01*
X74676666Y-73808628D02*
X74295714Y-73808628D01*
X75248095Y-73380057D02*
X75295714Y-73332438D01*
X75295714Y-73332438D02*
X75390952Y-73284819D01*
X75390952Y-73284819D02*
X75629047Y-73284819D01*
X75629047Y-73284819D02*
X75724285Y-73332438D01*
X75724285Y-73332438D02*
X75771904Y-73380057D01*
X75771904Y-73380057D02*
X75819523Y-73475295D01*
X75819523Y-73475295D02*
X75819523Y-73570533D01*
X75819523Y-73570533D02*
X75771904Y-73713390D01*
X75771904Y-73713390D02*
X75200476Y-74284819D01*
X75200476Y-74284819D02*
X75819523Y-74284819D01*
X76676666Y-73618152D02*
X76676666Y-74284819D01*
X76438571Y-73237200D02*
X76200476Y-73951485D01*
X76200476Y-73951485D02*
X76819523Y-73951485D01*
X95313333Y-84199580D02*
X95265714Y-84247200D01*
X95265714Y-84247200D02*
X95122857Y-84294819D01*
X95122857Y-84294819D02*
X95027619Y-84294819D01*
X95027619Y-84294819D02*
X94884762Y-84247200D01*
X94884762Y-84247200D02*
X94789524Y-84151961D01*
X94789524Y-84151961D02*
X94741905Y-84056723D01*
X94741905Y-84056723D02*
X94694286Y-83866247D01*
X94694286Y-83866247D02*
X94694286Y-83723390D01*
X94694286Y-83723390D02*
X94741905Y-83532914D01*
X94741905Y-83532914D02*
X94789524Y-83437676D01*
X94789524Y-83437676D02*
X94884762Y-83342438D01*
X94884762Y-83342438D02*
X95027619Y-83294819D01*
X95027619Y-83294819D02*
X95122857Y-83294819D01*
X95122857Y-83294819D02*
X95265714Y-83342438D01*
X95265714Y-83342438D02*
X95313333Y-83390057D01*
X95694286Y-83390057D02*
X95741905Y-83342438D01*
X95741905Y-83342438D02*
X95837143Y-83294819D01*
X95837143Y-83294819D02*
X96075238Y-83294819D01*
X96075238Y-83294819D02*
X96170476Y-83342438D01*
X96170476Y-83342438D02*
X96218095Y-83390057D01*
X96218095Y-83390057D02*
X96265714Y-83485295D01*
X96265714Y-83485295D02*
X96265714Y-83580533D01*
X96265714Y-83580533D02*
X96218095Y-83723390D01*
X96218095Y-83723390D02*
X95646667Y-84294819D01*
X95646667Y-84294819D02*
X96265714Y-84294819D01*
X128738095Y-127456819D02*
X129309523Y-127456819D01*
X129023809Y-128456819D02*
X129023809Y-127456819D01*
X129642857Y-128456819D02*
X129642857Y-127456819D01*
X129642857Y-127456819D02*
X130023809Y-127456819D01*
X130023809Y-127456819D02*
X130119047Y-127504438D01*
X130119047Y-127504438D02*
X130166666Y-127552057D01*
X130166666Y-127552057D02*
X130214285Y-127647295D01*
X130214285Y-127647295D02*
X130214285Y-127790152D01*
X130214285Y-127790152D02*
X130166666Y-127885390D01*
X130166666Y-127885390D02*
X130119047Y-127933009D01*
X130119047Y-127933009D02*
X130023809Y-127980628D01*
X130023809Y-127980628D02*
X129642857Y-127980628D01*
X130595238Y-127552057D02*
X130642857Y-127504438D01*
X130642857Y-127504438D02*
X130738095Y-127456819D01*
X130738095Y-127456819D02*
X130976190Y-127456819D01*
X130976190Y-127456819D02*
X131071428Y-127504438D01*
X131071428Y-127504438D02*
X131119047Y-127552057D01*
X131119047Y-127552057D02*
X131166666Y-127647295D01*
X131166666Y-127647295D02*
X131166666Y-127742533D01*
X131166666Y-127742533D02*
X131119047Y-127885390D01*
X131119047Y-127885390D02*
X130547619Y-128456819D01*
X130547619Y-128456819D02*
X131166666Y-128456819D01*
X138738095Y-127456819D02*
X139309523Y-127456819D01*
X139023809Y-128456819D02*
X139023809Y-127456819D01*
X139642857Y-128456819D02*
X139642857Y-127456819D01*
X139642857Y-127456819D02*
X140023809Y-127456819D01*
X140023809Y-127456819D02*
X140119047Y-127504438D01*
X140119047Y-127504438D02*
X140166666Y-127552057D01*
X140166666Y-127552057D02*
X140214285Y-127647295D01*
X140214285Y-127647295D02*
X140214285Y-127790152D01*
X140214285Y-127790152D02*
X140166666Y-127885390D01*
X140166666Y-127885390D02*
X140119047Y-127933009D01*
X140119047Y-127933009D02*
X140023809Y-127980628D01*
X140023809Y-127980628D02*
X139642857Y-127980628D01*
X140547619Y-127456819D02*
X141166666Y-127456819D01*
X141166666Y-127456819D02*
X140833333Y-127837771D01*
X140833333Y-127837771D02*
X140976190Y-127837771D01*
X140976190Y-127837771D02*
X141071428Y-127885390D01*
X141071428Y-127885390D02*
X141119047Y-127933009D01*
X141119047Y-127933009D02*
X141166666Y-128028247D01*
X141166666Y-128028247D02*
X141166666Y-128266342D01*
X141166666Y-128266342D02*
X141119047Y-128361580D01*
X141119047Y-128361580D02*
X141071428Y-128409200D01*
X141071428Y-128409200D02*
X140976190Y-128456819D01*
X140976190Y-128456819D02*
X140690476Y-128456819D01*
X140690476Y-128456819D02*
X140595238Y-128409200D01*
X140595238Y-128409200D02*
X140547619Y-128361580D01*
X60854761Y-108300057D02*
X60759523Y-108252438D01*
X60759523Y-108252438D02*
X60664285Y-108157200D01*
X60664285Y-108157200D02*
X60521428Y-108014342D01*
X60521428Y-108014342D02*
X60426190Y-107966723D01*
X60426190Y-107966723D02*
X60330952Y-107966723D01*
X60378571Y-108204819D02*
X60283333Y-108157200D01*
X60283333Y-108157200D02*
X60188095Y-108061961D01*
X60188095Y-108061961D02*
X60140476Y-107871485D01*
X60140476Y-107871485D02*
X60140476Y-107538152D01*
X60140476Y-107538152D02*
X60188095Y-107347676D01*
X60188095Y-107347676D02*
X60283333Y-107252438D01*
X60283333Y-107252438D02*
X60378571Y-107204819D01*
X60378571Y-107204819D02*
X60569047Y-107204819D01*
X60569047Y-107204819D02*
X60664285Y-107252438D01*
X60664285Y-107252438D02*
X60759523Y-107347676D01*
X60759523Y-107347676D02*
X60807142Y-107538152D01*
X60807142Y-107538152D02*
X60807142Y-107871485D01*
X60807142Y-107871485D02*
X60759523Y-108061961D01*
X60759523Y-108061961D02*
X60664285Y-108157200D01*
X60664285Y-108157200D02*
X60569047Y-108204819D01*
X60569047Y-108204819D02*
X60378571Y-108204819D01*
X61759523Y-108204819D02*
X61188095Y-108204819D01*
X61473809Y-108204819D02*
X61473809Y-107204819D01*
X61473809Y-107204819D02*
X61378571Y-107347676D01*
X61378571Y-107347676D02*
X61283333Y-107442914D01*
X61283333Y-107442914D02*
X61188095Y-107490533D01*
X64323333Y-94284819D02*
X63990000Y-93808628D01*
X63751905Y-94284819D02*
X63751905Y-93284819D01*
X63751905Y-93284819D02*
X64132857Y-93284819D01*
X64132857Y-93284819D02*
X64228095Y-93332438D01*
X64228095Y-93332438D02*
X64275714Y-93380057D01*
X64275714Y-93380057D02*
X64323333Y-93475295D01*
X64323333Y-93475295D02*
X64323333Y-93618152D01*
X64323333Y-93618152D02*
X64275714Y-93713390D01*
X64275714Y-93713390D02*
X64228095Y-93761009D01*
X64228095Y-93761009D02*
X64132857Y-93808628D01*
X64132857Y-93808628D02*
X63751905Y-93808628D01*
X64894762Y-93713390D02*
X64799524Y-93665771D01*
X64799524Y-93665771D02*
X64751905Y-93618152D01*
X64751905Y-93618152D02*
X64704286Y-93522914D01*
X64704286Y-93522914D02*
X64704286Y-93475295D01*
X64704286Y-93475295D02*
X64751905Y-93380057D01*
X64751905Y-93380057D02*
X64799524Y-93332438D01*
X64799524Y-93332438D02*
X64894762Y-93284819D01*
X64894762Y-93284819D02*
X65085238Y-93284819D01*
X65085238Y-93284819D02*
X65180476Y-93332438D01*
X65180476Y-93332438D02*
X65228095Y-93380057D01*
X65228095Y-93380057D02*
X65275714Y-93475295D01*
X65275714Y-93475295D02*
X65275714Y-93522914D01*
X65275714Y-93522914D02*
X65228095Y-93618152D01*
X65228095Y-93618152D02*
X65180476Y-93665771D01*
X65180476Y-93665771D02*
X65085238Y-93713390D01*
X65085238Y-93713390D02*
X64894762Y-93713390D01*
X64894762Y-93713390D02*
X64799524Y-93761009D01*
X64799524Y-93761009D02*
X64751905Y-93808628D01*
X64751905Y-93808628D02*
X64704286Y-93903866D01*
X64704286Y-93903866D02*
X64704286Y-94094342D01*
X64704286Y-94094342D02*
X64751905Y-94189580D01*
X64751905Y-94189580D02*
X64799524Y-94237200D01*
X64799524Y-94237200D02*
X64894762Y-94284819D01*
X64894762Y-94284819D02*
X65085238Y-94284819D01*
X65085238Y-94284819D02*
X65180476Y-94237200D01*
X65180476Y-94237200D02*
X65228095Y-94189580D01*
X65228095Y-94189580D02*
X65275714Y-94094342D01*
X65275714Y-94094342D02*
X65275714Y-93903866D01*
X65275714Y-93903866D02*
X65228095Y-93808628D01*
X65228095Y-93808628D02*
X65180476Y-93761009D01*
X65180476Y-93761009D02*
X65085238Y-93713390D01*
X79867142Y-99284819D02*
X79533809Y-98808628D01*
X79295714Y-99284819D02*
X79295714Y-98284819D01*
X79295714Y-98284819D02*
X79676666Y-98284819D01*
X79676666Y-98284819D02*
X79771904Y-98332438D01*
X79771904Y-98332438D02*
X79819523Y-98380057D01*
X79819523Y-98380057D02*
X79867142Y-98475295D01*
X79867142Y-98475295D02*
X79867142Y-98618152D01*
X79867142Y-98618152D02*
X79819523Y-98713390D01*
X79819523Y-98713390D02*
X79771904Y-98761009D01*
X79771904Y-98761009D02*
X79676666Y-98808628D01*
X79676666Y-98808628D02*
X79295714Y-98808628D01*
X80819523Y-99284819D02*
X80248095Y-99284819D01*
X80533809Y-99284819D02*
X80533809Y-98284819D01*
X80533809Y-98284819D02*
X80438571Y-98427676D01*
X80438571Y-98427676D02*
X80343333Y-98522914D01*
X80343333Y-98522914D02*
X80248095Y-98570533D01*
X81676666Y-98618152D02*
X81676666Y-99284819D01*
X81438571Y-98237200D02*
X81200476Y-98951485D01*
X81200476Y-98951485D02*
X81819523Y-98951485D01*
X168666667Y-117647200D02*
X168809524Y-117694819D01*
X168809524Y-117694819D02*
X169047619Y-117694819D01*
X169047619Y-117694819D02*
X169142857Y-117647200D01*
X169142857Y-117647200D02*
X169190476Y-117599580D01*
X169190476Y-117599580D02*
X169238095Y-117504342D01*
X169238095Y-117504342D02*
X169238095Y-117409104D01*
X169238095Y-117409104D02*
X169190476Y-117313866D01*
X169190476Y-117313866D02*
X169142857Y-117266247D01*
X169142857Y-117266247D02*
X169047619Y-117218628D01*
X169047619Y-117218628D02*
X168857143Y-117171009D01*
X168857143Y-117171009D02*
X168761905Y-117123390D01*
X168761905Y-117123390D02*
X168714286Y-117075771D01*
X168714286Y-117075771D02*
X168666667Y-116980533D01*
X168666667Y-116980533D02*
X168666667Y-116885295D01*
X168666667Y-116885295D02*
X168714286Y-116790057D01*
X168714286Y-116790057D02*
X168761905Y-116742438D01*
X168761905Y-116742438D02*
X168857143Y-116694819D01*
X168857143Y-116694819D02*
X169095238Y-116694819D01*
X169095238Y-116694819D02*
X169238095Y-116742438D01*
X169571429Y-116694819D02*
X169809524Y-117694819D01*
X169809524Y-117694819D02*
X170000000Y-116980533D01*
X170000000Y-116980533D02*
X170190476Y-117694819D01*
X170190476Y-117694819D02*
X170428572Y-116694819D01*
X171333333Y-117694819D02*
X170761905Y-117694819D01*
X171047619Y-117694819D02*
X171047619Y-116694819D01*
X171047619Y-116694819D02*
X170952381Y-116837676D01*
X170952381Y-116837676D02*
X170857143Y-116932914D01*
X170857143Y-116932914D02*
X170761905Y-116980533D01*
X55346666Y-77759819D02*
X55346666Y-78474104D01*
X55346666Y-78474104D02*
X55299047Y-78616961D01*
X55299047Y-78616961D02*
X55203809Y-78712200D01*
X55203809Y-78712200D02*
X55060952Y-78759819D01*
X55060952Y-78759819D02*
X54965714Y-78759819D01*
X55727619Y-77759819D02*
X56346666Y-77759819D01*
X56346666Y-77759819D02*
X56013333Y-78140771D01*
X56013333Y-78140771D02*
X56156190Y-78140771D01*
X56156190Y-78140771D02*
X56251428Y-78188390D01*
X56251428Y-78188390D02*
X56299047Y-78236009D01*
X56299047Y-78236009D02*
X56346666Y-78331247D01*
X56346666Y-78331247D02*
X56346666Y-78569342D01*
X56346666Y-78569342D02*
X56299047Y-78664580D01*
X56299047Y-78664580D02*
X56251428Y-78712200D01*
X56251428Y-78712200D02*
X56156190Y-78759819D01*
X56156190Y-78759819D02*
X55870476Y-78759819D01*
X55870476Y-78759819D02*
X55775238Y-78712200D01*
X55775238Y-78712200D02*
X55727619Y-78664580D01*
X133847142Y-84284819D02*
X133513809Y-83808628D01*
X133275714Y-84284819D02*
X133275714Y-83284819D01*
X133275714Y-83284819D02*
X133656666Y-83284819D01*
X133656666Y-83284819D02*
X133751904Y-83332438D01*
X133751904Y-83332438D02*
X133799523Y-83380057D01*
X133799523Y-83380057D02*
X133847142Y-83475295D01*
X133847142Y-83475295D02*
X133847142Y-83618152D01*
X133847142Y-83618152D02*
X133799523Y-83713390D01*
X133799523Y-83713390D02*
X133751904Y-83761009D01*
X133751904Y-83761009D02*
X133656666Y-83808628D01*
X133656666Y-83808628D02*
X133275714Y-83808628D01*
X134228095Y-83380057D02*
X134275714Y-83332438D01*
X134275714Y-83332438D02*
X134370952Y-83284819D01*
X134370952Y-83284819D02*
X134609047Y-83284819D01*
X134609047Y-83284819D02*
X134704285Y-83332438D01*
X134704285Y-83332438D02*
X134751904Y-83380057D01*
X134751904Y-83380057D02*
X134799523Y-83475295D01*
X134799523Y-83475295D02*
X134799523Y-83570533D01*
X134799523Y-83570533D02*
X134751904Y-83713390D01*
X134751904Y-83713390D02*
X134180476Y-84284819D01*
X134180476Y-84284819D02*
X134799523Y-84284819D01*
X135418571Y-83284819D02*
X135513809Y-83284819D01*
X135513809Y-83284819D02*
X135609047Y-83332438D01*
X135609047Y-83332438D02*
X135656666Y-83380057D01*
X135656666Y-83380057D02*
X135704285Y-83475295D01*
X135704285Y-83475295D02*
X135751904Y-83665771D01*
X135751904Y-83665771D02*
X135751904Y-83903866D01*
X135751904Y-83903866D02*
X135704285Y-84094342D01*
X135704285Y-84094342D02*
X135656666Y-84189580D01*
X135656666Y-84189580D02*
X135609047Y-84237200D01*
X135609047Y-84237200D02*
X135513809Y-84284819D01*
X135513809Y-84284819D02*
X135418571Y-84284819D01*
X135418571Y-84284819D02*
X135323333Y-84237200D01*
X135323333Y-84237200D02*
X135275714Y-84189580D01*
X135275714Y-84189580D02*
X135228095Y-84094342D01*
X135228095Y-84094342D02*
X135180476Y-83903866D01*
X135180476Y-83903866D02*
X135180476Y-83665771D01*
X135180476Y-83665771D02*
X135228095Y-83475295D01*
X135228095Y-83475295D02*
X135275714Y-83380057D01*
X135275714Y-83380057D02*
X135323333Y-83332438D01*
X135323333Y-83332438D02*
X135418571Y-83284819D01*
X144867142Y-84284819D02*
X144533809Y-83808628D01*
X144295714Y-84284819D02*
X144295714Y-83284819D01*
X144295714Y-83284819D02*
X144676666Y-83284819D01*
X144676666Y-83284819D02*
X144771904Y-83332438D01*
X144771904Y-83332438D02*
X144819523Y-83380057D01*
X144819523Y-83380057D02*
X144867142Y-83475295D01*
X144867142Y-83475295D02*
X144867142Y-83618152D01*
X144867142Y-83618152D02*
X144819523Y-83713390D01*
X144819523Y-83713390D02*
X144771904Y-83761009D01*
X144771904Y-83761009D02*
X144676666Y-83808628D01*
X144676666Y-83808628D02*
X144295714Y-83808628D01*
X145248095Y-83380057D02*
X145295714Y-83332438D01*
X145295714Y-83332438D02*
X145390952Y-83284819D01*
X145390952Y-83284819D02*
X145629047Y-83284819D01*
X145629047Y-83284819D02*
X145724285Y-83332438D01*
X145724285Y-83332438D02*
X145771904Y-83380057D01*
X145771904Y-83380057D02*
X145819523Y-83475295D01*
X145819523Y-83475295D02*
X145819523Y-83570533D01*
X145819523Y-83570533D02*
X145771904Y-83713390D01*
X145771904Y-83713390D02*
X145200476Y-84284819D01*
X145200476Y-84284819D02*
X145819523Y-84284819D01*
X146200476Y-83380057D02*
X146248095Y-83332438D01*
X146248095Y-83332438D02*
X146343333Y-83284819D01*
X146343333Y-83284819D02*
X146581428Y-83284819D01*
X146581428Y-83284819D02*
X146676666Y-83332438D01*
X146676666Y-83332438D02*
X146724285Y-83380057D01*
X146724285Y-83380057D02*
X146771904Y-83475295D01*
X146771904Y-83475295D02*
X146771904Y-83570533D01*
X146771904Y-83570533D02*
X146724285Y-83713390D01*
X146724285Y-83713390D02*
X146152857Y-84284819D01*
X146152857Y-84284819D02*
X146771904Y-84284819D01*
X197223333Y-99284819D02*
X196890000Y-98808628D01*
X196651905Y-99284819D02*
X196651905Y-98284819D01*
X196651905Y-98284819D02*
X197032857Y-98284819D01*
X197032857Y-98284819D02*
X197128095Y-98332438D01*
X197128095Y-98332438D02*
X197175714Y-98380057D01*
X197175714Y-98380057D02*
X197223333Y-98475295D01*
X197223333Y-98475295D02*
X197223333Y-98618152D01*
X197223333Y-98618152D02*
X197175714Y-98713390D01*
X197175714Y-98713390D02*
X197128095Y-98761009D01*
X197128095Y-98761009D02*
X197032857Y-98808628D01*
X197032857Y-98808628D02*
X196651905Y-98808628D01*
X198128095Y-98284819D02*
X197651905Y-98284819D01*
X197651905Y-98284819D02*
X197604286Y-98761009D01*
X197604286Y-98761009D02*
X197651905Y-98713390D01*
X197651905Y-98713390D02*
X197747143Y-98665771D01*
X197747143Y-98665771D02*
X197985238Y-98665771D01*
X197985238Y-98665771D02*
X198080476Y-98713390D01*
X198080476Y-98713390D02*
X198128095Y-98761009D01*
X198128095Y-98761009D02*
X198175714Y-98856247D01*
X198175714Y-98856247D02*
X198175714Y-99094342D01*
X198175714Y-99094342D02*
X198128095Y-99189580D01*
X198128095Y-99189580D02*
X198080476Y-99237200D01*
X198080476Y-99237200D02*
X197985238Y-99284819D01*
X197985238Y-99284819D02*
X197747143Y-99284819D01*
X197747143Y-99284819D02*
X197651905Y-99237200D01*
X197651905Y-99237200D02*
X197604286Y-99189580D01*
X70343333Y-94284819D02*
X70010000Y-93808628D01*
X69771905Y-94284819D02*
X69771905Y-93284819D01*
X69771905Y-93284819D02*
X70152857Y-93284819D01*
X70152857Y-93284819D02*
X70248095Y-93332438D01*
X70248095Y-93332438D02*
X70295714Y-93380057D01*
X70295714Y-93380057D02*
X70343333Y-93475295D01*
X70343333Y-93475295D02*
X70343333Y-93618152D01*
X70343333Y-93618152D02*
X70295714Y-93713390D01*
X70295714Y-93713390D02*
X70248095Y-93761009D01*
X70248095Y-93761009D02*
X70152857Y-93808628D01*
X70152857Y-93808628D02*
X69771905Y-93808628D01*
X70819524Y-94284819D02*
X71010000Y-94284819D01*
X71010000Y-94284819D02*
X71105238Y-94237200D01*
X71105238Y-94237200D02*
X71152857Y-94189580D01*
X71152857Y-94189580D02*
X71248095Y-94046723D01*
X71248095Y-94046723D02*
X71295714Y-93856247D01*
X71295714Y-93856247D02*
X71295714Y-93475295D01*
X71295714Y-93475295D02*
X71248095Y-93380057D01*
X71248095Y-93380057D02*
X71200476Y-93332438D01*
X71200476Y-93332438D02*
X71105238Y-93284819D01*
X71105238Y-93284819D02*
X70914762Y-93284819D01*
X70914762Y-93284819D02*
X70819524Y-93332438D01*
X70819524Y-93332438D02*
X70771905Y-93380057D01*
X70771905Y-93380057D02*
X70724286Y-93475295D01*
X70724286Y-93475295D02*
X70724286Y-93713390D01*
X70724286Y-93713390D02*
X70771905Y-93808628D01*
X70771905Y-93808628D02*
X70819524Y-93856247D01*
X70819524Y-93856247D02*
X70914762Y-93903866D01*
X70914762Y-93903866D02*
X71105238Y-93903866D01*
X71105238Y-93903866D02*
X71200476Y-93856247D01*
X71200476Y-93856247D02*
X71248095Y-93808628D01*
X71248095Y-93808628D02*
X71295714Y-93713390D01*
X69651666Y-128761009D02*
X69318333Y-128761009D01*
X69318333Y-129284819D02*
X69318333Y-128284819D01*
X69318333Y-128284819D02*
X69794523Y-128284819D01*
X70508809Y-128761009D02*
X70651666Y-128808628D01*
X70651666Y-128808628D02*
X70699285Y-128856247D01*
X70699285Y-128856247D02*
X70746904Y-128951485D01*
X70746904Y-128951485D02*
X70746904Y-129094342D01*
X70746904Y-129094342D02*
X70699285Y-129189580D01*
X70699285Y-129189580D02*
X70651666Y-129237200D01*
X70651666Y-129237200D02*
X70556428Y-129284819D01*
X70556428Y-129284819D02*
X70175476Y-129284819D01*
X70175476Y-129284819D02*
X70175476Y-128284819D01*
X70175476Y-128284819D02*
X70508809Y-128284819D01*
X70508809Y-128284819D02*
X70604047Y-128332438D01*
X70604047Y-128332438D02*
X70651666Y-128380057D01*
X70651666Y-128380057D02*
X70699285Y-128475295D01*
X70699285Y-128475295D02*
X70699285Y-128570533D01*
X70699285Y-128570533D02*
X70651666Y-128665771D01*
X70651666Y-128665771D02*
X70604047Y-128713390D01*
X70604047Y-128713390D02*
X70508809Y-128761009D01*
X70508809Y-128761009D02*
X70175476Y-128761009D01*
X71699285Y-129284819D02*
X71127857Y-129284819D01*
X71413571Y-129284819D02*
X71413571Y-128284819D01*
X71413571Y-128284819D02*
X71318333Y-128427676D01*
X71318333Y-128427676D02*
X71223095Y-128522914D01*
X71223095Y-128522914D02*
X71127857Y-128570533D01*
X79357142Y-129284819D02*
X79023809Y-128808628D01*
X78785714Y-129284819D02*
X78785714Y-128284819D01*
X78785714Y-128284819D02*
X79166666Y-128284819D01*
X79166666Y-128284819D02*
X79261904Y-128332438D01*
X79261904Y-128332438D02*
X79309523Y-128380057D01*
X79309523Y-128380057D02*
X79357142Y-128475295D01*
X79357142Y-128475295D02*
X79357142Y-128618152D01*
X79357142Y-128618152D02*
X79309523Y-128713390D01*
X79309523Y-128713390D02*
X79261904Y-128761009D01*
X79261904Y-128761009D02*
X79166666Y-128808628D01*
X79166666Y-128808628D02*
X78785714Y-128808628D01*
X79738095Y-128380057D02*
X79785714Y-128332438D01*
X79785714Y-128332438D02*
X79880952Y-128284819D01*
X79880952Y-128284819D02*
X80119047Y-128284819D01*
X80119047Y-128284819D02*
X80214285Y-128332438D01*
X80214285Y-128332438D02*
X80261904Y-128380057D01*
X80261904Y-128380057D02*
X80309523Y-128475295D01*
X80309523Y-128475295D02*
X80309523Y-128570533D01*
X80309523Y-128570533D02*
X80261904Y-128713390D01*
X80261904Y-128713390D02*
X79690476Y-129284819D01*
X79690476Y-129284819D02*
X80309523Y-129284819D01*
X80642857Y-128284819D02*
X81309523Y-128284819D01*
X81309523Y-128284819D02*
X80880952Y-129284819D01*
X104833333Y-84199580D02*
X104785714Y-84247200D01*
X104785714Y-84247200D02*
X104642857Y-84294819D01*
X104642857Y-84294819D02*
X104547619Y-84294819D01*
X104547619Y-84294819D02*
X104404762Y-84247200D01*
X104404762Y-84247200D02*
X104309524Y-84151961D01*
X104309524Y-84151961D02*
X104261905Y-84056723D01*
X104261905Y-84056723D02*
X104214286Y-83866247D01*
X104214286Y-83866247D02*
X104214286Y-83723390D01*
X104214286Y-83723390D02*
X104261905Y-83532914D01*
X104261905Y-83532914D02*
X104309524Y-83437676D01*
X104309524Y-83437676D02*
X104404762Y-83342438D01*
X104404762Y-83342438D02*
X104547619Y-83294819D01*
X104547619Y-83294819D02*
X104642857Y-83294819D01*
X104642857Y-83294819D02*
X104785714Y-83342438D01*
X104785714Y-83342438D02*
X104833333Y-83390057D01*
X105690476Y-83628152D02*
X105690476Y-84294819D01*
X105452381Y-83247200D02*
X105214286Y-83961485D01*
X105214286Y-83961485D02*
X105833333Y-83961485D01*
X100313333Y-84199580D02*
X100265714Y-84247200D01*
X100265714Y-84247200D02*
X100122857Y-84294819D01*
X100122857Y-84294819D02*
X100027619Y-84294819D01*
X100027619Y-84294819D02*
X99884762Y-84247200D01*
X99884762Y-84247200D02*
X99789524Y-84151961D01*
X99789524Y-84151961D02*
X99741905Y-84056723D01*
X99741905Y-84056723D02*
X99694286Y-83866247D01*
X99694286Y-83866247D02*
X99694286Y-83723390D01*
X99694286Y-83723390D02*
X99741905Y-83532914D01*
X99741905Y-83532914D02*
X99789524Y-83437676D01*
X99789524Y-83437676D02*
X99884762Y-83342438D01*
X99884762Y-83342438D02*
X100027619Y-83294819D01*
X100027619Y-83294819D02*
X100122857Y-83294819D01*
X100122857Y-83294819D02*
X100265714Y-83342438D01*
X100265714Y-83342438D02*
X100313333Y-83390057D01*
X100646667Y-83294819D02*
X101265714Y-83294819D01*
X101265714Y-83294819D02*
X100932381Y-83675771D01*
X100932381Y-83675771D02*
X101075238Y-83675771D01*
X101075238Y-83675771D02*
X101170476Y-83723390D01*
X101170476Y-83723390D02*
X101218095Y-83771009D01*
X101218095Y-83771009D02*
X101265714Y-83866247D01*
X101265714Y-83866247D02*
X101265714Y-84104342D01*
X101265714Y-84104342D02*
X101218095Y-84199580D01*
X101218095Y-84199580D02*
X101170476Y-84247200D01*
X101170476Y-84247200D02*
X101075238Y-84294819D01*
X101075238Y-84294819D02*
X100789524Y-84294819D01*
X100789524Y-84294819D02*
X100694286Y-84247200D01*
X100694286Y-84247200D02*
X100646667Y-84199580D01*
X126438095Y-61004819D02*
X126438095Y-61814342D01*
X126438095Y-61814342D02*
X126485714Y-61909580D01*
X126485714Y-61909580D02*
X126533333Y-61957200D01*
X126533333Y-61957200D02*
X126628571Y-62004819D01*
X126628571Y-62004819D02*
X126819047Y-62004819D01*
X126819047Y-62004819D02*
X126914285Y-61957200D01*
X126914285Y-61957200D02*
X126961904Y-61909580D01*
X126961904Y-61909580D02*
X127009523Y-61814342D01*
X127009523Y-61814342D02*
X127009523Y-61004819D01*
X127390476Y-61004819D02*
X128009523Y-61004819D01*
X128009523Y-61004819D02*
X127676190Y-61385771D01*
X127676190Y-61385771D02*
X127819047Y-61385771D01*
X127819047Y-61385771D02*
X127914285Y-61433390D01*
X127914285Y-61433390D02*
X127961904Y-61481009D01*
X127961904Y-61481009D02*
X128009523Y-61576247D01*
X128009523Y-61576247D02*
X128009523Y-61814342D01*
X128009523Y-61814342D02*
X127961904Y-61909580D01*
X127961904Y-61909580D02*
X127914285Y-61957200D01*
X127914285Y-61957200D02*
X127819047Y-62004819D01*
X127819047Y-62004819D02*
X127533333Y-62004819D01*
X127533333Y-62004819D02*
X127438095Y-61957200D01*
X127438095Y-61957200D02*
X127390476Y-61909580D01*
X75854761Y-108300057D02*
X75759523Y-108252438D01*
X75759523Y-108252438D02*
X75664285Y-108157200D01*
X75664285Y-108157200D02*
X75521428Y-108014342D01*
X75521428Y-108014342D02*
X75426190Y-107966723D01*
X75426190Y-107966723D02*
X75330952Y-107966723D01*
X75378571Y-108204819D02*
X75283333Y-108157200D01*
X75283333Y-108157200D02*
X75188095Y-108061961D01*
X75188095Y-108061961D02*
X75140476Y-107871485D01*
X75140476Y-107871485D02*
X75140476Y-107538152D01*
X75140476Y-107538152D02*
X75188095Y-107347676D01*
X75188095Y-107347676D02*
X75283333Y-107252438D01*
X75283333Y-107252438D02*
X75378571Y-107204819D01*
X75378571Y-107204819D02*
X75569047Y-107204819D01*
X75569047Y-107204819D02*
X75664285Y-107252438D01*
X75664285Y-107252438D02*
X75759523Y-107347676D01*
X75759523Y-107347676D02*
X75807142Y-107538152D01*
X75807142Y-107538152D02*
X75807142Y-107871485D01*
X75807142Y-107871485D02*
X75759523Y-108061961D01*
X75759523Y-108061961D02*
X75664285Y-108157200D01*
X75664285Y-108157200D02*
X75569047Y-108204819D01*
X75569047Y-108204819D02*
X75378571Y-108204819D01*
X76664285Y-107538152D02*
X76664285Y-108204819D01*
X76426190Y-107157200D02*
X76188095Y-107871485D01*
X76188095Y-107871485D02*
X76807142Y-107871485D01*
X117319642Y-62824819D02*
X116986309Y-62348628D01*
X116748214Y-62824819D02*
X116748214Y-61824819D01*
X116748214Y-61824819D02*
X117129166Y-61824819D01*
X117129166Y-61824819D02*
X117224404Y-61872438D01*
X117224404Y-61872438D02*
X117272023Y-61920057D01*
X117272023Y-61920057D02*
X117319642Y-62015295D01*
X117319642Y-62015295D02*
X117319642Y-62158152D01*
X117319642Y-62158152D02*
X117272023Y-62253390D01*
X117272023Y-62253390D02*
X117224404Y-62301009D01*
X117224404Y-62301009D02*
X117129166Y-62348628D01*
X117129166Y-62348628D02*
X116748214Y-62348628D01*
X117700595Y-61920057D02*
X117748214Y-61872438D01*
X117748214Y-61872438D02*
X117843452Y-61824819D01*
X117843452Y-61824819D02*
X118081547Y-61824819D01*
X118081547Y-61824819D02*
X118176785Y-61872438D01*
X118176785Y-61872438D02*
X118224404Y-61920057D01*
X118224404Y-61920057D02*
X118272023Y-62015295D01*
X118272023Y-62015295D02*
X118272023Y-62110533D01*
X118272023Y-62110533D02*
X118224404Y-62253390D01*
X118224404Y-62253390D02*
X117652976Y-62824819D01*
X117652976Y-62824819D02*
X118272023Y-62824819D01*
X118843452Y-62253390D02*
X118748214Y-62205771D01*
X118748214Y-62205771D02*
X118700595Y-62158152D01*
X118700595Y-62158152D02*
X118652976Y-62062914D01*
X118652976Y-62062914D02*
X118652976Y-62015295D01*
X118652976Y-62015295D02*
X118700595Y-61920057D01*
X118700595Y-61920057D02*
X118748214Y-61872438D01*
X118748214Y-61872438D02*
X118843452Y-61824819D01*
X118843452Y-61824819D02*
X119033928Y-61824819D01*
X119033928Y-61824819D02*
X119129166Y-61872438D01*
X119129166Y-61872438D02*
X119176785Y-61920057D01*
X119176785Y-61920057D02*
X119224404Y-62015295D01*
X119224404Y-62015295D02*
X119224404Y-62062914D01*
X119224404Y-62062914D02*
X119176785Y-62158152D01*
X119176785Y-62158152D02*
X119129166Y-62205771D01*
X119129166Y-62205771D02*
X119033928Y-62253390D01*
X119033928Y-62253390D02*
X118843452Y-62253390D01*
X118843452Y-62253390D02*
X118748214Y-62301009D01*
X118748214Y-62301009D02*
X118700595Y-62348628D01*
X118700595Y-62348628D02*
X118652976Y-62443866D01*
X118652976Y-62443866D02*
X118652976Y-62634342D01*
X118652976Y-62634342D02*
X118700595Y-62729580D01*
X118700595Y-62729580D02*
X118748214Y-62777200D01*
X118748214Y-62777200D02*
X118843452Y-62824819D01*
X118843452Y-62824819D02*
X119033928Y-62824819D01*
X119033928Y-62824819D02*
X119129166Y-62777200D01*
X119129166Y-62777200D02*
X119176785Y-62729580D01*
X119176785Y-62729580D02*
X119224404Y-62634342D01*
X119224404Y-62634342D02*
X119224404Y-62443866D01*
X119224404Y-62443866D02*
X119176785Y-62348628D01*
X119176785Y-62348628D02*
X119129166Y-62301009D01*
X119129166Y-62301009D02*
X119033928Y-62253390D01*
X118738095Y-127456819D02*
X119309523Y-127456819D01*
X119023809Y-128456819D02*
X119023809Y-127456819D01*
X119642857Y-128456819D02*
X119642857Y-127456819D01*
X119642857Y-127456819D02*
X120023809Y-127456819D01*
X120023809Y-127456819D02*
X120119047Y-127504438D01*
X120119047Y-127504438D02*
X120166666Y-127552057D01*
X120166666Y-127552057D02*
X120214285Y-127647295D01*
X120214285Y-127647295D02*
X120214285Y-127790152D01*
X120214285Y-127790152D02*
X120166666Y-127885390D01*
X120166666Y-127885390D02*
X120119047Y-127933009D01*
X120119047Y-127933009D02*
X120023809Y-127980628D01*
X120023809Y-127980628D02*
X119642857Y-127980628D01*
X121166666Y-128456819D02*
X120595238Y-128456819D01*
X120880952Y-128456819D02*
X120880952Y-127456819D01*
X120880952Y-127456819D02*
X120785714Y-127599676D01*
X120785714Y-127599676D02*
X120690476Y-127694914D01*
X120690476Y-127694914D02*
X120595238Y-127742533D01*
X139353333Y-64199580D02*
X139305714Y-64247200D01*
X139305714Y-64247200D02*
X139162857Y-64294819D01*
X139162857Y-64294819D02*
X139067619Y-64294819D01*
X139067619Y-64294819D02*
X138924762Y-64247200D01*
X138924762Y-64247200D02*
X138829524Y-64151961D01*
X138829524Y-64151961D02*
X138781905Y-64056723D01*
X138781905Y-64056723D02*
X138734286Y-63866247D01*
X138734286Y-63866247D02*
X138734286Y-63723390D01*
X138734286Y-63723390D02*
X138781905Y-63532914D01*
X138781905Y-63532914D02*
X138829524Y-63437676D01*
X138829524Y-63437676D02*
X138924762Y-63342438D01*
X138924762Y-63342438D02*
X139067619Y-63294819D01*
X139067619Y-63294819D02*
X139162857Y-63294819D01*
X139162857Y-63294819D02*
X139305714Y-63342438D01*
X139305714Y-63342438D02*
X139353333Y-63390057D01*
X139829524Y-64294819D02*
X140020000Y-64294819D01*
X140020000Y-64294819D02*
X140115238Y-64247200D01*
X140115238Y-64247200D02*
X140162857Y-64199580D01*
X140162857Y-64199580D02*
X140258095Y-64056723D01*
X140258095Y-64056723D02*
X140305714Y-63866247D01*
X140305714Y-63866247D02*
X140305714Y-63485295D01*
X140305714Y-63485295D02*
X140258095Y-63390057D01*
X140258095Y-63390057D02*
X140210476Y-63342438D01*
X140210476Y-63342438D02*
X140115238Y-63294819D01*
X140115238Y-63294819D02*
X139924762Y-63294819D01*
X139924762Y-63294819D02*
X139829524Y-63342438D01*
X139829524Y-63342438D02*
X139781905Y-63390057D01*
X139781905Y-63390057D02*
X139734286Y-63485295D01*
X139734286Y-63485295D02*
X139734286Y-63723390D01*
X139734286Y-63723390D02*
X139781905Y-63818628D01*
X139781905Y-63818628D02*
X139829524Y-63866247D01*
X139829524Y-63866247D02*
X139924762Y-63913866D01*
X139924762Y-63913866D02*
X140115238Y-63913866D01*
X140115238Y-63913866D02*
X140210476Y-63866247D01*
X140210476Y-63866247D02*
X140258095Y-63818628D01*
X140258095Y-63818628D02*
X140305714Y-63723390D01*
X74867142Y-99284819D02*
X74533809Y-98808628D01*
X74295714Y-99284819D02*
X74295714Y-98284819D01*
X74295714Y-98284819D02*
X74676666Y-98284819D01*
X74676666Y-98284819D02*
X74771904Y-98332438D01*
X74771904Y-98332438D02*
X74819523Y-98380057D01*
X74819523Y-98380057D02*
X74867142Y-98475295D01*
X74867142Y-98475295D02*
X74867142Y-98618152D01*
X74867142Y-98618152D02*
X74819523Y-98713390D01*
X74819523Y-98713390D02*
X74771904Y-98761009D01*
X74771904Y-98761009D02*
X74676666Y-98808628D01*
X74676666Y-98808628D02*
X74295714Y-98808628D01*
X75819523Y-99284819D02*
X75248095Y-99284819D01*
X75533809Y-99284819D02*
X75533809Y-98284819D01*
X75533809Y-98284819D02*
X75438571Y-98427676D01*
X75438571Y-98427676D02*
X75343333Y-98522914D01*
X75343333Y-98522914D02*
X75248095Y-98570533D01*
X76152857Y-98284819D02*
X76771904Y-98284819D01*
X76771904Y-98284819D02*
X76438571Y-98665771D01*
X76438571Y-98665771D02*
X76581428Y-98665771D01*
X76581428Y-98665771D02*
X76676666Y-98713390D01*
X76676666Y-98713390D02*
X76724285Y-98761009D01*
X76724285Y-98761009D02*
X76771904Y-98856247D01*
X76771904Y-98856247D02*
X76771904Y-99094342D01*
X76771904Y-99094342D02*
X76724285Y-99189580D01*
X76724285Y-99189580D02*
X76676666Y-99237200D01*
X76676666Y-99237200D02*
X76581428Y-99284819D01*
X76581428Y-99284819D02*
X76295714Y-99284819D01*
X76295714Y-99284819D02*
X76200476Y-99237200D01*
X76200476Y-99237200D02*
X76152857Y-99189580D01*
X165661905Y-98554819D02*
X165661905Y-97554819D01*
X165661905Y-97554819D02*
X165900000Y-97554819D01*
X165900000Y-97554819D02*
X166042857Y-97602438D01*
X166042857Y-97602438D02*
X166138095Y-97697676D01*
X166138095Y-97697676D02*
X166185714Y-97792914D01*
X166185714Y-97792914D02*
X166233333Y-97983390D01*
X166233333Y-97983390D02*
X166233333Y-98126247D01*
X166233333Y-98126247D02*
X166185714Y-98316723D01*
X166185714Y-98316723D02*
X166138095Y-98411961D01*
X166138095Y-98411961D02*
X166042857Y-98507200D01*
X166042857Y-98507200D02*
X165900000Y-98554819D01*
X165900000Y-98554819D02*
X165661905Y-98554819D01*
X166614286Y-97650057D02*
X166661905Y-97602438D01*
X166661905Y-97602438D02*
X166757143Y-97554819D01*
X166757143Y-97554819D02*
X166995238Y-97554819D01*
X166995238Y-97554819D02*
X167090476Y-97602438D01*
X167090476Y-97602438D02*
X167138095Y-97650057D01*
X167138095Y-97650057D02*
X167185714Y-97745295D01*
X167185714Y-97745295D02*
X167185714Y-97840533D01*
X167185714Y-97840533D02*
X167138095Y-97983390D01*
X167138095Y-97983390D02*
X166566667Y-98554819D01*
X166566667Y-98554819D02*
X167185714Y-98554819D01*
X51766666Y-120104819D02*
X51766666Y-120819104D01*
X51766666Y-120819104D02*
X51719047Y-120961961D01*
X51719047Y-120961961D02*
X51623809Y-121057200D01*
X51623809Y-121057200D02*
X51480952Y-121104819D01*
X51480952Y-121104819D02*
X51385714Y-121104819D01*
X52766666Y-121104819D02*
X52195238Y-121104819D01*
X52480952Y-121104819D02*
X52480952Y-120104819D01*
X52480952Y-120104819D02*
X52385714Y-120247676D01*
X52385714Y-120247676D02*
X52290476Y-120342914D01*
X52290476Y-120342914D02*
X52195238Y-120390533D01*
X104651666Y-88761009D02*
X104318333Y-88761009D01*
X104318333Y-89284819D02*
X104318333Y-88284819D01*
X104318333Y-88284819D02*
X104794523Y-88284819D01*
X105508809Y-88761009D02*
X105651666Y-88808628D01*
X105651666Y-88808628D02*
X105699285Y-88856247D01*
X105699285Y-88856247D02*
X105746904Y-88951485D01*
X105746904Y-88951485D02*
X105746904Y-89094342D01*
X105746904Y-89094342D02*
X105699285Y-89189580D01*
X105699285Y-89189580D02*
X105651666Y-89237200D01*
X105651666Y-89237200D02*
X105556428Y-89284819D01*
X105556428Y-89284819D02*
X105175476Y-89284819D01*
X105175476Y-89284819D02*
X105175476Y-88284819D01*
X105175476Y-88284819D02*
X105508809Y-88284819D01*
X105508809Y-88284819D02*
X105604047Y-88332438D01*
X105604047Y-88332438D02*
X105651666Y-88380057D01*
X105651666Y-88380057D02*
X105699285Y-88475295D01*
X105699285Y-88475295D02*
X105699285Y-88570533D01*
X105699285Y-88570533D02*
X105651666Y-88665771D01*
X105651666Y-88665771D02*
X105604047Y-88713390D01*
X105604047Y-88713390D02*
X105508809Y-88761009D01*
X105508809Y-88761009D02*
X105175476Y-88761009D01*
X106127857Y-88380057D02*
X106175476Y-88332438D01*
X106175476Y-88332438D02*
X106270714Y-88284819D01*
X106270714Y-88284819D02*
X106508809Y-88284819D01*
X106508809Y-88284819D02*
X106604047Y-88332438D01*
X106604047Y-88332438D02*
X106651666Y-88380057D01*
X106651666Y-88380057D02*
X106699285Y-88475295D01*
X106699285Y-88475295D02*
X106699285Y-88570533D01*
X106699285Y-88570533D02*
X106651666Y-88713390D01*
X106651666Y-88713390D02*
X106080238Y-89284819D01*
X106080238Y-89284819D02*
X106699285Y-89284819D01*
X84867142Y-114284819D02*
X84533809Y-113808628D01*
X84295714Y-114284819D02*
X84295714Y-113284819D01*
X84295714Y-113284819D02*
X84676666Y-113284819D01*
X84676666Y-113284819D02*
X84771904Y-113332438D01*
X84771904Y-113332438D02*
X84819523Y-113380057D01*
X84819523Y-113380057D02*
X84867142Y-113475295D01*
X84867142Y-113475295D02*
X84867142Y-113618152D01*
X84867142Y-113618152D02*
X84819523Y-113713390D01*
X84819523Y-113713390D02*
X84771904Y-113761009D01*
X84771904Y-113761009D02*
X84676666Y-113808628D01*
X84676666Y-113808628D02*
X84295714Y-113808628D01*
X85819523Y-114284819D02*
X85248095Y-114284819D01*
X85533809Y-114284819D02*
X85533809Y-113284819D01*
X85533809Y-113284819D02*
X85438571Y-113427676D01*
X85438571Y-113427676D02*
X85343333Y-113522914D01*
X85343333Y-113522914D02*
X85248095Y-113570533D01*
X86152857Y-113284819D02*
X86819523Y-113284819D01*
X86819523Y-113284819D02*
X86390952Y-114284819D01*
X65854761Y-108300057D02*
X65759523Y-108252438D01*
X65759523Y-108252438D02*
X65664285Y-108157200D01*
X65664285Y-108157200D02*
X65521428Y-108014342D01*
X65521428Y-108014342D02*
X65426190Y-107966723D01*
X65426190Y-107966723D02*
X65330952Y-107966723D01*
X65378571Y-108204819D02*
X65283333Y-108157200D01*
X65283333Y-108157200D02*
X65188095Y-108061961D01*
X65188095Y-108061961D02*
X65140476Y-107871485D01*
X65140476Y-107871485D02*
X65140476Y-107538152D01*
X65140476Y-107538152D02*
X65188095Y-107347676D01*
X65188095Y-107347676D02*
X65283333Y-107252438D01*
X65283333Y-107252438D02*
X65378571Y-107204819D01*
X65378571Y-107204819D02*
X65569047Y-107204819D01*
X65569047Y-107204819D02*
X65664285Y-107252438D01*
X65664285Y-107252438D02*
X65759523Y-107347676D01*
X65759523Y-107347676D02*
X65807142Y-107538152D01*
X65807142Y-107538152D02*
X65807142Y-107871485D01*
X65807142Y-107871485D02*
X65759523Y-108061961D01*
X65759523Y-108061961D02*
X65664285Y-108157200D01*
X65664285Y-108157200D02*
X65569047Y-108204819D01*
X65569047Y-108204819D02*
X65378571Y-108204819D01*
X66188095Y-107300057D02*
X66235714Y-107252438D01*
X66235714Y-107252438D02*
X66330952Y-107204819D01*
X66330952Y-107204819D02*
X66569047Y-107204819D01*
X66569047Y-107204819D02*
X66664285Y-107252438D01*
X66664285Y-107252438D02*
X66711904Y-107300057D01*
X66711904Y-107300057D02*
X66759523Y-107395295D01*
X66759523Y-107395295D02*
X66759523Y-107490533D01*
X66759523Y-107490533D02*
X66711904Y-107633390D01*
X66711904Y-107633390D02*
X66140476Y-108204819D01*
X66140476Y-108204819D02*
X66759523Y-108204819D01*
X79867142Y-94284819D02*
X79533809Y-93808628D01*
X79295714Y-94284819D02*
X79295714Y-93284819D01*
X79295714Y-93284819D02*
X79676666Y-93284819D01*
X79676666Y-93284819D02*
X79771904Y-93332438D01*
X79771904Y-93332438D02*
X79819523Y-93380057D01*
X79819523Y-93380057D02*
X79867142Y-93475295D01*
X79867142Y-93475295D02*
X79867142Y-93618152D01*
X79867142Y-93618152D02*
X79819523Y-93713390D01*
X79819523Y-93713390D02*
X79771904Y-93761009D01*
X79771904Y-93761009D02*
X79676666Y-93808628D01*
X79676666Y-93808628D02*
X79295714Y-93808628D01*
X80819523Y-94284819D02*
X80248095Y-94284819D01*
X80533809Y-94284819D02*
X80533809Y-93284819D01*
X80533809Y-93284819D02*
X80438571Y-93427676D01*
X80438571Y-93427676D02*
X80343333Y-93522914D01*
X80343333Y-93522914D02*
X80248095Y-93570533D01*
X81724285Y-93284819D02*
X81248095Y-93284819D01*
X81248095Y-93284819D02*
X81200476Y-93761009D01*
X81200476Y-93761009D02*
X81248095Y-93713390D01*
X81248095Y-93713390D02*
X81343333Y-93665771D01*
X81343333Y-93665771D02*
X81581428Y-93665771D01*
X81581428Y-93665771D02*
X81676666Y-93713390D01*
X81676666Y-93713390D02*
X81724285Y-93761009D01*
X81724285Y-93761009D02*
X81771904Y-93856247D01*
X81771904Y-93856247D02*
X81771904Y-94094342D01*
X81771904Y-94094342D02*
X81724285Y-94189580D01*
X81724285Y-94189580D02*
X81676666Y-94237200D01*
X81676666Y-94237200D02*
X81581428Y-94284819D01*
X81581428Y-94284819D02*
X81343333Y-94284819D01*
X81343333Y-94284819D02*
X81248095Y-94237200D01*
X81248095Y-94237200D02*
X81200476Y-94189580D01*
X186916666Y-64334819D02*
X186916666Y-65049104D01*
X186916666Y-65049104D02*
X186869047Y-65191961D01*
X186869047Y-65191961D02*
X186773809Y-65287200D01*
X186773809Y-65287200D02*
X186630952Y-65334819D01*
X186630952Y-65334819D02*
X186535714Y-65334819D01*
X187821428Y-64668152D02*
X187821428Y-65334819D01*
X187583333Y-64287200D02*
X187345238Y-65001485D01*
X187345238Y-65001485D02*
X187964285Y-65001485D01*
X187223333Y-99284819D02*
X186890000Y-98808628D01*
X186651905Y-99284819D02*
X186651905Y-98284819D01*
X186651905Y-98284819D02*
X187032857Y-98284819D01*
X187032857Y-98284819D02*
X187128095Y-98332438D01*
X187128095Y-98332438D02*
X187175714Y-98380057D01*
X187175714Y-98380057D02*
X187223333Y-98475295D01*
X187223333Y-98475295D02*
X187223333Y-98618152D01*
X187223333Y-98618152D02*
X187175714Y-98713390D01*
X187175714Y-98713390D02*
X187128095Y-98761009D01*
X187128095Y-98761009D02*
X187032857Y-98808628D01*
X187032857Y-98808628D02*
X186651905Y-98808628D01*
X188080476Y-98618152D02*
X188080476Y-99284819D01*
X187842381Y-98237200D02*
X187604286Y-98951485D01*
X187604286Y-98951485D02*
X188223333Y-98951485D01*
X64867142Y-99284819D02*
X64533809Y-98808628D01*
X64295714Y-99284819D02*
X64295714Y-98284819D01*
X64295714Y-98284819D02*
X64676666Y-98284819D01*
X64676666Y-98284819D02*
X64771904Y-98332438D01*
X64771904Y-98332438D02*
X64819523Y-98380057D01*
X64819523Y-98380057D02*
X64867142Y-98475295D01*
X64867142Y-98475295D02*
X64867142Y-98618152D01*
X64867142Y-98618152D02*
X64819523Y-98713390D01*
X64819523Y-98713390D02*
X64771904Y-98761009D01*
X64771904Y-98761009D02*
X64676666Y-98808628D01*
X64676666Y-98808628D02*
X64295714Y-98808628D01*
X65819523Y-99284819D02*
X65248095Y-99284819D01*
X65533809Y-99284819D02*
X65533809Y-98284819D01*
X65533809Y-98284819D02*
X65438571Y-98427676D01*
X65438571Y-98427676D02*
X65343333Y-98522914D01*
X65343333Y-98522914D02*
X65248095Y-98570533D01*
X66771904Y-99284819D02*
X66200476Y-99284819D01*
X66486190Y-99284819D02*
X66486190Y-98284819D01*
X66486190Y-98284819D02*
X66390952Y-98427676D01*
X66390952Y-98427676D02*
X66295714Y-98522914D01*
X66295714Y-98522914D02*
X66200476Y-98570533D01*
X110343333Y-109284819D02*
X110010000Y-108808628D01*
X109771905Y-109284819D02*
X109771905Y-108284819D01*
X109771905Y-108284819D02*
X110152857Y-108284819D01*
X110152857Y-108284819D02*
X110248095Y-108332438D01*
X110248095Y-108332438D02*
X110295714Y-108380057D01*
X110295714Y-108380057D02*
X110343333Y-108475295D01*
X110343333Y-108475295D02*
X110343333Y-108618152D01*
X110343333Y-108618152D02*
X110295714Y-108713390D01*
X110295714Y-108713390D02*
X110248095Y-108761009D01*
X110248095Y-108761009D02*
X110152857Y-108808628D01*
X110152857Y-108808628D02*
X109771905Y-108808628D01*
X110724286Y-108380057D02*
X110771905Y-108332438D01*
X110771905Y-108332438D02*
X110867143Y-108284819D01*
X110867143Y-108284819D02*
X111105238Y-108284819D01*
X111105238Y-108284819D02*
X111200476Y-108332438D01*
X111200476Y-108332438D02*
X111248095Y-108380057D01*
X111248095Y-108380057D02*
X111295714Y-108475295D01*
X111295714Y-108475295D02*
X111295714Y-108570533D01*
X111295714Y-108570533D02*
X111248095Y-108713390D01*
X111248095Y-108713390D02*
X110676667Y-109284819D01*
X110676667Y-109284819D02*
X111295714Y-109284819D01*
X91350595Y-102979819D02*
X91350595Y-103789342D01*
X91350595Y-103789342D02*
X91398214Y-103884580D01*
X91398214Y-103884580D02*
X91445833Y-103932200D01*
X91445833Y-103932200D02*
X91541071Y-103979819D01*
X91541071Y-103979819D02*
X91731547Y-103979819D01*
X91731547Y-103979819D02*
X91826785Y-103932200D01*
X91826785Y-103932200D02*
X91874404Y-103884580D01*
X91874404Y-103884580D02*
X91922023Y-103789342D01*
X91922023Y-103789342D02*
X91922023Y-102979819D01*
X92874404Y-102979819D02*
X92398214Y-102979819D01*
X92398214Y-102979819D02*
X92350595Y-103456009D01*
X92350595Y-103456009D02*
X92398214Y-103408390D01*
X92398214Y-103408390D02*
X92493452Y-103360771D01*
X92493452Y-103360771D02*
X92731547Y-103360771D01*
X92731547Y-103360771D02*
X92826785Y-103408390D01*
X92826785Y-103408390D02*
X92874404Y-103456009D01*
X92874404Y-103456009D02*
X92922023Y-103551247D01*
X92922023Y-103551247D02*
X92922023Y-103789342D01*
X92922023Y-103789342D02*
X92874404Y-103884580D01*
X92874404Y-103884580D02*
X92826785Y-103932200D01*
X92826785Y-103932200D02*
X92731547Y-103979819D01*
X92731547Y-103979819D02*
X92493452Y-103979819D01*
X92493452Y-103979819D02*
X92398214Y-103932200D01*
X92398214Y-103932200D02*
X92350595Y-103884580D01*
X70854761Y-108300057D02*
X70759523Y-108252438D01*
X70759523Y-108252438D02*
X70664285Y-108157200D01*
X70664285Y-108157200D02*
X70521428Y-108014342D01*
X70521428Y-108014342D02*
X70426190Y-107966723D01*
X70426190Y-107966723D02*
X70330952Y-107966723D01*
X70378571Y-108204819D02*
X70283333Y-108157200D01*
X70283333Y-108157200D02*
X70188095Y-108061961D01*
X70188095Y-108061961D02*
X70140476Y-107871485D01*
X70140476Y-107871485D02*
X70140476Y-107538152D01*
X70140476Y-107538152D02*
X70188095Y-107347676D01*
X70188095Y-107347676D02*
X70283333Y-107252438D01*
X70283333Y-107252438D02*
X70378571Y-107204819D01*
X70378571Y-107204819D02*
X70569047Y-107204819D01*
X70569047Y-107204819D02*
X70664285Y-107252438D01*
X70664285Y-107252438D02*
X70759523Y-107347676D01*
X70759523Y-107347676D02*
X70807142Y-107538152D01*
X70807142Y-107538152D02*
X70807142Y-107871485D01*
X70807142Y-107871485D02*
X70759523Y-108061961D01*
X70759523Y-108061961D02*
X70664285Y-108157200D01*
X70664285Y-108157200D02*
X70569047Y-108204819D01*
X70569047Y-108204819D02*
X70378571Y-108204819D01*
X71140476Y-107204819D02*
X71759523Y-107204819D01*
X71759523Y-107204819D02*
X71426190Y-107585771D01*
X71426190Y-107585771D02*
X71569047Y-107585771D01*
X71569047Y-107585771D02*
X71664285Y-107633390D01*
X71664285Y-107633390D02*
X71711904Y-107681009D01*
X71711904Y-107681009D02*
X71759523Y-107776247D01*
X71759523Y-107776247D02*
X71759523Y-108014342D01*
X71759523Y-108014342D02*
X71711904Y-108109580D01*
X71711904Y-108109580D02*
X71664285Y-108157200D01*
X71664285Y-108157200D02*
X71569047Y-108204819D01*
X71569047Y-108204819D02*
X71283333Y-108204819D01*
X71283333Y-108204819D02*
X71188095Y-108157200D01*
X71188095Y-108157200D02*
X71140476Y-108109580D01*
X115313333Y-89199580D02*
X115265714Y-89247200D01*
X115265714Y-89247200D02*
X115122857Y-89294819D01*
X115122857Y-89294819D02*
X115027619Y-89294819D01*
X115027619Y-89294819D02*
X114884762Y-89247200D01*
X114884762Y-89247200D02*
X114789524Y-89151961D01*
X114789524Y-89151961D02*
X114741905Y-89056723D01*
X114741905Y-89056723D02*
X114694286Y-88866247D01*
X114694286Y-88866247D02*
X114694286Y-88723390D01*
X114694286Y-88723390D02*
X114741905Y-88532914D01*
X114741905Y-88532914D02*
X114789524Y-88437676D01*
X114789524Y-88437676D02*
X114884762Y-88342438D01*
X114884762Y-88342438D02*
X115027619Y-88294819D01*
X115027619Y-88294819D02*
X115122857Y-88294819D01*
X115122857Y-88294819D02*
X115265714Y-88342438D01*
X115265714Y-88342438D02*
X115313333Y-88390057D01*
X116170476Y-88294819D02*
X115980000Y-88294819D01*
X115980000Y-88294819D02*
X115884762Y-88342438D01*
X115884762Y-88342438D02*
X115837143Y-88390057D01*
X115837143Y-88390057D02*
X115741905Y-88532914D01*
X115741905Y-88532914D02*
X115694286Y-88723390D01*
X115694286Y-88723390D02*
X115694286Y-89104342D01*
X115694286Y-89104342D02*
X115741905Y-89199580D01*
X115741905Y-89199580D02*
X115789524Y-89247200D01*
X115789524Y-89247200D02*
X115884762Y-89294819D01*
X115884762Y-89294819D02*
X116075238Y-89294819D01*
X116075238Y-89294819D02*
X116170476Y-89247200D01*
X116170476Y-89247200D02*
X116218095Y-89199580D01*
X116218095Y-89199580D02*
X116265714Y-89104342D01*
X116265714Y-89104342D02*
X116265714Y-88866247D01*
X116265714Y-88866247D02*
X116218095Y-88771009D01*
X116218095Y-88771009D02*
X116170476Y-88723390D01*
X116170476Y-88723390D02*
X116075238Y-88675771D01*
X116075238Y-88675771D02*
X115884762Y-88675771D01*
X115884762Y-88675771D02*
X115789524Y-88723390D01*
X115789524Y-88723390D02*
X115741905Y-88771009D01*
X115741905Y-88771009D02*
X115694286Y-88866247D01*
X79867142Y-114284819D02*
X79533809Y-113808628D01*
X79295714Y-114284819D02*
X79295714Y-113284819D01*
X79295714Y-113284819D02*
X79676666Y-113284819D01*
X79676666Y-113284819D02*
X79771904Y-113332438D01*
X79771904Y-113332438D02*
X79819523Y-113380057D01*
X79819523Y-113380057D02*
X79867142Y-113475295D01*
X79867142Y-113475295D02*
X79867142Y-113618152D01*
X79867142Y-113618152D02*
X79819523Y-113713390D01*
X79819523Y-113713390D02*
X79771904Y-113761009D01*
X79771904Y-113761009D02*
X79676666Y-113808628D01*
X79676666Y-113808628D02*
X79295714Y-113808628D01*
X80819523Y-114284819D02*
X80248095Y-114284819D01*
X80533809Y-114284819D02*
X80533809Y-113284819D01*
X80533809Y-113284819D02*
X80438571Y-113427676D01*
X80438571Y-113427676D02*
X80343333Y-113522914D01*
X80343333Y-113522914D02*
X80248095Y-113570533D01*
X81676666Y-113284819D02*
X81486190Y-113284819D01*
X81486190Y-113284819D02*
X81390952Y-113332438D01*
X81390952Y-113332438D02*
X81343333Y-113380057D01*
X81343333Y-113380057D02*
X81248095Y-113522914D01*
X81248095Y-113522914D02*
X81200476Y-113713390D01*
X81200476Y-113713390D02*
X81200476Y-114094342D01*
X81200476Y-114094342D02*
X81248095Y-114189580D01*
X81248095Y-114189580D02*
X81295714Y-114237200D01*
X81295714Y-114237200D02*
X81390952Y-114284819D01*
X81390952Y-114284819D02*
X81581428Y-114284819D01*
X81581428Y-114284819D02*
X81676666Y-114237200D01*
X81676666Y-114237200D02*
X81724285Y-114189580D01*
X81724285Y-114189580D02*
X81771904Y-114094342D01*
X81771904Y-114094342D02*
X81771904Y-113856247D01*
X81771904Y-113856247D02*
X81724285Y-113761009D01*
X81724285Y-113761009D02*
X81676666Y-113713390D01*
X81676666Y-113713390D02*
X81581428Y-113665771D01*
X81581428Y-113665771D02*
X81390952Y-113665771D01*
X81390952Y-113665771D02*
X81295714Y-113713390D01*
X81295714Y-113713390D02*
X81248095Y-113761009D01*
X81248095Y-113761009D02*
X81200476Y-113856247D01*
X89867142Y-79284819D02*
X89533809Y-78808628D01*
X89295714Y-79284819D02*
X89295714Y-78284819D01*
X89295714Y-78284819D02*
X89676666Y-78284819D01*
X89676666Y-78284819D02*
X89771904Y-78332438D01*
X89771904Y-78332438D02*
X89819523Y-78380057D01*
X89819523Y-78380057D02*
X89867142Y-78475295D01*
X89867142Y-78475295D02*
X89867142Y-78618152D01*
X89867142Y-78618152D02*
X89819523Y-78713390D01*
X89819523Y-78713390D02*
X89771904Y-78761009D01*
X89771904Y-78761009D02*
X89676666Y-78808628D01*
X89676666Y-78808628D02*
X89295714Y-78808628D01*
X90248095Y-78380057D02*
X90295714Y-78332438D01*
X90295714Y-78332438D02*
X90390952Y-78284819D01*
X90390952Y-78284819D02*
X90629047Y-78284819D01*
X90629047Y-78284819D02*
X90724285Y-78332438D01*
X90724285Y-78332438D02*
X90771904Y-78380057D01*
X90771904Y-78380057D02*
X90819523Y-78475295D01*
X90819523Y-78475295D02*
X90819523Y-78570533D01*
X90819523Y-78570533D02*
X90771904Y-78713390D01*
X90771904Y-78713390D02*
X90200476Y-79284819D01*
X90200476Y-79284819D02*
X90819523Y-79284819D01*
X91676666Y-78284819D02*
X91486190Y-78284819D01*
X91486190Y-78284819D02*
X91390952Y-78332438D01*
X91390952Y-78332438D02*
X91343333Y-78380057D01*
X91343333Y-78380057D02*
X91248095Y-78522914D01*
X91248095Y-78522914D02*
X91200476Y-78713390D01*
X91200476Y-78713390D02*
X91200476Y-79094342D01*
X91200476Y-79094342D02*
X91248095Y-79189580D01*
X91248095Y-79189580D02*
X91295714Y-79237200D01*
X91295714Y-79237200D02*
X91390952Y-79284819D01*
X91390952Y-79284819D02*
X91581428Y-79284819D01*
X91581428Y-79284819D02*
X91676666Y-79237200D01*
X91676666Y-79237200D02*
X91724285Y-79189580D01*
X91724285Y-79189580D02*
X91771904Y-79094342D01*
X91771904Y-79094342D02*
X91771904Y-78856247D01*
X91771904Y-78856247D02*
X91724285Y-78761009D01*
X91724285Y-78761009D02*
X91676666Y-78713390D01*
X91676666Y-78713390D02*
X91581428Y-78665771D01*
X91581428Y-78665771D02*
X91390952Y-78665771D01*
X91390952Y-78665771D02*
X91295714Y-78713390D01*
X91295714Y-78713390D02*
X91248095Y-78761009D01*
X91248095Y-78761009D02*
X91200476Y-78856247D01*
X115343333Y-109284819D02*
X115010000Y-108808628D01*
X114771905Y-109284819D02*
X114771905Y-108284819D01*
X114771905Y-108284819D02*
X115152857Y-108284819D01*
X115152857Y-108284819D02*
X115248095Y-108332438D01*
X115248095Y-108332438D02*
X115295714Y-108380057D01*
X115295714Y-108380057D02*
X115343333Y-108475295D01*
X115343333Y-108475295D02*
X115343333Y-108618152D01*
X115343333Y-108618152D02*
X115295714Y-108713390D01*
X115295714Y-108713390D02*
X115248095Y-108761009D01*
X115248095Y-108761009D02*
X115152857Y-108808628D01*
X115152857Y-108808628D02*
X114771905Y-108808628D01*
X116200476Y-108284819D02*
X116010000Y-108284819D01*
X116010000Y-108284819D02*
X115914762Y-108332438D01*
X115914762Y-108332438D02*
X115867143Y-108380057D01*
X115867143Y-108380057D02*
X115771905Y-108522914D01*
X115771905Y-108522914D02*
X115724286Y-108713390D01*
X115724286Y-108713390D02*
X115724286Y-109094342D01*
X115724286Y-109094342D02*
X115771905Y-109189580D01*
X115771905Y-109189580D02*
X115819524Y-109237200D01*
X115819524Y-109237200D02*
X115914762Y-109284819D01*
X115914762Y-109284819D02*
X116105238Y-109284819D01*
X116105238Y-109284819D02*
X116200476Y-109237200D01*
X116200476Y-109237200D02*
X116248095Y-109189580D01*
X116248095Y-109189580D02*
X116295714Y-109094342D01*
X116295714Y-109094342D02*
X116295714Y-108856247D01*
X116295714Y-108856247D02*
X116248095Y-108761009D01*
X116248095Y-108761009D02*
X116200476Y-108713390D01*
X116200476Y-108713390D02*
X116105238Y-108665771D01*
X116105238Y-108665771D02*
X115914762Y-108665771D01*
X115914762Y-108665771D02*
X115819524Y-108713390D01*
X115819524Y-108713390D02*
X115771905Y-108761009D01*
X115771905Y-108761009D02*
X115724286Y-108856247D01*
X74867142Y-94284819D02*
X74533809Y-93808628D01*
X74295714Y-94284819D02*
X74295714Y-93284819D01*
X74295714Y-93284819D02*
X74676666Y-93284819D01*
X74676666Y-93284819D02*
X74771904Y-93332438D01*
X74771904Y-93332438D02*
X74819523Y-93380057D01*
X74819523Y-93380057D02*
X74867142Y-93475295D01*
X74867142Y-93475295D02*
X74867142Y-93618152D01*
X74867142Y-93618152D02*
X74819523Y-93713390D01*
X74819523Y-93713390D02*
X74771904Y-93761009D01*
X74771904Y-93761009D02*
X74676666Y-93808628D01*
X74676666Y-93808628D02*
X74295714Y-93808628D01*
X75819523Y-94284819D02*
X75248095Y-94284819D01*
X75533809Y-94284819D02*
X75533809Y-93284819D01*
X75533809Y-93284819D02*
X75438571Y-93427676D01*
X75438571Y-93427676D02*
X75343333Y-93522914D01*
X75343333Y-93522914D02*
X75248095Y-93570533D01*
X76438571Y-93284819D02*
X76533809Y-93284819D01*
X76533809Y-93284819D02*
X76629047Y-93332438D01*
X76629047Y-93332438D02*
X76676666Y-93380057D01*
X76676666Y-93380057D02*
X76724285Y-93475295D01*
X76724285Y-93475295D02*
X76771904Y-93665771D01*
X76771904Y-93665771D02*
X76771904Y-93903866D01*
X76771904Y-93903866D02*
X76724285Y-94094342D01*
X76724285Y-94094342D02*
X76676666Y-94189580D01*
X76676666Y-94189580D02*
X76629047Y-94237200D01*
X76629047Y-94237200D02*
X76533809Y-94284819D01*
X76533809Y-94284819D02*
X76438571Y-94284819D01*
X76438571Y-94284819D02*
X76343333Y-94237200D01*
X76343333Y-94237200D02*
X76295714Y-94189580D01*
X76295714Y-94189580D02*
X76248095Y-94094342D01*
X76248095Y-94094342D02*
X76200476Y-93903866D01*
X76200476Y-93903866D02*
X76200476Y-93665771D01*
X76200476Y-93665771D02*
X76248095Y-93475295D01*
X76248095Y-93475295D02*
X76295714Y-93380057D01*
X76295714Y-93380057D02*
X76343333Y-93332438D01*
X76343333Y-93332438D02*
X76438571Y-93284819D01*
X106261905Y-62954819D02*
X106261905Y-61954819D01*
X106261905Y-61954819D02*
X106500000Y-61954819D01*
X106500000Y-61954819D02*
X106642857Y-62002438D01*
X106642857Y-62002438D02*
X106738095Y-62097676D01*
X106738095Y-62097676D02*
X106785714Y-62192914D01*
X106785714Y-62192914D02*
X106833333Y-62383390D01*
X106833333Y-62383390D02*
X106833333Y-62526247D01*
X106833333Y-62526247D02*
X106785714Y-62716723D01*
X106785714Y-62716723D02*
X106738095Y-62811961D01*
X106738095Y-62811961D02*
X106642857Y-62907200D01*
X106642857Y-62907200D02*
X106500000Y-62954819D01*
X106500000Y-62954819D02*
X106261905Y-62954819D01*
X107690476Y-62288152D02*
X107690476Y-62954819D01*
X107452381Y-61907200D02*
X107214286Y-62621485D01*
X107214286Y-62621485D02*
X107833333Y-62621485D01*
X59323333Y-104284819D02*
X58990000Y-103808628D01*
X58751905Y-104284819D02*
X58751905Y-103284819D01*
X58751905Y-103284819D02*
X59132857Y-103284819D01*
X59132857Y-103284819D02*
X59228095Y-103332438D01*
X59228095Y-103332438D02*
X59275714Y-103380057D01*
X59275714Y-103380057D02*
X59323333Y-103475295D01*
X59323333Y-103475295D02*
X59323333Y-103618152D01*
X59323333Y-103618152D02*
X59275714Y-103713390D01*
X59275714Y-103713390D02*
X59228095Y-103761009D01*
X59228095Y-103761009D02*
X59132857Y-103808628D01*
X59132857Y-103808628D02*
X58751905Y-103808628D01*
X59656667Y-103284819D02*
X60323333Y-103284819D01*
X60323333Y-103284819D02*
X59894762Y-104284819D01*
X109833333Y-84199580D02*
X109785714Y-84247200D01*
X109785714Y-84247200D02*
X109642857Y-84294819D01*
X109642857Y-84294819D02*
X109547619Y-84294819D01*
X109547619Y-84294819D02*
X109404762Y-84247200D01*
X109404762Y-84247200D02*
X109309524Y-84151961D01*
X109309524Y-84151961D02*
X109261905Y-84056723D01*
X109261905Y-84056723D02*
X109214286Y-83866247D01*
X109214286Y-83866247D02*
X109214286Y-83723390D01*
X109214286Y-83723390D02*
X109261905Y-83532914D01*
X109261905Y-83532914D02*
X109309524Y-83437676D01*
X109309524Y-83437676D02*
X109404762Y-83342438D01*
X109404762Y-83342438D02*
X109547619Y-83294819D01*
X109547619Y-83294819D02*
X109642857Y-83294819D01*
X109642857Y-83294819D02*
X109785714Y-83342438D01*
X109785714Y-83342438D02*
X109833333Y-83390057D01*
X110404762Y-83723390D02*
X110309524Y-83675771D01*
X110309524Y-83675771D02*
X110261905Y-83628152D01*
X110261905Y-83628152D02*
X110214286Y-83532914D01*
X110214286Y-83532914D02*
X110214286Y-83485295D01*
X110214286Y-83485295D02*
X110261905Y-83390057D01*
X110261905Y-83390057D02*
X110309524Y-83342438D01*
X110309524Y-83342438D02*
X110404762Y-83294819D01*
X110404762Y-83294819D02*
X110595238Y-83294819D01*
X110595238Y-83294819D02*
X110690476Y-83342438D01*
X110690476Y-83342438D02*
X110738095Y-83390057D01*
X110738095Y-83390057D02*
X110785714Y-83485295D01*
X110785714Y-83485295D02*
X110785714Y-83532914D01*
X110785714Y-83532914D02*
X110738095Y-83628152D01*
X110738095Y-83628152D02*
X110690476Y-83675771D01*
X110690476Y-83675771D02*
X110595238Y-83723390D01*
X110595238Y-83723390D02*
X110404762Y-83723390D01*
X110404762Y-83723390D02*
X110309524Y-83771009D01*
X110309524Y-83771009D02*
X110261905Y-83818628D01*
X110261905Y-83818628D02*
X110214286Y-83913866D01*
X110214286Y-83913866D02*
X110214286Y-84104342D01*
X110214286Y-84104342D02*
X110261905Y-84199580D01*
X110261905Y-84199580D02*
X110309524Y-84247200D01*
X110309524Y-84247200D02*
X110404762Y-84294819D01*
X110404762Y-84294819D02*
X110595238Y-84294819D01*
X110595238Y-84294819D02*
X110690476Y-84247200D01*
X110690476Y-84247200D02*
X110738095Y-84199580D01*
X110738095Y-84199580D02*
X110785714Y-84104342D01*
X110785714Y-84104342D02*
X110785714Y-83913866D01*
X110785714Y-83913866D02*
X110738095Y-83818628D01*
X110738095Y-83818628D02*
X110690476Y-83771009D01*
X110690476Y-83771009D02*
X110595238Y-83723390D01*
X60911905Y-128454819D02*
X60911905Y-127454819D01*
X60911905Y-127454819D02*
X61150000Y-127454819D01*
X61150000Y-127454819D02*
X61292857Y-127502438D01*
X61292857Y-127502438D02*
X61388095Y-127597676D01*
X61388095Y-127597676D02*
X61435714Y-127692914D01*
X61435714Y-127692914D02*
X61483333Y-127883390D01*
X61483333Y-127883390D02*
X61483333Y-128026247D01*
X61483333Y-128026247D02*
X61435714Y-128216723D01*
X61435714Y-128216723D02*
X61388095Y-128311961D01*
X61388095Y-128311961D02*
X61292857Y-128407200D01*
X61292857Y-128407200D02*
X61150000Y-128454819D01*
X61150000Y-128454819D02*
X60911905Y-128454819D01*
X62435714Y-128454819D02*
X61864286Y-128454819D01*
X62150000Y-128454819D02*
X62150000Y-127454819D01*
X62150000Y-127454819D02*
X62054762Y-127597676D01*
X62054762Y-127597676D02*
X61959524Y-127692914D01*
X61959524Y-127692914D02*
X61864286Y-127740533D01*
X129357142Y-84284819D02*
X129023809Y-83808628D01*
X128785714Y-84284819D02*
X128785714Y-83284819D01*
X128785714Y-83284819D02*
X129166666Y-83284819D01*
X129166666Y-83284819D02*
X129261904Y-83332438D01*
X129261904Y-83332438D02*
X129309523Y-83380057D01*
X129309523Y-83380057D02*
X129357142Y-83475295D01*
X129357142Y-83475295D02*
X129357142Y-83618152D01*
X129357142Y-83618152D02*
X129309523Y-83713390D01*
X129309523Y-83713390D02*
X129261904Y-83761009D01*
X129261904Y-83761009D02*
X129166666Y-83808628D01*
X129166666Y-83808628D02*
X128785714Y-83808628D01*
X130309523Y-84284819D02*
X129738095Y-84284819D01*
X130023809Y-84284819D02*
X130023809Y-83284819D01*
X130023809Y-83284819D02*
X129928571Y-83427676D01*
X129928571Y-83427676D02*
X129833333Y-83522914D01*
X129833333Y-83522914D02*
X129738095Y-83570533D01*
X130785714Y-84284819D02*
X130976190Y-84284819D01*
X130976190Y-84284819D02*
X131071428Y-84237200D01*
X131071428Y-84237200D02*
X131119047Y-84189580D01*
X131119047Y-84189580D02*
X131214285Y-84046723D01*
X131214285Y-84046723D02*
X131261904Y-83856247D01*
X131261904Y-83856247D02*
X131261904Y-83475295D01*
X131261904Y-83475295D02*
X131214285Y-83380057D01*
X131214285Y-83380057D02*
X131166666Y-83332438D01*
X131166666Y-83332438D02*
X131071428Y-83284819D01*
X131071428Y-83284819D02*
X130880952Y-83284819D01*
X130880952Y-83284819D02*
X130785714Y-83332438D01*
X130785714Y-83332438D02*
X130738095Y-83380057D01*
X130738095Y-83380057D02*
X130690476Y-83475295D01*
X130690476Y-83475295D02*
X130690476Y-83713390D01*
X130690476Y-83713390D02*
X130738095Y-83808628D01*
X130738095Y-83808628D02*
X130785714Y-83856247D01*
X130785714Y-83856247D02*
X130880952Y-83903866D01*
X130880952Y-83903866D02*
X131071428Y-83903866D01*
X131071428Y-83903866D02*
X131166666Y-83856247D01*
X131166666Y-83856247D02*
X131214285Y-83808628D01*
X131214285Y-83808628D02*
X131261904Y-83713390D01*
X79837142Y-69199580D02*
X79789523Y-69247200D01*
X79789523Y-69247200D02*
X79646666Y-69294819D01*
X79646666Y-69294819D02*
X79551428Y-69294819D01*
X79551428Y-69294819D02*
X79408571Y-69247200D01*
X79408571Y-69247200D02*
X79313333Y-69151961D01*
X79313333Y-69151961D02*
X79265714Y-69056723D01*
X79265714Y-69056723D02*
X79218095Y-68866247D01*
X79218095Y-68866247D02*
X79218095Y-68723390D01*
X79218095Y-68723390D02*
X79265714Y-68532914D01*
X79265714Y-68532914D02*
X79313333Y-68437676D01*
X79313333Y-68437676D02*
X79408571Y-68342438D01*
X79408571Y-68342438D02*
X79551428Y-68294819D01*
X79551428Y-68294819D02*
X79646666Y-68294819D01*
X79646666Y-68294819D02*
X79789523Y-68342438D01*
X79789523Y-68342438D02*
X79837142Y-68390057D01*
X80789523Y-69294819D02*
X80218095Y-69294819D01*
X80503809Y-69294819D02*
X80503809Y-68294819D01*
X80503809Y-68294819D02*
X80408571Y-68437676D01*
X80408571Y-68437676D02*
X80313333Y-68532914D01*
X80313333Y-68532914D02*
X80218095Y-68580533D01*
X81408571Y-68294819D02*
X81503809Y-68294819D01*
X81503809Y-68294819D02*
X81599047Y-68342438D01*
X81599047Y-68342438D02*
X81646666Y-68390057D01*
X81646666Y-68390057D02*
X81694285Y-68485295D01*
X81694285Y-68485295D02*
X81741904Y-68675771D01*
X81741904Y-68675771D02*
X81741904Y-68913866D01*
X81741904Y-68913866D02*
X81694285Y-69104342D01*
X81694285Y-69104342D02*
X81646666Y-69199580D01*
X81646666Y-69199580D02*
X81599047Y-69247200D01*
X81599047Y-69247200D02*
X81503809Y-69294819D01*
X81503809Y-69294819D02*
X81408571Y-69294819D01*
X81408571Y-69294819D02*
X81313333Y-69247200D01*
X81313333Y-69247200D02*
X81265714Y-69199580D01*
X81265714Y-69199580D02*
X81218095Y-69104342D01*
X81218095Y-69104342D02*
X81170476Y-68913866D01*
X81170476Y-68913866D02*
X81170476Y-68675771D01*
X81170476Y-68675771D02*
X81218095Y-68485295D01*
X81218095Y-68485295D02*
X81265714Y-68390057D01*
X81265714Y-68390057D02*
X81313333Y-68342438D01*
X81313333Y-68342438D02*
X81408571Y-68294819D01*
X175661905Y-98554819D02*
X175661905Y-97554819D01*
X175661905Y-97554819D02*
X175900000Y-97554819D01*
X175900000Y-97554819D02*
X176042857Y-97602438D01*
X176042857Y-97602438D02*
X176138095Y-97697676D01*
X176138095Y-97697676D02*
X176185714Y-97792914D01*
X176185714Y-97792914D02*
X176233333Y-97983390D01*
X176233333Y-97983390D02*
X176233333Y-98126247D01*
X176233333Y-98126247D02*
X176185714Y-98316723D01*
X176185714Y-98316723D02*
X176138095Y-98411961D01*
X176138095Y-98411961D02*
X176042857Y-98507200D01*
X176042857Y-98507200D02*
X175900000Y-98554819D01*
X175900000Y-98554819D02*
X175661905Y-98554819D01*
X176566667Y-97554819D02*
X177185714Y-97554819D01*
X177185714Y-97554819D02*
X176852381Y-97935771D01*
X176852381Y-97935771D02*
X176995238Y-97935771D01*
X176995238Y-97935771D02*
X177090476Y-97983390D01*
X177090476Y-97983390D02*
X177138095Y-98031009D01*
X177138095Y-98031009D02*
X177185714Y-98126247D01*
X177185714Y-98126247D02*
X177185714Y-98364342D01*
X177185714Y-98364342D02*
X177138095Y-98459580D01*
X177138095Y-98459580D02*
X177090476Y-98507200D01*
X177090476Y-98507200D02*
X176995238Y-98554819D01*
X176995238Y-98554819D02*
X176709524Y-98554819D01*
X176709524Y-98554819D02*
X176614286Y-98507200D01*
X176614286Y-98507200D02*
X176566667Y-98459580D01*
X105343333Y-109284819D02*
X105010000Y-108808628D01*
X104771905Y-109284819D02*
X104771905Y-108284819D01*
X104771905Y-108284819D02*
X105152857Y-108284819D01*
X105152857Y-108284819D02*
X105248095Y-108332438D01*
X105248095Y-108332438D02*
X105295714Y-108380057D01*
X105295714Y-108380057D02*
X105343333Y-108475295D01*
X105343333Y-108475295D02*
X105343333Y-108618152D01*
X105343333Y-108618152D02*
X105295714Y-108713390D01*
X105295714Y-108713390D02*
X105248095Y-108761009D01*
X105248095Y-108761009D02*
X105152857Y-108808628D01*
X105152857Y-108808628D02*
X104771905Y-108808628D01*
X106295714Y-109284819D02*
X105724286Y-109284819D01*
X106010000Y-109284819D02*
X106010000Y-108284819D01*
X106010000Y-108284819D02*
X105914762Y-108427676D01*
X105914762Y-108427676D02*
X105819524Y-108522914D01*
X105819524Y-108522914D02*
X105724286Y-108570533D01*
X80500595Y-77404819D02*
X80500595Y-78214342D01*
X80500595Y-78214342D02*
X80548214Y-78309580D01*
X80548214Y-78309580D02*
X80595833Y-78357200D01*
X80595833Y-78357200D02*
X80691071Y-78404819D01*
X80691071Y-78404819D02*
X80881547Y-78404819D01*
X80881547Y-78404819D02*
X80976785Y-78357200D01*
X80976785Y-78357200D02*
X81024404Y-78309580D01*
X81024404Y-78309580D02*
X81072023Y-78214342D01*
X81072023Y-78214342D02*
X81072023Y-77404819D01*
X81976785Y-77404819D02*
X81786309Y-77404819D01*
X81786309Y-77404819D02*
X81691071Y-77452438D01*
X81691071Y-77452438D02*
X81643452Y-77500057D01*
X81643452Y-77500057D02*
X81548214Y-77642914D01*
X81548214Y-77642914D02*
X81500595Y-77833390D01*
X81500595Y-77833390D02*
X81500595Y-78214342D01*
X81500595Y-78214342D02*
X81548214Y-78309580D01*
X81548214Y-78309580D02*
X81595833Y-78357200D01*
X81595833Y-78357200D02*
X81691071Y-78404819D01*
X81691071Y-78404819D02*
X81881547Y-78404819D01*
X81881547Y-78404819D02*
X81976785Y-78357200D01*
X81976785Y-78357200D02*
X82024404Y-78309580D01*
X82024404Y-78309580D02*
X82072023Y-78214342D01*
X82072023Y-78214342D02*
X82072023Y-77976247D01*
X82072023Y-77976247D02*
X82024404Y-77881009D01*
X82024404Y-77881009D02*
X81976785Y-77833390D01*
X81976785Y-77833390D02*
X81881547Y-77785771D01*
X81881547Y-77785771D02*
X81691071Y-77785771D01*
X81691071Y-77785771D02*
X81595833Y-77833390D01*
X81595833Y-77833390D02*
X81548214Y-77881009D01*
X81548214Y-77881009D02*
X81500595Y-77976247D01*
X54323333Y-104284819D02*
X53990000Y-103808628D01*
X53751905Y-104284819D02*
X53751905Y-103284819D01*
X53751905Y-103284819D02*
X54132857Y-103284819D01*
X54132857Y-103284819D02*
X54228095Y-103332438D01*
X54228095Y-103332438D02*
X54275714Y-103380057D01*
X54275714Y-103380057D02*
X54323333Y-103475295D01*
X54323333Y-103475295D02*
X54323333Y-103618152D01*
X54323333Y-103618152D02*
X54275714Y-103713390D01*
X54275714Y-103713390D02*
X54228095Y-103761009D01*
X54228095Y-103761009D02*
X54132857Y-103808628D01*
X54132857Y-103808628D02*
X53751905Y-103808628D01*
X54656667Y-103284819D02*
X55275714Y-103284819D01*
X55275714Y-103284819D02*
X54942381Y-103665771D01*
X54942381Y-103665771D02*
X55085238Y-103665771D01*
X55085238Y-103665771D02*
X55180476Y-103713390D01*
X55180476Y-103713390D02*
X55228095Y-103761009D01*
X55228095Y-103761009D02*
X55275714Y-103856247D01*
X55275714Y-103856247D02*
X55275714Y-104094342D01*
X55275714Y-104094342D02*
X55228095Y-104189580D01*
X55228095Y-104189580D02*
X55180476Y-104237200D01*
X55180476Y-104237200D02*
X55085238Y-104284819D01*
X55085238Y-104284819D02*
X54799524Y-104284819D01*
X54799524Y-104284819D02*
X54704286Y-104237200D01*
X54704286Y-104237200D02*
X54656667Y-104189580D01*
X69867142Y-99284819D02*
X69533809Y-98808628D01*
X69295714Y-99284819D02*
X69295714Y-98284819D01*
X69295714Y-98284819D02*
X69676666Y-98284819D01*
X69676666Y-98284819D02*
X69771904Y-98332438D01*
X69771904Y-98332438D02*
X69819523Y-98380057D01*
X69819523Y-98380057D02*
X69867142Y-98475295D01*
X69867142Y-98475295D02*
X69867142Y-98618152D01*
X69867142Y-98618152D02*
X69819523Y-98713390D01*
X69819523Y-98713390D02*
X69771904Y-98761009D01*
X69771904Y-98761009D02*
X69676666Y-98808628D01*
X69676666Y-98808628D02*
X69295714Y-98808628D01*
X70819523Y-99284819D02*
X70248095Y-99284819D01*
X70533809Y-99284819D02*
X70533809Y-98284819D01*
X70533809Y-98284819D02*
X70438571Y-98427676D01*
X70438571Y-98427676D02*
X70343333Y-98522914D01*
X70343333Y-98522914D02*
X70248095Y-98570533D01*
X71200476Y-98380057D02*
X71248095Y-98332438D01*
X71248095Y-98332438D02*
X71343333Y-98284819D01*
X71343333Y-98284819D02*
X71581428Y-98284819D01*
X71581428Y-98284819D02*
X71676666Y-98332438D01*
X71676666Y-98332438D02*
X71724285Y-98380057D01*
X71724285Y-98380057D02*
X71771904Y-98475295D01*
X71771904Y-98475295D02*
X71771904Y-98570533D01*
X71771904Y-98570533D02*
X71724285Y-98713390D01*
X71724285Y-98713390D02*
X71152857Y-99284819D01*
X71152857Y-99284819D02*
X71771904Y-99284819D01*
X99353333Y-104199580D02*
X99305714Y-104247200D01*
X99305714Y-104247200D02*
X99162857Y-104294819D01*
X99162857Y-104294819D02*
X99067619Y-104294819D01*
X99067619Y-104294819D02*
X98924762Y-104247200D01*
X98924762Y-104247200D02*
X98829524Y-104151961D01*
X98829524Y-104151961D02*
X98781905Y-104056723D01*
X98781905Y-104056723D02*
X98734286Y-103866247D01*
X98734286Y-103866247D02*
X98734286Y-103723390D01*
X98734286Y-103723390D02*
X98781905Y-103532914D01*
X98781905Y-103532914D02*
X98829524Y-103437676D01*
X98829524Y-103437676D02*
X98924762Y-103342438D01*
X98924762Y-103342438D02*
X99067619Y-103294819D01*
X99067619Y-103294819D02*
X99162857Y-103294819D01*
X99162857Y-103294819D02*
X99305714Y-103342438D01*
X99305714Y-103342438D02*
X99353333Y-103390057D01*
X100305714Y-104294819D02*
X99734286Y-104294819D01*
X100020000Y-104294819D02*
X100020000Y-103294819D01*
X100020000Y-103294819D02*
X99924762Y-103437676D01*
X99924762Y-103437676D02*
X99829524Y-103532914D01*
X99829524Y-103532914D02*
X99734286Y-103580533D01*
X124357142Y-84284819D02*
X124023809Y-83808628D01*
X123785714Y-84284819D02*
X123785714Y-83284819D01*
X123785714Y-83284819D02*
X124166666Y-83284819D01*
X124166666Y-83284819D02*
X124261904Y-83332438D01*
X124261904Y-83332438D02*
X124309523Y-83380057D01*
X124309523Y-83380057D02*
X124357142Y-83475295D01*
X124357142Y-83475295D02*
X124357142Y-83618152D01*
X124357142Y-83618152D02*
X124309523Y-83713390D01*
X124309523Y-83713390D02*
X124261904Y-83761009D01*
X124261904Y-83761009D02*
X124166666Y-83808628D01*
X124166666Y-83808628D02*
X123785714Y-83808628D01*
X125309523Y-84284819D02*
X124738095Y-84284819D01*
X125023809Y-84284819D02*
X125023809Y-83284819D01*
X125023809Y-83284819D02*
X124928571Y-83427676D01*
X124928571Y-83427676D02*
X124833333Y-83522914D01*
X124833333Y-83522914D02*
X124738095Y-83570533D01*
X125880952Y-83713390D02*
X125785714Y-83665771D01*
X125785714Y-83665771D02*
X125738095Y-83618152D01*
X125738095Y-83618152D02*
X125690476Y-83522914D01*
X125690476Y-83522914D02*
X125690476Y-83475295D01*
X125690476Y-83475295D02*
X125738095Y-83380057D01*
X125738095Y-83380057D02*
X125785714Y-83332438D01*
X125785714Y-83332438D02*
X125880952Y-83284819D01*
X125880952Y-83284819D02*
X126071428Y-83284819D01*
X126071428Y-83284819D02*
X126166666Y-83332438D01*
X126166666Y-83332438D02*
X126214285Y-83380057D01*
X126214285Y-83380057D02*
X126261904Y-83475295D01*
X126261904Y-83475295D02*
X126261904Y-83522914D01*
X126261904Y-83522914D02*
X126214285Y-83618152D01*
X126214285Y-83618152D02*
X126166666Y-83665771D01*
X126166666Y-83665771D02*
X126071428Y-83713390D01*
X126071428Y-83713390D02*
X125880952Y-83713390D01*
X125880952Y-83713390D02*
X125785714Y-83761009D01*
X125785714Y-83761009D02*
X125738095Y-83808628D01*
X125738095Y-83808628D02*
X125690476Y-83903866D01*
X125690476Y-83903866D02*
X125690476Y-84094342D01*
X125690476Y-84094342D02*
X125738095Y-84189580D01*
X125738095Y-84189580D02*
X125785714Y-84237200D01*
X125785714Y-84237200D02*
X125880952Y-84284819D01*
X125880952Y-84284819D02*
X126071428Y-84284819D01*
X126071428Y-84284819D02*
X126166666Y-84237200D01*
X126166666Y-84237200D02*
X126214285Y-84189580D01*
X126214285Y-84189580D02*
X126261904Y-84094342D01*
X126261904Y-84094342D02*
X126261904Y-83903866D01*
X126261904Y-83903866D02*
X126214285Y-83808628D01*
X126214285Y-83808628D02*
X126166666Y-83761009D01*
X126166666Y-83761009D02*
X126071428Y-83713390D01*
X100375595Y-96104819D02*
X100375595Y-96914342D01*
X100375595Y-96914342D02*
X100423214Y-97009580D01*
X100423214Y-97009580D02*
X100470833Y-97057200D01*
X100470833Y-97057200D02*
X100566071Y-97104819D01*
X100566071Y-97104819D02*
X100756547Y-97104819D01*
X100756547Y-97104819D02*
X100851785Y-97057200D01*
X100851785Y-97057200D02*
X100899404Y-97009580D01*
X100899404Y-97009580D02*
X100947023Y-96914342D01*
X100947023Y-96914342D02*
X100947023Y-96104819D01*
X101947023Y-97104819D02*
X101375595Y-97104819D01*
X101661309Y-97104819D02*
X101661309Y-96104819D01*
X101661309Y-96104819D02*
X101566071Y-96247676D01*
X101566071Y-96247676D02*
X101470833Y-96342914D01*
X101470833Y-96342914D02*
X101375595Y-96390533D01*
X89837142Y-69199580D02*
X89789523Y-69247200D01*
X89789523Y-69247200D02*
X89646666Y-69294819D01*
X89646666Y-69294819D02*
X89551428Y-69294819D01*
X89551428Y-69294819D02*
X89408571Y-69247200D01*
X89408571Y-69247200D02*
X89313333Y-69151961D01*
X89313333Y-69151961D02*
X89265714Y-69056723D01*
X89265714Y-69056723D02*
X89218095Y-68866247D01*
X89218095Y-68866247D02*
X89218095Y-68723390D01*
X89218095Y-68723390D02*
X89265714Y-68532914D01*
X89265714Y-68532914D02*
X89313333Y-68437676D01*
X89313333Y-68437676D02*
X89408571Y-68342438D01*
X89408571Y-68342438D02*
X89551428Y-68294819D01*
X89551428Y-68294819D02*
X89646666Y-68294819D01*
X89646666Y-68294819D02*
X89789523Y-68342438D01*
X89789523Y-68342438D02*
X89837142Y-68390057D01*
X90789523Y-69294819D02*
X90218095Y-69294819D01*
X90503809Y-69294819D02*
X90503809Y-68294819D01*
X90503809Y-68294819D02*
X90408571Y-68437676D01*
X90408571Y-68437676D02*
X90313333Y-68532914D01*
X90313333Y-68532914D02*
X90218095Y-68580533D01*
X91741904Y-69294819D02*
X91170476Y-69294819D01*
X91456190Y-69294819D02*
X91456190Y-68294819D01*
X91456190Y-68294819D02*
X91360952Y-68437676D01*
X91360952Y-68437676D02*
X91265714Y-68532914D01*
X91265714Y-68532914D02*
X91170476Y-68580533D01*
X139867142Y-84284819D02*
X139533809Y-83808628D01*
X139295714Y-84284819D02*
X139295714Y-83284819D01*
X139295714Y-83284819D02*
X139676666Y-83284819D01*
X139676666Y-83284819D02*
X139771904Y-83332438D01*
X139771904Y-83332438D02*
X139819523Y-83380057D01*
X139819523Y-83380057D02*
X139867142Y-83475295D01*
X139867142Y-83475295D02*
X139867142Y-83618152D01*
X139867142Y-83618152D02*
X139819523Y-83713390D01*
X139819523Y-83713390D02*
X139771904Y-83761009D01*
X139771904Y-83761009D02*
X139676666Y-83808628D01*
X139676666Y-83808628D02*
X139295714Y-83808628D01*
X140248095Y-83380057D02*
X140295714Y-83332438D01*
X140295714Y-83332438D02*
X140390952Y-83284819D01*
X140390952Y-83284819D02*
X140629047Y-83284819D01*
X140629047Y-83284819D02*
X140724285Y-83332438D01*
X140724285Y-83332438D02*
X140771904Y-83380057D01*
X140771904Y-83380057D02*
X140819523Y-83475295D01*
X140819523Y-83475295D02*
X140819523Y-83570533D01*
X140819523Y-83570533D02*
X140771904Y-83713390D01*
X140771904Y-83713390D02*
X140200476Y-84284819D01*
X140200476Y-84284819D02*
X140819523Y-84284819D01*
X141771904Y-84284819D02*
X141200476Y-84284819D01*
X141486190Y-84284819D02*
X141486190Y-83284819D01*
X141486190Y-83284819D02*
X141390952Y-83427676D01*
X141390952Y-83427676D02*
X141295714Y-83522914D01*
X141295714Y-83522914D02*
X141200476Y-83570533D01*
D11*
%TO.C,U2*%
X86140000Y-87227500D02*
X86590000Y-87227500D01*
X86140000Y-87677500D02*
X86140000Y-87227500D01*
X86140000Y-94447500D02*
X86140000Y-93997500D01*
X86590000Y-94447500D02*
X86140000Y-94447500D01*
X92910000Y-87227500D02*
X93360000Y-87227500D01*
X93360000Y-87227500D02*
X93360000Y-87677500D01*
X93360000Y-93997500D02*
X93360000Y-94447500D01*
X93360000Y-94447500D02*
X92910000Y-94447500D01*
X85500000Y-87677500D02*
X85160000Y-87207500D01*
X85840000Y-87207500D01*
X85500000Y-87677500D01*
G36*
X85500000Y-87677500D02*
G01*
X85160000Y-87207500D01*
X85840000Y-87207500D01*
X85500000Y-87677500D01*
G37*
%TO.C,C7*%
X104738748Y-94265000D02*
X105261252Y-94265000D01*
X104738748Y-95735000D02*
X105261252Y-95735000D01*
%TO.C,C5*%
X110372164Y-89640000D02*
X110587836Y-89640000D01*
X110372164Y-90360000D02*
X110587836Y-90360000D01*
%TO.C,R24*%
X75356359Y-74620000D02*
X75663641Y-74620000D01*
X75356359Y-75380000D02*
X75663641Y-75380000D01*
%TO.C,C2*%
X95372164Y-84640000D02*
X95587836Y-84640000D01*
X95372164Y-85360000D02*
X95587836Y-85360000D01*
%TO.C,TP2*%
X128800000Y-128800000D02*
X131200000Y-128800000D01*
X128800000Y-131200000D02*
X128800000Y-128800000D01*
X131200000Y-128800000D02*
X131200000Y-131200000D01*
X131200000Y-131200000D02*
X128800000Y-131200000D01*
%TO.C,TP3*%
X138800000Y-128800000D02*
X141200000Y-128800000D01*
X138800000Y-131200000D02*
X138800000Y-128800000D01*
X141200000Y-128800000D02*
X141200000Y-131200000D01*
X141200000Y-131200000D02*
X138800000Y-131200000D01*
%TO.C,Q1*%
X60240000Y-108840000D02*
X61650000Y-108840000D01*
X60250000Y-111160000D02*
X61650000Y-111160000D01*
X59870000Y-108890000D02*
X59630000Y-108560000D01*
X60110000Y-108560000D01*
X59870000Y-108890000D01*
G36*
X59870000Y-108890000D02*
G01*
X59630000Y-108560000D01*
X60110000Y-108560000D01*
X59870000Y-108890000D01*
G37*
%TO.C,R8*%
X64336359Y-94620000D02*
X64643641Y-94620000D01*
X64336359Y-95380000D02*
X64643641Y-95380000D01*
%TO.C,R14*%
X80356359Y-99620000D02*
X80663641Y-99620000D01*
X80356359Y-100380000D02*
X80663641Y-100380000D01*
%TO.C,SW1*%
X166790000Y-109765000D02*
X166790000Y-110200000D01*
X166790000Y-111800000D02*
X166790000Y-114200000D01*
X166790000Y-115800000D02*
X166790000Y-116235000D01*
X166790000Y-116235000D02*
X173210000Y-116235000D01*
X173210000Y-109765000D02*
X166790000Y-109765000D01*
X173210000Y-110200000D02*
X173210000Y-109765000D01*
X173210000Y-114200000D02*
X173210000Y-111800000D01*
X173210000Y-116235000D02*
X173210000Y-115930000D01*
%TO.C,J3*%
X50980000Y-82050000D02*
X50980000Y-84050000D01*
X50980000Y-85950000D02*
X50980000Y-87850000D01*
X50980000Y-87850000D02*
X60380000Y-87850000D01*
X60380000Y-82050000D02*
X60380000Y-84050000D01*
X60380000Y-85950000D02*
X60380000Y-87850000D01*
%TO.C,R20*%
X134336359Y-84620000D02*
X134643641Y-84620000D01*
X134336359Y-85380000D02*
X134643641Y-85380000D01*
%TO.C,R22*%
X145356359Y-84620000D02*
X145663641Y-84620000D01*
X145356359Y-85380000D02*
X145663641Y-85380000D01*
%TO.C,R5*%
X197236359Y-99620000D02*
X197543641Y-99620000D01*
X197236359Y-100380000D02*
X197543641Y-100380000D01*
%TO.C,R9*%
X70356359Y-94620000D02*
X70663641Y-94620000D01*
X70356359Y-95380000D02*
X70663641Y-95380000D01*
%TO.C,R27*%
X79846359Y-129620000D02*
X80153641Y-129620000D01*
X79846359Y-130380000D02*
X80153641Y-130380000D01*
%TO.C,C4*%
X104892164Y-84640000D02*
X105107836Y-84640000D01*
X104892164Y-85360000D02*
X105107836Y-85360000D01*
%TO.C,C3*%
X100372164Y-84640000D02*
X100587836Y-84640000D01*
X100372164Y-85360000D02*
X100587836Y-85360000D01*
%TO.C,U3*%
X125590000Y-62390000D02*
X128810000Y-62390000D01*
X125590000Y-62590000D02*
X125590000Y-62390000D01*
X125590000Y-65610000D02*
X125590000Y-65410000D01*
X128810000Y-62390000D02*
X128810000Y-62590000D01*
X128810000Y-65410000D02*
X128810000Y-65610000D01*
X128810000Y-65610000D02*
X125590000Y-65610000D01*
X125000000Y-62590000D02*
X124760000Y-62260000D01*
X125240000Y-62260000D01*
X125000000Y-62590000D01*
G36*
X125000000Y-62590000D02*
G01*
X124760000Y-62260000D01*
X125240000Y-62260000D01*
X125000000Y-62590000D01*
G37*
%TO.C,Q4*%
X75240000Y-108840000D02*
X76650000Y-108840000D01*
X75250000Y-111160000D02*
X76650000Y-111160000D01*
X74870000Y-108890000D02*
X74630000Y-108560000D01*
X75110000Y-108560000D01*
X74870000Y-108890000D01*
G36*
X74870000Y-108890000D02*
G01*
X74630000Y-108560000D01*
X75110000Y-108560000D01*
X74870000Y-108890000D01*
G37*
%TO.C,R28*%
X115785436Y-63290000D02*
X120139564Y-63290000D01*
X115785436Y-66710000D02*
X120139564Y-66710000D01*
%TO.C,TP1*%
X118800000Y-128800000D02*
X121200000Y-128800000D01*
X118800000Y-131200000D02*
X118800000Y-128800000D01*
X121200000Y-128800000D02*
X121200000Y-131200000D01*
X121200000Y-131200000D02*
X118800000Y-131200000D01*
%TO.C,C9*%
X139412164Y-64640000D02*
X139627836Y-64640000D01*
X139412164Y-65360000D02*
X139627836Y-65360000D01*
%TO.C,R13*%
X75356359Y-99620000D02*
X75663641Y-99620000D01*
X75356359Y-100380000D02*
X75663641Y-100380000D01*
D12*
%TO.C,D2*%
X163900000Y-102350000D02*
X163900000Y-99450000D01*
X163900000Y-102350000D02*
X168900000Y-102350000D01*
X164200000Y-99150000D02*
X163900000Y-99450000D01*
X164200000Y-99150000D02*
X168900000Y-99150000D01*
X168900000Y-102350000D02*
X168900000Y-99150000D01*
D11*
%TO.C,J1*%
X48200000Y-122000000D02*
X48650000Y-122000000D01*
X48200000Y-123850000D02*
X48200000Y-122000000D01*
X48200000Y-126400000D02*
X48200000Y-126150000D01*
X50400000Y-121450000D02*
X50400000Y-121900000D01*
X50400000Y-121450000D02*
X50850000Y-121450000D01*
X56000000Y-122000000D02*
X55550000Y-122000000D01*
X56000000Y-123850000D02*
X56000000Y-122000000D01*
X56000000Y-126400000D02*
X56000000Y-126150000D01*
%TO.C,R17*%
X85356359Y-114620000D02*
X85663641Y-114620000D01*
X85356359Y-115380000D02*
X85663641Y-115380000D01*
%TO.C,Q2*%
X65240000Y-108840000D02*
X66650000Y-108840000D01*
X65250000Y-111160000D02*
X66650000Y-111160000D01*
X64870000Y-108890000D02*
X64630000Y-108560000D01*
X65110000Y-108560000D01*
X64870000Y-108890000D01*
G36*
X64870000Y-108890000D02*
G01*
X64630000Y-108560000D01*
X65110000Y-108560000D01*
X64870000Y-108890000D01*
G37*
%TO.C,R15*%
X80356359Y-94620000D02*
X80663641Y-94620000D01*
X80356359Y-95380000D02*
X80663641Y-95380000D01*
%TO.C,J4*%
X181880000Y-65880000D02*
X192620000Y-65880000D01*
X181880000Y-69500000D02*
X183120000Y-69500000D01*
X181880000Y-70500000D02*
X183120000Y-70500000D01*
X181880000Y-71800000D02*
X183120000Y-71800000D01*
X181880000Y-73920000D02*
X181880000Y-65880000D01*
X184700000Y-73920000D02*
X181880000Y-73920000D01*
X186880000Y-69500000D02*
X188188000Y-69500000D01*
X186880000Y-70500000D02*
X188188000Y-70500000D01*
X186880000Y-71800000D02*
X189457000Y-71800000D01*
X190543000Y-71800000D02*
X192620000Y-71800000D01*
X191812000Y-69500000D02*
X192620000Y-69500000D01*
X191812000Y-70500000D02*
X192620000Y-70500000D01*
X192620000Y-65880000D02*
X192620000Y-73920000D01*
X192620000Y-73920000D02*
X185300000Y-73920000D01*
X185440000Y-74530000D02*
X184560000Y-74530000D01*
X185000000Y-73920000D01*
X185440000Y-74530000D01*
G36*
X185440000Y-74530000D02*
G01*
X184560000Y-74530000D01*
X185000000Y-73920000D01*
X185440000Y-74530000D01*
G37*
%TO.C,R4*%
X187236359Y-99620000D02*
X187543641Y-99620000D01*
X187236359Y-100380000D02*
X187543641Y-100380000D01*
%TO.C,R11*%
X65356359Y-99620000D02*
X65663641Y-99620000D01*
X65356359Y-100380000D02*
X65663641Y-100380000D01*
%TO.C,R2*%
X110356359Y-109620000D02*
X110663641Y-109620000D01*
X110356359Y-110380000D02*
X110663641Y-110380000D01*
%TO.C,U5*%
X90502500Y-104365000D02*
X93722500Y-104365000D01*
X90502500Y-104540000D02*
X90502500Y-104365000D01*
X90502500Y-107585000D02*
X90502500Y-107410000D01*
X93722500Y-104365000D02*
X93722500Y-104540000D01*
X93722500Y-107410000D02*
X93722500Y-107585000D01*
X93722500Y-107585000D02*
X90502500Y-107585000D01*
X89952500Y-104535000D02*
X89712500Y-104205000D01*
X90192500Y-104205000D01*
X89952500Y-104535000D01*
G36*
X89952500Y-104535000D02*
G01*
X89712500Y-104205000D01*
X90192500Y-104205000D01*
X89952500Y-104535000D01*
G37*
%TO.C,Q3*%
X70240000Y-108840000D02*
X71650000Y-108840000D01*
X70250000Y-111160000D02*
X71650000Y-111160000D01*
X69870000Y-108890000D02*
X69630000Y-108560000D01*
X70110000Y-108560000D01*
X69870000Y-108890000D01*
G36*
X69870000Y-108890000D02*
G01*
X69630000Y-108560000D01*
X70110000Y-108560000D01*
X69870000Y-108890000D01*
G37*
%TO.C,C6*%
X115372164Y-89640000D02*
X115587836Y-89640000D01*
X115372164Y-90360000D02*
X115587836Y-90360000D01*
%TO.C,R16*%
X80356359Y-114620000D02*
X80663641Y-114620000D01*
X80356359Y-115380000D02*
X80663641Y-115380000D01*
%TO.C,R26*%
X90356359Y-79620000D02*
X90663641Y-79620000D01*
X90356359Y-80380000D02*
X90663641Y-80380000D01*
%TO.C,R6*%
X115356359Y-109620000D02*
X115663641Y-109620000D01*
X115356359Y-110380000D02*
X115663641Y-110380000D01*
%TO.C,R10*%
X75356359Y-94620000D02*
X75663641Y-94620000D01*
X75356359Y-95380000D02*
X75663641Y-95380000D01*
%TO.C,D4*%
X103490000Y-63350000D02*
X103490000Y-66650000D01*
X103490000Y-63350000D02*
X109000000Y-63350000D01*
X103490000Y-66650000D02*
X109000000Y-66650000D01*
%TO.C,R7*%
X59336359Y-104620000D02*
X59643641Y-104620000D01*
X59336359Y-105380000D02*
X59643641Y-105380000D01*
%TO.C,C8*%
X109892164Y-84640000D02*
X110107836Y-84640000D01*
X109892164Y-85360000D02*
X110107836Y-85360000D01*
%TO.C,D1*%
X59290000Y-129000000D02*
X59290000Y-131000000D01*
X59290000Y-129000000D02*
X63300000Y-129000000D01*
X59290000Y-131000000D02*
X63300000Y-131000000D01*
%TO.C,R19*%
X129846359Y-84620000D02*
X130153641Y-84620000D01*
X129846359Y-85380000D02*
X130153641Y-85380000D01*
%TO.C,C10*%
X80372164Y-69640000D02*
X80587836Y-69640000D01*
X80372164Y-70360000D02*
X80587836Y-70360000D01*
D12*
%TO.C,D3*%
X173900000Y-102350000D02*
X173900000Y-99450000D01*
X173900000Y-102350000D02*
X178900000Y-102350000D01*
X174200000Y-99150000D02*
X173900000Y-99450000D01*
X174200000Y-99150000D02*
X178900000Y-99150000D01*
X178900000Y-102350000D02*
X178900000Y-99150000D01*
D11*
%TO.C,R1*%
X105356359Y-109620000D02*
X105663641Y-109620000D01*
X105356359Y-110380000D02*
X105663641Y-110380000D01*
%TO.C,U6*%
X79902500Y-79140000D02*
X80127500Y-79140000D01*
X79902500Y-79615000D02*
X79902500Y-79140000D01*
X79902500Y-81860000D02*
X79902500Y-81385000D01*
X80127500Y-81860000D02*
X79902500Y-81860000D01*
X82397500Y-79140000D02*
X82622500Y-79140000D01*
X82622500Y-79140000D02*
X82622500Y-79615000D01*
X82622500Y-81385000D02*
X82622500Y-81860000D01*
X82622500Y-81860000D02*
X82397500Y-81860000D01*
X79402500Y-80000000D02*
X79072500Y-80240000D01*
X79072500Y-79760000D01*
X79402500Y-80000000D01*
G36*
X79402500Y-80000000D02*
G01*
X79072500Y-80240000D01*
X79072500Y-79760000D01*
X79402500Y-80000000D01*
G37*
%TO.C,R3*%
X54336359Y-104620000D02*
X54643641Y-104620000D01*
X54336359Y-105380000D02*
X54643641Y-105380000D01*
%TO.C,R12*%
X70356359Y-99620000D02*
X70663641Y-99620000D01*
X70356359Y-100380000D02*
X70663641Y-100380000D01*
%TO.C,C1*%
X99412164Y-104640000D02*
X99627836Y-104640000D01*
X99412164Y-105360000D02*
X99627836Y-105360000D01*
%TO.C,R18*%
X124846359Y-84620000D02*
X125153641Y-84620000D01*
X124846359Y-85380000D02*
X125153641Y-85380000D01*
%TO.C,U1*%
X100227500Y-97490000D02*
X102047500Y-97490000D01*
X100227500Y-97540000D02*
X100227500Y-97490000D01*
X100227500Y-100610000D02*
X100227500Y-100560000D01*
X102047500Y-97490000D02*
X102047500Y-97540000D01*
X102047500Y-98660000D02*
X102047500Y-99440000D01*
X102047500Y-100560000D02*
X102047500Y-100610000D01*
X102047500Y-100610000D02*
X100227500Y-100610000D01*
X99687500Y-97540000D02*
X99447500Y-97210000D01*
X99927500Y-97210000D01*
X99687500Y-97540000D01*
G36*
X99687500Y-97540000D02*
G01*
X99447500Y-97210000D01*
X99927500Y-97210000D01*
X99687500Y-97540000D01*
G37*
%TO.C,R23*%
X70356359Y-74620000D02*
X70663641Y-74620000D01*
X70356359Y-75380000D02*
X70663641Y-75380000D01*
%TO.C,C11*%
X90372164Y-69640000D02*
X90587836Y-69640000D01*
X90372164Y-70360000D02*
X90587836Y-70360000D01*
%TO.C,R21*%
X140356359Y-84620000D02*
X140663641Y-84620000D01*
X140356359Y-85380000D02*
X140663641Y-85380000D01*
%TD*%
M02*
