%TF.GenerationSoftware,KiCad,Pcbnew,9.0.6*%
%TF.CreationDate,2026-04-14T00:22:13+02:00*%
%TF.ProjectId,USB Type C PD & Tester,55534220-5479-4706-9520-432050442026,rev?*%
%TF.SameCoordinates,Original*%
%TF.FileFunction,Copper,L3,Inr*%
%TF.FilePolarity,Positive*%
%FSLAX46Y46*%
G04 Gerber Fmt 4.6, Leading zero omitted, Abs format (unit mm)*
G04 Created by KiCad (PCBNEW 9.0.6) date 2026-04-14 00:22:13*
%MOMM*%
%LPD*%
G01*
G04 APERTURE LIST*
G04 Aperture macros list*
%AMRoundRect*
0 Rectangle with rounded corners*
0 $1 Rounding radius*
0 $2 $3 $4 $5 $6 $7 $8 $9 X,Y pos of 4 corners*
0 Add a 4 corners polygon primitive as box body*
4,1,4,$2,$3,$4,$5,$6,$7,$8,$9,$2,$3,0*
0 Add four circle primitives for the rounded corners*
1,1,$1+$1,$2,$3*
1,1,$1+$1,$4,$5*
1,1,$1+$1,$6,$7*
1,1,$1+$1,$8,$9*
0 Add four rect primitives between the rounded corners*
20,1,$1+$1,$2,$3,$4,$5,0*
20,1,$1+$1,$4,$5,$6,$7,0*
20,1,$1+$1,$6,$7,$8,$9,0*
20,1,$1+$1,$8,$9,$2,$3,0*%
G04 Aperture macros list end*
%TA.AperFunction,HeatsinkPad*%
%ADD10O,1.000000X2.100000*%
%TD*%
%TA.AperFunction,HeatsinkPad*%
%ADD11O,1.000000X1.600000*%
%TD*%
%TA.AperFunction,HeatsinkPad*%
%ADD12O,1.200000X1.900000*%
%TD*%
%TA.AperFunction,HeatsinkPad*%
%ADD13C,1.450000*%
%TD*%
%TA.AperFunction,ComponentPad*%
%ADD14RoundRect,0.250001X-1.149999X-1.149999X1.149999X-1.149999X1.149999X1.149999X-1.149999X1.149999X0*%
%TD*%
%TA.AperFunction,ComponentPad*%
%ADD15C,2.800000*%
%TD*%
%TA.AperFunction,ViaPad*%
%ADD16C,0.600000*%
%TD*%
%TA.AperFunction,Conductor*%
%ADD17C,0.200000*%
%TD*%
G04 APERTURE END LIST*
D10*
%TO.N,GND*%
%TO.C,J3*%
X51360000Y-80820000D03*
D11*
X51360000Y-85000000D03*
D10*
X60000000Y-80820000D03*
D11*
X60000000Y-85000000D03*
%TD*%
D12*
%TO.N,GND*%
%TO.C,J1*%
X48600000Y-125000000D03*
D13*
X49600000Y-122300000D03*
X54600000Y-122300000D03*
D12*
X55600000Y-125000000D03*
%TD*%
D14*
%TO.N,GND*%
%TO.C,J4*%
X185000000Y-70000000D03*
D15*
%TO.N,/VBUS_PLUG*%
X190000000Y-70000000D03*
%TD*%
D16*
%TO.N,/CC1_BUF*%
X86747600Y-102663500D03*
X85268200Y-96365900D03*
%TO.N,/CC2_BUF*%
X86922200Y-96286400D03*
X91612500Y-106007200D03*
%TO.N,/VBUS_ALERT_L*%
X99835800Y-61392100D03*
X91504700Y-93169200D03*
%TO.N,INA_SCL*%
X93896800Y-81848200D03*
X94789200Y-67278100D03*
X122564900Y-65374300D03*
X91819000Y-89275800D03*
%TO.N,/UART_RX*%
X132500300Y-128605000D03*
X102805300Y-128605000D03*
X97085800Y-90809000D03*
%TO.N,/UART_TX*%
X92643600Y-91725700D03*
X124384200Y-90615100D03*
X129530800Y-127824400D03*
%TO.N,/NRST*%
X87313900Y-91247100D03*
X112219500Y-90748200D03*
X117584000Y-129344000D03*
%TO.N,INA_SDA*%
X90475600Y-88974800D03*
X90030400Y-81716600D03*
X90927300Y-66114700D03*
X123440500Y-64500000D03*
%TO.N,/VBUS_PLUG*%
X123591800Y-67236700D03*
%TO.N,/CC2_RPUSB*%
X108744300Y-94093000D03*
X138342000Y-85347600D03*
%TO.N,/CC2_RP3A0*%
X90846500Y-113454600D03*
X90846500Y-89896000D03*
%TO.N,/CC1_RPUSB*%
X77004100Y-99900400D03*
X76081000Y-87445300D03*
X91735600Y-84578500D03*
%TO.N,/CC1_RD*%
X72245500Y-99562700D03*
X72556700Y-84770500D03*
X87957800Y-83893900D03*
%TO.N,/CC1_RP1A5*%
X64638400Y-96620700D03*
X85996900Y-95640400D03*
X91509600Y-88284500D03*
%TO.N,/CC1_RA*%
X83764600Y-94343000D03*
X88998200Y-89864800D03*
%TO.N,/CC1_RP3A0*%
X70101700Y-91403200D03*
X82018800Y-89886700D03*
%TO.N,Net-(R24-Pad2)*%
X84988300Y-76003600D03*
X159225800Y-76003600D03*
X164689600Y-111361100D03*
%TO.N,Net-(D2-BK)*%
X60776200Y-104507200D03*
X163203200Y-101520700D03*
%TO.N,Net-(D3-GK)*%
X55293300Y-102304300D03*
X176165400Y-100089600D03*
%TO.N,/400*%
X61311000Y-105925100D03*
X108494500Y-111071200D03*
X91753800Y-98567300D03*
X93896800Y-110552500D03*
X189288000Y-99382000D03*
%TO.N,Net-(D3-RK)*%
X180073500Y-101547400D03*
X112244500Y-110089800D03*
%TO.N,/BOOT*%
X89415600Y-88843100D03*
X89637200Y-109599400D03*
%TO.N,/CC1_EN*%
X76346400Y-93413300D03*
X69336800Y-93385800D03*
X74614200Y-108249100D03*
%TO.N,/CC2_EN*%
X81807800Y-93377900D03*
X79768000Y-113605900D03*
%TO.N,Net-(Q2B-S)*%
X71227200Y-76392600D03*
X67940700Y-110290600D03*
%TO.N,/CC2*%
X71476400Y-77912400D03*
X69906200Y-111819400D03*
X124648000Y-83994400D03*
X90927300Y-116135200D03*
X92934100Y-107612100D03*
%TO.N,/CC2_TX_EN*%
X83181500Y-88483700D03*
X81982800Y-108307100D03*
X68244600Y-108904200D03*
%TO.N,Net-(Q2A-D)*%
X123591800Y-87692800D03*
X123591800Y-106007200D03*
X67918700Y-107942300D03*
%TO.N,/CC1*%
X69850800Y-96805900D03*
X72965500Y-96804300D03*
X72503800Y-107414000D03*
%TO.N,/CC1_TX_EN*%
X93183100Y-86759700D03*
X64201800Y-87692800D03*
X63490200Y-109921100D03*
%TO.N,/CC1_RECEP*%
X57474700Y-77895800D03*
X82663900Y-78893700D03*
X71722700Y-108335000D03*
%TO.N,/CC2_RECEP*%
X73410200Y-110201500D03*
X78613400Y-79690400D03*
%TO.N,/VBUS_RECEP*%
X79049300Y-67236700D03*
X75740800Y-81509300D03*
%TO.N,Net-(U2-VDDA)*%
X104784900Y-92531900D03*
X87383100Y-92972600D03*
%TO.N,USB_B_D+*%
X95520600Y-90372200D03*
X96073900Y-116915800D03*
X52186300Y-119661100D03*
%TO.N,USB_B_D-*%
X88495600Y-90515600D03*
X87957800Y-117696400D03*
X51462600Y-120599900D03*
%TO.N,USB_B_ID*%
X78902000Y-128411700D03*
X75950000Y-109905200D03*
X78902000Y-119838100D03*
X164689600Y-115050400D03*
%TO.N,+5V*%
X90927300Y-125682700D03*
X96866300Y-106007200D03*
X162195300Y-101925800D03*
X99835800Y-102304300D03*
%TO.N,GND*%
X141408800Y-67236700D03*
X58163600Y-128605000D03*
X52323800Y-78276500D03*
X82397000Y-115106800D03*
X51594500Y-126546900D03*
X82372000Y-70159000D03*
X89466300Y-93737100D03*
X102780000Y-84770500D03*
X127309700Y-65397500D03*
X63695800Y-111071200D03*
X87141200Y-88072700D03*
X126407800Y-63552600D03*
X108744300Y-96459700D03*
X82018800Y-90921000D03*
X97295800Y-84770500D03*
X98792500Y-99382000D03*
X117493700Y-90419900D03*
X111979500Y-84503200D03*
X73110300Y-76003600D03*
X67185100Y-95773400D03*
X97420700Y-88223700D03*
X112019500Y-89934200D03*
X107039700Y-84503200D03*
X100800500Y-104446000D03*
X91826300Y-69463100D03*
X54580000Y-126546900D03*
X102534800Y-64314400D03*
X91612500Y-107561000D03*
X92006000Y-96829300D03*
X83388000Y-81024800D03*
X76865200Y-108294600D03*
%TO.N,+3V3*%
X82142000Y-128605000D03*
X89193700Y-70159000D03*
X94015900Y-96459700D03*
X137857000Y-65273600D03*
X79782000Y-82691100D03*
X108434200Y-90802800D03*
X108249500Y-84770500D03*
X94015900Y-87084400D03*
X93567400Y-84623300D03*
X102434800Y-96399000D03*
X94689200Y-104282500D03*
X143801200Y-84760200D03*
X107897700Y-110190600D03*
X78648600Y-99900400D03*
X103593900Y-85585200D03*
X86305600Y-87084400D03*
X90518200Y-80770800D03*
X128171400Y-65187800D03*
X99026900Y-84794500D03*
X78642000Y-70159000D03*
X102027700Y-97249200D03*
X78589200Y-81455000D03*
X84836700Y-87084400D03*
%TD*%
D17*
%TO.N,INA_SCL*%
X120661100Y-67278100D02*
X122564900Y-65374300D01*
X94789200Y-67278100D02*
X120661100Y-67278100D01*
%TO.N,/UART_RX*%
X132500300Y-128605000D02*
X102805300Y-128605000D01*
%TO.N,/UART_TX*%
X123107800Y-91891500D02*
X124384200Y-90615100D01*
X92809400Y-91891500D02*
X123107800Y-91891500D01*
X92643600Y-91725700D02*
X92809400Y-91891500D01*
%TO.N,/NRST*%
X111552300Y-91415400D02*
X112219500Y-90748200D01*
X93184200Y-91415400D02*
X111552300Y-91415400D01*
X92892800Y-91124000D02*
X93184200Y-91415400D01*
X87437000Y-91124000D02*
X92892800Y-91124000D01*
X87313900Y-91247100D02*
X87437000Y-91124000D01*
%TO.N,INA_SDA*%
X114654000Y-64500000D02*
X123440500Y-64500000D01*
X113039300Y-66114700D02*
X114654000Y-64500000D01*
X90927300Y-66114700D02*
X113039300Y-66114700D01*
%TO.N,/VBUS_PLUG*%
X124632100Y-68277000D02*
X123591800Y-67236700D01*
X188277000Y-68277000D02*
X124632100Y-68277000D01*
X190000000Y-70000000D02*
X188277000Y-68277000D01*
%TO.N,/CC2_RPUSB*%
X129596600Y-94093000D02*
X138342000Y-85347600D01*
X108744300Y-94093000D02*
X129596600Y-94093000D01*
%TO.N,/CC1_RPUSB*%
X78947800Y-84578500D02*
X91735600Y-84578500D01*
X76081000Y-87445300D02*
X78947800Y-84578500D01*
%TO.N,/CC1_RD*%
X73433300Y-83893900D02*
X87957800Y-83893900D01*
X72556700Y-84770500D02*
X73433300Y-83893900D01*
%TO.N,/CC1_RP1A5*%
X85498900Y-95142400D02*
X85996900Y-95640400D01*
X66116700Y-95142400D02*
X85498900Y-95142400D01*
X64638400Y-96620700D02*
X66116700Y-95142400D01*
%TO.N,/CC1_RP3A0*%
X71618200Y-89886700D02*
X82018800Y-89886700D01*
X70101700Y-91403200D02*
X71618200Y-89886700D01*
%TO.N,Net-(R24-Pad2)*%
X84988300Y-76003600D02*
X159225800Y-76003600D01*
%TO.N,Net-(D2-BK)*%
X162991900Y-101309400D02*
X163203200Y-101520700D01*
X63974000Y-101309400D02*
X162991900Y-101309400D01*
X60776200Y-104507200D02*
X63974000Y-101309400D01*
%TO.N,Net-(D3-GK)*%
X175545500Y-100709500D02*
X176165400Y-100089600D01*
X56888100Y-100709500D02*
X175545500Y-100709500D01*
X55293300Y-102304300D02*
X56888100Y-100709500D01*
%TO.N,/400*%
X94075100Y-111071200D02*
X108494500Y-111071200D01*
X93896800Y-110892900D02*
X94075100Y-111071200D01*
X66278800Y-110892900D02*
X93896800Y-110892900D01*
X61311000Y-105925100D02*
X66278800Y-110892900D01*
X93896800Y-110552500D02*
X93896800Y-110892900D01*
X177723900Y-99382000D02*
X189288000Y-99382000D01*
X169349100Y-107756800D02*
X177723900Y-99382000D01*
X111808900Y-107756800D02*
X169349100Y-107756800D01*
X108494500Y-111071200D02*
X111808900Y-107756800D01*
%TO.N,Net-(D3-RK)*%
X171531100Y-110089800D02*
X112244500Y-110089800D01*
X180073500Y-101547400D02*
X171531100Y-110089800D01*
%TO.N,/CC1_EN*%
X69364300Y-93413300D02*
X69336800Y-93385800D01*
X76346400Y-93413300D02*
X69364300Y-93413300D01*
%TO.N,/CC2*%
X118566000Y-77912400D02*
X71476400Y-77912400D01*
X124648000Y-83994400D02*
X118566000Y-77912400D01*
%TO.N,/CC2_TX_EN*%
X69415500Y-107733300D02*
X68244600Y-108904200D01*
X71971900Y-107733300D02*
X69415500Y-107733300D01*
X73101600Y-108863000D02*
X71971900Y-107733300D01*
X75446000Y-108863000D02*
X73101600Y-108863000D01*
X76616100Y-107692900D02*
X75446000Y-108863000D01*
X77114400Y-107692900D02*
X76616100Y-107692900D01*
X77728500Y-108307000D02*
X77114400Y-107692900D01*
X77728500Y-108307100D02*
X77728500Y-108307000D01*
X81982800Y-108307100D02*
X77728500Y-108307100D01*
%TO.N,Net-(Q2A-D)*%
X69048700Y-106812300D02*
X67918700Y-107942300D01*
X122786700Y-106812300D02*
X69048700Y-106812300D01*
X123591800Y-106007200D02*
X122786700Y-106812300D01*
%TO.N,/CC1*%
X69852400Y-96804300D02*
X69850800Y-96805900D01*
X72965500Y-96804300D02*
X69852400Y-96804300D01*
%TO.N,/CC1_TX_EN*%
X64581100Y-88072100D02*
X64201800Y-87692800D01*
X76398700Y-88072100D02*
X64581100Y-88072100D01*
X78051000Y-86419800D02*
X76398700Y-88072100D01*
X92843200Y-86419800D02*
X78051000Y-86419800D01*
X93183100Y-86759700D02*
X92843200Y-86419800D01*
%TO.N,/CC1_RECEP*%
X71330500Y-78893700D02*
X82663900Y-78893700D01*
X70332600Y-77895800D02*
X71330500Y-78893700D01*
X57474700Y-77895800D02*
X70332600Y-77895800D01*
%TO.N,Net-(U2-VDDA)*%
X87823800Y-92531900D02*
X87383100Y-92972600D01*
X104784900Y-92531900D02*
X87823800Y-92531900D01*
%TO.N,USB_B_D+*%
X54931600Y-116915800D02*
X52186300Y-119661100D01*
X96073900Y-116915800D02*
X54931600Y-116915800D01*
%TO.N,USB_B_D-*%
X53237800Y-120599900D02*
X51462600Y-120599900D01*
X56141300Y-117696400D02*
X53237800Y-120599900D01*
X87957800Y-117696400D02*
X56141300Y-117696400D01*
%TO.N,USB_B_ID*%
X159901900Y-119838100D02*
X164689600Y-115050400D01*
X78902000Y-119838100D02*
X159901900Y-119838100D01*
%TO.N,+5V*%
X100214300Y-101925800D02*
X99835800Y-102304300D01*
X162195300Y-101925800D02*
X100214300Y-101925800D01*
X99835800Y-103037700D02*
X96866300Y-106007200D01*
X99835800Y-102304300D02*
X99835800Y-103037700D01*
%TD*%
%TA.AperFunction,Conductor*%
%TO.N,+3V3*%
G36*
X90755039Y-107432485D02*
G01*
X90800794Y-107485289D01*
X90812000Y-107536800D01*
X90812000Y-107639846D01*
X90842761Y-107794489D01*
X90842764Y-107794501D01*
X90903102Y-107940172D01*
X90903109Y-107940185D01*
X90990710Y-108071288D01*
X90990713Y-108071292D01*
X91102207Y-108182786D01*
X91102211Y-108182789D01*
X91233314Y-108270390D01*
X91233327Y-108270397D01*
X91356688Y-108321494D01*
X91379003Y-108330737D01*
X91526791Y-108360134D01*
X91533653Y-108361499D01*
X91533656Y-108361500D01*
X91533658Y-108361500D01*
X91691344Y-108361500D01*
X91691345Y-108361499D01*
X91845997Y-108330737D01*
X91991679Y-108270394D01*
X92122789Y-108182789D01*
X92160068Y-108145509D01*
X92221388Y-108112024D01*
X92291080Y-108117007D01*
X92335430Y-108145509D01*
X92423807Y-108233886D01*
X92423811Y-108233889D01*
X92554914Y-108321490D01*
X92554927Y-108321497D01*
X92672313Y-108370119D01*
X92700603Y-108381837D01*
X92823531Y-108406289D01*
X92855253Y-108412599D01*
X92855256Y-108412600D01*
X92855258Y-108412600D01*
X93012944Y-108412600D01*
X93012945Y-108412599D01*
X93167597Y-108381837D01*
X93313279Y-108321494D01*
X93444389Y-108233889D01*
X93555889Y-108122389D01*
X93643494Y-107991279D01*
X93703837Y-107845597D01*
X93734600Y-107690942D01*
X93734600Y-107536800D01*
X93754285Y-107469761D01*
X93807089Y-107424006D01*
X93858600Y-107412800D01*
X111004303Y-107412800D01*
X111071342Y-107432485D01*
X111117097Y-107485289D01*
X111127041Y-107554447D01*
X111098016Y-107618003D01*
X111091984Y-107624481D01*
X108479839Y-110236625D01*
X108418516Y-110270110D01*
X108416350Y-110270561D01*
X108261008Y-110301461D01*
X108260998Y-110301464D01*
X108115327Y-110361802D01*
X108115314Y-110361809D01*
X107983625Y-110449802D01*
X107916947Y-110470680D01*
X107914734Y-110470700D01*
X94798476Y-110470700D01*
X94731437Y-110451015D01*
X94685682Y-110398211D01*
X94676859Y-110370892D01*
X94666538Y-110319008D01*
X94666537Y-110319007D01*
X94666537Y-110319003D01*
X94658781Y-110300279D01*
X94606197Y-110173327D01*
X94606190Y-110173314D01*
X94518589Y-110042211D01*
X94518586Y-110042207D01*
X94407092Y-109930713D01*
X94407088Y-109930710D01*
X94275985Y-109843109D01*
X94275972Y-109843102D01*
X94130301Y-109782764D01*
X94130289Y-109782761D01*
X93975645Y-109752000D01*
X93975642Y-109752000D01*
X93817958Y-109752000D01*
X93817955Y-109752000D01*
X93663310Y-109782761D01*
X93663298Y-109782764D01*
X93517627Y-109843102D01*
X93517614Y-109843109D01*
X93386511Y-109930710D01*
X93386507Y-109930713D01*
X93275013Y-110042207D01*
X93275010Y-110042211D01*
X93187409Y-110173314D01*
X93187407Y-110173318D01*
X93183558Y-110182608D01*
X93169788Y-110215854D01*
X93125949Y-110270256D01*
X93059655Y-110292321D01*
X93055228Y-110292400D01*
X90368893Y-110292400D01*
X90301854Y-110272715D01*
X90256099Y-110219911D01*
X90246155Y-110150753D01*
X90265791Y-110099509D01*
X90346590Y-109978585D01*
X90346590Y-109978584D01*
X90346594Y-109978579D01*
X90406937Y-109832897D01*
X90437700Y-109678242D01*
X90437700Y-109520558D01*
X90437700Y-109520555D01*
X90437699Y-109520553D01*
X90435197Y-109507974D01*
X90406937Y-109365903D01*
X90379354Y-109299311D01*
X90346597Y-109220227D01*
X90346590Y-109220214D01*
X90258989Y-109089111D01*
X90258986Y-109089107D01*
X90147492Y-108977613D01*
X90147488Y-108977610D01*
X90016385Y-108890009D01*
X90016372Y-108890002D01*
X89870701Y-108829664D01*
X89870689Y-108829661D01*
X89716045Y-108798900D01*
X89716042Y-108798900D01*
X89558358Y-108798900D01*
X89558355Y-108798900D01*
X89403710Y-108829661D01*
X89403698Y-108829664D01*
X89258027Y-108890002D01*
X89258014Y-108890009D01*
X89126911Y-108977610D01*
X89126907Y-108977613D01*
X89015413Y-109089107D01*
X89015410Y-109089111D01*
X88927809Y-109220214D01*
X88927802Y-109220227D01*
X88867464Y-109365898D01*
X88867461Y-109365910D01*
X88836700Y-109520553D01*
X88836700Y-109678246D01*
X88867461Y-109832889D01*
X88867464Y-109832901D01*
X88927802Y-109978572D01*
X88927809Y-109978585D01*
X89008609Y-110099509D01*
X89029487Y-110166186D01*
X89011003Y-110233566D01*
X88959024Y-110280257D01*
X88905507Y-110292400D01*
X76840258Y-110292400D01*
X76773219Y-110272715D01*
X76727464Y-110219911D01*
X76717520Y-110150753D01*
X76718641Y-110144208D01*
X76750500Y-109984044D01*
X76750500Y-109826355D01*
X76750499Y-109826353D01*
X76744312Y-109795248D01*
X76719737Y-109671703D01*
X76718539Y-109668810D01*
X76659397Y-109526027D01*
X76659390Y-109526014D01*
X76571789Y-109394911D01*
X76571786Y-109394907D01*
X76460292Y-109283413D01*
X76460288Y-109283410D01*
X76364919Y-109219686D01*
X76320114Y-109166074D01*
X76311407Y-109096749D01*
X76341562Y-109033721D01*
X76401005Y-108997002D01*
X76470863Y-108998249D01*
X76481262Y-109002023D01*
X76631698Y-109064335D01*
X76631703Y-109064337D01*
X76786353Y-109095099D01*
X76786356Y-109095100D01*
X76786358Y-109095100D01*
X76944044Y-109095100D01*
X76944045Y-109095099D01*
X77098697Y-109064337D01*
X77244379Y-109003994D01*
X77375489Y-108916389D01*
X77389691Y-108902185D01*
X77451011Y-108868702D01*
X77509460Y-108870091D01*
X77649443Y-108907600D01*
X81403034Y-108907600D01*
X81470073Y-108927285D01*
X81471925Y-108928498D01*
X81603614Y-109016490D01*
X81603627Y-109016497D01*
X81749298Y-109076835D01*
X81749303Y-109076837D01*
X81889555Y-109104735D01*
X81903953Y-109107599D01*
X81903956Y-109107600D01*
X81903958Y-109107600D01*
X82061644Y-109107600D01*
X82061645Y-109107599D01*
X82216297Y-109076837D01*
X82361979Y-109016494D01*
X82493089Y-108928889D01*
X82604589Y-108817389D01*
X82692194Y-108686279D01*
X82752537Y-108540597D01*
X82783300Y-108385942D01*
X82783300Y-108228258D01*
X82783300Y-108228255D01*
X82783299Y-108228253D01*
X82782573Y-108224602D01*
X82752537Y-108073603D01*
X82751578Y-108071288D01*
X82692197Y-107927927D01*
X82692190Y-107927914D01*
X82604589Y-107796811D01*
X82604586Y-107796807D01*
X82493089Y-107685310D01*
X82425130Y-107639902D01*
X82380325Y-107586290D01*
X82371618Y-107516965D01*
X82401772Y-107453938D01*
X82461215Y-107417218D01*
X82494021Y-107412800D01*
X90688000Y-107412800D01*
X90755039Y-107432485D01*
G37*
%TD.AperFunction*%
%TA.AperFunction,Conductor*%
G36*
X86136798Y-101929585D02*
G01*
X86182553Y-101982389D01*
X86192497Y-102051547D01*
X86163472Y-102115103D01*
X86157440Y-102121581D01*
X86125813Y-102153207D01*
X86125810Y-102153211D01*
X86038209Y-102284314D01*
X86038202Y-102284327D01*
X85977864Y-102429998D01*
X85977861Y-102430010D01*
X85947100Y-102584653D01*
X85947100Y-102742346D01*
X85977861Y-102896989D01*
X85977864Y-102897001D01*
X86038202Y-103042672D01*
X86038209Y-103042685D01*
X86125810Y-103173788D01*
X86125813Y-103173792D01*
X86237307Y-103285286D01*
X86237311Y-103285289D01*
X86368414Y-103372890D01*
X86368427Y-103372897D01*
X86514098Y-103433235D01*
X86514103Y-103433237D01*
X86668753Y-103463999D01*
X86668756Y-103464000D01*
X86668758Y-103464000D01*
X86826444Y-103464000D01*
X86826445Y-103463999D01*
X86981097Y-103433237D01*
X87126779Y-103372894D01*
X87257889Y-103285289D01*
X87369389Y-103173789D01*
X87456994Y-103042679D01*
X87517337Y-102896997D01*
X87548100Y-102742342D01*
X87548100Y-102584658D01*
X87548100Y-102584655D01*
X87548099Y-102584653D01*
X87517337Y-102430003D01*
X87517335Y-102429998D01*
X87456997Y-102284327D01*
X87456990Y-102284314D01*
X87369389Y-102153211D01*
X87369386Y-102153207D01*
X87337760Y-102121581D01*
X87304275Y-102060258D01*
X87309259Y-101990566D01*
X87351131Y-101934633D01*
X87416595Y-101910216D01*
X87425441Y-101909900D01*
X98947678Y-101909900D01*
X99014717Y-101929585D01*
X99060472Y-101982389D01*
X99070416Y-102051547D01*
X99066337Y-102069901D01*
X99066060Y-102070811D01*
X99035300Y-102225453D01*
X99035300Y-102383146D01*
X99066061Y-102537789D01*
X99066064Y-102537801D01*
X99126402Y-102683471D01*
X99126403Y-102683472D01*
X99126406Y-102683479D01*
X99126409Y-102683483D01*
X99126411Y-102683487D01*
X99155737Y-102727378D01*
X99176614Y-102794056D01*
X99158128Y-102861435D01*
X99140315Y-102883948D01*
X96851639Y-105172625D01*
X96790316Y-105206110D01*
X96788150Y-105206561D01*
X96632808Y-105237461D01*
X96632798Y-105237464D01*
X96487127Y-105297802D01*
X96487114Y-105297809D01*
X96356011Y-105385410D01*
X96356007Y-105385413D01*
X96244513Y-105496907D01*
X96244510Y-105496911D01*
X96156909Y-105628014D01*
X96156902Y-105628027D01*
X96096564Y-105773698D01*
X96096561Y-105773710D01*
X96065800Y-105928353D01*
X96065800Y-106087800D01*
X96046115Y-106154839D01*
X95993311Y-106200594D01*
X95941800Y-106211800D01*
X92537000Y-106211800D01*
X92469961Y-106192115D01*
X92424206Y-106139311D01*
X92413000Y-106087800D01*
X92413000Y-105928355D01*
X92412999Y-105928353D01*
X92402658Y-105876365D01*
X92382237Y-105773703D01*
X92382235Y-105773698D01*
X92321897Y-105628027D01*
X92321890Y-105628014D01*
X92234289Y-105496911D01*
X92234286Y-105496907D01*
X92122792Y-105385413D01*
X92122788Y-105385410D01*
X91991685Y-105297809D01*
X91991672Y-105297802D01*
X91846001Y-105237464D01*
X91845989Y-105237461D01*
X91691345Y-105206700D01*
X91691342Y-105206700D01*
X91533658Y-105206700D01*
X91533655Y-105206700D01*
X91379010Y-105237461D01*
X91378998Y-105237464D01*
X91233327Y-105297802D01*
X91233314Y-105297809D01*
X91102211Y-105385410D01*
X91102207Y-105385413D01*
X90990713Y-105496907D01*
X90990710Y-105496911D01*
X90903109Y-105628014D01*
X90903102Y-105628027D01*
X90842764Y-105773698D01*
X90842761Y-105773710D01*
X90812000Y-105928353D01*
X90812000Y-106087800D01*
X90792315Y-106154839D01*
X90739511Y-106200594D01*
X90688000Y-106211800D01*
X68969640Y-106211800D01*
X68928719Y-106222764D01*
X68928719Y-106222765D01*
X68891451Y-106232751D01*
X68816914Y-106252723D01*
X68816909Y-106252726D01*
X68679990Y-106331775D01*
X68679982Y-106331781D01*
X67904039Y-107107725D01*
X67842716Y-107141210D01*
X67840550Y-107141661D01*
X67685208Y-107172561D01*
X67685198Y-107172564D01*
X67539527Y-107232902D01*
X67539514Y-107232909D01*
X67408411Y-107320510D01*
X67408407Y-107320513D01*
X67296913Y-107432007D01*
X67296910Y-107432011D01*
X67209309Y-107563114D01*
X67209302Y-107563127D01*
X67148964Y-107708798D01*
X67148961Y-107708810D01*
X67118200Y-107863453D01*
X67118200Y-108021146D01*
X67148961Y-108175789D01*
X67148964Y-108175801D01*
X67209302Y-108321472D01*
X67209309Y-108321485D01*
X67296910Y-108452588D01*
X67296913Y-108452592D01*
X67408408Y-108564087D01*
X67416894Y-108569757D01*
X67461699Y-108623369D01*
X67470407Y-108692694D01*
X67469621Y-108697051D01*
X67444100Y-108825353D01*
X67444100Y-108983046D01*
X67474861Y-109137689D01*
X67474864Y-109137701D01*
X67535202Y-109283372D01*
X67535209Y-109283385D01*
X67612829Y-109399551D01*
X67633707Y-109466229D01*
X67615222Y-109533609D01*
X67566416Y-109577448D01*
X67566891Y-109578336D01*
X67563281Y-109580265D01*
X67563244Y-109580299D01*
X67563088Y-109580368D01*
X67561514Y-109581209D01*
X67430411Y-109668810D01*
X67430407Y-109668813D01*
X67318913Y-109780307D01*
X67318910Y-109780311D01*
X67231309Y-109911414D01*
X67231302Y-109911427D01*
X67170964Y-110057098D01*
X67170961Y-110057110D01*
X67144012Y-110192591D01*
X67111627Y-110254502D01*
X67050911Y-110289076D01*
X67022395Y-110292400D01*
X66578897Y-110292400D01*
X66511858Y-110272715D01*
X66491216Y-110256081D01*
X62145574Y-105910439D01*
X62112089Y-105849116D01*
X62111638Y-105846949D01*
X62080738Y-105691610D01*
X62080737Y-105691603D01*
X62054398Y-105628014D01*
X62020397Y-105545927D01*
X62020390Y-105545914D01*
X61932789Y-105414811D01*
X61932786Y-105414807D01*
X61821292Y-105303313D01*
X61821288Y-105303310D01*
X61690185Y-105215709D01*
X61690172Y-105215702D01*
X61544501Y-105155364D01*
X61544495Y-105155362D01*
X61515870Y-105149668D01*
X61453960Y-105117281D01*
X61419388Y-105056564D01*
X61423129Y-104986795D01*
X61436960Y-104959164D01*
X61485594Y-104886379D01*
X61545937Y-104740697D01*
X61565313Y-104643285D01*
X61576838Y-104585350D01*
X61609223Y-104523439D01*
X61610718Y-104521916D01*
X64186416Y-101946219D01*
X64247739Y-101912734D01*
X64274097Y-101909900D01*
X86069759Y-101909900D01*
X86136798Y-101929585D01*
G37*
%TD.AperFunction*%
%TA.AperFunction,Conductor*%
G36*
X219442539Y-43020185D02*
G01*
X219488294Y-43072989D01*
X219499500Y-43124500D01*
X219499500Y-146875500D01*
X219479815Y-146942539D01*
X219427011Y-146988294D01*
X219375500Y-146999500D01*
X45624500Y-146999500D01*
X45557461Y-146979815D01*
X45511706Y-146927011D01*
X45500500Y-146875500D01*
X45500500Y-128526153D01*
X57363100Y-128526153D01*
X57363100Y-128683846D01*
X57393861Y-128838489D01*
X57393864Y-128838501D01*
X57454202Y-128984172D01*
X57454209Y-128984185D01*
X57541810Y-129115288D01*
X57541813Y-129115292D01*
X57653307Y-129226786D01*
X57653311Y-129226789D01*
X57784414Y-129314390D01*
X57784427Y-129314397D01*
X57930098Y-129374735D01*
X57930103Y-129374737D01*
X58084753Y-129405499D01*
X58084756Y-129405500D01*
X58084758Y-129405500D01*
X58242444Y-129405500D01*
X58242445Y-129405499D01*
X58397097Y-129374737D01*
X58542779Y-129314394D01*
X58673889Y-129226789D01*
X58785389Y-129115289D01*
X58872994Y-128984179D01*
X58933337Y-128838497D01*
X58964100Y-128683842D01*
X58964100Y-128526158D01*
X58964100Y-128526155D01*
X58964099Y-128526153D01*
X58933338Y-128371510D01*
X58933337Y-128371503D01*
X58917328Y-128332853D01*
X78101500Y-128332853D01*
X78101500Y-128490546D01*
X78132261Y-128645189D01*
X78132264Y-128645201D01*
X78192602Y-128790872D01*
X78192609Y-128790885D01*
X78280210Y-128921988D01*
X78280213Y-128921992D01*
X78391707Y-129033486D01*
X78391711Y-129033489D01*
X78522814Y-129121090D01*
X78522827Y-129121097D01*
X78668498Y-129181435D01*
X78668503Y-129181437D01*
X78789576Y-129205520D01*
X78823153Y-129212199D01*
X78823156Y-129212200D01*
X78823158Y-129212200D01*
X78980844Y-129212200D01*
X78980845Y-129212199D01*
X79135497Y-129181437D01*
X79281179Y-129121094D01*
X79412289Y-129033489D01*
X79523789Y-128921989D01*
X79611394Y-128790879D01*
X79671737Y-128645197D01*
X79687003Y-128568449D01*
X79695416Y-128526153D01*
X102004800Y-128526153D01*
X102004800Y-128683846D01*
X102035561Y-128838489D01*
X102035564Y-128838501D01*
X102095902Y-128984172D01*
X102095909Y-128984185D01*
X102183510Y-129115288D01*
X102183513Y-129115292D01*
X102295007Y-129226786D01*
X102295011Y-129226789D01*
X102426114Y-129314390D01*
X102426127Y-129314397D01*
X102571798Y-129374735D01*
X102571803Y-129374737D01*
X102726453Y-129405499D01*
X102726456Y-129405500D01*
X102726458Y-129405500D01*
X102884144Y-129405500D01*
X102884145Y-129405499D01*
X103038797Y-129374737D01*
X103184479Y-129314394D01*
X103258166Y-129265158D01*
X103316175Y-129226398D01*
X103382853Y-129205520D01*
X103385066Y-129205500D01*
X116659500Y-129205500D01*
X116726539Y-129225185D01*
X116772294Y-129277989D01*
X116783500Y-129329500D01*
X116783500Y-129422846D01*
X116814261Y-129577489D01*
X116814264Y-129577501D01*
X116874602Y-129723172D01*
X116874609Y-129723185D01*
X116962210Y-129854288D01*
X116962213Y-129854292D01*
X117073707Y-129965786D01*
X117073711Y-129965789D01*
X117204814Y-130053390D01*
X117204827Y-130053397D01*
X117350498Y-130113735D01*
X117350503Y-130113737D01*
X117505153Y-130144499D01*
X117505156Y-130144500D01*
X117505158Y-130144500D01*
X117662844Y-130144500D01*
X117662845Y-130144499D01*
X117817497Y-130113737D01*
X117963179Y-130053394D01*
X118094289Y-129965789D01*
X118205789Y-129854289D01*
X118293394Y-129723179D01*
X118353737Y-129577497D01*
X118384500Y-129422842D01*
X118384500Y-129329500D01*
X118404185Y-129262461D01*
X118456989Y-129216706D01*
X118508500Y-129205500D01*
X131920534Y-129205500D01*
X131987573Y-129225185D01*
X131989425Y-129226398D01*
X132121114Y-129314390D01*
X132121127Y-129314397D01*
X132266798Y-129374735D01*
X132266803Y-129374737D01*
X132421453Y-129405499D01*
X132421456Y-129405500D01*
X132421458Y-129405500D01*
X132579144Y-129405500D01*
X132579145Y-129405499D01*
X132733797Y-129374737D01*
X132879479Y-129314394D01*
X133010589Y-129226789D01*
X133122089Y-129115289D01*
X133209694Y-128984179D01*
X133270037Y-128838497D01*
X133300800Y-128683842D01*
X133300800Y-128526158D01*
X133300800Y-128526155D01*
X133300799Y-128526153D01*
X133270038Y-128371510D01*
X133270037Y-128371503D01*
X133254028Y-128332853D01*
X133209697Y-128225827D01*
X133209690Y-128225814D01*
X133122089Y-128094711D01*
X133122086Y-128094707D01*
X133010592Y-127983213D01*
X133010588Y-127983210D01*
X132879485Y-127895609D01*
X132879472Y-127895602D01*
X132733801Y-127835264D01*
X132733789Y-127835261D01*
X132579145Y-127804500D01*
X132579142Y-127804500D01*
X132421458Y-127804500D01*
X132421455Y-127804500D01*
X132266810Y-127835261D01*
X132266798Y-127835264D01*
X132121127Y-127895602D01*
X132121114Y-127895609D01*
X131989425Y-127983602D01*
X131922747Y-128004480D01*
X131920534Y-128004500D01*
X130455300Y-128004500D01*
X130388261Y-127984815D01*
X130342506Y-127932011D01*
X130331300Y-127880500D01*
X130331300Y-127745555D01*
X130331299Y-127745553D01*
X130322697Y-127702309D01*
X130300537Y-127590903D01*
X130300535Y-127590898D01*
X130240197Y-127445227D01*
X130240190Y-127445214D01*
X130152589Y-127314111D01*
X130152586Y-127314107D01*
X130041092Y-127202613D01*
X130041088Y-127202610D01*
X129909985Y-127115009D01*
X129909972Y-127115002D01*
X129764301Y-127054664D01*
X129764289Y-127054661D01*
X129609645Y-127023900D01*
X129609642Y-127023900D01*
X129451958Y-127023900D01*
X129451955Y-127023900D01*
X129297310Y-127054661D01*
X129297298Y-127054664D01*
X129151627Y-127115002D01*
X129151614Y-127115009D01*
X129020511Y-127202610D01*
X129020507Y-127202613D01*
X128909013Y-127314107D01*
X128909010Y-127314111D01*
X128821409Y-127445214D01*
X128821402Y-127445227D01*
X128761064Y-127590898D01*
X128761061Y-127590910D01*
X128730300Y-127745553D01*
X128730300Y-127880500D01*
X128710615Y-127947539D01*
X128657811Y-127993294D01*
X128606300Y-128004500D01*
X103385066Y-128004500D01*
X103318027Y-127984815D01*
X103316175Y-127983602D01*
X103184485Y-127895609D01*
X103184472Y-127895602D01*
X103038801Y-127835264D01*
X103038789Y-127835261D01*
X102884145Y-127804500D01*
X102884142Y-127804500D01*
X102726458Y-127804500D01*
X102726455Y-127804500D01*
X102571810Y-127835261D01*
X102571798Y-127835264D01*
X102426127Y-127895602D01*
X102426114Y-127895609D01*
X102295011Y-127983210D01*
X102295007Y-127983213D01*
X102183513Y-128094707D01*
X102183510Y-128094711D01*
X102095909Y-128225814D01*
X102095902Y-128225827D01*
X102035564Y-128371498D01*
X102035561Y-128371510D01*
X102004800Y-128526153D01*
X79695416Y-128526153D01*
X79701435Y-128495897D01*
X79701439Y-128495876D01*
X79702500Y-128490541D01*
X79702500Y-128332855D01*
X79702499Y-128332853D01*
X79671738Y-128178210D01*
X79671737Y-128178203D01*
X79637152Y-128094707D01*
X79611397Y-128032527D01*
X79611390Y-128032514D01*
X79523789Y-127901411D01*
X79523786Y-127901407D01*
X79412292Y-127789913D01*
X79412288Y-127789910D01*
X79281185Y-127702309D01*
X79281172Y-127702302D01*
X79135501Y-127641964D01*
X79135489Y-127641961D01*
X78980845Y-127611200D01*
X78980842Y-127611200D01*
X78823158Y-127611200D01*
X78823155Y-127611200D01*
X78668510Y-127641961D01*
X78668498Y-127641964D01*
X78522827Y-127702302D01*
X78522814Y-127702309D01*
X78391711Y-127789910D01*
X78391707Y-127789913D01*
X78280213Y-127901407D01*
X78280210Y-127901411D01*
X78192609Y-128032514D01*
X78192602Y-128032527D01*
X78132264Y-128178198D01*
X78132261Y-128178210D01*
X78101500Y-128332853D01*
X58917328Y-128332853D01*
X58872997Y-128225827D01*
X58872990Y-128225814D01*
X58785389Y-128094711D01*
X58785386Y-128094707D01*
X58673892Y-127983213D01*
X58673888Y-127983210D01*
X58542785Y-127895609D01*
X58542772Y-127895602D01*
X58397101Y-127835264D01*
X58397089Y-127835261D01*
X58242445Y-127804500D01*
X58242442Y-127804500D01*
X58084758Y-127804500D01*
X58084755Y-127804500D01*
X57930110Y-127835261D01*
X57930098Y-127835264D01*
X57784427Y-127895602D01*
X57784414Y-127895609D01*
X57653311Y-127983210D01*
X57653307Y-127983213D01*
X57541813Y-128094707D01*
X57541810Y-128094711D01*
X57454209Y-128225814D01*
X57454202Y-128225827D01*
X57393864Y-128371498D01*
X57393861Y-128371510D01*
X57363100Y-128526153D01*
X45500500Y-128526153D01*
X45500500Y-126468053D01*
X50794000Y-126468053D01*
X50794000Y-126625746D01*
X50824761Y-126780389D01*
X50824764Y-126780401D01*
X50885102Y-126926072D01*
X50885109Y-126926085D01*
X50972710Y-127057188D01*
X50972713Y-127057192D01*
X51084207Y-127168686D01*
X51084211Y-127168689D01*
X51215314Y-127256290D01*
X51215327Y-127256297D01*
X51360998Y-127316635D01*
X51361003Y-127316637D01*
X51515653Y-127347399D01*
X51515656Y-127347400D01*
X51515658Y-127347400D01*
X51673344Y-127347400D01*
X51673345Y-127347399D01*
X51827997Y-127316637D01*
X51973679Y-127256294D01*
X52104789Y-127168689D01*
X52216289Y-127057189D01*
X52303894Y-126926079D01*
X52364237Y-126780397D01*
X52395000Y-126625742D01*
X52395000Y-126468058D01*
X52395000Y-126468055D01*
X52394999Y-126468053D01*
X52379889Y-126392090D01*
X52364237Y-126313403D01*
X52360545Y-126304489D01*
X52303897Y-126167727D01*
X52303890Y-126167714D01*
X52216289Y-126036611D01*
X52216286Y-126036607D01*
X52104792Y-125925113D01*
X52104788Y-125925110D01*
X51973685Y-125837509D01*
X51973672Y-125837502D01*
X51828001Y-125777164D01*
X51827989Y-125777161D01*
X51673345Y-125746400D01*
X51673342Y-125746400D01*
X51515658Y-125746400D01*
X51515655Y-125746400D01*
X51361010Y-125777161D01*
X51360998Y-125777164D01*
X51215327Y-125837502D01*
X51215314Y-125837509D01*
X51084211Y-125925110D01*
X51084207Y-125925113D01*
X50972713Y-126036607D01*
X50972710Y-126036611D01*
X50885109Y-126167714D01*
X50885102Y-126167727D01*
X50824764Y-126313398D01*
X50824761Y-126313410D01*
X50794000Y-126468053D01*
X45500500Y-126468053D01*
X45500500Y-124563389D01*
X47499500Y-124563389D01*
X47499500Y-125436611D01*
X47507677Y-125488239D01*
X47525988Y-125603855D01*
X47526598Y-125607701D01*
X47580127Y-125772445D01*
X47658768Y-125926788D01*
X47760586Y-126066928D01*
X47883072Y-126189414D01*
X48023212Y-126291232D01*
X48177555Y-126369873D01*
X48342299Y-126423402D01*
X48513389Y-126450500D01*
X48513390Y-126450500D01*
X48686610Y-126450500D01*
X48686611Y-126450500D01*
X48857701Y-126423402D01*
X49022445Y-126369873D01*
X49176788Y-126291232D01*
X49316928Y-126189414D01*
X49439414Y-126066928D01*
X49541232Y-125926788D01*
X49619873Y-125772445D01*
X49673402Y-125607701D01*
X49700500Y-125436611D01*
X49700500Y-124563389D01*
X49673402Y-124392299D01*
X49619873Y-124227555D01*
X49541232Y-124073212D01*
X49439414Y-123933072D01*
X49316928Y-123810586D01*
X49246858Y-123759677D01*
X49176786Y-123708766D01*
X49174874Y-123707595D01*
X49174299Y-123706960D01*
X49172846Y-123705904D01*
X49173067Y-123705598D01*
X49127998Y-123655784D01*
X49116575Y-123586854D01*
X49144231Y-123522691D01*
X49202187Y-123483666D01*
X49272040Y-123482169D01*
X49277952Y-123483927D01*
X49313028Y-123495324D01*
X49503551Y-123525500D01*
X49503552Y-123525500D01*
X49696448Y-123525500D01*
X49696449Y-123525500D01*
X49886972Y-123495324D01*
X50070429Y-123435715D01*
X50242302Y-123348141D01*
X50398359Y-123234759D01*
X50534759Y-123098359D01*
X50648141Y-122942302D01*
X50735715Y-122770429D01*
X50795324Y-122586972D01*
X50825500Y-122396449D01*
X50825500Y-122203551D01*
X53374500Y-122203551D01*
X53374500Y-122396448D01*
X53404675Y-122586969D01*
X53404676Y-122586972D01*
X53464285Y-122770429D01*
X53551859Y-122942302D01*
X53665241Y-123098359D01*
X53801641Y-123234759D01*
X53957698Y-123348141D01*
X54129571Y-123435715D01*
X54313028Y-123495324D01*
X54503551Y-123525500D01*
X54503552Y-123525500D01*
X54696448Y-123525500D01*
X54696449Y-123525500D01*
X54886972Y-123495324D01*
X54922020Y-123483935D01*
X54991858Y-123481940D01*
X55051691Y-123518020D01*
X55082520Y-123580721D01*
X55074556Y-123650135D01*
X55030328Y-123704225D01*
X55025132Y-123707590D01*
X55023223Y-123708759D01*
X54932365Y-123774771D01*
X54883072Y-123810586D01*
X54883070Y-123810588D01*
X54883069Y-123810588D01*
X54760588Y-123933069D01*
X54760588Y-123933070D01*
X54760586Y-123933072D01*
X54716859Y-123993256D01*
X54658768Y-124073211D01*
X54580128Y-124227552D01*
X54526597Y-124392302D01*
X54499500Y-124563389D01*
X54499500Y-125436611D01*
X54503791Y-125463708D01*
X54526597Y-125607700D01*
X54527115Y-125609856D01*
X54527072Y-125610699D01*
X54527360Y-125612513D01*
X54526978Y-125612573D01*
X54523617Y-125679638D01*
X54482948Y-125736452D01*
X54430730Y-125760408D01*
X54346508Y-125777161D01*
X54346498Y-125777164D01*
X54200827Y-125837502D01*
X54200814Y-125837509D01*
X54069711Y-125925110D01*
X54069707Y-125925113D01*
X53958213Y-126036607D01*
X53958210Y-126036611D01*
X53870609Y-126167714D01*
X53870602Y-126167727D01*
X53810264Y-126313398D01*
X53810261Y-126313410D01*
X53779500Y-126468053D01*
X53779500Y-126625746D01*
X53810261Y-126780389D01*
X53810264Y-126780401D01*
X53870602Y-126926072D01*
X53870609Y-126926085D01*
X53958210Y-127057188D01*
X53958213Y-127057192D01*
X54069707Y-127168686D01*
X54069711Y-127168689D01*
X54200814Y-127256290D01*
X54200827Y-127256297D01*
X54346498Y-127316635D01*
X54346503Y-127316637D01*
X54501153Y-127347399D01*
X54501156Y-127347400D01*
X54501158Y-127347400D01*
X54658844Y-127347400D01*
X54658845Y-127347399D01*
X54813497Y-127316637D01*
X54959179Y-127256294D01*
X55090289Y-127168689D01*
X55201789Y-127057189D01*
X55289394Y-126926079D01*
X55349737Y-126780397D01*
X55380500Y-126625742D01*
X55380500Y-126574183D01*
X55400185Y-126507144D01*
X55452989Y-126461389D01*
X55508517Y-126451580D01*
X55508517Y-126450500D01*
X55686610Y-126450500D01*
X55686611Y-126450500D01*
X55857701Y-126423402D01*
X56022445Y-126369873D01*
X56176788Y-126291232D01*
X56316928Y-126189414D01*
X56439414Y-126066928D01*
X56541232Y-125926788D01*
X56619873Y-125772445D01*
X56673402Y-125607701D01*
X56674011Y-125603853D01*
X90126800Y-125603853D01*
X90126800Y-125761546D01*
X90157561Y-125916189D01*
X90157564Y-125916201D01*
X90217902Y-126061872D01*
X90217909Y-126061885D01*
X90305510Y-126192988D01*
X90305513Y-126192992D01*
X90417007Y-126304486D01*
X90417011Y-126304489D01*
X90548114Y-126392090D01*
X90548127Y-126392097D01*
X90691734Y-126451580D01*
X90693803Y-126452437D01*
X90848453Y-126483199D01*
X90848456Y-126483200D01*
X90848458Y-126483200D01*
X91006144Y-126483200D01*
X91006145Y-126483199D01*
X91160797Y-126452437D01*
X91306479Y-126392094D01*
X91437589Y-126304489D01*
X91549089Y-126192989D01*
X91636694Y-126061879D01*
X91697037Y-125916197D01*
X91727800Y-125761542D01*
X91727800Y-125603858D01*
X91727800Y-125603855D01*
X91727799Y-125603853D01*
X91697038Y-125449210D01*
X91697037Y-125449203D01*
X91691821Y-125436610D01*
X91636697Y-125303527D01*
X91636690Y-125303514D01*
X91549089Y-125172411D01*
X91549086Y-125172407D01*
X91437592Y-125060913D01*
X91437588Y-125060910D01*
X91306485Y-124973309D01*
X91306472Y-124973302D01*
X91160801Y-124912964D01*
X91160789Y-124912961D01*
X91006145Y-124882200D01*
X91006142Y-124882200D01*
X90848458Y-124882200D01*
X90848455Y-124882200D01*
X90693810Y-124912961D01*
X90693798Y-124912964D01*
X90548127Y-124973302D01*
X90548114Y-124973309D01*
X90417011Y-125060910D01*
X90417007Y-125060913D01*
X90305513Y-125172407D01*
X90305510Y-125172411D01*
X90217909Y-125303514D01*
X90217902Y-125303527D01*
X90157564Y-125449198D01*
X90157561Y-125449210D01*
X90126800Y-125603853D01*
X56674011Y-125603853D01*
X56700500Y-125436611D01*
X56700500Y-124563389D01*
X56673402Y-124392299D01*
X56619873Y-124227555D01*
X56541232Y-124073212D01*
X56439414Y-123933072D01*
X56316928Y-123810586D01*
X56176788Y-123708768D01*
X56022445Y-123630127D01*
X55857701Y-123576598D01*
X55857699Y-123576597D01*
X55857698Y-123576597D01*
X55726271Y-123555781D01*
X55686611Y-123549500D01*
X55513389Y-123549500D01*
X55481192Y-123554599D01*
X55342301Y-123576597D01*
X55342299Y-123576597D01*
X55327207Y-123581501D01*
X55257366Y-123583493D01*
X55197535Y-123547409D01*
X55166710Y-123484707D01*
X55174678Y-123415293D01*
X55218909Y-123361206D01*
X55232591Y-123353088D01*
X55242302Y-123348141D01*
X55398359Y-123234759D01*
X55534759Y-123098359D01*
X55648141Y-122942302D01*
X55735715Y-122770429D01*
X55795324Y-122586972D01*
X55825500Y-122396449D01*
X55825500Y-122203551D01*
X55795324Y-122013028D01*
X55735715Y-121829571D01*
X55648141Y-121657698D01*
X55534759Y-121501641D01*
X55398359Y-121365241D01*
X55242302Y-121251859D01*
X55070429Y-121164285D01*
X54886972Y-121104676D01*
X54886970Y-121104675D01*
X54886969Y-121104675D01*
X54733820Y-121080419D01*
X54696449Y-121074500D01*
X54503551Y-121074500D01*
X54467697Y-121080178D01*
X54313030Y-121104675D01*
X54129568Y-121164286D01*
X53957697Y-121251859D01*
X53878651Y-121309290D01*
X53801641Y-121365241D01*
X53801639Y-121365243D01*
X53801638Y-121365243D01*
X53665243Y-121501638D01*
X53665243Y-121501639D01*
X53665241Y-121501641D01*
X53616547Y-121568661D01*
X53551859Y-121657697D01*
X53464286Y-121829568D01*
X53404675Y-122013030D01*
X53374500Y-122203551D01*
X50825500Y-122203551D01*
X50795324Y-122013028D01*
X50735715Y-121829571D01*
X50648141Y-121657698D01*
X50534759Y-121501641D01*
X50398359Y-121365241D01*
X50242302Y-121251859D01*
X50070429Y-121164285D01*
X49886972Y-121104676D01*
X49886970Y-121104675D01*
X49886969Y-121104675D01*
X49733820Y-121080419D01*
X49696449Y-121074500D01*
X49503551Y-121074500D01*
X49467697Y-121080178D01*
X49313030Y-121104675D01*
X49129568Y-121164286D01*
X48957697Y-121251859D01*
X48878651Y-121309290D01*
X48801641Y-121365241D01*
X48801639Y-121365243D01*
X48801638Y-121365243D01*
X48665243Y-121501638D01*
X48665243Y-121501639D01*
X48665241Y-121501641D01*
X48616547Y-121568661D01*
X48551859Y-121657697D01*
X48464286Y-121829568D01*
X48404675Y-122013030D01*
X48374500Y-122203551D01*
X48374500Y-122396448D01*
X48404675Y-122586969D01*
X48404676Y-122586972D01*
X48464285Y-122770429D01*
X48551859Y-122942302D01*
X48665241Y-123098359D01*
X48801641Y-123234759D01*
X48957698Y-123348141D01*
X48967394Y-123353081D01*
X49018192Y-123401053D01*
X49034990Y-123468873D01*
X49012456Y-123535009D01*
X48957742Y-123578463D01*
X48888222Y-123585438D01*
X48872790Y-123581500D01*
X48857703Y-123576598D01*
X48857698Y-123576597D01*
X48726271Y-123555781D01*
X48686611Y-123549500D01*
X48513389Y-123549500D01*
X48473728Y-123555781D01*
X48342302Y-123576597D01*
X48177552Y-123630128D01*
X48023211Y-123708768D01*
X47943256Y-123766859D01*
X47883072Y-123810586D01*
X47883070Y-123810588D01*
X47883069Y-123810588D01*
X47760588Y-123933069D01*
X47760588Y-123933070D01*
X47760586Y-123933072D01*
X47716859Y-123993256D01*
X47658768Y-124073211D01*
X47580128Y-124227552D01*
X47526597Y-124392302D01*
X47499500Y-124563389D01*
X45500500Y-124563389D01*
X45500500Y-120521053D01*
X50662100Y-120521053D01*
X50662100Y-120678746D01*
X50692861Y-120833389D01*
X50692864Y-120833401D01*
X50753202Y-120979072D01*
X50753209Y-120979085D01*
X50840810Y-121110188D01*
X50840813Y-121110192D01*
X50952307Y-121221686D01*
X50952311Y-121221689D01*
X51083414Y-121309290D01*
X51083427Y-121309297D01*
X51218490Y-121365241D01*
X51229103Y-121369637D01*
X51383753Y-121400399D01*
X51383756Y-121400400D01*
X51383758Y-121400400D01*
X51541444Y-121400400D01*
X51541445Y-121400399D01*
X51696097Y-121369637D01*
X51841779Y-121309294D01*
X51841785Y-121309290D01*
X51973475Y-121221298D01*
X52040153Y-121200420D01*
X52042366Y-121200400D01*
X53151131Y-121200400D01*
X53151147Y-121200401D01*
X53158743Y-121200401D01*
X53316854Y-121200401D01*
X53316857Y-121200401D01*
X53469585Y-121159477D01*
X53519704Y-121130539D01*
X53606516Y-121080420D01*
X53718320Y-120968616D01*
X53718320Y-120968614D01*
X53728528Y-120958407D01*
X53728529Y-120958404D01*
X54927681Y-119759253D01*
X78101500Y-119759253D01*
X78101500Y-119916946D01*
X78132261Y-120071589D01*
X78132264Y-120071601D01*
X78192602Y-120217272D01*
X78192609Y-120217285D01*
X78280210Y-120348388D01*
X78280213Y-120348392D01*
X78391707Y-120459886D01*
X78391711Y-120459889D01*
X78522814Y-120547490D01*
X78522827Y-120547497D01*
X78668498Y-120607835D01*
X78668503Y-120607837D01*
X78823153Y-120638599D01*
X78823156Y-120638600D01*
X78823158Y-120638600D01*
X78980844Y-120638600D01*
X78980845Y-120638599D01*
X79135497Y-120607837D01*
X79281179Y-120547494D01*
X79320751Y-120521053D01*
X79412875Y-120459498D01*
X79479553Y-120438620D01*
X79481766Y-120438600D01*
X159815231Y-120438600D01*
X159815247Y-120438601D01*
X159822843Y-120438601D01*
X159980954Y-120438601D01*
X159980957Y-120438601D01*
X160133685Y-120397677D01*
X160187853Y-120366403D01*
X160187854Y-120366403D01*
X160270609Y-120318624D01*
X160270608Y-120318624D01*
X160270616Y-120318620D01*
X160382420Y-120206816D01*
X160382420Y-120206814D01*
X160392624Y-120196611D01*
X160392627Y-120196606D01*
X164704262Y-115884972D01*
X164765583Y-115851489D01*
X164767750Y-115851038D01*
X164825685Y-115839513D01*
X164923097Y-115820137D01*
X165068779Y-115759794D01*
X165199889Y-115672189D01*
X165311389Y-115560689D01*
X165398994Y-115429579D01*
X165400559Y-115425802D01*
X165425551Y-115365464D01*
X165459337Y-115283897D01*
X165490100Y-115129242D01*
X165490100Y-114971558D01*
X165490100Y-114971555D01*
X165490099Y-114971553D01*
X165470557Y-114873310D01*
X165459337Y-114816903D01*
X165422358Y-114727627D01*
X165398997Y-114671227D01*
X165398990Y-114671214D01*
X165311389Y-114540111D01*
X165311386Y-114540107D01*
X165199892Y-114428613D01*
X165199888Y-114428610D01*
X165068785Y-114341009D01*
X165068772Y-114341002D01*
X164923101Y-114280664D01*
X164923089Y-114280661D01*
X164768445Y-114249900D01*
X164768442Y-114249900D01*
X164610758Y-114249900D01*
X164610755Y-114249900D01*
X164456110Y-114280661D01*
X164456098Y-114280664D01*
X164310427Y-114341002D01*
X164310414Y-114341009D01*
X164179311Y-114428610D01*
X164179307Y-114428613D01*
X164067813Y-114540107D01*
X164067810Y-114540111D01*
X163980209Y-114671214D01*
X163980202Y-114671227D01*
X163919864Y-114816898D01*
X163919861Y-114816908D01*
X163888961Y-114972250D01*
X163856576Y-115034161D01*
X163855025Y-115035739D01*
X159689484Y-119201281D01*
X159628161Y-119234766D01*
X159601803Y-119237600D01*
X79481766Y-119237600D01*
X79414727Y-119217915D01*
X79412875Y-119216702D01*
X79281185Y-119128709D01*
X79281172Y-119128702D01*
X79135501Y-119068364D01*
X79135489Y-119068361D01*
X78980845Y-119037600D01*
X78980842Y-119037600D01*
X78823158Y-119037600D01*
X78823155Y-119037600D01*
X78668510Y-119068361D01*
X78668498Y-119068364D01*
X78522827Y-119128702D01*
X78522814Y-119128709D01*
X78391711Y-119216310D01*
X78391707Y-119216313D01*
X78280213Y-119327807D01*
X78280210Y-119327811D01*
X78192609Y-119458914D01*
X78192602Y-119458927D01*
X78132264Y-119604598D01*
X78132261Y-119604610D01*
X78101500Y-119759253D01*
X54927681Y-119759253D01*
X56353716Y-118333219D01*
X56415039Y-118299734D01*
X56441397Y-118296900D01*
X87378034Y-118296900D01*
X87445073Y-118316585D01*
X87446925Y-118317798D01*
X87578614Y-118405790D01*
X87578627Y-118405797D01*
X87724298Y-118466135D01*
X87724303Y-118466137D01*
X87878953Y-118496899D01*
X87878956Y-118496900D01*
X87878958Y-118496900D01*
X88036644Y-118496900D01*
X88036645Y-118496899D01*
X88191297Y-118466137D01*
X88336979Y-118405794D01*
X88468089Y-118318189D01*
X88579589Y-118206689D01*
X88667194Y-118075579D01*
X88727537Y-117929897D01*
X88758300Y-117775242D01*
X88758300Y-117640300D01*
X88777985Y-117573261D01*
X88830789Y-117527506D01*
X88882300Y-117516300D01*
X95494134Y-117516300D01*
X95561173Y-117535985D01*
X95563025Y-117537198D01*
X95694714Y-117625190D01*
X95694727Y-117625197D01*
X95840398Y-117685535D01*
X95840403Y-117685537D01*
X95995053Y-117716299D01*
X95995056Y-117716300D01*
X95995058Y-117716300D01*
X96152744Y-117716300D01*
X96152745Y-117716299D01*
X96307397Y-117685537D01*
X96453079Y-117625194D01*
X96584189Y-117537589D01*
X96695689Y-117426089D01*
X96783294Y-117294979D01*
X96843637Y-117149297D01*
X96874400Y-116994642D01*
X96874400Y-116836958D01*
X96874400Y-116836955D01*
X96874399Y-116836953D01*
X96843638Y-116682310D01*
X96843637Y-116682303D01*
X96787628Y-116547084D01*
X96783297Y-116536627D01*
X96783290Y-116536614D01*
X96695689Y-116405511D01*
X96695686Y-116405507D01*
X96584192Y-116294013D01*
X96584188Y-116294010D01*
X96453085Y-116206409D01*
X96453072Y-116206402D01*
X96307401Y-116146064D01*
X96307389Y-116146061D01*
X96152745Y-116115300D01*
X96152742Y-116115300D01*
X95995058Y-116115300D01*
X95995055Y-116115300D01*
X95840410Y-116146061D01*
X95840398Y-116146064D01*
X95694727Y-116206402D01*
X95694714Y-116206409D01*
X95563025Y-116294402D01*
X95496347Y-116315280D01*
X95494134Y-116315300D01*
X91851800Y-116315300D01*
X91784761Y-116295615D01*
X91739006Y-116242811D01*
X91727800Y-116191300D01*
X91727800Y-116056355D01*
X91727799Y-116056353D01*
X91697038Y-115901710D01*
X91697037Y-115901703D01*
X91690108Y-115884974D01*
X91636697Y-115756027D01*
X91636690Y-115756014D01*
X91549089Y-115624911D01*
X91549086Y-115624907D01*
X91437592Y-115513413D01*
X91437588Y-115513410D01*
X91306485Y-115425809D01*
X91306472Y-115425802D01*
X91160801Y-115365464D01*
X91160789Y-115365461D01*
X91006145Y-115334700D01*
X91006142Y-115334700D01*
X90848458Y-115334700D01*
X90848455Y-115334700D01*
X90693810Y-115365461D01*
X90693798Y-115365464D01*
X90548127Y-115425802D01*
X90548114Y-115425809D01*
X90417011Y-115513410D01*
X90417007Y-115513413D01*
X90305513Y-115624907D01*
X90305510Y-115624911D01*
X90217909Y-115756014D01*
X90217902Y-115756027D01*
X90157564Y-115901698D01*
X90157561Y-115901710D01*
X90126800Y-116056353D01*
X90126800Y-116191300D01*
X90107115Y-116258339D01*
X90054311Y-116304094D01*
X90002800Y-116315300D01*
X54852541Y-116315300D01*
X54816550Y-116324943D01*
X54816551Y-116324944D01*
X54699814Y-116356223D01*
X54699809Y-116356226D01*
X54562890Y-116435275D01*
X54562882Y-116435281D01*
X52171639Y-118826525D01*
X52110316Y-118860010D01*
X52108150Y-118860461D01*
X51952808Y-118891361D01*
X51952798Y-118891364D01*
X51807127Y-118951702D01*
X51807114Y-118951709D01*
X51676011Y-119039310D01*
X51676007Y-119039313D01*
X51564513Y-119150807D01*
X51564510Y-119150811D01*
X51476909Y-119281914D01*
X51476902Y-119281927D01*
X51416564Y-119427598D01*
X51416561Y-119427610D01*
X51385800Y-119582253D01*
X51385800Y-119697229D01*
X51366115Y-119764268D01*
X51313311Y-119810023D01*
X51285993Y-119818846D01*
X51229107Y-119830161D01*
X51229098Y-119830164D01*
X51083427Y-119890502D01*
X51083414Y-119890509D01*
X50952311Y-119978110D01*
X50952307Y-119978113D01*
X50840813Y-120089607D01*
X50840810Y-120089611D01*
X50753209Y-120220714D01*
X50753202Y-120220727D01*
X50692864Y-120366398D01*
X50692861Y-120366410D01*
X50662100Y-120521053D01*
X45500500Y-120521053D01*
X45500500Y-115027953D01*
X81596500Y-115027953D01*
X81596500Y-115185646D01*
X81627261Y-115340289D01*
X81627264Y-115340301D01*
X81687602Y-115485972D01*
X81687609Y-115485985D01*
X81775210Y-115617088D01*
X81775213Y-115617092D01*
X81886707Y-115728586D01*
X81886711Y-115728589D01*
X82017814Y-115816190D01*
X82017827Y-115816197D01*
X82101609Y-115850900D01*
X82163503Y-115876537D01*
X82318153Y-115907299D01*
X82318156Y-115907300D01*
X82318158Y-115907300D01*
X82475844Y-115907300D01*
X82475845Y-115907299D01*
X82630497Y-115876537D01*
X82776179Y-115816194D01*
X82907289Y-115728589D01*
X83018789Y-115617089D01*
X83106394Y-115485979D01*
X83166737Y-115340297D01*
X83197500Y-115185642D01*
X83197500Y-115027958D01*
X83197500Y-115027955D01*
X83197499Y-115027953D01*
X83166738Y-114873310D01*
X83166737Y-114873303D01*
X83166735Y-114873298D01*
X83106397Y-114727627D01*
X83106390Y-114727614D01*
X83018789Y-114596511D01*
X83018786Y-114596507D01*
X82907292Y-114485013D01*
X82907288Y-114485010D01*
X82776185Y-114397409D01*
X82776172Y-114397402D01*
X82630501Y-114337064D01*
X82630489Y-114337061D01*
X82475845Y-114306300D01*
X82475842Y-114306300D01*
X82318158Y-114306300D01*
X82318155Y-114306300D01*
X82163510Y-114337061D01*
X82163498Y-114337064D01*
X82017827Y-114397402D01*
X82017814Y-114397409D01*
X81886711Y-114485010D01*
X81886707Y-114485013D01*
X81775213Y-114596507D01*
X81775210Y-114596511D01*
X81687609Y-114727614D01*
X81687602Y-114727627D01*
X81627264Y-114873298D01*
X81627261Y-114873310D01*
X81596500Y-115027953D01*
X45500500Y-115027953D01*
X45500500Y-113527053D01*
X78967500Y-113527053D01*
X78967500Y-113684746D01*
X78998261Y-113839389D01*
X78998264Y-113839401D01*
X79058602Y-113985072D01*
X79058609Y-113985085D01*
X79146210Y-114116188D01*
X79146213Y-114116192D01*
X79257707Y-114227686D01*
X79257711Y-114227689D01*
X79388814Y-114315290D01*
X79388827Y-114315297D01*
X79534498Y-114375635D01*
X79534503Y-114375637D01*
X79689153Y-114406399D01*
X79689156Y-114406400D01*
X79689158Y-114406400D01*
X79846844Y-114406400D01*
X79846845Y-114406399D01*
X80001497Y-114375637D01*
X80147179Y-114315294D01*
X80278289Y-114227689D01*
X80389789Y-114116189D01*
X80477394Y-113985079D01*
X80537737Y-113839397D01*
X80568500Y-113684742D01*
X80568500Y-113527058D01*
X80568500Y-113527055D01*
X80542005Y-113393858D01*
X80542005Y-113393857D01*
X80538403Y-113375753D01*
X90046000Y-113375753D01*
X90046000Y-113533446D01*
X90076761Y-113688089D01*
X90076764Y-113688101D01*
X90137102Y-113833772D01*
X90137109Y-113833785D01*
X90224710Y-113964888D01*
X90224713Y-113964892D01*
X90336207Y-114076386D01*
X90336211Y-114076389D01*
X90467314Y-114163990D01*
X90467327Y-114163997D01*
X90612998Y-114224335D01*
X90613003Y-114224337D01*
X90741516Y-114249900D01*
X90767653Y-114255099D01*
X90767656Y-114255100D01*
X90767658Y-114255100D01*
X90925344Y-114255100D01*
X90925345Y-114255099D01*
X91079997Y-114224337D01*
X91225679Y-114163994D01*
X91356789Y-114076389D01*
X91468289Y-113964889D01*
X91555894Y-113833779D01*
X91616237Y-113688097D01*
X91647000Y-113533442D01*
X91647000Y-113375758D01*
X91647000Y-113375755D01*
X91646999Y-113375753D01*
X91646332Y-113372398D01*
X91616237Y-113221103D01*
X91616234Y-113221096D01*
X91616233Y-113221092D01*
X91555897Y-113075427D01*
X91555890Y-113075414D01*
X91468289Y-112944311D01*
X91468286Y-112944307D01*
X91356792Y-112832813D01*
X91356788Y-112832810D01*
X91225685Y-112745209D01*
X91225672Y-112745202D01*
X91080001Y-112684864D01*
X91079989Y-112684861D01*
X90925345Y-112654100D01*
X90925342Y-112654100D01*
X90767658Y-112654100D01*
X90767655Y-112654100D01*
X90613010Y-112684861D01*
X90612998Y-112684864D01*
X90467327Y-112745202D01*
X90467314Y-112745209D01*
X90336211Y-112832810D01*
X90336207Y-112832813D01*
X90224713Y-112944307D01*
X90224710Y-112944311D01*
X90137109Y-113075414D01*
X90137102Y-113075427D01*
X90076767Y-113221092D01*
X90076761Y-113221110D01*
X90046000Y-113375753D01*
X80538403Y-113375753D01*
X80537738Y-113372410D01*
X80537737Y-113372403D01*
X80537735Y-113372398D01*
X80477397Y-113226727D01*
X80477390Y-113226714D01*
X80389789Y-113095611D01*
X80389786Y-113095607D01*
X80278292Y-112984113D01*
X80278288Y-112984110D01*
X80147185Y-112896509D01*
X80147172Y-112896502D01*
X80001501Y-112836164D01*
X80001489Y-112836161D01*
X79846845Y-112805400D01*
X79846842Y-112805400D01*
X79689158Y-112805400D01*
X79689155Y-112805400D01*
X79534510Y-112836161D01*
X79534498Y-112836164D01*
X79388827Y-112896502D01*
X79388814Y-112896509D01*
X79257711Y-112984110D01*
X79257707Y-112984113D01*
X79146213Y-113095607D01*
X79146210Y-113095611D01*
X79058609Y-113226714D01*
X79058602Y-113226727D01*
X78998264Y-113372398D01*
X78998261Y-113372410D01*
X78967500Y-113527053D01*
X45500500Y-113527053D01*
X45500500Y-102225453D01*
X54492800Y-102225453D01*
X54492800Y-102383146D01*
X54523561Y-102537789D01*
X54523564Y-102537801D01*
X54583902Y-102683472D01*
X54583909Y-102683485D01*
X54671510Y-102814588D01*
X54671513Y-102814592D01*
X54783007Y-102926086D01*
X54783011Y-102926089D01*
X54914114Y-103013690D01*
X54914127Y-103013697D01*
X55059798Y-103074035D01*
X55059803Y-103074037D01*
X55214453Y-103104799D01*
X55214456Y-103104800D01*
X55214458Y-103104800D01*
X55372144Y-103104800D01*
X55372145Y-103104799D01*
X55526797Y-103074037D01*
X55672479Y-103013694D01*
X55803589Y-102926089D01*
X55915089Y-102814589D01*
X56002694Y-102683479D01*
X56063037Y-102537797D01*
X56084480Y-102429998D01*
X56093938Y-102382450D01*
X56126323Y-102320539D01*
X56127816Y-102319018D01*
X57100517Y-101346319D01*
X57161840Y-101312834D01*
X57188198Y-101310000D01*
X62824803Y-101310000D01*
X62891842Y-101329685D01*
X62937597Y-101382489D01*
X62947541Y-101451647D01*
X62918516Y-101515203D01*
X62912484Y-101521681D01*
X60761539Y-103672625D01*
X60700216Y-103706110D01*
X60698050Y-103706561D01*
X60542708Y-103737461D01*
X60542698Y-103737464D01*
X60397027Y-103797802D01*
X60397014Y-103797809D01*
X60265911Y-103885410D01*
X60265907Y-103885413D01*
X60154413Y-103996907D01*
X60154410Y-103996911D01*
X60066809Y-104128014D01*
X60066802Y-104128027D01*
X60006464Y-104273698D01*
X60006461Y-104273710D01*
X59975700Y-104428353D01*
X59975700Y-104586046D01*
X60006461Y-104740689D01*
X60006464Y-104740701D01*
X60066802Y-104886372D01*
X60066809Y-104886385D01*
X60154410Y-105017488D01*
X60154413Y-105017492D01*
X60265907Y-105128986D01*
X60265911Y-105128989D01*
X60397014Y-105216590D01*
X60397027Y-105216597D01*
X60542698Y-105276935D01*
X60542703Y-105276937D01*
X60542707Y-105276937D01*
X60542708Y-105276938D01*
X60571326Y-105282631D01*
X60633237Y-105315016D01*
X60667811Y-105375732D01*
X60664070Y-105445502D01*
X60650237Y-105473138D01*
X60601608Y-105545916D01*
X60601602Y-105545927D01*
X60541264Y-105691598D01*
X60541261Y-105691610D01*
X60510500Y-105846253D01*
X60510500Y-106003946D01*
X60541261Y-106158589D01*
X60541264Y-106158601D01*
X60601602Y-106304272D01*
X60601609Y-106304285D01*
X60689210Y-106435388D01*
X60689213Y-106435392D01*
X60800707Y-106546886D01*
X60800711Y-106546889D01*
X60931814Y-106634490D01*
X60931827Y-106634497D01*
X61077498Y-106694835D01*
X61077503Y-106694837D01*
X61142147Y-106707695D01*
X61232849Y-106725738D01*
X61294760Y-106758123D01*
X61296339Y-106759674D01*
X63452426Y-108915761D01*
X63485911Y-108977084D01*
X63480927Y-109046776D01*
X63439055Y-109102709D01*
X63388937Y-109125059D01*
X63256708Y-109151361D01*
X63256698Y-109151364D01*
X63111027Y-109211702D01*
X63111014Y-109211709D01*
X62979911Y-109299310D01*
X62979907Y-109299313D01*
X62868413Y-109410807D01*
X62868410Y-109410811D01*
X62780809Y-109541914D01*
X62780802Y-109541927D01*
X62720464Y-109687598D01*
X62720461Y-109687610D01*
X62689700Y-109842253D01*
X62689700Y-109999946D01*
X62720461Y-110154589D01*
X62720464Y-110154601D01*
X62780802Y-110300272D01*
X62780809Y-110300285D01*
X62868410Y-110431388D01*
X62868413Y-110431392D01*
X62971579Y-110534558D01*
X63005064Y-110595881D01*
X63000080Y-110665573D01*
X62987011Y-110691114D01*
X62986412Y-110692009D01*
X62986402Y-110692028D01*
X62926064Y-110837698D01*
X62926061Y-110837710D01*
X62895300Y-110992353D01*
X62895300Y-111150046D01*
X62926061Y-111304689D01*
X62926064Y-111304701D01*
X62986402Y-111450372D01*
X62986409Y-111450385D01*
X63074010Y-111581488D01*
X63074013Y-111581492D01*
X63185507Y-111692986D01*
X63185511Y-111692989D01*
X63316614Y-111780590D01*
X63316627Y-111780597D01*
X63462298Y-111840935D01*
X63462303Y-111840937D01*
X63615395Y-111871389D01*
X63616953Y-111871699D01*
X63616956Y-111871700D01*
X63616958Y-111871700D01*
X63774644Y-111871700D01*
X63774645Y-111871699D01*
X63929297Y-111840937D01*
X64074979Y-111780594D01*
X64206089Y-111692989D01*
X64317589Y-111581489D01*
X64405194Y-111450379D01*
X64409516Y-111439946D01*
X64424102Y-111404730D01*
X64465537Y-111304697D01*
X64496300Y-111150042D01*
X64496300Y-110992358D01*
X64496300Y-110992355D01*
X64496299Y-110992353D01*
X64469880Y-110859537D01*
X64465537Y-110837703D01*
X64456760Y-110816514D01*
X64405197Y-110692027D01*
X64405190Y-110692014D01*
X64317589Y-110560911D01*
X64317586Y-110560907D01*
X64214419Y-110457740D01*
X64180934Y-110396417D01*
X64185918Y-110326725D01*
X64199003Y-110301162D01*
X64199594Y-110300279D01*
X64259937Y-110154597D01*
X64286240Y-110022362D01*
X64318624Y-109960452D01*
X64379340Y-109925878D01*
X64449110Y-109929617D01*
X64495538Y-109958873D01*
X65793939Y-111257274D01*
X65793949Y-111257285D01*
X65798279Y-111261615D01*
X65798280Y-111261616D01*
X65910084Y-111373420D01*
X65910086Y-111373421D01*
X65910090Y-111373424D01*
X65964314Y-111404730D01*
X65964319Y-111404732D01*
X66047009Y-111452474D01*
X66047010Y-111452474D01*
X66047015Y-111452477D01*
X66199743Y-111493400D01*
X66357857Y-111493400D01*
X69003768Y-111493400D01*
X69070807Y-111513085D01*
X69116562Y-111565889D01*
X69126506Y-111635047D01*
X69125385Y-111641591D01*
X69105700Y-111740553D01*
X69105700Y-111898246D01*
X69136461Y-112052889D01*
X69136464Y-112052901D01*
X69196802Y-112198572D01*
X69196809Y-112198585D01*
X69284410Y-112329688D01*
X69284413Y-112329692D01*
X69395907Y-112441186D01*
X69395911Y-112441189D01*
X69527014Y-112528790D01*
X69527027Y-112528797D01*
X69672698Y-112589135D01*
X69672703Y-112589137D01*
X69827353Y-112619899D01*
X69827356Y-112619900D01*
X69827358Y-112619900D01*
X69985044Y-112619900D01*
X69985045Y-112619899D01*
X70139697Y-112589137D01*
X70285379Y-112528794D01*
X70416489Y-112441189D01*
X70527989Y-112329689D01*
X70615594Y-112198579D01*
X70675937Y-112052897D01*
X70706700Y-111898242D01*
X70706700Y-111740558D01*
X70706700Y-111740555D01*
X70706699Y-111740553D01*
X70687015Y-111641591D01*
X70693242Y-111572000D01*
X70736105Y-111516822D01*
X70801995Y-111493578D01*
X70808632Y-111493400D01*
X93596702Y-111493400D01*
X93663741Y-111513085D01*
X93667373Y-111515510D01*
X93676514Y-111521850D01*
X93706384Y-111551720D01*
X93780650Y-111594597D01*
X93843315Y-111630777D01*
X93996042Y-111671700D01*
X93996043Y-111671700D01*
X107914734Y-111671700D01*
X107981773Y-111691385D01*
X107983625Y-111692598D01*
X108115314Y-111780590D01*
X108115327Y-111780597D01*
X108260998Y-111840935D01*
X108261003Y-111840937D01*
X108414095Y-111871389D01*
X108415653Y-111871699D01*
X108415656Y-111871700D01*
X108415658Y-111871700D01*
X108573344Y-111871700D01*
X108573345Y-111871699D01*
X108727997Y-111840937D01*
X108873679Y-111780594D01*
X109004789Y-111692989D01*
X109116289Y-111581489D01*
X109203894Y-111450379D01*
X109208216Y-111439946D01*
X109222802Y-111404730D01*
X109264237Y-111304697D01*
X109283613Y-111207285D01*
X109295138Y-111149350D01*
X109327523Y-111087439D01*
X109329018Y-111085916D01*
X110403981Y-110010953D01*
X111444000Y-110010953D01*
X111444000Y-110168646D01*
X111474761Y-110323289D01*
X111474764Y-110323301D01*
X111535102Y-110468972D01*
X111535109Y-110468985D01*
X111622710Y-110600088D01*
X111622713Y-110600092D01*
X111734207Y-110711586D01*
X111734211Y-110711589D01*
X111865314Y-110799190D01*
X111865327Y-110799197D01*
X111989936Y-110850811D01*
X112011003Y-110859537D01*
X112129919Y-110883191D01*
X112165653Y-110890299D01*
X112165656Y-110890300D01*
X112165658Y-110890300D01*
X112323344Y-110890300D01*
X112323345Y-110890299D01*
X112477997Y-110859537D01*
X112623679Y-110799194D01*
X112678163Y-110762789D01*
X112755375Y-110711198D01*
X112822053Y-110690320D01*
X112824266Y-110690300D01*
X163943073Y-110690300D01*
X164010112Y-110709985D01*
X164055867Y-110762789D01*
X164065811Y-110831947D01*
X164046175Y-110883191D01*
X163980209Y-110981914D01*
X163980202Y-110981927D01*
X163919864Y-111127598D01*
X163919861Y-111127610D01*
X163889100Y-111282253D01*
X163889100Y-111439946D01*
X163919861Y-111594589D01*
X163919863Y-111594597D01*
X163980202Y-111740272D01*
X163980209Y-111740285D01*
X164067810Y-111871388D01*
X164067813Y-111871392D01*
X164179307Y-111982886D01*
X164179311Y-111982889D01*
X164310414Y-112070490D01*
X164310427Y-112070497D01*
X164456098Y-112130835D01*
X164456103Y-112130837D01*
X164610753Y-112161599D01*
X164610756Y-112161600D01*
X164610758Y-112161600D01*
X164768444Y-112161600D01*
X164768445Y-112161599D01*
X164923097Y-112130837D01*
X165068779Y-112070494D01*
X165199889Y-111982889D01*
X165311389Y-111871389D01*
X165398994Y-111740279D01*
X165459337Y-111594597D01*
X165490100Y-111439942D01*
X165490100Y-111282258D01*
X165490100Y-111282255D01*
X165490099Y-111282253D01*
X165485993Y-111261613D01*
X165459337Y-111127603D01*
X165442047Y-111085860D01*
X165398997Y-110981927D01*
X165398990Y-110981914D01*
X165333025Y-110883191D01*
X165312147Y-110816514D01*
X165330631Y-110749133D01*
X165382610Y-110702443D01*
X165436127Y-110690300D01*
X171444431Y-110690300D01*
X171444447Y-110690301D01*
X171452043Y-110690301D01*
X171610154Y-110690301D01*
X171610157Y-110690301D01*
X171762885Y-110649377D01*
X171823130Y-110614594D01*
X171899816Y-110570320D01*
X172011620Y-110458516D01*
X172011620Y-110458514D01*
X172021824Y-110448311D01*
X172021827Y-110448306D01*
X180088162Y-102381972D01*
X180149483Y-102348489D01*
X180151650Y-102348038D01*
X180209585Y-102336513D01*
X180306997Y-102317137D01*
X180452679Y-102256794D01*
X180583789Y-102169189D01*
X180695289Y-102057689D01*
X180782894Y-101926579D01*
X180783496Y-101925127D01*
X180837805Y-101794011D01*
X180843237Y-101780897D01*
X180874000Y-101626242D01*
X180874000Y-101468558D01*
X180874000Y-101468555D01*
X180873999Y-101468553D01*
X180867477Y-101435766D01*
X180843237Y-101313903D01*
X180841620Y-101310000D01*
X180782897Y-101168227D01*
X180782890Y-101168214D01*
X180695289Y-101037111D01*
X180695286Y-101037107D01*
X180583792Y-100925613D01*
X180583788Y-100925610D01*
X180452685Y-100838009D01*
X180452672Y-100838002D01*
X180307001Y-100777664D01*
X180306989Y-100777661D01*
X180152345Y-100746900D01*
X180152342Y-100746900D01*
X179994658Y-100746900D01*
X179994655Y-100746900D01*
X179840010Y-100777661D01*
X179839998Y-100777664D01*
X179694327Y-100838002D01*
X179694314Y-100838009D01*
X179563211Y-100925610D01*
X179563207Y-100925613D01*
X179451713Y-101037107D01*
X179451710Y-101037111D01*
X179364109Y-101168214D01*
X179364102Y-101168227D01*
X179303764Y-101313898D01*
X179303761Y-101313908D01*
X179272861Y-101469250D01*
X179240476Y-101531161D01*
X179238925Y-101532739D01*
X171318684Y-109452981D01*
X171257361Y-109486466D01*
X171231003Y-109489300D01*
X112824266Y-109489300D01*
X112757227Y-109469615D01*
X112755375Y-109468402D01*
X112623685Y-109380409D01*
X112623672Y-109380402D01*
X112478001Y-109320064D01*
X112477989Y-109320061D01*
X112323345Y-109289300D01*
X112323342Y-109289300D01*
X112165658Y-109289300D01*
X112165655Y-109289300D01*
X112011010Y-109320061D01*
X112010998Y-109320064D01*
X111865327Y-109380402D01*
X111865314Y-109380409D01*
X111734211Y-109468010D01*
X111734207Y-109468013D01*
X111622713Y-109579507D01*
X111622710Y-109579511D01*
X111535109Y-109710614D01*
X111535102Y-109710627D01*
X111474764Y-109856298D01*
X111474761Y-109856310D01*
X111444000Y-110010953D01*
X110403981Y-110010953D01*
X112021316Y-108393619D01*
X112082639Y-108360134D01*
X112108997Y-108357300D01*
X169262431Y-108357300D01*
X169262447Y-108357301D01*
X169270043Y-108357301D01*
X169428154Y-108357301D01*
X169428157Y-108357301D01*
X169580885Y-108316377D01*
X169646145Y-108278699D01*
X169717816Y-108237320D01*
X169829620Y-108125516D01*
X169829620Y-108125514D01*
X169839824Y-108115311D01*
X169839827Y-108115306D01*
X177936317Y-100018819D01*
X177997640Y-99985334D01*
X178023998Y-99982500D01*
X188708234Y-99982500D01*
X188775273Y-100002185D01*
X188777125Y-100003398D01*
X188908814Y-100091390D01*
X188908827Y-100091397D01*
X189050126Y-100149924D01*
X189054503Y-100151737D01*
X189209153Y-100182499D01*
X189209156Y-100182500D01*
X189209158Y-100182500D01*
X189366844Y-100182500D01*
X189366845Y-100182499D01*
X189521497Y-100151737D01*
X189667179Y-100091394D01*
X189798289Y-100003789D01*
X189909789Y-99892289D01*
X189997394Y-99761179D01*
X190057737Y-99615497D01*
X190088500Y-99460842D01*
X190088500Y-99303158D01*
X190088500Y-99303155D01*
X190088499Y-99303153D01*
X190083617Y-99278610D01*
X190057737Y-99148503D01*
X190050348Y-99130664D01*
X189997397Y-99002827D01*
X189997390Y-99002814D01*
X189909789Y-98871711D01*
X189909786Y-98871707D01*
X189798292Y-98760213D01*
X189798288Y-98760210D01*
X189667185Y-98672609D01*
X189667172Y-98672602D01*
X189521501Y-98612264D01*
X189521489Y-98612261D01*
X189366845Y-98581500D01*
X189366842Y-98581500D01*
X189209158Y-98581500D01*
X189209155Y-98581500D01*
X189054510Y-98612261D01*
X189054498Y-98612264D01*
X188908827Y-98672602D01*
X188908814Y-98672609D01*
X188777125Y-98760602D01*
X188710447Y-98781480D01*
X188708234Y-98781500D01*
X177810570Y-98781500D01*
X177810554Y-98781499D01*
X177802958Y-98781499D01*
X177644843Y-98781499D01*
X177572853Y-98800789D01*
X177492114Y-98822423D01*
X177492109Y-98822426D01*
X177355190Y-98901475D01*
X177355182Y-98901481D01*
X176815484Y-99441179D01*
X176754161Y-99474664D01*
X176684469Y-99469680D01*
X176658912Y-99456600D01*
X176544585Y-99380209D01*
X176544572Y-99380202D01*
X176398901Y-99319864D01*
X176398889Y-99319861D01*
X176244245Y-99289100D01*
X176244242Y-99289100D01*
X176086558Y-99289100D01*
X176086555Y-99289100D01*
X175931910Y-99319861D01*
X175931898Y-99319864D01*
X175786227Y-99380202D01*
X175786214Y-99380209D01*
X175655111Y-99467810D01*
X175655107Y-99467813D01*
X175543613Y-99579307D01*
X175543610Y-99579311D01*
X175456009Y-99710414D01*
X175456002Y-99710427D01*
X175395664Y-99856098D01*
X175395661Y-99856110D01*
X175365211Y-100009191D01*
X175332826Y-100071102D01*
X175272110Y-100105677D01*
X175243594Y-100109000D01*
X99496941Y-100109000D01*
X99429902Y-100089315D01*
X99384147Y-100036511D01*
X99374203Y-99967353D01*
X99403228Y-99903797D01*
X99409260Y-99897319D01*
X99414286Y-99892292D01*
X99414289Y-99892289D01*
X99501894Y-99761179D01*
X99562237Y-99615497D01*
X99593000Y-99460842D01*
X99593000Y-99303158D01*
X99593000Y-99303155D01*
X99592999Y-99303153D01*
X99588117Y-99278610D01*
X99562237Y-99148503D01*
X99554848Y-99130664D01*
X99501897Y-99002827D01*
X99501890Y-99002814D01*
X99414289Y-98871711D01*
X99414286Y-98871707D01*
X99302792Y-98760213D01*
X99302788Y-98760210D01*
X99171685Y-98672609D01*
X99171672Y-98672602D01*
X99026001Y-98612264D01*
X99025989Y-98612261D01*
X98871345Y-98581500D01*
X98871342Y-98581500D01*
X98713658Y-98581500D01*
X98713655Y-98581500D01*
X98559010Y-98612261D01*
X98558998Y-98612264D01*
X98413327Y-98672602D01*
X98413314Y-98672609D01*
X98282211Y-98760210D01*
X98282207Y-98760213D01*
X98170713Y-98871707D01*
X98170710Y-98871711D01*
X98083109Y-99002814D01*
X98083102Y-99002827D01*
X98022764Y-99148498D01*
X98022761Y-99148510D01*
X97992000Y-99303153D01*
X97992000Y-99460846D01*
X98022761Y-99615489D01*
X98022764Y-99615501D01*
X98083102Y-99761172D01*
X98083109Y-99761185D01*
X98170710Y-99892288D01*
X98170713Y-99892292D01*
X98175740Y-99897319D01*
X98209225Y-99958642D01*
X98204241Y-100028334D01*
X98162369Y-100084267D01*
X98096905Y-100108684D01*
X98088059Y-100109000D01*
X77928600Y-100109000D01*
X77861561Y-100089315D01*
X77815806Y-100036511D01*
X77804600Y-99985000D01*
X77804600Y-99821555D01*
X77804599Y-99821553D01*
X77792588Y-99761172D01*
X77773837Y-99666903D01*
X77752541Y-99615489D01*
X77713497Y-99521227D01*
X77713490Y-99521214D01*
X77625889Y-99390111D01*
X77625886Y-99390107D01*
X77514392Y-99278613D01*
X77514388Y-99278610D01*
X77383285Y-99191009D01*
X77383272Y-99191002D01*
X77237601Y-99130664D01*
X77237589Y-99130661D01*
X77082945Y-99099900D01*
X77082942Y-99099900D01*
X76925258Y-99099900D01*
X76925255Y-99099900D01*
X76770610Y-99130661D01*
X76770598Y-99130664D01*
X76624927Y-99191002D01*
X76624914Y-99191009D01*
X76493811Y-99278610D01*
X76493807Y-99278613D01*
X76382313Y-99390107D01*
X76382310Y-99390111D01*
X76294709Y-99521214D01*
X76294702Y-99521227D01*
X76234364Y-99666898D01*
X76234361Y-99666910D01*
X76203600Y-99821553D01*
X76203600Y-99985000D01*
X76183915Y-100052039D01*
X76131111Y-100097794D01*
X76079600Y-100109000D01*
X73071250Y-100109000D01*
X73004211Y-100089315D01*
X72958456Y-100036511D01*
X72948512Y-99967353D01*
X72956689Y-99937548D01*
X73015235Y-99796201D01*
X73015237Y-99796197D01*
X73046000Y-99641542D01*
X73046000Y-99483858D01*
X73046000Y-99483855D01*
X73045999Y-99483853D01*
X73040578Y-99456600D01*
X73015237Y-99329203D01*
X73011368Y-99319863D01*
X72954897Y-99183527D01*
X72954890Y-99183514D01*
X72867289Y-99052411D01*
X72867286Y-99052407D01*
X72755792Y-98940913D01*
X72755788Y-98940910D01*
X72624685Y-98853309D01*
X72624672Y-98853302D01*
X72479001Y-98792964D01*
X72478989Y-98792961D01*
X72324345Y-98762200D01*
X72324342Y-98762200D01*
X72166658Y-98762200D01*
X72166655Y-98762200D01*
X72012010Y-98792961D01*
X72011998Y-98792964D01*
X71866327Y-98853302D01*
X71866314Y-98853309D01*
X71735211Y-98940910D01*
X71735207Y-98940913D01*
X71623713Y-99052407D01*
X71623710Y-99052411D01*
X71536109Y-99183514D01*
X71536102Y-99183527D01*
X71475764Y-99329198D01*
X71475761Y-99329210D01*
X71445000Y-99483853D01*
X71445000Y-99641546D01*
X71475761Y-99796189D01*
X71475764Y-99796201D01*
X71534311Y-99937548D01*
X71541780Y-100007018D01*
X71510504Y-100069496D01*
X71450415Y-100105148D01*
X71419750Y-100109000D01*
X56974770Y-100109000D01*
X56974754Y-100108999D01*
X56967158Y-100108999D01*
X56809043Y-100108999D01*
X56656315Y-100149923D01*
X56656313Y-100149923D01*
X56656313Y-100149924D01*
X56519381Y-100228982D01*
X55278639Y-101469725D01*
X55217316Y-101503210D01*
X55215150Y-101503661D01*
X55059808Y-101534561D01*
X55059798Y-101534564D01*
X54914127Y-101594902D01*
X54914114Y-101594909D01*
X54783011Y-101682510D01*
X54783007Y-101682513D01*
X54671513Y-101794007D01*
X54671510Y-101794011D01*
X54583909Y-101925114D01*
X54583902Y-101925127D01*
X54523564Y-102070798D01*
X54523561Y-102070810D01*
X54492800Y-102225453D01*
X45500500Y-102225453D01*
X45500500Y-98488453D01*
X90953300Y-98488453D01*
X90953300Y-98646146D01*
X90984061Y-98800789D01*
X90984064Y-98800801D01*
X91044402Y-98946472D01*
X91044409Y-98946485D01*
X91132010Y-99077588D01*
X91132013Y-99077592D01*
X91243507Y-99189086D01*
X91243511Y-99189089D01*
X91374614Y-99276690D01*
X91374627Y-99276697D01*
X91520298Y-99337035D01*
X91520303Y-99337037D01*
X91674953Y-99367799D01*
X91674956Y-99367800D01*
X91674958Y-99367800D01*
X91832644Y-99367800D01*
X91832645Y-99367799D01*
X91987297Y-99337037D01*
X92128351Y-99278611D01*
X92132972Y-99276697D01*
X92132972Y-99276696D01*
X92132979Y-99276694D01*
X92264089Y-99189089D01*
X92375589Y-99077589D01*
X92463194Y-98946479D01*
X92465500Y-98940913D01*
X92523535Y-98800801D01*
X92523537Y-98800797D01*
X92554300Y-98646142D01*
X92554300Y-98488458D01*
X92554300Y-98488455D01*
X92554299Y-98488453D01*
X92523538Y-98333810D01*
X92523537Y-98333803D01*
X92523535Y-98333798D01*
X92463197Y-98188127D01*
X92463190Y-98188114D01*
X92375589Y-98057011D01*
X92375586Y-98057007D01*
X92264092Y-97945513D01*
X92264088Y-97945510D01*
X92132985Y-97857909D01*
X92132976Y-97857904D01*
X92122978Y-97853763D01*
X92068576Y-97809920D01*
X92046513Y-97743625D01*
X92063794Y-97675927D01*
X92114932Y-97628318D01*
X92146234Y-97617588D01*
X92239497Y-97599037D01*
X92385179Y-97538694D01*
X92516289Y-97451089D01*
X92627789Y-97339589D01*
X92715394Y-97208479D01*
X92775737Y-97062797D01*
X92806500Y-96908142D01*
X92806500Y-96750458D01*
X92806500Y-96750454D01*
X92806499Y-96750453D01*
X92801527Y-96725458D01*
X92775737Y-96595803D01*
X92766664Y-96573899D01*
X92715397Y-96450127D01*
X92715389Y-96450113D01*
X92711074Y-96443654D01*
X92669111Y-96380853D01*
X107943800Y-96380853D01*
X107943800Y-96538546D01*
X107974561Y-96693189D01*
X107974564Y-96693201D01*
X108034902Y-96838872D01*
X108034909Y-96838885D01*
X108122510Y-96969988D01*
X108122513Y-96969992D01*
X108234007Y-97081486D01*
X108234011Y-97081489D01*
X108365114Y-97169090D01*
X108365127Y-97169097D01*
X108510798Y-97229435D01*
X108510803Y-97229437D01*
X108665453Y-97260199D01*
X108665456Y-97260200D01*
X108665458Y-97260200D01*
X108823144Y-97260200D01*
X108823145Y-97260199D01*
X108977797Y-97229437D01*
X109123479Y-97169094D01*
X109254589Y-97081489D01*
X109366089Y-96969989D01*
X109453694Y-96838879D01*
X109514037Y-96693197D01*
X109544800Y-96538542D01*
X109544800Y-96380858D01*
X109544800Y-96380855D01*
X109544799Y-96380853D01*
X109525472Y-96283689D01*
X109514037Y-96226203D01*
X109506312Y-96207553D01*
X109453697Y-96080527D01*
X109453690Y-96080514D01*
X109366089Y-95949411D01*
X109366086Y-95949407D01*
X109254592Y-95837913D01*
X109254588Y-95837910D01*
X109123485Y-95750309D01*
X109123472Y-95750302D01*
X108977801Y-95689964D01*
X108977789Y-95689961D01*
X108823145Y-95659200D01*
X108823142Y-95659200D01*
X108665458Y-95659200D01*
X108665455Y-95659200D01*
X108510810Y-95689961D01*
X108510798Y-95689964D01*
X108365127Y-95750302D01*
X108365114Y-95750309D01*
X108234011Y-95837910D01*
X108234007Y-95837913D01*
X108122513Y-95949407D01*
X108122510Y-95949411D01*
X108034909Y-96080514D01*
X108034902Y-96080527D01*
X107974564Y-96226198D01*
X107974561Y-96226210D01*
X107943800Y-96380853D01*
X92669111Y-96380853D01*
X92627789Y-96319011D01*
X92627786Y-96319007D01*
X92516292Y-96207513D01*
X92516288Y-96207510D01*
X92385185Y-96119909D01*
X92385172Y-96119902D01*
X92239501Y-96059564D01*
X92239489Y-96059561D01*
X92084845Y-96028800D01*
X92084842Y-96028800D01*
X91927158Y-96028800D01*
X91927155Y-96028800D01*
X91772510Y-96059561D01*
X91772498Y-96059564D01*
X91626827Y-96119902D01*
X91626814Y-96119909D01*
X91495711Y-96207510D01*
X91495707Y-96207513D01*
X91384213Y-96319007D01*
X91384210Y-96319011D01*
X91296609Y-96450114D01*
X91296602Y-96450127D01*
X91236264Y-96595798D01*
X91236261Y-96595810D01*
X91205500Y-96750453D01*
X91205500Y-96908146D01*
X91236261Y-97062789D01*
X91236264Y-97062801D01*
X91296602Y-97208472D01*
X91296609Y-97208485D01*
X91384210Y-97339588D01*
X91384213Y-97339592D01*
X91495707Y-97451086D01*
X91495711Y-97451089D01*
X91626814Y-97538690D01*
X91626827Y-97538697D01*
X91636817Y-97542835D01*
X91691221Y-97586676D01*
X91713286Y-97652970D01*
X91696007Y-97720669D01*
X91644870Y-97768280D01*
X91613557Y-97779013D01*
X91520308Y-97797561D01*
X91520298Y-97797564D01*
X91374627Y-97857902D01*
X91374614Y-97857909D01*
X91243511Y-97945510D01*
X91243507Y-97945513D01*
X91132013Y-98057007D01*
X91132010Y-98057011D01*
X91044409Y-98188114D01*
X91044402Y-98188127D01*
X90984064Y-98333798D01*
X90984061Y-98333810D01*
X90953300Y-98488453D01*
X45500500Y-98488453D01*
X45500500Y-96541853D01*
X63837900Y-96541853D01*
X63837900Y-96699546D01*
X63868661Y-96854189D01*
X63868664Y-96854201D01*
X63929002Y-96999872D01*
X63929009Y-96999885D01*
X64016610Y-97130988D01*
X64016613Y-97130992D01*
X64128107Y-97242486D01*
X64128111Y-97242489D01*
X64259214Y-97330090D01*
X64259227Y-97330097D01*
X64404898Y-97390435D01*
X64404903Y-97390437D01*
X64559553Y-97421199D01*
X64559556Y-97421200D01*
X64559558Y-97421200D01*
X64717244Y-97421200D01*
X64717245Y-97421199D01*
X64871897Y-97390437D01*
X65017579Y-97330094D01*
X65148689Y-97242489D01*
X65260189Y-97130989D01*
X65347794Y-96999879D01*
X65352845Y-96987686D01*
X65385791Y-96908146D01*
X65408137Y-96854197D01*
X65429843Y-96745075D01*
X65433428Y-96727053D01*
X69050300Y-96727053D01*
X69050300Y-96884746D01*
X69081061Y-97039389D01*
X69081064Y-97039401D01*
X69141402Y-97185072D01*
X69141409Y-97185085D01*
X69229010Y-97316188D01*
X69229013Y-97316192D01*
X69340507Y-97427686D01*
X69340511Y-97427689D01*
X69471614Y-97515290D01*
X69471627Y-97515297D01*
X69617298Y-97575635D01*
X69617303Y-97575637D01*
X69734932Y-97599035D01*
X69771953Y-97606399D01*
X69771956Y-97606400D01*
X69771958Y-97606400D01*
X69929644Y-97606400D01*
X69929645Y-97606399D01*
X70084297Y-97575637D01*
X70229979Y-97515294D01*
X70232380Y-97513690D01*
X70364069Y-97425698D01*
X70430746Y-97404820D01*
X70432960Y-97404800D01*
X72385734Y-97404800D01*
X72452773Y-97424485D01*
X72454625Y-97425698D01*
X72586314Y-97513690D01*
X72586327Y-97513697D01*
X72731998Y-97574035D01*
X72732003Y-97574037D01*
X72857676Y-97599035D01*
X72886653Y-97604799D01*
X72886656Y-97604800D01*
X72886658Y-97604800D01*
X73044344Y-97604800D01*
X73044345Y-97604799D01*
X73198997Y-97574037D01*
X73344679Y-97513694D01*
X73475789Y-97426089D01*
X73587289Y-97314589D01*
X73674894Y-97183479D01*
X73735237Y-97037797D01*
X73766000Y-96883142D01*
X73766000Y-96725458D01*
X73766000Y-96725455D01*
X73765999Y-96725453D01*
X73748078Y-96635360D01*
X73735237Y-96570803D01*
X73723778Y-96543138D01*
X73674897Y-96425127D01*
X73674890Y-96425114D01*
X73587289Y-96294011D01*
X73587286Y-96294007D01*
X73475792Y-96182513D01*
X73475788Y-96182510D01*
X73344685Y-96094909D01*
X73344672Y-96094902D01*
X73199001Y-96034564D01*
X73198989Y-96034561D01*
X73044345Y-96003800D01*
X73044342Y-96003800D01*
X72886658Y-96003800D01*
X72886655Y-96003800D01*
X72732010Y-96034561D01*
X72731998Y-96034564D01*
X72586327Y-96094902D01*
X72586314Y-96094909D01*
X72454625Y-96182902D01*
X72387947Y-96203780D01*
X72385734Y-96203800D01*
X70428171Y-96203800D01*
X70361132Y-96184115D01*
X70359280Y-96182902D01*
X70229985Y-96096509D01*
X70229972Y-96096502D01*
X70084301Y-96036164D01*
X70084289Y-96036161D01*
X69929645Y-96005400D01*
X69929642Y-96005400D01*
X69771958Y-96005400D01*
X69771955Y-96005400D01*
X69617310Y-96036161D01*
X69617298Y-96036164D01*
X69471627Y-96096502D01*
X69471614Y-96096509D01*
X69340511Y-96184110D01*
X69340507Y-96184113D01*
X69229013Y-96295607D01*
X69229010Y-96295611D01*
X69141409Y-96426714D01*
X69141402Y-96426727D01*
X69081064Y-96572398D01*
X69081061Y-96572410D01*
X69050300Y-96727053D01*
X65433428Y-96727053D01*
X65439038Y-96698850D01*
X65447802Y-96682093D01*
X65451823Y-96663614D01*
X65467983Y-96642027D01*
X65469017Y-96639763D01*
X65471136Y-96637486D01*
X65471423Y-96636939D01*
X65472918Y-96635416D01*
X66199241Y-95909093D01*
X66260562Y-95875610D01*
X66330254Y-95880594D01*
X66386187Y-95922466D01*
X66408537Y-95972584D01*
X66415361Y-96006891D01*
X66415364Y-96006901D01*
X66475702Y-96152572D01*
X66475709Y-96152585D01*
X66563310Y-96283688D01*
X66563313Y-96283692D01*
X66674807Y-96395186D01*
X66674811Y-96395189D01*
X66805914Y-96482790D01*
X66805927Y-96482797D01*
X66940514Y-96538544D01*
X66951603Y-96543137D01*
X67090724Y-96570810D01*
X67106253Y-96573899D01*
X67106256Y-96573900D01*
X67106258Y-96573900D01*
X67263944Y-96573900D01*
X67263945Y-96573899D01*
X67418597Y-96543137D01*
X67564279Y-96482794D01*
X67695389Y-96395189D01*
X67806889Y-96283689D01*
X67894494Y-96152579D01*
X67954837Y-96006897D01*
X67969588Y-95932734D01*
X67986789Y-95846268D01*
X67988632Y-95846634D01*
X68011503Y-95789973D01*
X68068531Y-95749606D01*
X68108756Y-95742900D01*
X84489734Y-95742900D01*
X84556773Y-95762585D01*
X84602528Y-95815389D01*
X84612472Y-95884547D01*
X84592836Y-95935791D01*
X84558809Y-95986714D01*
X84558802Y-95986727D01*
X84498464Y-96132398D01*
X84498461Y-96132410D01*
X84467700Y-96287053D01*
X84467700Y-96444746D01*
X84498461Y-96599389D01*
X84498464Y-96599401D01*
X84558802Y-96745072D01*
X84558809Y-96745085D01*
X84646410Y-96876188D01*
X84646413Y-96876192D01*
X84757907Y-96987686D01*
X84757911Y-96987689D01*
X84889014Y-97075290D01*
X84889027Y-97075297D01*
X85023489Y-97130992D01*
X85034703Y-97135637D01*
X85189353Y-97166399D01*
X85189356Y-97166400D01*
X85189358Y-97166400D01*
X85347044Y-97166400D01*
X85347045Y-97166399D01*
X85501697Y-97135637D01*
X85647379Y-97075294D01*
X85778489Y-96987689D01*
X85889989Y-96876189D01*
X85977594Y-96745079D01*
X85999155Y-96693023D01*
X86042994Y-96638621D01*
X86109287Y-96616555D01*
X86176987Y-96633833D01*
X86216818Y-96671585D01*
X86300410Y-96796688D01*
X86300413Y-96796692D01*
X86411907Y-96908186D01*
X86411911Y-96908189D01*
X86543014Y-96995790D01*
X86543027Y-96995797D01*
X86648298Y-97039401D01*
X86688703Y-97056137D01*
X86843353Y-97086899D01*
X86843356Y-97086900D01*
X86843358Y-97086900D01*
X87001044Y-97086900D01*
X87001045Y-97086899D01*
X87155697Y-97056137D01*
X87268366Y-97009467D01*
X87301372Y-96995797D01*
X87301372Y-96995796D01*
X87301379Y-96995794D01*
X87432489Y-96908189D01*
X87543989Y-96796689D01*
X87631594Y-96665579D01*
X87641350Y-96642027D01*
X87659007Y-96599397D01*
X87691937Y-96519897D01*
X87722700Y-96365242D01*
X87722700Y-96207558D01*
X87722700Y-96207555D01*
X87722699Y-96207553D01*
X87721952Y-96203800D01*
X87691937Y-96052903D01*
X87684341Y-96034564D01*
X87631597Y-95907227D01*
X87631590Y-95907214D01*
X87543989Y-95776111D01*
X87543986Y-95776107D01*
X87432492Y-95664613D01*
X87432488Y-95664610D01*
X87301385Y-95577009D01*
X87301372Y-95577002D01*
X87155701Y-95516664D01*
X87155689Y-95516661D01*
X87001045Y-95485900D01*
X87001042Y-95485900D01*
X86882212Y-95485900D01*
X86815173Y-95466215D01*
X86769418Y-95413411D01*
X86767651Y-95409352D01*
X86706297Y-95261226D01*
X86706290Y-95261214D01*
X86618689Y-95130111D01*
X86618686Y-95130107D01*
X86507192Y-95018613D01*
X86507188Y-95018610D01*
X86376085Y-94931009D01*
X86376072Y-94931002D01*
X86230401Y-94870664D01*
X86230391Y-94870661D01*
X86075049Y-94839761D01*
X86058292Y-94830995D01*
X86039814Y-94826976D01*
X86014777Y-94808233D01*
X86013138Y-94807376D01*
X86011560Y-94805825D01*
X85986490Y-94780755D01*
X85986488Y-94780752D01*
X85867617Y-94661881D01*
X85867616Y-94661880D01*
X85780804Y-94611760D01*
X85780804Y-94611759D01*
X85780800Y-94611758D01*
X85730685Y-94582823D01*
X85577957Y-94541899D01*
X85419843Y-94541899D01*
X85412247Y-94541899D01*
X85412231Y-94541900D01*
X84689100Y-94541900D01*
X84622061Y-94522215D01*
X84576306Y-94469411D01*
X84565100Y-94417900D01*
X84565100Y-94264155D01*
X84565099Y-94264153D01*
X84548964Y-94183037D01*
X84534337Y-94109503D01*
X84528411Y-94095197D01*
X84473997Y-93963827D01*
X84473990Y-93963814D01*
X84386389Y-93832711D01*
X84386386Y-93832707D01*
X84274892Y-93721213D01*
X84274888Y-93721210D01*
X84143785Y-93633609D01*
X84143772Y-93633602D01*
X83998101Y-93573264D01*
X83998089Y-93573261D01*
X83843445Y-93542500D01*
X83843442Y-93542500D01*
X83685758Y-93542500D01*
X83685755Y-93542500D01*
X83531110Y-93573261D01*
X83531098Y-93573264D01*
X83385427Y-93633602D01*
X83385414Y-93633609D01*
X83254311Y-93721210D01*
X83254307Y-93721213D01*
X83142813Y-93832707D01*
X83142810Y-93832711D01*
X83055209Y-93963814D01*
X83055202Y-93963827D01*
X82994864Y-94109498D01*
X82994861Y-94109510D01*
X82964100Y-94264153D01*
X82964100Y-94417900D01*
X82944415Y-94484939D01*
X82891611Y-94530694D01*
X82840100Y-94541900D01*
X66203369Y-94541900D01*
X66203353Y-94541899D01*
X66195757Y-94541899D01*
X66037643Y-94541899D01*
X65930287Y-94570665D01*
X65884910Y-94582824D01*
X65884909Y-94582825D01*
X65834796Y-94611759D01*
X65834795Y-94611760D01*
X65814220Y-94623639D01*
X65747985Y-94661879D01*
X65747982Y-94661881D01*
X64623739Y-95786125D01*
X64562416Y-95819610D01*
X64560250Y-95820061D01*
X64404908Y-95850961D01*
X64404898Y-95850964D01*
X64259227Y-95911302D01*
X64259214Y-95911309D01*
X64128111Y-95998910D01*
X64128107Y-95998913D01*
X64016613Y-96110407D01*
X64016610Y-96110411D01*
X63929009Y-96241514D01*
X63929002Y-96241527D01*
X63868664Y-96387198D01*
X63868661Y-96387210D01*
X63837900Y-96541853D01*
X45500500Y-96541853D01*
X45500500Y-93306953D01*
X68536300Y-93306953D01*
X68536300Y-93464646D01*
X68567061Y-93619289D01*
X68567064Y-93619301D01*
X68627402Y-93764972D01*
X68627409Y-93764985D01*
X68715010Y-93896088D01*
X68715013Y-93896092D01*
X68826507Y-94007586D01*
X68826511Y-94007589D01*
X68957614Y-94095190D01*
X68957627Y-94095197D01*
X69084233Y-94147638D01*
X69103303Y-94155537D01*
X69241544Y-94183035D01*
X69257953Y-94186299D01*
X69257956Y-94186300D01*
X69257958Y-94186300D01*
X69415644Y-94186300D01*
X69415645Y-94186299D01*
X69570297Y-94155537D01*
X69715979Y-94095194D01*
X69806518Y-94034698D01*
X69873196Y-94013820D01*
X69875409Y-94013800D01*
X75766634Y-94013800D01*
X75833673Y-94033485D01*
X75835525Y-94034698D01*
X75967214Y-94122690D01*
X75967227Y-94122697D01*
X76085885Y-94171846D01*
X76112903Y-94183037D01*
X76267553Y-94213799D01*
X76267556Y-94213800D01*
X76267558Y-94213800D01*
X76425244Y-94213800D01*
X76425245Y-94213799D01*
X76579897Y-94183037D01*
X76725579Y-94122694D01*
X76856689Y-94035089D01*
X76968189Y-93923589D01*
X77055794Y-93792479D01*
X77056413Y-93790986D01*
X77101558Y-93681994D01*
X77116137Y-93646797D01*
X77146900Y-93492142D01*
X77146900Y-93334458D01*
X77146490Y-93332399D01*
X77143459Y-93317159D01*
X77143459Y-93317157D01*
X77139858Y-93299053D01*
X81007300Y-93299053D01*
X81007300Y-93456746D01*
X81038061Y-93611389D01*
X81038064Y-93611401D01*
X81098402Y-93757072D01*
X81098409Y-93757085D01*
X81186010Y-93888188D01*
X81186013Y-93888192D01*
X81297507Y-93999686D01*
X81297511Y-93999689D01*
X81428614Y-94087290D01*
X81428627Y-94087297D01*
X81574298Y-94147635D01*
X81574303Y-94147637D01*
X81695989Y-94171842D01*
X81728953Y-94178399D01*
X81728956Y-94178400D01*
X81728958Y-94178400D01*
X81886644Y-94178400D01*
X81886645Y-94178399D01*
X82041297Y-94147637D01*
X82186979Y-94087294D01*
X82318089Y-93999689D01*
X82429589Y-93888189D01*
X82517194Y-93757079D01*
X82577537Y-93611397D01*
X82608300Y-93456742D01*
X82608300Y-93299058D01*
X82608300Y-93299055D01*
X82608299Y-93299053D01*
X82596964Y-93242068D01*
X82577537Y-93144403D01*
X82577535Y-93144398D01*
X82517197Y-92998727D01*
X82517190Y-92998714D01*
X82429589Y-92867611D01*
X82429586Y-92867607D01*
X82318092Y-92756113D01*
X82318088Y-92756110D01*
X82186985Y-92668509D01*
X82186972Y-92668502D01*
X82041301Y-92608164D01*
X82041289Y-92608161D01*
X81886645Y-92577400D01*
X81886642Y-92577400D01*
X81728958Y-92577400D01*
X81728955Y-92577400D01*
X81574310Y-92608161D01*
X81574298Y-92608164D01*
X81428627Y-92668502D01*
X81428614Y-92668509D01*
X81297511Y-92756110D01*
X81297507Y-92756113D01*
X81186013Y-92867607D01*
X81186010Y-92867611D01*
X81098409Y-92998714D01*
X81098402Y-92998727D01*
X81038064Y-93144398D01*
X81038061Y-93144410D01*
X81007300Y-93299053D01*
X77139858Y-93299053D01*
X77128368Y-93241290D01*
X77116137Y-93179803D01*
X77115995Y-93179459D01*
X77055797Y-93034127D01*
X77055790Y-93034114D01*
X76968189Y-92903011D01*
X76968186Y-92903007D01*
X76856692Y-92791513D01*
X76856688Y-92791510D01*
X76725585Y-92703909D01*
X76725572Y-92703902D01*
X76579901Y-92643564D01*
X76579889Y-92643561D01*
X76425245Y-92612800D01*
X76425242Y-92612800D01*
X76267558Y-92612800D01*
X76267555Y-92612800D01*
X76112910Y-92643561D01*
X76112898Y-92643564D01*
X75967227Y-92703902D01*
X75967214Y-92703909D01*
X75835525Y-92791902D01*
X75768847Y-92812780D01*
X75766634Y-92812800D01*
X69947241Y-92812800D01*
X69880202Y-92793115D01*
X69859560Y-92776481D01*
X69847092Y-92764013D01*
X69847088Y-92764010D01*
X69715985Y-92676409D01*
X69715972Y-92676402D01*
X69570301Y-92616064D01*
X69570289Y-92616061D01*
X69415645Y-92585300D01*
X69415642Y-92585300D01*
X69257958Y-92585300D01*
X69257955Y-92585300D01*
X69103310Y-92616061D01*
X69103298Y-92616064D01*
X68957627Y-92676402D01*
X68957614Y-92676409D01*
X68826511Y-92764010D01*
X68826507Y-92764013D01*
X68715013Y-92875507D01*
X68715010Y-92875511D01*
X68627409Y-93006614D01*
X68627402Y-93006627D01*
X68567064Y-93152298D01*
X68567061Y-93152310D01*
X68536300Y-93306953D01*
X45500500Y-93306953D01*
X45500500Y-91324353D01*
X69301200Y-91324353D01*
X69301200Y-91482046D01*
X69331961Y-91636689D01*
X69331964Y-91636701D01*
X69392302Y-91782372D01*
X69392309Y-91782385D01*
X69479910Y-91913488D01*
X69479913Y-91913492D01*
X69591407Y-92024986D01*
X69591411Y-92024989D01*
X69722514Y-92112590D01*
X69722527Y-92112597D01*
X69866182Y-92172100D01*
X69868203Y-92172937D01*
X70018650Y-92202863D01*
X70022853Y-92203699D01*
X70022856Y-92203700D01*
X70022858Y-92203700D01*
X70180544Y-92203700D01*
X70180545Y-92203699D01*
X70335197Y-92172937D01*
X70480879Y-92112594D01*
X70611989Y-92024989D01*
X70723489Y-91913489D01*
X70811094Y-91782379D01*
X70871437Y-91636697D01*
X70890813Y-91539285D01*
X70902338Y-91481350D01*
X70934723Y-91419439D01*
X70936218Y-91417916D01*
X71830616Y-90523519D01*
X71891939Y-90490034D01*
X71918297Y-90487200D01*
X81146452Y-90487200D01*
X81213491Y-90506885D01*
X81259246Y-90559689D01*
X81269190Y-90628847D01*
X81261013Y-90658652D01*
X81249064Y-90687498D01*
X81249061Y-90687510D01*
X81218300Y-90842153D01*
X81218300Y-90999846D01*
X81249061Y-91154489D01*
X81249064Y-91154501D01*
X81309402Y-91300172D01*
X81309409Y-91300185D01*
X81397010Y-91431288D01*
X81397013Y-91431292D01*
X81508507Y-91542786D01*
X81508511Y-91542789D01*
X81639614Y-91630390D01*
X81639627Y-91630397D01*
X81785298Y-91690735D01*
X81785303Y-91690737D01*
X81939953Y-91721499D01*
X81939956Y-91721500D01*
X81939958Y-91721500D01*
X82097644Y-91721500D01*
X82097645Y-91721499D01*
X82252297Y-91690737D01*
X82364966Y-91644067D01*
X82397972Y-91630397D01*
X82397972Y-91630396D01*
X82397979Y-91630394D01*
X82529089Y-91542789D01*
X82640589Y-91431289D01*
X82728194Y-91300179D01*
X82782839Y-91168253D01*
X86513400Y-91168253D01*
X86513400Y-91325946D01*
X86544161Y-91480589D01*
X86544164Y-91480601D01*
X86604502Y-91626272D01*
X86604509Y-91626285D01*
X86692110Y-91757388D01*
X86692113Y-91757392D01*
X86803607Y-91868886D01*
X86803611Y-91868889D01*
X86934714Y-91956490D01*
X86934726Y-91956497D01*
X87039136Y-91999743D01*
X87062980Y-92009620D01*
X87117384Y-92053460D01*
X87139449Y-92119754D01*
X87122170Y-92187454D01*
X87071033Y-92235064D01*
X87062981Y-92238742D01*
X87003924Y-92263204D01*
X87003914Y-92263209D01*
X86872811Y-92350810D01*
X86872807Y-92350813D01*
X86761313Y-92462307D01*
X86761310Y-92462311D01*
X86673709Y-92593414D01*
X86673702Y-92593427D01*
X86613364Y-92739098D01*
X86613361Y-92739110D01*
X86582600Y-92893753D01*
X86582600Y-93051446D01*
X86613361Y-93206089D01*
X86613364Y-93206101D01*
X86673702Y-93351772D01*
X86673709Y-93351785D01*
X86761310Y-93482888D01*
X86761313Y-93482892D01*
X86872807Y-93594386D01*
X86872811Y-93594389D01*
X87003914Y-93681990D01*
X87003927Y-93681997D01*
X87149598Y-93742335D01*
X87149603Y-93742337D01*
X87304253Y-93773099D01*
X87304256Y-93773100D01*
X87304258Y-93773100D01*
X87461944Y-93773100D01*
X87461945Y-93773099D01*
X87616597Y-93742337D01*
X87762279Y-93681994D01*
X87893389Y-93594389D01*
X88004889Y-93482889D01*
X88092494Y-93351779D01*
X88104307Y-93323261D01*
X88151656Y-93208948D01*
X88195496Y-93154544D01*
X88261790Y-93132479D01*
X88266217Y-93132400D01*
X88675606Y-93132400D01*
X88742645Y-93152085D01*
X88788400Y-93204889D01*
X88798344Y-93274047D01*
X88778708Y-93325291D01*
X88756909Y-93357914D01*
X88756902Y-93357927D01*
X88696564Y-93503598D01*
X88696561Y-93503610D01*
X88665800Y-93658253D01*
X88665800Y-93815946D01*
X88696561Y-93970589D01*
X88696564Y-93970601D01*
X88756902Y-94116272D01*
X88756909Y-94116285D01*
X88844510Y-94247388D01*
X88844513Y-94247392D01*
X88956007Y-94358886D01*
X88956011Y-94358889D01*
X89087114Y-94446490D01*
X89087127Y-94446497D01*
X89179936Y-94484939D01*
X89232803Y-94506837D01*
X89387453Y-94537599D01*
X89387456Y-94537600D01*
X89387458Y-94537600D01*
X89545144Y-94537600D01*
X89545145Y-94537599D01*
X89699797Y-94506837D01*
X89812466Y-94460167D01*
X89845472Y-94446497D01*
X89845472Y-94446496D01*
X89845479Y-94446494D01*
X89976589Y-94358889D01*
X90088089Y-94247389D01*
X90175694Y-94116279D01*
X90217996Y-94014153D01*
X107943800Y-94014153D01*
X107943800Y-94171846D01*
X107974561Y-94326489D01*
X107974564Y-94326501D01*
X108034902Y-94472172D01*
X108034909Y-94472185D01*
X108122510Y-94603288D01*
X108122513Y-94603292D01*
X108234007Y-94714786D01*
X108234011Y-94714789D01*
X108365114Y-94802390D01*
X108365127Y-94802397D01*
X108455669Y-94839900D01*
X108510803Y-94862737D01*
X108665453Y-94893499D01*
X108665456Y-94893500D01*
X108665458Y-94893500D01*
X108823144Y-94893500D01*
X108823145Y-94893499D01*
X108977797Y-94862737D01*
X109123479Y-94802394D01*
X109166447Y-94773684D01*
X109255175Y-94714398D01*
X109321853Y-94693520D01*
X109324066Y-94693500D01*
X129509931Y-94693500D01*
X129509947Y-94693501D01*
X129517543Y-94693501D01*
X129675654Y-94693501D01*
X129675657Y-94693501D01*
X129828385Y-94652577D01*
X129878504Y-94623639D01*
X129965316Y-94573520D01*
X130077120Y-94461716D01*
X130077120Y-94461714D01*
X130087328Y-94451507D01*
X130087329Y-94451504D01*
X138356662Y-86182172D01*
X138417983Y-86148689D01*
X138420150Y-86148238D01*
X138478085Y-86136713D01*
X138575497Y-86117337D01*
X138721179Y-86056994D01*
X138852289Y-85969389D01*
X138963789Y-85857889D01*
X139051394Y-85726779D01*
X139111737Y-85581097D01*
X139142500Y-85426442D01*
X139142500Y-85268758D01*
X139142500Y-85268755D01*
X139142499Y-85268753D01*
X139131327Y-85212590D01*
X139111737Y-85114103D01*
X139070062Y-85013489D01*
X139051397Y-84968427D01*
X139051390Y-84968414D01*
X138963789Y-84837311D01*
X138963786Y-84837307D01*
X138852292Y-84725813D01*
X138852288Y-84725810D01*
X138721185Y-84638209D01*
X138721172Y-84638202D01*
X138575501Y-84577864D01*
X138575489Y-84577861D01*
X138420845Y-84547100D01*
X138420842Y-84547100D01*
X138263158Y-84547100D01*
X138263155Y-84547100D01*
X138108510Y-84577861D01*
X138108498Y-84577864D01*
X137962827Y-84638202D01*
X137962814Y-84638209D01*
X137831711Y-84725810D01*
X137831707Y-84725813D01*
X137720213Y-84837307D01*
X137720210Y-84837311D01*
X137632609Y-84968414D01*
X137632602Y-84968427D01*
X137572264Y-85114098D01*
X137572261Y-85114108D01*
X137541361Y-85269450D01*
X137508976Y-85331361D01*
X137507425Y-85332939D01*
X129384184Y-93456181D01*
X129322861Y-93489666D01*
X129296503Y-93492500D01*
X109324066Y-93492500D01*
X109257027Y-93472815D01*
X109255175Y-93471602D01*
X109123485Y-93383609D01*
X109123472Y-93383602D01*
X108977801Y-93323264D01*
X108977789Y-93323261D01*
X108823145Y-93292500D01*
X108823142Y-93292500D01*
X108665458Y-93292500D01*
X108665455Y-93292500D01*
X108510810Y-93323261D01*
X108510798Y-93323264D01*
X108365127Y-93383602D01*
X108365114Y-93383609D01*
X108234011Y-93471210D01*
X108234007Y-93471213D01*
X108122513Y-93582707D01*
X108122510Y-93582711D01*
X108034909Y-93713814D01*
X108034902Y-93713827D01*
X107974564Y-93859498D01*
X107974561Y-93859510D01*
X107943800Y-94014153D01*
X90217996Y-94014153D01*
X90236037Y-93970597D01*
X90266800Y-93815942D01*
X90266800Y-93658258D01*
X90266800Y-93658255D01*
X90266799Y-93658253D01*
X90259050Y-93619297D01*
X90236037Y-93503603D01*
X90222620Y-93471211D01*
X90175697Y-93357927D01*
X90175690Y-93357914D01*
X90153892Y-93325291D01*
X90133014Y-93258613D01*
X90151499Y-93191233D01*
X90203477Y-93144543D01*
X90256994Y-93132400D01*
X90580423Y-93132400D01*
X90647462Y-93152085D01*
X90693217Y-93204889D01*
X90703826Y-93244246D01*
X90704200Y-93248047D01*
X90734961Y-93402689D01*
X90734964Y-93402701D01*
X90795302Y-93548372D01*
X90795309Y-93548385D01*
X90882910Y-93679488D01*
X90882913Y-93679492D01*
X90994407Y-93790986D01*
X90994411Y-93790989D01*
X91125514Y-93878590D01*
X91125527Y-93878597D01*
X91271198Y-93938935D01*
X91271203Y-93938937D01*
X91396333Y-93963827D01*
X91425853Y-93969699D01*
X91425856Y-93969700D01*
X91425858Y-93969700D01*
X91583544Y-93969700D01*
X91583545Y-93969699D01*
X91738197Y-93938937D01*
X91847880Y-93893505D01*
X91847881Y-93893505D01*
X91866286Y-93885880D01*
X91883879Y-93878594D01*
X92014989Y-93790989D01*
X92126489Y-93679489D01*
X92214094Y-93548379D01*
X92274437Y-93402697D01*
X92305200Y-93248042D01*
X92305200Y-93248036D01*
X92305574Y-93244246D01*
X92306326Y-93242382D01*
X92306389Y-93242068D01*
X92306448Y-93242079D01*
X92331735Y-93179459D01*
X92388769Y-93139100D01*
X92428977Y-93132400D01*
X104205134Y-93132400D01*
X104272173Y-93152085D01*
X104274025Y-93153298D01*
X104405714Y-93241290D01*
X104405727Y-93241297D01*
X104551398Y-93301635D01*
X104551403Y-93301637D01*
X104660124Y-93323263D01*
X104706053Y-93332399D01*
X104706056Y-93332400D01*
X104706058Y-93332400D01*
X104863744Y-93332400D01*
X104863745Y-93332399D01*
X105018397Y-93301637D01*
X105156952Y-93244246D01*
X105164072Y-93241297D01*
X105164072Y-93241296D01*
X105164079Y-93241294D01*
X105295189Y-93153689D01*
X105406689Y-93042189D01*
X105494294Y-92911079D01*
X105554637Y-92765397D01*
X105585400Y-92610742D01*
X105585400Y-92610735D01*
X105585997Y-92604682D01*
X105588646Y-92604942D01*
X105605085Y-92548961D01*
X105657889Y-92503206D01*
X105709400Y-92492000D01*
X123021131Y-92492000D01*
X123021147Y-92492001D01*
X123028743Y-92492001D01*
X123186854Y-92492001D01*
X123186857Y-92492001D01*
X123339585Y-92451077D01*
X123389704Y-92422139D01*
X123476516Y-92372020D01*
X123588320Y-92260216D01*
X123588320Y-92260214D01*
X123598528Y-92250007D01*
X123598529Y-92250004D01*
X124398862Y-91449672D01*
X124460183Y-91416189D01*
X124462350Y-91415738D01*
X124520285Y-91404213D01*
X124617697Y-91384837D01*
X124763379Y-91324494D01*
X124894489Y-91236889D01*
X125005989Y-91125389D01*
X125093594Y-90994279D01*
X125153937Y-90848597D01*
X125184700Y-90693942D01*
X125184700Y-90536258D01*
X125184700Y-90536255D01*
X125184699Y-90536253D01*
X125180275Y-90514011D01*
X125153937Y-90381603D01*
X125148728Y-90369027D01*
X125093597Y-90235927D01*
X125093590Y-90235914D01*
X125005989Y-90104811D01*
X125005986Y-90104807D01*
X124894492Y-89993313D01*
X124894488Y-89993310D01*
X124763385Y-89905709D01*
X124763372Y-89905702D01*
X124617701Y-89845364D01*
X124617689Y-89845361D01*
X124463045Y-89814600D01*
X124463042Y-89814600D01*
X124305358Y-89814600D01*
X124305355Y-89814600D01*
X124150710Y-89845361D01*
X124150698Y-89845364D01*
X124005027Y-89905702D01*
X124005014Y-89905709D01*
X123873911Y-89993310D01*
X123873907Y-89993313D01*
X123762413Y-90104807D01*
X123762410Y-90104811D01*
X123674809Y-90235914D01*
X123674802Y-90235927D01*
X123614464Y-90381598D01*
X123614461Y-90381608D01*
X123583561Y-90536950D01*
X123551176Y-90598861D01*
X123549625Y-90600439D01*
X122895384Y-91254681D01*
X122834061Y-91288166D01*
X122807703Y-91291000D01*
X118039643Y-91291000D01*
X117972604Y-91271315D01*
X117926849Y-91218511D01*
X117916905Y-91149353D01*
X117945930Y-91085797D01*
X117970752Y-91063898D01*
X117988008Y-91052366D01*
X118003989Y-91041689D01*
X118115489Y-90930189D01*
X118203094Y-90799079D01*
X118211585Y-90778581D01*
X118218307Y-90762352D01*
X118263437Y-90653397D01*
X118294200Y-90498742D01*
X118294200Y-90341058D01*
X118294200Y-90341055D01*
X118294199Y-90341053D01*
X118288693Y-90313372D01*
X118263437Y-90186403D01*
X118261008Y-90180539D01*
X118203097Y-90040727D01*
X118203090Y-90040714D01*
X118115489Y-89909611D01*
X118115486Y-89909607D01*
X118003992Y-89798113D01*
X118003988Y-89798110D01*
X117872885Y-89710509D01*
X117872872Y-89710502D01*
X117727201Y-89650164D01*
X117727189Y-89650161D01*
X117572545Y-89619400D01*
X117572542Y-89619400D01*
X117414858Y-89619400D01*
X117414855Y-89619400D01*
X117260210Y-89650161D01*
X117260198Y-89650164D01*
X117114527Y-89710502D01*
X117114514Y-89710509D01*
X116983411Y-89798110D01*
X116983407Y-89798113D01*
X116871913Y-89909607D01*
X116871910Y-89909611D01*
X116784309Y-90040714D01*
X116784302Y-90040727D01*
X116723964Y-90186398D01*
X116723961Y-90186410D01*
X116693200Y-90341053D01*
X116693200Y-90498746D01*
X116723961Y-90653389D01*
X116723964Y-90653401D01*
X116784302Y-90799072D01*
X116784309Y-90799085D01*
X116871910Y-90930188D01*
X116871913Y-90930192D01*
X116983407Y-91041686D01*
X116983411Y-91041689D01*
X117016648Y-91063898D01*
X117061453Y-91117511D01*
X117070160Y-91186836D01*
X117040005Y-91249863D01*
X116980562Y-91286582D01*
X116947757Y-91291000D01*
X113046699Y-91291000D01*
X112979660Y-91271315D01*
X112933905Y-91218511D01*
X112923961Y-91149353D01*
X112932138Y-91119548D01*
X112989235Y-90981701D01*
X112989237Y-90981697D01*
X113020000Y-90827042D01*
X113020000Y-90669358D01*
X113020000Y-90669355D01*
X113019999Y-90669353D01*
X113014853Y-90643481D01*
X112989237Y-90514703D01*
X112983785Y-90501541D01*
X112928897Y-90369027D01*
X112928890Y-90369014D01*
X112851360Y-90252983D01*
X112841289Y-90237911D01*
X112833091Y-90229713D01*
X112799606Y-90168394D01*
X112799154Y-90117839D01*
X112801747Y-90104807D01*
X112814785Y-90039261D01*
X112820000Y-90013044D01*
X112820000Y-89855355D01*
X112819999Y-89855353D01*
X112811893Y-89814600D01*
X112789237Y-89700703D01*
X112768302Y-89650161D01*
X112728897Y-89555027D01*
X112728890Y-89555014D01*
X112641289Y-89423911D01*
X112641286Y-89423907D01*
X112529792Y-89312413D01*
X112529788Y-89312410D01*
X112398685Y-89224809D01*
X112398672Y-89224802D01*
X112253001Y-89164464D01*
X112252989Y-89164461D01*
X112098345Y-89133700D01*
X112098342Y-89133700D01*
X111940658Y-89133700D01*
X111940655Y-89133700D01*
X111786010Y-89164461D01*
X111785998Y-89164464D01*
X111640327Y-89224802D01*
X111640314Y-89224809D01*
X111509211Y-89312410D01*
X111509207Y-89312413D01*
X111397713Y-89423907D01*
X111397710Y-89423911D01*
X111310109Y-89555014D01*
X111310102Y-89555027D01*
X111249764Y-89700698D01*
X111249761Y-89700710D01*
X111219000Y-89855353D01*
X111219000Y-90013046D01*
X111249761Y-90167689D01*
X111249764Y-90167701D01*
X111310102Y-90313372D01*
X111310109Y-90313385D01*
X111397710Y-90444488D01*
X111397713Y-90444492D01*
X111405909Y-90452688D01*
X111409712Y-90459654D01*
X111416154Y-90464299D01*
X111426221Y-90489887D01*
X111439394Y-90514011D01*
X111439479Y-90523585D01*
X111441735Y-90529318D01*
X111439845Y-90564561D01*
X111418861Y-90670050D01*
X111386476Y-90731961D01*
X111384926Y-90733538D01*
X111339885Y-90778580D01*
X111278562Y-90812066D01*
X111252203Y-90814900D01*
X98004921Y-90814900D01*
X97937882Y-90795215D01*
X97892127Y-90742411D01*
X97883304Y-90715092D01*
X97855538Y-90575508D01*
X97855537Y-90575507D01*
X97855537Y-90575503D01*
X97841585Y-90541820D01*
X97795197Y-90429827D01*
X97795190Y-90429814D01*
X97707589Y-90298711D01*
X97707586Y-90298707D01*
X97596092Y-90187213D01*
X97596088Y-90187210D01*
X97464985Y-90099609D01*
X97464972Y-90099602D01*
X97319301Y-90039264D01*
X97319289Y-90039261D01*
X97164645Y-90008500D01*
X97164642Y-90008500D01*
X97006958Y-90008500D01*
X97006955Y-90008500D01*
X96852310Y-90039261D01*
X96852298Y-90039264D01*
X96706627Y-90099602D01*
X96706614Y-90099609D01*
X96575511Y-90187210D01*
X96509738Y-90252983D01*
X96448414Y-90286467D01*
X96378723Y-90281482D01*
X96322789Y-90239611D01*
X96300440Y-90189492D01*
X96290338Y-90138710D01*
X96290337Y-90138703D01*
X96289389Y-90136414D01*
X96229997Y-89993027D01*
X96229990Y-89993014D01*
X96142389Y-89861911D01*
X96142386Y-89861907D01*
X96030892Y-89750413D01*
X96030888Y-89750410D01*
X95899785Y-89662809D01*
X95899772Y-89662802D01*
X95754101Y-89602464D01*
X95754089Y-89602461D01*
X95599445Y-89571700D01*
X95599442Y-89571700D01*
X95441758Y-89571700D01*
X95441755Y-89571700D01*
X95287110Y-89602461D01*
X95287098Y-89602464D01*
X95141427Y-89662802D01*
X95141414Y-89662809D01*
X95010311Y-89750410D01*
X95010307Y-89750413D01*
X94898813Y-89861907D01*
X94898810Y-89861911D01*
X94811209Y-89993014D01*
X94811202Y-89993027D01*
X94750864Y-90138698D01*
X94750861Y-90138710D01*
X94720100Y-90293353D01*
X94720100Y-90451046D01*
X94750861Y-90605689D01*
X94750863Y-90605697D01*
X94766500Y-90643448D01*
X94773969Y-90712916D01*
X94742694Y-90775395D01*
X94682606Y-90811048D01*
X94651939Y-90814900D01*
X93484297Y-90814900D01*
X93454856Y-90806255D01*
X93424870Y-90799732D01*
X93419854Y-90795977D01*
X93417258Y-90795215D01*
X93396616Y-90778581D01*
X93380390Y-90762355D01*
X93380388Y-90762352D01*
X93261517Y-90643481D01*
X93261516Y-90643480D01*
X93159705Y-90584700D01*
X93159704Y-90584699D01*
X93131863Y-90568625D01*
X93124585Y-90564423D01*
X93124584Y-90564422D01*
X93124583Y-90564422D01*
X93068681Y-90549443D01*
X92971857Y-90523499D01*
X92813743Y-90523499D01*
X92806147Y-90523499D01*
X92806131Y-90523500D01*
X91621959Y-90523500D01*
X91619917Y-90522900D01*
X91617857Y-90523432D01*
X91586541Y-90513100D01*
X91554920Y-90503815D01*
X91553527Y-90502207D01*
X91551506Y-90501541D01*
X91530741Y-90475911D01*
X91509165Y-90451011D01*
X91508862Y-90448906D01*
X91507522Y-90447252D01*
X91503911Y-90414472D01*
X91499221Y-90381853D01*
X91500031Y-90379252D01*
X91499872Y-90377803D01*
X91502586Y-90371055D01*
X91510930Y-90344286D01*
X91514456Y-90337194D01*
X91555894Y-90275179D01*
X91608722Y-90147637D01*
X91610615Y-90143833D01*
X91631572Y-90121204D01*
X91650923Y-90097192D01*
X91655099Y-90095801D01*
X91658092Y-90092571D01*
X91687956Y-90084865D01*
X91717217Y-90075126D01*
X91723687Y-90075646D01*
X91725746Y-90075115D01*
X91728537Y-90076035D01*
X91734016Y-90076476D01*
X91734093Y-90075703D01*
X91740156Y-90076300D01*
X91740158Y-90076300D01*
X91897844Y-90076300D01*
X91897845Y-90076299D01*
X92052497Y-90045537D01*
X92198179Y-89985194D01*
X92329289Y-89897589D01*
X92440789Y-89786089D01*
X92528394Y-89654979D01*
X92530389Y-89650164D01*
X92550147Y-89602463D01*
X92588737Y-89509297D01*
X92619500Y-89354642D01*
X92619500Y-89196958D01*
X92619500Y-89196955D01*
X92619499Y-89196953D01*
X92615669Y-89177697D01*
X92588737Y-89042303D01*
X92568725Y-88993989D01*
X92528397Y-88896627D01*
X92528390Y-88896614D01*
X92440789Y-88765511D01*
X92440786Y-88765507D01*
X92329292Y-88654013D01*
X92324581Y-88650147D01*
X92325450Y-88649087D01*
X92285111Y-88600818D01*
X92276403Y-88531493D01*
X92278173Y-88523849D01*
X92291431Y-88457197D01*
X92310100Y-88363342D01*
X92310100Y-88205658D01*
X92310100Y-88205655D01*
X92310099Y-88205653D01*
X92301607Y-88162957D01*
X92298006Y-88144853D01*
X96620200Y-88144853D01*
X96620200Y-88302546D01*
X96650961Y-88457189D01*
X96650964Y-88457201D01*
X96711302Y-88602872D01*
X96711309Y-88602885D01*
X96798910Y-88733988D01*
X96798913Y-88733992D01*
X96910407Y-88845486D01*
X96910411Y-88845489D01*
X97041514Y-88933090D01*
X97041527Y-88933097D01*
X97187198Y-88993435D01*
X97187203Y-88993437D01*
X97341853Y-89024199D01*
X97341856Y-89024200D01*
X97341858Y-89024200D01*
X97499544Y-89024200D01*
X97499545Y-89024199D01*
X97654197Y-88993437D01*
X97799879Y-88933094D01*
X97930989Y-88845489D01*
X98042489Y-88733989D01*
X98130094Y-88602879D01*
X98131956Y-88598385D01*
X98187652Y-88463921D01*
X98190437Y-88457197D01*
X98221200Y-88302542D01*
X98221200Y-88144858D01*
X98221200Y-88144855D01*
X98221199Y-88144853D01*
X98206979Y-88073364D01*
X98190437Y-87990203D01*
X98163968Y-87926301D01*
X98130097Y-87844527D01*
X98130090Y-87844514D01*
X98042489Y-87713411D01*
X98042486Y-87713407D01*
X97943032Y-87613953D01*
X122791300Y-87613953D01*
X122791300Y-87771646D01*
X122822061Y-87926289D01*
X122822064Y-87926301D01*
X122882402Y-88071972D01*
X122882409Y-88071985D01*
X122970010Y-88203088D01*
X122970013Y-88203092D01*
X123081507Y-88314586D01*
X123081511Y-88314589D01*
X123212614Y-88402190D01*
X123212627Y-88402197D01*
X123358298Y-88462535D01*
X123358303Y-88462537D01*
X123512953Y-88493299D01*
X123512956Y-88493300D01*
X123512958Y-88493300D01*
X123670644Y-88493300D01*
X123670645Y-88493299D01*
X123825297Y-88462537D01*
X123937966Y-88415867D01*
X123970972Y-88402197D01*
X123970972Y-88402196D01*
X123970979Y-88402194D01*
X124102089Y-88314589D01*
X124213589Y-88203089D01*
X124301194Y-88071979D01*
X124309883Y-88051003D01*
X124314867Y-88038966D01*
X124361537Y-87926297D01*
X124392300Y-87771642D01*
X124392300Y-87613958D01*
X124392300Y-87613955D01*
X124392299Y-87613953D01*
X124384571Y-87575102D01*
X124361537Y-87459303D01*
X124329306Y-87381489D01*
X124301197Y-87313627D01*
X124301190Y-87313614D01*
X124213589Y-87182511D01*
X124213586Y-87182507D01*
X124102092Y-87071013D01*
X124102088Y-87071010D01*
X123970985Y-86983409D01*
X123970972Y-86983402D01*
X123825301Y-86923064D01*
X123825289Y-86923061D01*
X123670645Y-86892300D01*
X123670642Y-86892300D01*
X123512958Y-86892300D01*
X123512955Y-86892300D01*
X123358310Y-86923061D01*
X123358298Y-86923064D01*
X123212627Y-86983402D01*
X123212614Y-86983409D01*
X123081511Y-87071010D01*
X123081507Y-87071013D01*
X122970013Y-87182507D01*
X122970010Y-87182511D01*
X122882409Y-87313614D01*
X122882402Y-87313627D01*
X122822064Y-87459298D01*
X122822061Y-87459310D01*
X122791300Y-87613953D01*
X97943032Y-87613953D01*
X97930992Y-87601913D01*
X97930988Y-87601910D01*
X97799885Y-87514309D01*
X97799872Y-87514302D01*
X97654201Y-87453964D01*
X97654189Y-87453961D01*
X97499545Y-87423200D01*
X97499542Y-87423200D01*
X97341858Y-87423200D01*
X97341855Y-87423200D01*
X97187210Y-87453961D01*
X97187198Y-87453964D01*
X97041527Y-87514302D01*
X97041514Y-87514309D01*
X96910411Y-87601910D01*
X96910407Y-87601913D01*
X96798913Y-87713407D01*
X96798910Y-87713411D01*
X96711309Y-87844514D01*
X96711302Y-87844527D01*
X96650964Y-87990198D01*
X96650961Y-87990210D01*
X96620200Y-88144853D01*
X92298006Y-88144853D01*
X92279338Y-88051008D01*
X92279337Y-88051005D01*
X92279337Y-88051003D01*
X92247196Y-87973407D01*
X92218997Y-87905327D01*
X92218990Y-87905314D01*
X92131389Y-87774211D01*
X92131386Y-87774207D01*
X92019892Y-87662713D01*
X92019888Y-87662710D01*
X91888785Y-87575109D01*
X91888772Y-87575102D01*
X91743101Y-87514764D01*
X91743089Y-87514761D01*
X91588445Y-87484000D01*
X91588442Y-87484000D01*
X91430758Y-87484000D01*
X91430755Y-87484000D01*
X91276110Y-87514761D01*
X91276098Y-87514764D01*
X91130427Y-87575102D01*
X91130414Y-87575109D01*
X90999311Y-87662710D01*
X90999307Y-87662713D01*
X90887813Y-87774207D01*
X90887810Y-87774211D01*
X90800209Y-87905314D01*
X90800202Y-87905327D01*
X90739864Y-88050998D01*
X90739862Y-88051005D01*
X90733404Y-88083471D01*
X90701018Y-88145381D01*
X90640301Y-88179954D01*
X90587596Y-88180894D01*
X90554446Y-88174300D01*
X90554442Y-88174300D01*
X90396758Y-88174300D01*
X90396755Y-88174300D01*
X90242110Y-88205061D01*
X90242098Y-88205064D01*
X90096420Y-88265406D01*
X90095118Y-88266102D01*
X90094358Y-88266259D01*
X90090793Y-88267737D01*
X90090512Y-88267060D01*
X90026713Y-88280336D01*
X89961472Y-88255328D01*
X89949001Y-88244423D01*
X89925889Y-88221311D01*
X89925888Y-88221310D01*
X89925887Y-88221309D01*
X89794785Y-88133709D01*
X89794772Y-88133702D01*
X89649101Y-88073364D01*
X89649089Y-88073361D01*
X89494445Y-88042600D01*
X89494442Y-88042600D01*
X89336758Y-88042600D01*
X89336755Y-88042600D01*
X89182110Y-88073361D01*
X89182098Y-88073364D01*
X89036427Y-88133702D01*
X89036414Y-88133709D01*
X88905311Y-88221310D01*
X88905307Y-88221313D01*
X88793813Y-88332807D01*
X88793810Y-88332811D01*
X88706209Y-88463914D01*
X88706202Y-88463927D01*
X88645864Y-88609598D01*
X88645861Y-88609610D01*
X88615100Y-88764253D01*
X88615100Y-88921946D01*
X88640386Y-89049067D01*
X88634159Y-89118658D01*
X88591296Y-89173836D01*
X88587660Y-89176360D01*
X88487911Y-89243010D01*
X88487907Y-89243013D01*
X88376413Y-89354507D01*
X88376410Y-89354511D01*
X88288809Y-89485614D01*
X88288802Y-89485627D01*
X88228464Y-89631298D01*
X88228461Y-89631307D01*
X88213538Y-89706329D01*
X88181152Y-89768240D01*
X88139378Y-89796695D01*
X88116427Y-89806202D01*
X88116418Y-89806207D01*
X87985315Y-89893807D01*
X87985307Y-89893813D01*
X87873813Y-90005307D01*
X87873810Y-90005311D01*
X87786209Y-90136414D01*
X87786202Y-90136427D01*
X87725864Y-90282098D01*
X87725861Y-90282107D01*
X87705767Y-90383125D01*
X87673381Y-90445035D01*
X87612665Y-90479609D01*
X87553529Y-90477760D01*
X87553372Y-90478551D01*
X87548630Y-90477607D01*
X87548157Y-90477593D01*
X87547397Y-90477362D01*
X87392745Y-90446600D01*
X87392742Y-90446600D01*
X87235058Y-90446600D01*
X87235055Y-90446600D01*
X87080410Y-90477361D01*
X87080398Y-90477364D01*
X86934727Y-90537702D01*
X86934714Y-90537709D01*
X86803611Y-90625310D01*
X86803607Y-90625313D01*
X86692113Y-90736807D01*
X86692110Y-90736811D01*
X86604509Y-90867914D01*
X86604502Y-90867927D01*
X86544164Y-91013598D01*
X86544161Y-91013610D01*
X86513400Y-91168253D01*
X82782839Y-91168253D01*
X82788537Y-91154497D01*
X82794327Y-91125392D01*
X82819299Y-90999846D01*
X82819300Y-90999844D01*
X82819300Y-90842155D01*
X82819299Y-90842153D01*
X82810731Y-90799079D01*
X82788537Y-90687503D01*
X82770289Y-90643447D01*
X82728197Y-90541827D01*
X82728193Y-90541820D01*
X82725444Y-90537706D01*
X82682035Y-90472739D01*
X82661158Y-90406064D01*
X82679642Y-90338684D01*
X82682015Y-90334990D01*
X82728194Y-90265879D01*
X82788537Y-90120197D01*
X82819300Y-89965542D01*
X82819300Y-89807858D01*
X82819300Y-89807855D01*
X82819299Y-89807853D01*
X82817361Y-89798110D01*
X82788537Y-89653203D01*
X82787277Y-89650161D01*
X82728197Y-89507527D01*
X82728190Y-89507514D01*
X82637205Y-89371346D01*
X82638482Y-89370492D01*
X82614119Y-89313136D01*
X82625905Y-89244267D01*
X82673054Y-89192704D01*
X82740595Y-89174816D01*
X82795798Y-89192367D01*
X82796946Y-89190221D01*
X82802327Y-89193097D01*
X82922832Y-89243011D01*
X82948003Y-89253437D01*
X83102653Y-89284199D01*
X83102656Y-89284200D01*
X83102658Y-89284200D01*
X83260344Y-89284200D01*
X83260345Y-89284199D01*
X83414997Y-89253437D01*
X83527666Y-89206767D01*
X83560672Y-89193097D01*
X83560672Y-89193096D01*
X83560679Y-89193094D01*
X83691789Y-89105489D01*
X83803289Y-88993989D01*
X83890894Y-88862879D01*
X83951237Y-88717197D01*
X83982000Y-88562542D01*
X83982000Y-88404858D01*
X83982000Y-88404855D01*
X83981999Y-88404853D01*
X83967668Y-88332807D01*
X83951237Y-88250203D01*
X83948840Y-88244417D01*
X83890897Y-88104527D01*
X83890890Y-88104514D01*
X83858913Y-88056657D01*
X83816948Y-87993853D01*
X86340700Y-87993853D01*
X86340700Y-88151546D01*
X86371461Y-88306189D01*
X86371464Y-88306201D01*
X86431802Y-88451872D01*
X86431809Y-88451885D01*
X86519410Y-88582988D01*
X86519413Y-88582992D01*
X86630907Y-88694486D01*
X86630911Y-88694489D01*
X86762014Y-88782090D01*
X86762027Y-88782097D01*
X86907698Y-88842435D01*
X86907703Y-88842437D01*
X87062353Y-88873199D01*
X87062356Y-88873200D01*
X87062358Y-88873200D01*
X87220044Y-88873200D01*
X87220045Y-88873199D01*
X87374697Y-88842437D01*
X87520379Y-88782094D01*
X87651489Y-88694489D01*
X87762989Y-88582989D01*
X87850594Y-88451879D01*
X87910937Y-88306197D01*
X87941700Y-88151542D01*
X87941700Y-87993858D01*
X87941700Y-87993855D01*
X87941699Y-87993853D01*
X87928261Y-87926297D01*
X87910937Y-87839203D01*
X87884056Y-87774306D01*
X87850597Y-87693527D01*
X87850590Y-87693514D01*
X87762989Y-87562411D01*
X87762986Y-87562407D01*
X87651492Y-87450913D01*
X87651488Y-87450910D01*
X87520385Y-87363309D01*
X87520372Y-87363302D01*
X87374701Y-87302964D01*
X87374689Y-87302961D01*
X87220045Y-87272200D01*
X87220042Y-87272200D01*
X87062358Y-87272200D01*
X87062355Y-87272200D01*
X86907710Y-87302961D01*
X86907698Y-87302964D01*
X86762027Y-87363302D01*
X86762014Y-87363309D01*
X86630911Y-87450910D01*
X86630907Y-87450913D01*
X86519413Y-87562407D01*
X86519410Y-87562411D01*
X86431809Y-87693514D01*
X86431802Y-87693527D01*
X86371464Y-87839198D01*
X86371461Y-87839210D01*
X86340700Y-87993853D01*
X83816948Y-87993853D01*
X83803289Y-87973411D01*
X83803286Y-87973407D01*
X83691792Y-87861913D01*
X83691788Y-87861910D01*
X83560685Y-87774309D01*
X83560672Y-87774302D01*
X83415001Y-87713964D01*
X83414989Y-87713961D01*
X83260345Y-87683200D01*
X83260342Y-87683200D01*
X83102658Y-87683200D01*
X83102655Y-87683200D01*
X82948010Y-87713961D01*
X82947998Y-87713964D01*
X82802327Y-87774302D01*
X82802314Y-87774309D01*
X82671211Y-87861910D01*
X82671207Y-87861913D01*
X82559713Y-87973407D01*
X82559710Y-87973411D01*
X82472109Y-88104514D01*
X82472102Y-88104527D01*
X82411764Y-88250198D01*
X82411761Y-88250210D01*
X82381000Y-88404853D01*
X82381000Y-88562546D01*
X82411761Y-88717189D01*
X82411764Y-88717201D01*
X82472102Y-88862872D01*
X82472109Y-88862885D01*
X82563095Y-88999054D01*
X82561817Y-88999907D01*
X82586181Y-89057267D01*
X82574392Y-89126135D01*
X82527242Y-89177697D01*
X82459701Y-89195583D01*
X82404498Y-89178037D01*
X82403354Y-89180179D01*
X82397972Y-89177302D01*
X82252301Y-89116964D01*
X82252289Y-89116961D01*
X82097645Y-89086200D01*
X82097642Y-89086200D01*
X81939958Y-89086200D01*
X81939955Y-89086200D01*
X81785310Y-89116961D01*
X81785298Y-89116964D01*
X81639627Y-89177302D01*
X81639614Y-89177309D01*
X81507925Y-89265302D01*
X81441247Y-89286180D01*
X81439034Y-89286200D01*
X71704869Y-89286200D01*
X71704853Y-89286199D01*
X71697257Y-89286199D01*
X71539143Y-89286199D01*
X71386415Y-89327123D01*
X71386414Y-89327123D01*
X71339901Y-89353978D01*
X71339900Y-89353978D01*
X71249490Y-89406175D01*
X71249482Y-89406181D01*
X70087039Y-90568625D01*
X70025716Y-90602110D01*
X70023550Y-90602561D01*
X69868208Y-90633461D01*
X69868198Y-90633464D01*
X69722527Y-90693802D01*
X69722514Y-90693809D01*
X69591411Y-90781410D01*
X69591407Y-90781413D01*
X69479913Y-90892907D01*
X69479910Y-90892911D01*
X69392309Y-91024014D01*
X69392302Y-91024027D01*
X69331964Y-91169698D01*
X69331961Y-91169710D01*
X69301200Y-91324353D01*
X45500500Y-91324353D01*
X45500500Y-87613953D01*
X63401300Y-87613953D01*
X63401300Y-87771646D01*
X63432061Y-87926289D01*
X63432064Y-87926301D01*
X63492402Y-88071972D01*
X63492409Y-88071985D01*
X63580010Y-88203088D01*
X63580013Y-88203092D01*
X63691507Y-88314586D01*
X63691511Y-88314589D01*
X63822614Y-88402190D01*
X63822627Y-88402197D01*
X63968298Y-88462535D01*
X63968303Y-88462537D01*
X64122958Y-88493300D01*
X64123647Y-88493437D01*
X64171019Y-88513788D01*
X64179654Y-88519890D01*
X64212384Y-88552620D01*
X64281679Y-88592627D01*
X64349315Y-88631677D01*
X64502042Y-88672600D01*
X64502043Y-88672600D01*
X76312031Y-88672600D01*
X76312047Y-88672601D01*
X76319643Y-88672601D01*
X76477754Y-88672601D01*
X76477757Y-88672601D01*
X76630485Y-88631677D01*
X76698121Y-88592627D01*
X76767416Y-88552620D01*
X76879220Y-88440816D01*
X76879220Y-88440814D01*
X76889424Y-88430611D01*
X76889427Y-88430606D01*
X78263416Y-87056619D01*
X78324739Y-87023134D01*
X78351097Y-87020300D01*
X92341735Y-87020300D01*
X92408774Y-87039985D01*
X92454529Y-87092789D01*
X92456296Y-87096848D01*
X92473702Y-87138872D01*
X92473709Y-87138885D01*
X92561310Y-87269988D01*
X92561313Y-87269992D01*
X92672807Y-87381486D01*
X92672811Y-87381489D01*
X92803914Y-87469090D01*
X92803927Y-87469097D01*
X92914179Y-87514764D01*
X92949603Y-87529437D01*
X93104253Y-87560199D01*
X93104256Y-87560200D01*
X93104258Y-87560200D01*
X93261944Y-87560200D01*
X93261945Y-87560199D01*
X93416597Y-87529437D01*
X93562279Y-87469094D01*
X93693389Y-87381489D01*
X93804889Y-87269989D01*
X93892494Y-87138879D01*
X93952837Y-86993197D01*
X93983600Y-86838542D01*
X93983600Y-86680858D01*
X93983600Y-86680855D01*
X93983599Y-86680853D01*
X93982546Y-86675561D01*
X93952837Y-86526203D01*
X93952835Y-86526198D01*
X93892497Y-86380527D01*
X93892490Y-86380514D01*
X93804889Y-86249411D01*
X93804886Y-86249407D01*
X93693392Y-86137913D01*
X93693388Y-86137910D01*
X93562285Y-86050309D01*
X93562272Y-86050302D01*
X93416601Y-85989964D01*
X93416591Y-85989961D01*
X93257810Y-85958377D01*
X93254505Y-85957130D01*
X93252580Y-85957219D01*
X93244593Y-85953390D01*
X93219835Y-85944050D01*
X93212347Y-85939711D01*
X93211916Y-85939280D01*
X93125104Y-85889160D01*
X93074985Y-85860223D01*
X92922257Y-85819299D01*
X92764143Y-85819299D01*
X92756547Y-85819299D01*
X92756531Y-85819300D01*
X78855597Y-85819300D01*
X78788558Y-85799615D01*
X78742803Y-85746811D01*
X78732859Y-85677653D01*
X78761884Y-85614097D01*
X78767916Y-85607619D01*
X79160216Y-85215319D01*
X79221539Y-85181834D01*
X79247897Y-85179000D01*
X91155834Y-85179000D01*
X91222873Y-85198685D01*
X91224725Y-85199898D01*
X91356414Y-85287890D01*
X91356427Y-85287897D01*
X91461360Y-85331361D01*
X91502103Y-85348237D01*
X91656753Y-85378999D01*
X91656756Y-85379000D01*
X91656758Y-85379000D01*
X91814444Y-85379000D01*
X91814445Y-85378999D01*
X91969097Y-85348237D01*
X92081766Y-85301567D01*
X92114772Y-85287897D01*
X92114772Y-85287896D01*
X92114779Y-85287894D01*
X92245889Y-85200289D01*
X92357389Y-85088789D01*
X92444994Y-84957679D01*
X92505337Y-84811997D01*
X92529275Y-84691653D01*
X96495300Y-84691653D01*
X96495300Y-84849346D01*
X96526061Y-85003989D01*
X96526064Y-85004001D01*
X96586402Y-85149672D01*
X96586409Y-85149685D01*
X96674010Y-85280788D01*
X96674013Y-85280792D01*
X96785507Y-85392286D01*
X96785511Y-85392289D01*
X96916614Y-85479890D01*
X96916627Y-85479897D01*
X97062298Y-85540235D01*
X97062303Y-85540237D01*
X97216953Y-85570999D01*
X97216956Y-85571000D01*
X97216958Y-85571000D01*
X97374644Y-85571000D01*
X97374645Y-85570999D01*
X97529297Y-85540237D01*
X97674979Y-85479894D01*
X97806089Y-85392289D01*
X97917589Y-85280789D01*
X98005194Y-85149679D01*
X98065537Y-85003997D01*
X98096300Y-84849342D01*
X98096300Y-84691658D01*
X98096300Y-84691655D01*
X98096299Y-84691653D01*
X101979500Y-84691653D01*
X101979500Y-84849346D01*
X102010261Y-85003989D01*
X102010264Y-85004001D01*
X102070602Y-85149672D01*
X102070609Y-85149685D01*
X102158210Y-85280788D01*
X102158213Y-85280792D01*
X102269707Y-85392286D01*
X102269711Y-85392289D01*
X102400814Y-85479890D01*
X102400827Y-85479897D01*
X102546498Y-85540235D01*
X102546503Y-85540237D01*
X102701153Y-85570999D01*
X102701156Y-85571000D01*
X102701158Y-85571000D01*
X102858844Y-85571000D01*
X102858845Y-85570999D01*
X103013497Y-85540237D01*
X103159179Y-85479894D01*
X103290289Y-85392289D01*
X103401789Y-85280789D01*
X103489394Y-85149679D01*
X103549737Y-85003997D01*
X103580500Y-84849342D01*
X103580500Y-84691658D01*
X103580500Y-84691655D01*
X103580499Y-84691653D01*
X103565488Y-84616189D01*
X103549737Y-84537003D01*
X103503076Y-84424353D01*
X106239200Y-84424353D01*
X106239200Y-84582046D01*
X106269961Y-84736689D01*
X106269964Y-84736701D01*
X106330302Y-84882372D01*
X106330309Y-84882385D01*
X106417910Y-85013488D01*
X106417913Y-85013492D01*
X106529407Y-85124986D01*
X106529411Y-85124989D01*
X106660514Y-85212590D01*
X106660527Y-85212597D01*
X106806198Y-85272935D01*
X106806203Y-85272937D01*
X106936551Y-85298865D01*
X106960853Y-85303699D01*
X106960856Y-85303700D01*
X106960858Y-85303700D01*
X107118544Y-85303700D01*
X107118545Y-85303699D01*
X107273197Y-85272937D01*
X107418879Y-85212594D01*
X107549989Y-85124989D01*
X107661489Y-85013489D01*
X107749094Y-84882379D01*
X107809437Y-84736697D01*
X107840200Y-84582042D01*
X107840200Y-84424358D01*
X107840200Y-84424355D01*
X107840199Y-84424353D01*
X111179000Y-84424353D01*
X111179000Y-84582046D01*
X111209761Y-84736689D01*
X111209764Y-84736701D01*
X111270102Y-84882372D01*
X111270109Y-84882385D01*
X111357710Y-85013488D01*
X111357713Y-85013492D01*
X111469207Y-85124986D01*
X111469211Y-85124989D01*
X111600314Y-85212590D01*
X111600327Y-85212597D01*
X111745998Y-85272935D01*
X111746003Y-85272937D01*
X111876351Y-85298865D01*
X111900653Y-85303699D01*
X111900656Y-85303700D01*
X111900658Y-85303700D01*
X112058344Y-85303700D01*
X112058345Y-85303699D01*
X112212997Y-85272937D01*
X112358679Y-85212594D01*
X112489789Y-85124989D01*
X112601289Y-85013489D01*
X112688894Y-84882379D01*
X112749237Y-84736697D01*
X112780000Y-84582042D01*
X112780000Y-84424358D01*
X112780000Y-84424355D01*
X112779999Y-84424353D01*
X112773427Y-84391314D01*
X112749237Y-84269703D01*
X112731173Y-84226092D01*
X112688897Y-84124027D01*
X112688890Y-84124014D01*
X112601289Y-83992911D01*
X112601286Y-83992907D01*
X112489792Y-83881413D01*
X112489788Y-83881410D01*
X112358685Y-83793809D01*
X112358672Y-83793802D01*
X112213001Y-83733464D01*
X112212989Y-83733461D01*
X112058345Y-83702700D01*
X112058342Y-83702700D01*
X111900658Y-83702700D01*
X111900655Y-83702700D01*
X111746010Y-83733461D01*
X111745998Y-83733464D01*
X111600327Y-83793802D01*
X111600314Y-83793809D01*
X111469211Y-83881410D01*
X111469207Y-83881413D01*
X111357713Y-83992907D01*
X111357710Y-83992911D01*
X111270109Y-84124014D01*
X111270102Y-84124027D01*
X111209764Y-84269698D01*
X111209761Y-84269710D01*
X111179000Y-84424353D01*
X107840199Y-84424353D01*
X107833627Y-84391314D01*
X107809437Y-84269703D01*
X107791373Y-84226092D01*
X107749097Y-84124027D01*
X107749090Y-84124014D01*
X107661489Y-83992911D01*
X107661486Y-83992907D01*
X107549992Y-83881413D01*
X107549988Y-83881410D01*
X107418885Y-83793809D01*
X107418872Y-83793802D01*
X107273201Y-83733464D01*
X107273189Y-83733461D01*
X107118545Y-83702700D01*
X107118542Y-83702700D01*
X106960858Y-83702700D01*
X106960855Y-83702700D01*
X106806210Y-83733461D01*
X106806198Y-83733464D01*
X106660527Y-83793802D01*
X106660514Y-83793809D01*
X106529411Y-83881410D01*
X106529407Y-83881413D01*
X106417913Y-83992907D01*
X106417910Y-83992911D01*
X106330309Y-84124014D01*
X106330302Y-84124027D01*
X106269964Y-84269698D01*
X106269961Y-84269710D01*
X106239200Y-84424353D01*
X103503076Y-84424353D01*
X103489394Y-84391321D01*
X103489392Y-84391318D01*
X103489390Y-84391314D01*
X103401789Y-84260211D01*
X103401786Y-84260207D01*
X103290292Y-84148713D01*
X103290288Y-84148710D01*
X103159185Y-84061109D01*
X103159172Y-84061102D01*
X103013501Y-84000764D01*
X103013489Y-84000761D01*
X102858845Y-83970000D01*
X102858842Y-83970000D01*
X102701158Y-83970000D01*
X102701155Y-83970000D01*
X102546510Y-84000761D01*
X102546498Y-84000764D01*
X102400827Y-84061102D01*
X102400814Y-84061109D01*
X102269711Y-84148710D01*
X102269707Y-84148713D01*
X102158213Y-84260207D01*
X102158210Y-84260211D01*
X102070609Y-84391314D01*
X102070602Y-84391327D01*
X102010264Y-84536998D01*
X102010261Y-84537010D01*
X101979500Y-84691653D01*
X98096299Y-84691653D01*
X98081288Y-84616189D01*
X98065537Y-84537003D01*
X98056044Y-84514085D01*
X98005197Y-84391327D01*
X98005190Y-84391314D01*
X97917589Y-84260211D01*
X97917586Y-84260207D01*
X97806092Y-84148713D01*
X97806088Y-84148710D01*
X97674985Y-84061109D01*
X97674972Y-84061102D01*
X97529301Y-84000764D01*
X97529289Y-84000761D01*
X97374645Y-83970000D01*
X97374642Y-83970000D01*
X97216958Y-83970000D01*
X97216955Y-83970000D01*
X97062310Y-84000761D01*
X97062298Y-84000764D01*
X96916627Y-84061102D01*
X96916614Y-84061109D01*
X96785511Y-84148710D01*
X96785507Y-84148713D01*
X96674013Y-84260207D01*
X96674010Y-84260211D01*
X96586409Y-84391314D01*
X96586402Y-84391327D01*
X96526064Y-84536998D01*
X96526061Y-84537010D01*
X96495300Y-84691653D01*
X92529275Y-84691653D01*
X92536100Y-84657342D01*
X92536100Y-84499658D01*
X92536100Y-84499655D01*
X92536099Y-84499653D01*
X92511021Y-84373579D01*
X92505337Y-84345003D01*
X92474145Y-84269698D01*
X92444997Y-84199327D01*
X92444990Y-84199314D01*
X92357389Y-84068211D01*
X92357386Y-84068207D01*
X92245892Y-83956713D01*
X92245888Y-83956710D01*
X92114785Y-83869109D01*
X92114772Y-83869102D01*
X91969101Y-83808764D01*
X91969089Y-83808761D01*
X91814445Y-83778000D01*
X91814442Y-83778000D01*
X91656758Y-83778000D01*
X91656755Y-83778000D01*
X91502110Y-83808761D01*
X91502098Y-83808764D01*
X91356427Y-83869102D01*
X91356414Y-83869109D01*
X91224725Y-83957102D01*
X91158047Y-83977980D01*
X91155834Y-83978000D01*
X88882300Y-83978000D01*
X88815261Y-83958315D01*
X88769506Y-83905511D01*
X88758300Y-83854000D01*
X88758300Y-83815055D01*
X88758299Y-83815053D01*
X88742962Y-83737949D01*
X88727537Y-83660403D01*
X88708819Y-83615214D01*
X88667197Y-83514727D01*
X88667190Y-83514714D01*
X88579589Y-83383611D01*
X88579586Y-83383607D01*
X88468092Y-83272113D01*
X88468088Y-83272110D01*
X88336985Y-83184509D01*
X88336972Y-83184502D01*
X88191301Y-83124164D01*
X88191289Y-83124161D01*
X88036645Y-83093400D01*
X88036642Y-83093400D01*
X87878958Y-83093400D01*
X87878955Y-83093400D01*
X87724310Y-83124161D01*
X87724298Y-83124164D01*
X87578627Y-83184502D01*
X87578614Y-83184509D01*
X87446925Y-83272502D01*
X87380247Y-83293380D01*
X87378034Y-83293400D01*
X73519970Y-83293400D01*
X73519954Y-83293399D01*
X73512358Y-83293399D01*
X73354243Y-83293399D01*
X73277879Y-83313861D01*
X73201514Y-83334323D01*
X73201509Y-83334326D01*
X73064590Y-83413375D01*
X73064582Y-83413381D01*
X72542039Y-83935925D01*
X72480716Y-83969410D01*
X72478550Y-83969861D01*
X72323208Y-84000761D01*
X72323198Y-84000764D01*
X72177527Y-84061102D01*
X72177514Y-84061109D01*
X72046411Y-84148710D01*
X72046407Y-84148713D01*
X71934913Y-84260207D01*
X71934910Y-84260211D01*
X71847309Y-84391314D01*
X71847302Y-84391327D01*
X71786964Y-84536998D01*
X71786961Y-84537010D01*
X71756200Y-84691653D01*
X71756200Y-84849346D01*
X71786961Y-85003989D01*
X71786964Y-85004001D01*
X71847302Y-85149672D01*
X71847309Y-85149685D01*
X71934910Y-85280788D01*
X71934913Y-85280792D01*
X72046407Y-85392286D01*
X72046411Y-85392289D01*
X72177514Y-85479890D01*
X72177527Y-85479897D01*
X72323198Y-85540235D01*
X72323203Y-85540237D01*
X72477853Y-85570999D01*
X72477856Y-85571000D01*
X72477858Y-85571000D01*
X72635544Y-85571000D01*
X72635545Y-85570999D01*
X72790197Y-85540237D01*
X72935879Y-85479894D01*
X73066989Y-85392289D01*
X73178489Y-85280789D01*
X73266094Y-85149679D01*
X73326437Y-85003997D01*
X73350627Y-84882385D01*
X73357338Y-84848650D01*
X73389723Y-84786739D01*
X73391161Y-84785273D01*
X73645718Y-84530716D01*
X73707040Y-84497234D01*
X73733398Y-84494400D01*
X77883303Y-84494400D01*
X77950342Y-84514085D01*
X77996097Y-84566889D01*
X78006041Y-84636047D01*
X77977016Y-84699603D01*
X77970984Y-84706081D01*
X76066339Y-86610725D01*
X76005016Y-86644210D01*
X76002850Y-86644661D01*
X75847508Y-86675561D01*
X75847498Y-86675564D01*
X75701827Y-86735902D01*
X75701814Y-86735909D01*
X75570711Y-86823510D01*
X75570707Y-86823513D01*
X75459213Y-86935007D01*
X75459210Y-86935011D01*
X75371609Y-87066114D01*
X75371602Y-87066127D01*
X75311264Y-87211798D01*
X75311261Y-87211810D01*
X75279439Y-87371791D01*
X75247054Y-87433702D01*
X75186339Y-87468276D01*
X75157822Y-87471600D01*
X65059485Y-87471600D01*
X64992446Y-87451915D01*
X64946691Y-87399111D01*
X64944924Y-87395052D01*
X64911197Y-87313627D01*
X64911190Y-87313614D01*
X64823589Y-87182511D01*
X64823586Y-87182507D01*
X64712092Y-87071013D01*
X64712088Y-87071010D01*
X64580985Y-86983409D01*
X64580972Y-86983402D01*
X64435301Y-86923064D01*
X64435289Y-86923061D01*
X64280645Y-86892300D01*
X64280642Y-86892300D01*
X64122958Y-86892300D01*
X64122955Y-86892300D01*
X63968310Y-86923061D01*
X63968298Y-86923064D01*
X63822627Y-86983402D01*
X63822614Y-86983409D01*
X63691511Y-87071010D01*
X63691507Y-87071013D01*
X63580013Y-87182507D01*
X63580010Y-87182511D01*
X63492409Y-87313614D01*
X63492402Y-87313627D01*
X63432064Y-87459298D01*
X63432061Y-87459310D01*
X63401300Y-87613953D01*
X45500500Y-87613953D01*
X45500500Y-85398543D01*
X50359499Y-85398543D01*
X50397947Y-85591829D01*
X50397950Y-85591839D01*
X50473364Y-85773907D01*
X50473371Y-85773920D01*
X50582860Y-85937781D01*
X50582863Y-85937785D01*
X50722214Y-86077136D01*
X50722218Y-86077139D01*
X50886079Y-86186628D01*
X50886092Y-86186635D01*
X51037639Y-86249407D01*
X51068165Y-86262051D01*
X51068169Y-86262051D01*
X51068170Y-86262052D01*
X51261456Y-86300500D01*
X51261459Y-86300500D01*
X51458543Y-86300500D01*
X51588582Y-86274632D01*
X51651835Y-86262051D01*
X51833914Y-86186632D01*
X51997782Y-86077139D01*
X52137139Y-85937782D01*
X52246632Y-85773914D01*
X52322051Y-85591835D01*
X52344318Y-85479894D01*
X52360500Y-85398543D01*
X58999499Y-85398543D01*
X59037947Y-85591829D01*
X59037950Y-85591839D01*
X59113364Y-85773907D01*
X59113371Y-85773920D01*
X59222860Y-85937781D01*
X59222863Y-85937785D01*
X59362214Y-86077136D01*
X59362218Y-86077139D01*
X59526079Y-86186628D01*
X59526092Y-86186635D01*
X59677639Y-86249407D01*
X59708165Y-86262051D01*
X59708169Y-86262051D01*
X59708170Y-86262052D01*
X59901456Y-86300500D01*
X59901459Y-86300500D01*
X60098543Y-86300500D01*
X60228582Y-86274632D01*
X60291835Y-86262051D01*
X60473914Y-86186632D01*
X60637782Y-86077139D01*
X60777139Y-85937782D01*
X60886632Y-85773914D01*
X60962051Y-85591835D01*
X60984318Y-85479894D01*
X61000500Y-85398543D01*
X61000500Y-84601456D01*
X60962052Y-84408170D01*
X60962051Y-84408169D01*
X60962051Y-84408165D01*
X60900767Y-84260211D01*
X60886635Y-84226092D01*
X60886628Y-84226079D01*
X60777139Y-84062218D01*
X60777136Y-84062214D01*
X60637785Y-83922863D01*
X60637781Y-83922860D01*
X60473920Y-83813371D01*
X60473907Y-83813364D01*
X60291839Y-83737950D01*
X60291829Y-83737947D01*
X60098543Y-83699500D01*
X60098541Y-83699500D01*
X59901459Y-83699500D01*
X59901457Y-83699500D01*
X59708170Y-83737947D01*
X59708160Y-83737950D01*
X59526092Y-83813364D01*
X59526079Y-83813371D01*
X59362218Y-83922860D01*
X59362214Y-83922863D01*
X59222863Y-84062214D01*
X59222860Y-84062218D01*
X59113371Y-84226079D01*
X59113364Y-84226092D01*
X59037950Y-84408160D01*
X59037947Y-84408170D01*
X58999500Y-84601456D01*
X58999500Y-84601459D01*
X58999500Y-85398541D01*
X58999500Y-85398543D01*
X58999499Y-85398543D01*
X52360500Y-85398543D01*
X52360500Y-84601456D01*
X52322052Y-84408170D01*
X52322051Y-84408169D01*
X52322051Y-84408165D01*
X52260767Y-84260211D01*
X52246635Y-84226092D01*
X52246628Y-84226079D01*
X52137139Y-84062218D01*
X52137136Y-84062214D01*
X51997785Y-83922863D01*
X51997781Y-83922860D01*
X51833920Y-83813371D01*
X51833907Y-83813364D01*
X51651839Y-83737950D01*
X51651829Y-83737947D01*
X51458543Y-83699500D01*
X51458541Y-83699500D01*
X51261459Y-83699500D01*
X51261457Y-83699500D01*
X51068170Y-83737947D01*
X51068160Y-83737950D01*
X50886092Y-83813364D01*
X50886079Y-83813371D01*
X50722218Y-83922860D01*
X50722214Y-83922863D01*
X50582863Y-84062214D01*
X50582860Y-84062218D01*
X50473371Y-84226079D01*
X50473364Y-84226092D01*
X50397950Y-84408160D01*
X50397947Y-84408170D01*
X50359500Y-84601456D01*
X50359500Y-84601459D01*
X50359500Y-85398541D01*
X50359500Y-85398543D01*
X50359499Y-85398543D01*
X45500500Y-85398543D01*
X45500500Y-81468543D01*
X50359499Y-81468543D01*
X50397947Y-81661829D01*
X50397950Y-81661839D01*
X50473364Y-81843907D01*
X50473371Y-81843920D01*
X50582860Y-82007781D01*
X50582863Y-82007785D01*
X50722214Y-82147136D01*
X50722218Y-82147139D01*
X50886079Y-82256628D01*
X50886092Y-82256635D01*
X51068160Y-82332049D01*
X51068165Y-82332051D01*
X51068169Y-82332051D01*
X51068170Y-82332052D01*
X51261456Y-82370500D01*
X51261459Y-82370500D01*
X51458543Y-82370500D01*
X51619987Y-82338386D01*
X51651835Y-82332051D01*
X51833914Y-82256632D01*
X51997782Y-82147139D01*
X52137139Y-82007782D01*
X52246632Y-81843914D01*
X52246631Y-81843914D01*
X52250017Y-81838848D01*
X52251474Y-81839821D01*
X52294595Y-81795903D01*
X52362729Y-81780426D01*
X52428414Y-81804242D01*
X52430502Y-81805809D01*
X52436632Y-81810512D01*
X52436635Y-81810515D01*
X52567865Y-81886281D01*
X52714234Y-81925500D01*
X52714236Y-81925500D01*
X52865764Y-81925500D01*
X52865766Y-81925500D01*
X53012135Y-81886281D01*
X53143365Y-81810515D01*
X53250515Y-81703365D01*
X53326281Y-81572135D01*
X53365500Y-81425766D01*
X53365500Y-81274234D01*
X57994500Y-81274234D01*
X57994500Y-81425766D01*
X58005962Y-81468543D01*
X58033719Y-81572136D01*
X58042963Y-81588146D01*
X58109485Y-81703365D01*
X58216635Y-81810515D01*
X58347865Y-81886281D01*
X58494234Y-81925500D01*
X58494236Y-81925500D01*
X58645764Y-81925500D01*
X58645766Y-81925500D01*
X58792135Y-81886281D01*
X58923365Y-81810515D01*
X58923374Y-81810505D01*
X58929488Y-81805815D01*
X58994656Y-81780617D01*
X59063101Y-81794650D01*
X59109025Y-81839488D01*
X59109983Y-81838849D01*
X59113009Y-81843378D01*
X59113094Y-81843461D01*
X59113228Y-81843706D01*
X59222860Y-82007781D01*
X59222863Y-82007785D01*
X59362214Y-82147136D01*
X59362218Y-82147139D01*
X59526079Y-82256628D01*
X59526092Y-82256635D01*
X59708160Y-82332049D01*
X59708165Y-82332051D01*
X59708169Y-82332051D01*
X59708170Y-82332052D01*
X59901456Y-82370500D01*
X59901459Y-82370500D01*
X60098543Y-82370500D01*
X60259987Y-82338386D01*
X60291835Y-82332051D01*
X60473914Y-82256632D01*
X60637782Y-82147139D01*
X60777139Y-82007782D01*
X60886632Y-81843914D01*
X60962051Y-81661835D01*
X60976710Y-81588142D01*
X61000500Y-81468543D01*
X61000500Y-81430453D01*
X74940300Y-81430453D01*
X74940300Y-81588146D01*
X74971061Y-81742789D01*
X74971064Y-81742801D01*
X75031402Y-81888472D01*
X75031409Y-81888485D01*
X75119010Y-82019588D01*
X75119013Y-82019592D01*
X75230507Y-82131086D01*
X75230511Y-82131089D01*
X75361614Y-82218690D01*
X75361627Y-82218697D01*
X75453202Y-82256628D01*
X75507303Y-82279037D01*
X75661953Y-82309799D01*
X75661956Y-82309800D01*
X75661958Y-82309800D01*
X75819644Y-82309800D01*
X75819645Y-82309799D01*
X75974297Y-82279037D01*
X76119979Y-82218694D01*
X76251089Y-82131089D01*
X76362589Y-82019589D01*
X76450194Y-81888479D01*
X76451105Y-81886281D01*
X76489106Y-81794537D01*
X76510537Y-81742797D01*
X76541300Y-81588142D01*
X76541300Y-81430458D01*
X76541300Y-81430455D01*
X76541299Y-81430453D01*
X76536033Y-81403979D01*
X76510537Y-81275803D01*
X76509887Y-81274234D01*
X76450197Y-81130127D01*
X76450190Y-81130114D01*
X76369101Y-81008757D01*
X76369100Y-81008755D01*
X76362590Y-80999012D01*
X76362586Y-80999007D01*
X76309532Y-80945953D01*
X82587500Y-80945953D01*
X82587500Y-81103646D01*
X82618261Y-81258289D01*
X82618264Y-81258301D01*
X82678602Y-81403972D01*
X82678609Y-81403985D01*
X82766210Y-81535088D01*
X82766213Y-81535092D01*
X82877707Y-81646586D01*
X82877711Y-81646589D01*
X83008814Y-81734190D01*
X83008827Y-81734197D01*
X83154498Y-81794535D01*
X83154503Y-81794537D01*
X83309153Y-81825299D01*
X83309156Y-81825300D01*
X83309158Y-81825300D01*
X83466844Y-81825300D01*
X83466845Y-81825299D01*
X83621497Y-81794537D01*
X83767179Y-81734194D01*
X83898289Y-81646589D01*
X83907125Y-81637753D01*
X89229900Y-81637753D01*
X89229900Y-81795446D01*
X89260661Y-81950089D01*
X89260664Y-81950101D01*
X89321002Y-82095772D01*
X89321009Y-82095785D01*
X89408610Y-82226888D01*
X89408613Y-82226892D01*
X89520107Y-82338386D01*
X89520111Y-82338389D01*
X89651214Y-82425990D01*
X89651227Y-82425997D01*
X89757435Y-82469989D01*
X89796903Y-82486337D01*
X89951553Y-82517099D01*
X89951556Y-82517100D01*
X89951558Y-82517100D01*
X90109244Y-82517100D01*
X90109245Y-82517099D01*
X90263897Y-82486337D01*
X90409579Y-82425994D01*
X90540689Y-82338389D01*
X90652189Y-82226889D01*
X90739794Y-82095779D01*
X90800137Y-81950097D01*
X90830900Y-81795442D01*
X90830900Y-81769353D01*
X93096300Y-81769353D01*
X93096300Y-81927046D01*
X93127061Y-82081689D01*
X93127064Y-82081701D01*
X93187402Y-82227372D01*
X93187409Y-82227385D01*
X93275010Y-82358488D01*
X93275013Y-82358492D01*
X93386507Y-82469986D01*
X93386511Y-82469989D01*
X93517614Y-82557590D01*
X93517627Y-82557597D01*
X93663298Y-82617935D01*
X93663303Y-82617937D01*
X93817953Y-82648699D01*
X93817956Y-82648700D01*
X93817958Y-82648700D01*
X93975644Y-82648700D01*
X93975645Y-82648699D01*
X94130297Y-82617937D01*
X94275979Y-82557594D01*
X94407089Y-82469989D01*
X94518589Y-82358489D01*
X94606194Y-82227379D01*
X94666537Y-82081697D01*
X94697300Y-81927042D01*
X94697300Y-81769358D01*
X94697300Y-81769355D01*
X94697299Y-81769353D01*
X94675911Y-81661829D01*
X94666537Y-81614703D01*
X94655535Y-81588142D01*
X94606197Y-81469027D01*
X94606190Y-81469014D01*
X94518589Y-81337911D01*
X94518586Y-81337907D01*
X94407092Y-81226413D01*
X94407088Y-81226410D01*
X94275985Y-81138809D01*
X94275972Y-81138802D01*
X94130301Y-81078464D01*
X94130289Y-81078461D01*
X93975645Y-81047700D01*
X93975642Y-81047700D01*
X93817958Y-81047700D01*
X93817955Y-81047700D01*
X93663310Y-81078461D01*
X93663298Y-81078464D01*
X93517627Y-81138802D01*
X93517614Y-81138809D01*
X93386511Y-81226410D01*
X93386507Y-81226413D01*
X93275013Y-81337907D01*
X93275010Y-81337911D01*
X93187409Y-81469014D01*
X93187402Y-81469027D01*
X93127064Y-81614698D01*
X93127061Y-81614710D01*
X93096300Y-81769353D01*
X90830900Y-81769353D01*
X90830900Y-81637758D01*
X90830900Y-81637755D01*
X90830899Y-81637753D01*
X90810478Y-81535092D01*
X90800137Y-81483103D01*
X90778329Y-81430453D01*
X90739797Y-81337427D01*
X90739790Y-81337414D01*
X90652189Y-81206311D01*
X90652186Y-81206307D01*
X90540692Y-81094813D01*
X90540688Y-81094810D01*
X90409585Y-81007209D01*
X90409572Y-81007202D01*
X90263901Y-80946864D01*
X90263889Y-80946861D01*
X90109245Y-80916100D01*
X90109242Y-80916100D01*
X89951558Y-80916100D01*
X89951555Y-80916100D01*
X89796910Y-80946861D01*
X89796898Y-80946864D01*
X89651227Y-81007202D01*
X89651214Y-81007209D01*
X89520111Y-81094810D01*
X89520107Y-81094813D01*
X89408613Y-81206307D01*
X89408610Y-81206311D01*
X89321009Y-81337414D01*
X89321002Y-81337427D01*
X89260664Y-81483098D01*
X89260661Y-81483110D01*
X89229900Y-81637753D01*
X83907125Y-81637753D01*
X83930180Y-81614698D01*
X84000894Y-81543985D01*
X84009786Y-81535092D01*
X84009789Y-81535089D01*
X84097394Y-81403979D01*
X84157737Y-81258297D01*
X84188500Y-81103642D01*
X84188500Y-80945958D01*
X84188500Y-80945955D01*
X84188499Y-80945953D01*
X84176874Y-80887510D01*
X84157737Y-80791303D01*
X84127650Y-80718666D01*
X84097397Y-80645627D01*
X84097390Y-80645614D01*
X84009789Y-80514511D01*
X84009786Y-80514507D01*
X83898292Y-80403013D01*
X83898288Y-80403010D01*
X83767185Y-80315409D01*
X83767172Y-80315402D01*
X83621501Y-80255064D01*
X83621489Y-80255061D01*
X83466845Y-80224300D01*
X83466842Y-80224300D01*
X83309158Y-80224300D01*
X83309155Y-80224300D01*
X83154510Y-80255061D01*
X83154498Y-80255064D01*
X83008827Y-80315402D01*
X83008814Y-80315409D01*
X82877711Y-80403010D01*
X82877707Y-80403013D01*
X82766213Y-80514507D01*
X82766210Y-80514511D01*
X82678609Y-80645614D01*
X82678602Y-80645627D01*
X82618264Y-80791298D01*
X82618261Y-80791310D01*
X82587500Y-80945953D01*
X76309532Y-80945953D01*
X76251092Y-80887513D01*
X76251088Y-80887510D01*
X76119985Y-80799909D01*
X76119972Y-80799902D01*
X75974301Y-80739564D01*
X75974289Y-80739561D01*
X75819645Y-80708800D01*
X75819642Y-80708800D01*
X75661958Y-80708800D01*
X75661955Y-80708800D01*
X75507310Y-80739561D01*
X75507298Y-80739564D01*
X75361627Y-80799902D01*
X75361614Y-80799909D01*
X75230511Y-80887510D01*
X75230507Y-80887513D01*
X75119013Y-80999007D01*
X75119010Y-80999011D01*
X75031409Y-81130114D01*
X75031402Y-81130127D01*
X74971064Y-81275798D01*
X74971061Y-81275810D01*
X74940300Y-81430453D01*
X61000500Y-81430453D01*
X61000500Y-80171456D01*
X60962052Y-79978170D01*
X60962051Y-79978169D01*
X60962051Y-79978165D01*
X60939573Y-79923897D01*
X60886635Y-79796092D01*
X60886628Y-79796079D01*
X60777139Y-79632218D01*
X60777136Y-79632214D01*
X60637785Y-79492863D01*
X60637781Y-79492860D01*
X60473920Y-79383371D01*
X60473907Y-79383364D01*
X60291839Y-79307950D01*
X60291829Y-79307947D01*
X60098543Y-79269500D01*
X60098541Y-79269500D01*
X59901459Y-79269500D01*
X59901457Y-79269500D01*
X59708170Y-79307947D01*
X59708160Y-79307950D01*
X59526092Y-79383364D01*
X59526079Y-79383371D01*
X59362218Y-79492860D01*
X59362214Y-79492863D01*
X59222863Y-79632214D01*
X59222860Y-79632218D01*
X59113371Y-79796079D01*
X59113364Y-79796092D01*
X59037950Y-79978160D01*
X59037947Y-79978170D01*
X58999500Y-80171456D01*
X58999500Y-80718666D01*
X58979815Y-80785705D01*
X58927011Y-80831460D01*
X58857853Y-80841404D01*
X58813501Y-80826054D01*
X58792137Y-80813719D01*
X58687584Y-80785705D01*
X58645766Y-80774500D01*
X58494234Y-80774500D01*
X58347863Y-80813719D01*
X58216635Y-80889485D01*
X58216632Y-80889487D01*
X58109487Y-80996632D01*
X58109485Y-80996635D01*
X58033719Y-81127863D01*
X58007314Y-81226410D01*
X57994500Y-81274234D01*
X53365500Y-81274234D01*
X53326281Y-81127865D01*
X53250515Y-80996635D01*
X53143365Y-80889485D01*
X53060087Y-80841404D01*
X53012136Y-80813719D01*
X52938950Y-80794109D01*
X52865766Y-80774500D01*
X52714234Y-80774500D01*
X52567862Y-80813719D01*
X52546499Y-80826054D01*
X52478598Y-80842525D01*
X52412572Y-80819673D01*
X52369382Y-80764751D01*
X52360500Y-80718666D01*
X52360500Y-80171456D01*
X52322052Y-79978170D01*
X52322051Y-79978169D01*
X52322051Y-79978165D01*
X52299573Y-79923897D01*
X52246635Y-79796092D01*
X52246628Y-79796079D01*
X52137139Y-79632218D01*
X52137136Y-79632214D01*
X51997785Y-79492863D01*
X51997781Y-79492860D01*
X51833920Y-79383371D01*
X51833907Y-79383364D01*
X51651839Y-79307950D01*
X51651829Y-79307947D01*
X51458543Y-79269500D01*
X51458541Y-79269500D01*
X51261459Y-79269500D01*
X51261457Y-79269500D01*
X51068170Y-79307947D01*
X51068160Y-79307950D01*
X50886092Y-79383364D01*
X50886079Y-79383371D01*
X50722218Y-79492860D01*
X50722214Y-79492863D01*
X50582863Y-79632214D01*
X50582860Y-79632218D01*
X50473371Y-79796079D01*
X50473364Y-79796092D01*
X50397950Y-79978160D01*
X50397947Y-79978170D01*
X50359500Y-80171456D01*
X50359500Y-80171459D01*
X50359500Y-81468541D01*
X50359500Y-81468543D01*
X50359499Y-81468543D01*
X45500500Y-81468543D01*
X45500500Y-78197653D01*
X51523300Y-78197653D01*
X51523300Y-78355346D01*
X51554061Y-78509989D01*
X51554064Y-78510001D01*
X51614402Y-78655672D01*
X51614409Y-78655685D01*
X51702010Y-78786788D01*
X51702013Y-78786792D01*
X51813507Y-78898286D01*
X51813511Y-78898289D01*
X51944614Y-78985890D01*
X51944627Y-78985897D01*
X52090298Y-79046235D01*
X52090303Y-79046237D01*
X52244953Y-79076999D01*
X52244956Y-79077000D01*
X52244958Y-79077000D01*
X52402644Y-79077000D01*
X52402645Y-79076999D01*
X52557297Y-79046237D01*
X52702979Y-78985894D01*
X52834089Y-78898289D01*
X52945589Y-78786789D01*
X53033194Y-78655679D01*
X53093537Y-78509997D01*
X53124300Y-78355342D01*
X53124300Y-78197658D01*
X53124300Y-78197655D01*
X53124299Y-78197653D01*
X53093538Y-78043010D01*
X53093537Y-78043003D01*
X53065221Y-77974642D01*
X53033197Y-77897327D01*
X53033191Y-77897316D01*
X53021458Y-77879756D01*
X53021457Y-77879755D01*
X52979494Y-77816953D01*
X56674200Y-77816953D01*
X56674200Y-77974646D01*
X56704961Y-78129289D01*
X56704964Y-78129301D01*
X56765302Y-78274972D01*
X56765309Y-78274985D01*
X56852910Y-78406088D01*
X56852913Y-78406092D01*
X56964407Y-78517586D01*
X56964411Y-78517589D01*
X57095514Y-78605190D01*
X57095527Y-78605197D01*
X57241198Y-78665535D01*
X57241203Y-78665537D01*
X57395853Y-78696299D01*
X57395856Y-78696300D01*
X57395858Y-78696300D01*
X57553544Y-78696300D01*
X57553545Y-78696299D01*
X57708197Y-78665537D01*
X57853879Y-78605194D01*
X57853885Y-78605190D01*
X57985575Y-78517198D01*
X58052253Y-78496320D01*
X58054466Y-78496300D01*
X70032503Y-78496300D01*
X70099542Y-78515985D01*
X70120183Y-78532618D01*
X70961784Y-79374220D01*
X70961786Y-79374221D01*
X70961790Y-79374224D01*
X71098709Y-79453273D01*
X71098716Y-79453277D01*
X71251443Y-79494201D01*
X71251445Y-79494201D01*
X71417154Y-79494201D01*
X71417170Y-79494200D01*
X77688900Y-79494200D01*
X77755939Y-79513885D01*
X77801694Y-79566689D01*
X77812900Y-79618200D01*
X77812900Y-79769246D01*
X77843661Y-79923889D01*
X77843664Y-79923901D01*
X77904002Y-80069572D01*
X77904009Y-80069585D01*
X77991610Y-80200688D01*
X77991613Y-80200692D01*
X78103107Y-80312186D01*
X78103111Y-80312189D01*
X78234214Y-80399790D01*
X78234227Y-80399797D01*
X78379898Y-80460135D01*
X78379903Y-80460137D01*
X78534553Y-80490899D01*
X78534556Y-80490900D01*
X78534558Y-80490900D01*
X78692244Y-80490900D01*
X78692245Y-80490899D01*
X78846897Y-80460137D01*
X78984808Y-80403013D01*
X78992572Y-80399797D01*
X78992572Y-80399796D01*
X78992579Y-80399794D01*
X79123689Y-80312189D01*
X79235189Y-80200689D01*
X79322794Y-80069579D01*
X79383137Y-79923897D01*
X79413900Y-79769242D01*
X79413900Y-79618200D01*
X79433585Y-79551161D01*
X79486389Y-79505406D01*
X79537900Y-79494200D01*
X82084134Y-79494200D01*
X82151173Y-79513885D01*
X82153025Y-79515098D01*
X82284714Y-79603090D01*
X82284727Y-79603097D01*
X82430398Y-79663435D01*
X82430403Y-79663437D01*
X82585053Y-79694199D01*
X82585056Y-79694200D01*
X82585058Y-79694200D01*
X82742744Y-79694200D01*
X82742745Y-79694199D01*
X82897397Y-79663437D01*
X83043079Y-79603094D01*
X83174189Y-79515489D01*
X83285689Y-79403989D01*
X83373294Y-79272879D01*
X83433637Y-79127197D01*
X83464400Y-78972542D01*
X83464400Y-78814858D01*
X83464400Y-78814855D01*
X83433814Y-78661092D01*
X83440041Y-78591500D01*
X83482904Y-78536323D01*
X83548794Y-78513078D01*
X83555431Y-78512900D01*
X118265903Y-78512900D01*
X118332942Y-78532585D01*
X118353584Y-78549219D01*
X123813425Y-84009060D01*
X123846910Y-84070383D01*
X123847361Y-84072549D01*
X123878261Y-84227891D01*
X123878264Y-84227901D01*
X123938602Y-84373572D01*
X123938609Y-84373585D01*
X124026210Y-84504688D01*
X124026213Y-84504692D01*
X124137707Y-84616186D01*
X124137711Y-84616189D01*
X124268814Y-84703790D01*
X124268827Y-84703797D01*
X124414498Y-84764135D01*
X124414503Y-84764137D01*
X124569153Y-84794899D01*
X124569156Y-84794900D01*
X124569158Y-84794900D01*
X124726844Y-84794900D01*
X124726845Y-84794899D01*
X124881497Y-84764137D01*
X125027179Y-84703794D01*
X125158289Y-84616189D01*
X125269789Y-84504689D01*
X125357394Y-84373579D01*
X125417737Y-84227897D01*
X125448500Y-84073242D01*
X125448500Y-83915558D01*
X125448500Y-83915555D01*
X125448499Y-83915553D01*
X125417737Y-83760903D01*
X125408229Y-83737949D01*
X125357397Y-83615227D01*
X125357390Y-83615214D01*
X125269789Y-83484111D01*
X125269786Y-83484107D01*
X125158292Y-83372613D01*
X125158288Y-83372610D01*
X125027185Y-83285009D01*
X125027172Y-83285002D01*
X124881501Y-83224664D01*
X124881491Y-83224661D01*
X124726149Y-83193761D01*
X124664238Y-83161376D01*
X124662660Y-83159825D01*
X119053590Y-77550755D01*
X119053588Y-77550752D01*
X118934717Y-77431881D01*
X118934716Y-77431880D01*
X118847904Y-77381760D01*
X118847904Y-77381759D01*
X118847900Y-77381758D01*
X118797785Y-77352823D01*
X118645057Y-77311899D01*
X118486943Y-77311899D01*
X118479347Y-77311899D01*
X118479331Y-77311900D01*
X72056166Y-77311900D01*
X72040145Y-77307490D01*
X72025294Y-77307995D01*
X71998544Y-77296038D01*
X71992710Y-77294433D01*
X71987271Y-77291193D01*
X71986689Y-77290611D01*
X71855579Y-77203006D01*
X71801870Y-77180759D01*
X71794154Y-77176163D01*
X71776251Y-77156868D01*
X71755753Y-77140349D01*
X71752860Y-77131657D01*
X71746631Y-77124944D01*
X71742001Y-77099031D01*
X71733689Y-77074055D01*
X71735954Y-77065180D01*
X71734343Y-77056163D01*
X71744459Y-77031856D01*
X71750969Y-77006356D01*
X71759813Y-76994970D01*
X71761192Y-76991658D01*
X71763773Y-76989872D01*
X71769925Y-76981952D01*
X71848989Y-76902889D01*
X71936594Y-76771779D01*
X71996937Y-76626097D01*
X72027700Y-76471442D01*
X72027700Y-76313758D01*
X72027700Y-76313755D01*
X72027699Y-76313753D01*
X71996938Y-76159110D01*
X71996937Y-76159103D01*
X71965184Y-76082444D01*
X71936597Y-76013427D01*
X71936587Y-76013409D01*
X71919314Y-75987558D01*
X71919313Y-75987557D01*
X71877348Y-75924753D01*
X72309800Y-75924753D01*
X72309800Y-76082446D01*
X72340561Y-76237089D01*
X72340564Y-76237101D01*
X72400902Y-76382772D01*
X72400909Y-76382785D01*
X72488510Y-76513888D01*
X72488513Y-76513892D01*
X72600007Y-76625386D01*
X72600011Y-76625389D01*
X72731114Y-76712990D01*
X72731127Y-76712997D01*
X72873056Y-76771785D01*
X72876803Y-76773337D01*
X73031453Y-76804099D01*
X73031456Y-76804100D01*
X73031458Y-76804100D01*
X73189144Y-76804100D01*
X73189145Y-76804099D01*
X73343797Y-76773337D01*
X73489479Y-76712994D01*
X73620589Y-76625389D01*
X73732089Y-76513889D01*
X73819694Y-76382779D01*
X73880037Y-76237097D01*
X73910800Y-76082442D01*
X73910800Y-75924758D01*
X73910800Y-75924755D01*
X73910799Y-75924753D01*
X84187800Y-75924753D01*
X84187800Y-76082446D01*
X84218561Y-76237089D01*
X84218564Y-76237101D01*
X84278902Y-76382772D01*
X84278909Y-76382785D01*
X84366510Y-76513888D01*
X84366513Y-76513892D01*
X84478007Y-76625386D01*
X84478011Y-76625389D01*
X84609114Y-76712990D01*
X84609127Y-76712997D01*
X84751056Y-76771785D01*
X84754803Y-76773337D01*
X84909453Y-76804099D01*
X84909456Y-76804100D01*
X84909458Y-76804100D01*
X85067144Y-76804100D01*
X85067145Y-76804099D01*
X85221797Y-76773337D01*
X85367479Y-76712994D01*
X85367485Y-76712990D01*
X85499175Y-76624998D01*
X85565853Y-76604120D01*
X85568066Y-76604100D01*
X158646034Y-76604100D01*
X158713073Y-76623785D01*
X158714925Y-76624998D01*
X158846614Y-76712990D01*
X158846627Y-76712997D01*
X158988556Y-76771785D01*
X158992303Y-76773337D01*
X159146953Y-76804099D01*
X159146956Y-76804100D01*
X159146958Y-76804100D01*
X159304644Y-76804100D01*
X159304645Y-76804099D01*
X159459297Y-76773337D01*
X159604979Y-76712994D01*
X159736089Y-76625389D01*
X159847589Y-76513889D01*
X159935194Y-76382779D01*
X159995537Y-76237097D01*
X160026300Y-76082442D01*
X160026300Y-75924758D01*
X160026300Y-75924755D01*
X160026299Y-75924753D01*
X159995678Y-75770813D01*
X159995537Y-75770103D01*
X159959545Y-75683209D01*
X159935197Y-75624427D01*
X159935190Y-75624414D01*
X159847589Y-75493311D01*
X159847586Y-75493307D01*
X159736092Y-75381813D01*
X159736088Y-75381810D01*
X159604985Y-75294209D01*
X159604972Y-75294202D01*
X159459301Y-75233864D01*
X159459289Y-75233861D01*
X159304645Y-75203100D01*
X159304642Y-75203100D01*
X159146958Y-75203100D01*
X159146955Y-75203100D01*
X158992310Y-75233861D01*
X158992298Y-75233864D01*
X158846627Y-75294202D01*
X158846614Y-75294209D01*
X158714925Y-75382202D01*
X158648247Y-75403080D01*
X158646034Y-75403100D01*
X85568066Y-75403100D01*
X85501027Y-75383415D01*
X85499175Y-75382202D01*
X85367485Y-75294209D01*
X85367472Y-75294202D01*
X85221801Y-75233864D01*
X85221789Y-75233861D01*
X85067145Y-75203100D01*
X85067142Y-75203100D01*
X84909458Y-75203100D01*
X84909455Y-75203100D01*
X84754810Y-75233861D01*
X84754798Y-75233864D01*
X84609127Y-75294202D01*
X84609114Y-75294209D01*
X84478011Y-75381810D01*
X84478007Y-75381813D01*
X84366513Y-75493307D01*
X84366510Y-75493311D01*
X84278909Y-75624414D01*
X84278902Y-75624427D01*
X84218564Y-75770098D01*
X84218561Y-75770110D01*
X84187800Y-75924753D01*
X73910799Y-75924753D01*
X73880178Y-75770813D01*
X73880037Y-75770103D01*
X73844045Y-75683209D01*
X73819697Y-75624427D01*
X73819690Y-75624414D01*
X73732089Y-75493311D01*
X73732086Y-75493307D01*
X73620592Y-75381813D01*
X73620588Y-75381810D01*
X73489485Y-75294209D01*
X73489472Y-75294202D01*
X73343801Y-75233864D01*
X73343789Y-75233861D01*
X73189145Y-75203100D01*
X73189142Y-75203100D01*
X73031458Y-75203100D01*
X73031455Y-75203100D01*
X72876810Y-75233861D01*
X72876798Y-75233864D01*
X72731127Y-75294202D01*
X72731114Y-75294209D01*
X72600011Y-75381810D01*
X72600007Y-75381813D01*
X72488513Y-75493307D01*
X72488510Y-75493311D01*
X72400909Y-75624414D01*
X72400902Y-75624427D01*
X72340564Y-75770098D01*
X72340561Y-75770110D01*
X72309800Y-75924753D01*
X71877348Y-75924753D01*
X71848989Y-75882311D01*
X71848986Y-75882307D01*
X71737492Y-75770813D01*
X71737488Y-75770810D01*
X71606385Y-75683209D01*
X71606372Y-75683202D01*
X71460701Y-75622864D01*
X71460689Y-75622861D01*
X71306045Y-75592100D01*
X71306042Y-75592100D01*
X71148358Y-75592100D01*
X71148355Y-75592100D01*
X70993710Y-75622861D01*
X70993698Y-75622864D01*
X70848027Y-75683202D01*
X70848014Y-75683209D01*
X70716911Y-75770810D01*
X70716907Y-75770813D01*
X70605413Y-75882307D01*
X70605410Y-75882311D01*
X70517809Y-76013414D01*
X70517802Y-76013427D01*
X70457464Y-76159098D01*
X70457461Y-76159110D01*
X70426700Y-76313753D01*
X70426700Y-76471446D01*
X70457461Y-76626089D01*
X70457464Y-76626101D01*
X70517802Y-76771772D01*
X70517809Y-76771785D01*
X70605410Y-76902888D01*
X70605413Y-76902892D01*
X70716907Y-77014386D01*
X70716911Y-77014389D01*
X70848014Y-77101990D01*
X70848027Y-77101997D01*
X70893441Y-77120808D01*
X70918982Y-77141390D01*
X70945256Y-77161059D01*
X70946057Y-77163208D01*
X70947845Y-77164649D01*
X70958207Y-77195783D01*
X70969673Y-77226523D01*
X70969185Y-77228765D01*
X70969910Y-77230943D01*
X70961794Y-77262738D01*
X70954821Y-77294796D01*
X70952987Y-77297245D01*
X70952631Y-77298642D01*
X70933670Y-77323050D01*
X70857432Y-77399288D01*
X70796109Y-77432773D01*
X70726417Y-77427789D01*
X70707753Y-77418995D01*
X70614505Y-77365160D01*
X70614505Y-77365159D01*
X70614500Y-77365158D01*
X70564385Y-77336223D01*
X70411657Y-77295299D01*
X70253543Y-77295299D01*
X70245947Y-77295299D01*
X70245931Y-77295300D01*
X58054466Y-77295300D01*
X57987427Y-77275615D01*
X57985575Y-77274402D01*
X57853885Y-77186409D01*
X57853872Y-77186402D01*
X57708201Y-77126064D01*
X57708189Y-77126061D01*
X57553545Y-77095300D01*
X57553542Y-77095300D01*
X57395858Y-77095300D01*
X57395855Y-77095300D01*
X57241210Y-77126061D01*
X57241198Y-77126064D01*
X57095527Y-77186402D01*
X57095514Y-77186409D01*
X56964411Y-77274010D01*
X56964407Y-77274013D01*
X56852913Y-77385507D01*
X56852910Y-77385511D01*
X56765309Y-77516614D01*
X56765302Y-77516627D01*
X56704964Y-77662298D01*
X56704961Y-77662310D01*
X56674200Y-77816953D01*
X52979494Y-77816953D01*
X52945589Y-77766211D01*
X52945586Y-77766207D01*
X52834092Y-77654713D01*
X52834088Y-77654710D01*
X52702985Y-77567109D01*
X52702972Y-77567102D01*
X52557301Y-77506764D01*
X52557289Y-77506761D01*
X52402645Y-77476000D01*
X52402642Y-77476000D01*
X52244958Y-77476000D01*
X52244955Y-77476000D01*
X52090310Y-77506761D01*
X52090298Y-77506764D01*
X51944627Y-77567102D01*
X51944614Y-77567109D01*
X51813511Y-77654710D01*
X51813507Y-77654713D01*
X51702013Y-77766207D01*
X51702010Y-77766211D01*
X51614409Y-77897314D01*
X51614402Y-77897327D01*
X51554064Y-78042998D01*
X51554061Y-78043010D01*
X51523300Y-78197653D01*
X45500500Y-78197653D01*
X45500500Y-70080153D01*
X81571500Y-70080153D01*
X81571500Y-70237846D01*
X81602261Y-70392489D01*
X81602264Y-70392501D01*
X81662602Y-70538172D01*
X81662609Y-70538185D01*
X81750210Y-70669288D01*
X81750213Y-70669292D01*
X81861707Y-70780786D01*
X81861711Y-70780789D01*
X81992814Y-70868390D01*
X81992827Y-70868397D01*
X82138498Y-70928735D01*
X82138503Y-70928737D01*
X82293153Y-70959499D01*
X82293156Y-70959500D01*
X82293158Y-70959500D01*
X82450844Y-70959500D01*
X82450845Y-70959499D01*
X82605497Y-70928737D01*
X82751179Y-70868394D01*
X82882289Y-70780789D01*
X82993789Y-70669289D01*
X83081394Y-70538179D01*
X83141737Y-70392497D01*
X83172500Y-70237842D01*
X83172500Y-70080158D01*
X83172500Y-70080155D01*
X83172499Y-70080153D01*
X83141738Y-69925510D01*
X83141737Y-69925503D01*
X83121001Y-69875441D01*
X83081397Y-69779827D01*
X83081390Y-69779814D01*
X82993789Y-69648711D01*
X82993786Y-69648707D01*
X82882292Y-69537213D01*
X82882288Y-69537210D01*
X82798565Y-69481268D01*
X82751185Y-69449609D01*
X82751172Y-69449602D01*
X82605501Y-69389264D01*
X82605489Y-69389261D01*
X82580312Y-69384253D01*
X91025800Y-69384253D01*
X91025800Y-69541946D01*
X91056561Y-69696589D01*
X91056564Y-69696601D01*
X91116902Y-69842272D01*
X91116909Y-69842285D01*
X91204510Y-69973388D01*
X91204513Y-69973392D01*
X91316007Y-70084886D01*
X91316011Y-70084889D01*
X91447114Y-70172490D01*
X91447127Y-70172497D01*
X91592798Y-70232835D01*
X91592803Y-70232837D01*
X91747453Y-70263599D01*
X91747456Y-70263600D01*
X91747458Y-70263600D01*
X91905144Y-70263600D01*
X91905145Y-70263599D01*
X92059797Y-70232837D01*
X92205479Y-70172494D01*
X92336589Y-70084889D01*
X92448089Y-69973389D01*
X92535694Y-69842279D01*
X92596037Y-69696597D01*
X92626800Y-69541942D01*
X92626800Y-69384258D01*
X92626800Y-69384255D01*
X92626799Y-69384253D01*
X92596038Y-69229610D01*
X92596037Y-69229603D01*
X92591375Y-69218348D01*
X92535697Y-69083927D01*
X92535690Y-69083914D01*
X92448089Y-68952811D01*
X92448086Y-68952807D01*
X92336592Y-68841313D01*
X92336588Y-68841310D01*
X92205485Y-68753709D01*
X92205472Y-68753702D01*
X92059801Y-68693364D01*
X92059789Y-68693361D01*
X91905145Y-68662600D01*
X91905142Y-68662600D01*
X91747458Y-68662600D01*
X91747455Y-68662600D01*
X91592810Y-68693361D01*
X91592798Y-68693364D01*
X91447127Y-68753702D01*
X91447114Y-68753709D01*
X91316011Y-68841310D01*
X91316007Y-68841313D01*
X91204513Y-68952807D01*
X91204510Y-68952811D01*
X91116909Y-69083914D01*
X91116902Y-69083927D01*
X91056564Y-69229598D01*
X91056561Y-69229610D01*
X91025800Y-69384253D01*
X82580312Y-69384253D01*
X82450845Y-69358500D01*
X82450842Y-69358500D01*
X82293158Y-69358500D01*
X82293155Y-69358500D01*
X82138510Y-69389261D01*
X82138498Y-69389264D01*
X81992827Y-69449602D01*
X81992814Y-69449609D01*
X81861711Y-69537210D01*
X81861707Y-69537213D01*
X81750213Y-69648707D01*
X81750210Y-69648711D01*
X81662609Y-69779814D01*
X81662602Y-69779827D01*
X81602264Y-69925498D01*
X81602261Y-69925510D01*
X81571500Y-70080153D01*
X45500500Y-70080153D01*
X45500500Y-67157853D01*
X78248800Y-67157853D01*
X78248800Y-67315546D01*
X78279561Y-67470189D01*
X78279564Y-67470201D01*
X78339902Y-67615872D01*
X78339909Y-67615885D01*
X78427510Y-67746988D01*
X78427513Y-67746992D01*
X78539007Y-67858486D01*
X78539011Y-67858489D01*
X78670114Y-67946090D01*
X78670127Y-67946097D01*
X78770070Y-67987494D01*
X78815803Y-68006437D01*
X78970453Y-68037199D01*
X78970456Y-68037200D01*
X78970458Y-68037200D01*
X79128144Y-68037200D01*
X79128145Y-68037199D01*
X79282797Y-68006437D01*
X79428479Y-67946094D01*
X79559589Y-67858489D01*
X79671089Y-67746989D01*
X79758694Y-67615879D01*
X79819037Y-67470197D01*
X79849800Y-67315542D01*
X79849800Y-67157858D01*
X79849800Y-67157855D01*
X79849799Y-67157853D01*
X79819038Y-67003210D01*
X79819037Y-67003203D01*
X79819035Y-67003198D01*
X79758697Y-66857527D01*
X79758690Y-66857514D01*
X79671089Y-66726411D01*
X79671086Y-66726407D01*
X79559592Y-66614913D01*
X79559588Y-66614910D01*
X79428485Y-66527309D01*
X79428472Y-66527302D01*
X79282801Y-66466964D01*
X79282789Y-66466961D01*
X79128145Y-66436200D01*
X79128142Y-66436200D01*
X78970458Y-66436200D01*
X78970455Y-66436200D01*
X78815810Y-66466961D01*
X78815798Y-66466964D01*
X78670127Y-66527302D01*
X78670114Y-66527309D01*
X78539011Y-66614910D01*
X78539007Y-66614913D01*
X78427513Y-66726407D01*
X78427510Y-66726411D01*
X78339909Y-66857514D01*
X78339902Y-66857527D01*
X78279564Y-67003198D01*
X78279561Y-67003210D01*
X78248800Y-67157853D01*
X45500500Y-67157853D01*
X45500500Y-66035853D01*
X90126800Y-66035853D01*
X90126800Y-66193546D01*
X90157561Y-66348189D01*
X90157564Y-66348201D01*
X90217902Y-66493872D01*
X90217909Y-66493885D01*
X90305510Y-66624988D01*
X90305513Y-66624992D01*
X90417007Y-66736486D01*
X90417011Y-66736489D01*
X90548114Y-66824090D01*
X90548127Y-66824097D01*
X90693798Y-66884435D01*
X90693803Y-66884437D01*
X90848453Y-66915199D01*
X90848456Y-66915200D01*
X90848458Y-66915200D01*
X91006144Y-66915200D01*
X91006145Y-66915199D01*
X91160797Y-66884437D01*
X91306479Y-66824094D01*
X91360963Y-66787689D01*
X91438175Y-66736098D01*
X91504853Y-66715220D01*
X91507066Y-66715200D01*
X93971125Y-66715200D01*
X94038164Y-66734885D01*
X94083919Y-66787689D01*
X94093863Y-66856847D01*
X94081940Y-66893210D01*
X94082137Y-66893292D01*
X94081063Y-66895884D01*
X94080484Y-66897651D01*
X94079806Y-66898919D01*
X94019464Y-67044598D01*
X94019461Y-67044610D01*
X93988700Y-67199253D01*
X93988700Y-67356946D01*
X94019461Y-67511589D01*
X94019464Y-67511601D01*
X94079802Y-67657272D01*
X94079809Y-67657285D01*
X94167410Y-67788388D01*
X94167413Y-67788392D01*
X94278907Y-67899886D01*
X94278911Y-67899889D01*
X94410014Y-67987490D01*
X94410027Y-67987497D01*
X94530356Y-68037338D01*
X94555703Y-68047837D01*
X94665731Y-68069723D01*
X94710353Y-68078599D01*
X94710356Y-68078600D01*
X94710358Y-68078600D01*
X94868044Y-68078600D01*
X94868045Y-68078599D01*
X95022697Y-68047837D01*
X95168379Y-67987494D01*
X95230334Y-67946097D01*
X95300075Y-67899498D01*
X95366753Y-67878620D01*
X95368966Y-67878600D01*
X120574431Y-67878600D01*
X120574447Y-67878601D01*
X120582043Y-67878601D01*
X120740154Y-67878601D01*
X120740157Y-67878601D01*
X120892885Y-67837677D01*
X120964240Y-67796480D01*
X121029816Y-67758620D01*
X121141620Y-67646816D01*
X121141620Y-67646814D01*
X121151824Y-67636611D01*
X121151827Y-67636606D01*
X121630581Y-67157853D01*
X122791300Y-67157853D01*
X122791300Y-67315546D01*
X122822061Y-67470189D01*
X122822064Y-67470201D01*
X122882402Y-67615872D01*
X122882409Y-67615885D01*
X122970010Y-67746988D01*
X122970013Y-67746992D01*
X123081507Y-67858486D01*
X123081511Y-67858489D01*
X123212614Y-67946090D01*
X123212627Y-67946097D01*
X123312570Y-67987494D01*
X123358303Y-68006437D01*
X123422947Y-68019295D01*
X123513649Y-68037338D01*
X123575560Y-68069723D01*
X123577139Y-68071274D01*
X124147239Y-68641374D01*
X124147249Y-68641385D01*
X124151579Y-68645715D01*
X124151580Y-68645716D01*
X124263384Y-68757520D01*
X124263386Y-68757521D01*
X124263390Y-68757524D01*
X124400309Y-68836573D01*
X124400316Y-68836577D01*
X124512119Y-68866534D01*
X124553042Y-68877500D01*
X124553043Y-68877500D01*
X182975500Y-68877500D01*
X183042539Y-68897185D01*
X183088294Y-68949989D01*
X183099500Y-69001500D01*
X183099500Y-71200015D01*
X183110000Y-71302795D01*
X183110001Y-71302796D01*
X183165186Y-71469335D01*
X183165187Y-71469337D01*
X183257286Y-71618651D01*
X183257289Y-71618655D01*
X183381344Y-71742710D01*
X183381348Y-71742713D01*
X183530662Y-71834812D01*
X183530664Y-71834813D01*
X183530666Y-71834814D01*
X183697203Y-71889999D01*
X183799992Y-71900500D01*
X183799997Y-71900500D01*
X186200003Y-71900500D01*
X186200008Y-71900500D01*
X186302797Y-71889999D01*
X186469334Y-71834814D01*
X186618655Y-71742711D01*
X186742711Y-71618655D01*
X186834814Y-71469334D01*
X186889999Y-71302797D01*
X186900500Y-71200008D01*
X186900500Y-69001500D01*
X186920185Y-68934461D01*
X186972989Y-68888706D01*
X187024500Y-68877500D01*
X187976903Y-68877500D01*
X188006343Y-68886144D01*
X188036330Y-68892668D01*
X188041345Y-68896422D01*
X188043942Y-68897185D01*
X188064584Y-68913819D01*
X188238098Y-69087333D01*
X188271583Y-69148656D01*
X188266599Y-69218348D01*
X188264978Y-69222466D01*
X188196498Y-69387792D01*
X188132017Y-69628438D01*
X188099501Y-69875424D01*
X188099500Y-69875441D01*
X188099500Y-70124558D01*
X188099501Y-70124575D01*
X188132017Y-70371561D01*
X188196498Y-70612207D01*
X188291830Y-70842361D01*
X188291837Y-70842376D01*
X188416400Y-71058126D01*
X188568060Y-71255774D01*
X188568066Y-71255781D01*
X188744218Y-71431933D01*
X188744225Y-71431939D01*
X188941873Y-71583599D01*
X189157623Y-71708162D01*
X189157638Y-71708169D01*
X189256825Y-71749253D01*
X189387793Y-71803502D01*
X189628435Y-71867982D01*
X189875435Y-71900500D01*
X189875442Y-71900500D01*
X190124558Y-71900500D01*
X190124565Y-71900500D01*
X190371565Y-71867982D01*
X190612207Y-71803502D01*
X190842373Y-71708164D01*
X191058127Y-71583599D01*
X191255776Y-71431938D01*
X191431938Y-71255776D01*
X191583599Y-71058127D01*
X191708164Y-70842373D01*
X191803502Y-70612207D01*
X191867982Y-70371565D01*
X191900500Y-70124565D01*
X191900500Y-69875435D01*
X191867982Y-69628435D01*
X191803502Y-69387793D01*
X191737980Y-69229610D01*
X191708169Y-69157638D01*
X191708162Y-69157623D01*
X191583599Y-68941873D01*
X191431939Y-68744225D01*
X191431933Y-68744218D01*
X191255781Y-68568066D01*
X191255774Y-68568060D01*
X191058126Y-68416400D01*
X190842376Y-68291837D01*
X190842361Y-68291830D01*
X190612207Y-68196498D01*
X190371561Y-68132017D01*
X190124575Y-68099501D01*
X190124570Y-68099500D01*
X190124565Y-68099500D01*
X189875435Y-68099500D01*
X189875429Y-68099500D01*
X189875424Y-68099501D01*
X189628438Y-68132017D01*
X189387792Y-68196498D01*
X189222466Y-68264978D01*
X189152997Y-68272447D01*
X189090518Y-68241171D01*
X189087333Y-68238098D01*
X188764590Y-67915355D01*
X188764588Y-67915352D01*
X188645716Y-67796480D01*
X188645714Y-67796479D01*
X188631701Y-67788389D01*
X188558904Y-67746360D01*
X188558904Y-67746359D01*
X188558900Y-67746358D01*
X188508785Y-67717423D01*
X188356057Y-67676499D01*
X188197943Y-67676499D01*
X188190347Y-67676499D01*
X188190331Y-67676500D01*
X142278663Y-67676500D01*
X142211624Y-67656815D01*
X142165869Y-67604011D01*
X142155925Y-67534853D01*
X142164101Y-67505049D01*
X142164697Y-67503608D01*
X142178537Y-67470197D01*
X142209300Y-67315542D01*
X142209300Y-67157858D01*
X142209300Y-67157855D01*
X142209299Y-67157853D01*
X142178538Y-67003210D01*
X142178537Y-67003203D01*
X142178535Y-67003198D01*
X142118197Y-66857527D01*
X142118190Y-66857514D01*
X142030589Y-66726411D01*
X142030586Y-66726407D01*
X141919092Y-66614913D01*
X141919088Y-66614910D01*
X141787985Y-66527309D01*
X141787972Y-66527302D01*
X141642301Y-66466964D01*
X141642289Y-66466961D01*
X141487645Y-66436200D01*
X141487642Y-66436200D01*
X141329958Y-66436200D01*
X141329955Y-66436200D01*
X141175310Y-66466961D01*
X141175298Y-66466964D01*
X141029627Y-66527302D01*
X141029614Y-66527309D01*
X140898511Y-66614910D01*
X140898507Y-66614913D01*
X140787013Y-66726407D01*
X140787010Y-66726411D01*
X140699409Y-66857514D01*
X140699402Y-66857527D01*
X140639064Y-67003198D01*
X140639061Y-67003210D01*
X140608300Y-67157853D01*
X140608300Y-67315546D01*
X140639061Y-67470189D01*
X140639063Y-67470196D01*
X140653499Y-67505049D01*
X140660967Y-67574518D01*
X140629691Y-67636997D01*
X140569602Y-67672649D01*
X140538937Y-67676500D01*
X124932197Y-67676500D01*
X124865158Y-67656815D01*
X124844516Y-67640181D01*
X124426374Y-67222039D01*
X124392889Y-67160716D01*
X124392438Y-67158549D01*
X124361538Y-67003210D01*
X124361537Y-67003203D01*
X124361535Y-67003198D01*
X124301197Y-66857527D01*
X124301190Y-66857514D01*
X124213589Y-66726411D01*
X124213586Y-66726407D01*
X124102092Y-66614913D01*
X124102088Y-66614910D01*
X123970985Y-66527309D01*
X123970972Y-66527302D01*
X123825301Y-66466964D01*
X123825289Y-66466961D01*
X123670645Y-66436200D01*
X123670642Y-66436200D01*
X123512958Y-66436200D01*
X123512955Y-66436200D01*
X123358310Y-66466961D01*
X123358298Y-66466964D01*
X123212627Y-66527302D01*
X123212614Y-66527309D01*
X123081511Y-66614910D01*
X123081507Y-66614913D01*
X122970013Y-66726407D01*
X122970010Y-66726411D01*
X122882409Y-66857514D01*
X122882402Y-66857527D01*
X122822064Y-67003198D01*
X122822061Y-67003210D01*
X122791300Y-67157853D01*
X121630581Y-67157853D01*
X122579564Y-66208871D01*
X122640885Y-66175388D01*
X122643052Y-66174937D01*
X122643741Y-66174800D01*
X122643742Y-66174800D01*
X122798397Y-66144037D01*
X122944079Y-66083694D01*
X123075189Y-65996089D01*
X123186689Y-65884589D01*
X123274294Y-65753479D01*
X123334637Y-65607797D01*
X123365400Y-65453142D01*
X123365400Y-65424500D01*
X123385085Y-65357461D01*
X123429872Y-65318653D01*
X126509200Y-65318653D01*
X126509200Y-65476346D01*
X126539961Y-65630989D01*
X126539964Y-65631001D01*
X126600302Y-65776672D01*
X126600309Y-65776685D01*
X126687910Y-65907788D01*
X126687913Y-65907792D01*
X126799407Y-66019286D01*
X126799411Y-66019289D01*
X126930514Y-66106890D01*
X126930527Y-66106897D01*
X127020195Y-66144038D01*
X127076203Y-66167237D01*
X127230853Y-66197999D01*
X127230856Y-66198000D01*
X127230858Y-66198000D01*
X127388544Y-66198000D01*
X127388545Y-66197999D01*
X127543197Y-66167237D01*
X127688879Y-66106894D01*
X127819989Y-66019289D01*
X127931489Y-65907789D01*
X128019094Y-65776679D01*
X128079437Y-65630997D01*
X128110200Y-65476342D01*
X128110200Y-65318658D01*
X128110200Y-65318655D01*
X128110199Y-65318653D01*
X128100469Y-65269737D01*
X128079437Y-65164003D01*
X128059098Y-65114899D01*
X128019097Y-65018327D01*
X128019090Y-65018314D01*
X127931489Y-64887211D01*
X127931486Y-64887207D01*
X127819992Y-64775713D01*
X127819988Y-64775710D01*
X127688885Y-64688109D01*
X127688872Y-64688102D01*
X127543201Y-64627764D01*
X127543189Y-64627761D01*
X127388545Y-64597000D01*
X127388542Y-64597000D01*
X127230858Y-64597000D01*
X127230855Y-64597000D01*
X127076210Y-64627761D01*
X127076198Y-64627764D01*
X126930527Y-64688102D01*
X126930514Y-64688109D01*
X126799411Y-64775710D01*
X126799407Y-64775713D01*
X126687913Y-64887207D01*
X126687910Y-64887211D01*
X126600309Y-65018314D01*
X126600302Y-65018327D01*
X126539964Y-65163998D01*
X126539961Y-65164010D01*
X126509200Y-65318653D01*
X123429872Y-65318653D01*
X123437889Y-65311706D01*
X123489400Y-65300500D01*
X123519344Y-65300500D01*
X123519345Y-65300499D01*
X123673997Y-65269737D01*
X123819679Y-65209394D01*
X123819681Y-65209392D01*
X123819684Y-65209391D01*
X123887619Y-65163998D01*
X123950789Y-65121789D01*
X124062289Y-65010289D01*
X124149894Y-64879179D01*
X124210237Y-64733497D01*
X124241000Y-64578842D01*
X124241000Y-64421158D01*
X124241000Y-64421155D01*
X124240999Y-64421153D01*
X124235448Y-64393246D01*
X124210237Y-64266503D01*
X124197417Y-64235553D01*
X124149897Y-64120827D01*
X124149890Y-64120814D01*
X124062289Y-63989711D01*
X124062286Y-63989707D01*
X123950792Y-63878213D01*
X123950788Y-63878210D01*
X123819685Y-63790609D01*
X123819672Y-63790602D01*
X123674001Y-63730264D01*
X123673989Y-63730261D01*
X123519345Y-63699500D01*
X123519342Y-63699500D01*
X123361658Y-63699500D01*
X123361655Y-63699500D01*
X123207010Y-63730261D01*
X123206998Y-63730264D01*
X123061327Y-63790602D01*
X123061314Y-63790609D01*
X122929625Y-63878602D01*
X122862947Y-63899480D01*
X122860734Y-63899500D01*
X114740670Y-63899500D01*
X114740654Y-63899499D01*
X114733058Y-63899499D01*
X114574943Y-63899499D01*
X114498579Y-63919961D01*
X114422214Y-63940423D01*
X114422209Y-63940426D01*
X114285290Y-64019475D01*
X114285282Y-64019481D01*
X112826884Y-65477881D01*
X112765561Y-65511366D01*
X112739203Y-65514200D01*
X91507066Y-65514200D01*
X91440027Y-65494515D01*
X91438175Y-65493302D01*
X91306485Y-65405309D01*
X91306472Y-65405302D01*
X91160801Y-65344964D01*
X91160789Y-65344961D01*
X91006145Y-65314200D01*
X91006142Y-65314200D01*
X90848458Y-65314200D01*
X90848455Y-65314200D01*
X90693810Y-65344961D01*
X90693798Y-65344964D01*
X90548127Y-65405302D01*
X90548114Y-65405309D01*
X90417011Y-65492910D01*
X90417007Y-65492913D01*
X90305513Y-65604407D01*
X90305510Y-65604411D01*
X90217909Y-65735514D01*
X90217902Y-65735527D01*
X90157564Y-65881198D01*
X90157561Y-65881210D01*
X90126800Y-66035853D01*
X45500500Y-66035853D01*
X45500500Y-64235553D01*
X101734300Y-64235553D01*
X101734300Y-64393246D01*
X101765061Y-64547889D01*
X101765064Y-64547901D01*
X101825402Y-64693572D01*
X101825409Y-64693585D01*
X101913010Y-64824688D01*
X101913013Y-64824692D01*
X102024507Y-64936186D01*
X102024511Y-64936189D01*
X102155614Y-65023790D01*
X102155627Y-65023797D01*
X102301298Y-65084135D01*
X102301303Y-65084137D01*
X102455953Y-65114899D01*
X102455956Y-65114900D01*
X102455958Y-65114900D01*
X102613644Y-65114900D01*
X102613645Y-65114899D01*
X102768297Y-65084137D01*
X102913979Y-65023794D01*
X103045089Y-64936189D01*
X103156589Y-64824689D01*
X103244194Y-64693579D01*
X103304537Y-64547897D01*
X103335300Y-64393242D01*
X103335300Y-64235558D01*
X103335300Y-64235555D01*
X103335299Y-64235553D01*
X103304537Y-64080903D01*
X103297077Y-64062892D01*
X103244197Y-63935227D01*
X103244190Y-63935214D01*
X103156589Y-63804111D01*
X103156586Y-63804107D01*
X103045092Y-63692613D01*
X103045088Y-63692610D01*
X102913985Y-63605009D01*
X102913972Y-63605002D01*
X102858986Y-63582227D01*
X102768301Y-63544664D01*
X102768289Y-63544661D01*
X102613645Y-63513900D01*
X102613642Y-63513900D01*
X102455958Y-63513900D01*
X102455955Y-63513900D01*
X102301310Y-63544661D01*
X102301298Y-63544664D01*
X102155627Y-63605002D01*
X102155614Y-63605009D01*
X102024511Y-63692610D01*
X102024507Y-63692613D01*
X101913013Y-63804107D01*
X101913010Y-63804111D01*
X101825409Y-63935214D01*
X101825402Y-63935227D01*
X101765064Y-64080898D01*
X101765061Y-64080910D01*
X101734300Y-64235553D01*
X45500500Y-64235553D01*
X45500500Y-63473753D01*
X125607300Y-63473753D01*
X125607300Y-63631446D01*
X125638061Y-63786089D01*
X125638064Y-63786101D01*
X125698402Y-63931772D01*
X125698409Y-63931785D01*
X125786010Y-64062888D01*
X125786013Y-64062892D01*
X125897507Y-64174386D01*
X125897511Y-64174389D01*
X126028614Y-64261990D01*
X126028627Y-64261997D01*
X126174298Y-64322335D01*
X126174303Y-64322337D01*
X126328953Y-64353099D01*
X126328956Y-64353100D01*
X126328958Y-64353100D01*
X126486644Y-64353100D01*
X126486645Y-64353099D01*
X126641297Y-64322337D01*
X126786979Y-64261994D01*
X126918089Y-64174389D01*
X127029589Y-64062889D01*
X127117194Y-63931779D01*
X127177537Y-63786097D01*
X127208300Y-63631442D01*
X127208300Y-63473758D01*
X127208300Y-63473755D01*
X127208299Y-63473753D01*
X127177538Y-63319110D01*
X127177537Y-63319103D01*
X127177535Y-63319098D01*
X127117197Y-63173427D01*
X127117190Y-63173414D01*
X127029589Y-63042311D01*
X127029586Y-63042307D01*
X126918092Y-62930813D01*
X126918088Y-62930810D01*
X126786985Y-62843209D01*
X126786972Y-62843202D01*
X126641301Y-62782864D01*
X126641289Y-62782861D01*
X126486645Y-62752100D01*
X126486642Y-62752100D01*
X126328958Y-62752100D01*
X126328955Y-62752100D01*
X126174310Y-62782861D01*
X126174298Y-62782864D01*
X126028627Y-62843202D01*
X126028614Y-62843209D01*
X125897511Y-62930810D01*
X125897507Y-62930813D01*
X125786013Y-63042307D01*
X125786010Y-63042311D01*
X125698409Y-63173414D01*
X125698402Y-63173427D01*
X125638064Y-63319098D01*
X125638061Y-63319110D01*
X125607300Y-63473753D01*
X45500500Y-63473753D01*
X45500500Y-61313253D01*
X99035300Y-61313253D01*
X99035300Y-61470946D01*
X99066061Y-61625589D01*
X99066064Y-61625601D01*
X99126402Y-61771272D01*
X99126409Y-61771285D01*
X99214010Y-61902388D01*
X99214013Y-61902392D01*
X99325507Y-62013886D01*
X99325511Y-62013889D01*
X99456614Y-62101490D01*
X99456627Y-62101497D01*
X99602298Y-62161835D01*
X99602303Y-62161837D01*
X99756953Y-62192599D01*
X99756956Y-62192600D01*
X99756958Y-62192600D01*
X99914644Y-62192600D01*
X99914645Y-62192599D01*
X100069297Y-62161837D01*
X100214979Y-62101494D01*
X100346089Y-62013889D01*
X100457589Y-61902389D01*
X100545194Y-61771279D01*
X100605537Y-61625597D01*
X100636300Y-61470942D01*
X100636300Y-61313258D01*
X100636300Y-61313255D01*
X100636299Y-61313253D01*
X100605538Y-61158610D01*
X100605537Y-61158603D01*
X100605535Y-61158598D01*
X100545197Y-61012927D01*
X100545190Y-61012914D01*
X100457589Y-60881811D01*
X100457586Y-60881807D01*
X100346092Y-60770313D01*
X100346088Y-60770310D01*
X100214985Y-60682709D01*
X100214972Y-60682702D01*
X100069301Y-60622364D01*
X100069289Y-60622361D01*
X99914645Y-60591600D01*
X99914642Y-60591600D01*
X99756958Y-60591600D01*
X99756955Y-60591600D01*
X99602310Y-60622361D01*
X99602298Y-60622364D01*
X99456627Y-60682702D01*
X99456614Y-60682709D01*
X99325511Y-60770310D01*
X99325507Y-60770313D01*
X99214013Y-60881807D01*
X99214010Y-60881811D01*
X99126409Y-61012914D01*
X99126402Y-61012927D01*
X99066064Y-61158598D01*
X99066061Y-61158610D01*
X99035300Y-61313253D01*
X45500500Y-61313253D01*
X45500500Y-43124500D01*
X45520185Y-43057461D01*
X45572989Y-43011706D01*
X45624500Y-43000500D01*
X219375500Y-43000500D01*
X219442539Y-43020185D01*
G37*
%TD.AperFunction*%
%TD*%
M02*
