%TF.GenerationSoftware,KiCad,Pcbnew,9.0.6*%
%TF.CreationDate,2026-04-14T00:22:13+02:00*%
%TF.ProjectId,USB Type C PD & Tester,55534220-5479-4706-9520-432050442026,rev?*%
%TF.SameCoordinates,Original*%
%TF.FileFunction,Copper,L1,Top*%
%TF.FilePolarity,Positive*%
%FSLAX46Y46*%
G04 Gerber Fmt 4.6, Leading zero omitted, Abs format (unit mm)*
G04 Created by KiCad (PCBNEW 9.0.6) date 2026-04-14 00:22:13*
%MOMM*%
%LPD*%
G01*
G04 APERTURE LIST*
G04 Aperture macros list*
%AMRoundRect*
0 Rectangle with rounded corners*
0 $1 Rounding radius*
0 $2 $3 $4 $5 $6 $7 $8 $9 X,Y pos of 4 corners*
0 Add a 4 corners polygon primitive as box body*
4,1,4,$2,$3,$4,$5,$6,$7,$8,$9,$2,$3,0*
0 Add four circle primitives for the rounded corners*
1,1,$1+$1,$2,$3*
1,1,$1+$1,$4,$5*
1,1,$1+$1,$6,$7*
1,1,$1+$1,$8,$9*
0 Add four rect primitives between the rounded corners*
20,1,$1+$1,$2,$3,$4,$5,0*
20,1,$1+$1,$4,$5,$6,$7,0*
20,1,$1+$1,$6,$7,$8,$9,0*
20,1,$1+$1,$8,$9,$2,$3,0*%
G04 Aperture macros list end*
%TA.AperFunction,SMDPad,CuDef*%
%ADD10RoundRect,0.075000X-0.662500X-0.075000X0.662500X-0.075000X0.662500X0.075000X-0.662500X0.075000X0*%
%TD*%
%TA.AperFunction,SMDPad,CuDef*%
%ADD11RoundRect,0.075000X-0.075000X-0.662500X0.075000X-0.662500X0.075000X0.662500X-0.075000X0.662500X0*%
%TD*%
%TA.AperFunction,SMDPad,CuDef*%
%ADD12RoundRect,0.250000X-0.250000X-0.475000X0.250000X-0.475000X0.250000X0.475000X-0.250000X0.475000X0*%
%TD*%
%TA.AperFunction,SMDPad,CuDef*%
%ADD13RoundRect,0.140000X-0.140000X-0.170000X0.140000X-0.170000X0.140000X0.170000X-0.140000X0.170000X0*%
%TD*%
%TA.AperFunction,SMDPad,CuDef*%
%ADD14RoundRect,0.135000X-0.135000X-0.185000X0.135000X-0.185000X0.135000X0.185000X-0.135000X0.185000X0*%
%TD*%
%TA.AperFunction,SMDPad,CuDef*%
%ADD15R,2.000000X2.000000*%
%TD*%
%TA.AperFunction,SMDPad,CuDef*%
%ADD16RoundRect,0.100000X-0.225000X-0.100000X0.225000X-0.100000X0.225000X0.100000X-0.225000X0.100000X0*%
%TD*%
%TA.AperFunction,SMDPad,CuDef*%
%ADD17RoundRect,0.250000X-1.150000X-0.250000X1.150000X-0.250000X1.150000X0.250000X-1.150000X0.250000X0*%
%TD*%
%TA.AperFunction,SMDPad,CuDef*%
%ADD18R,0.600000X1.450000*%
%TD*%
%TA.AperFunction,SMDPad,CuDef*%
%ADD19R,0.300000X1.450000*%
%TD*%
%TA.AperFunction,HeatsinkPad*%
%ADD20O,1.000000X2.100000*%
%TD*%
%TA.AperFunction,HeatsinkPad*%
%ADD21O,1.000000X1.600000*%
%TD*%
%TA.AperFunction,SMDPad,CuDef*%
%ADD22RoundRect,0.147500X-0.147500X-0.172500X0.147500X-0.172500X0.147500X0.172500X-0.147500X0.172500X0*%
%TD*%
%TA.AperFunction,SMDPad,CuDef*%
%ADD23RoundRect,0.075000X-0.650000X-0.075000X0.650000X-0.075000X0.650000X0.075000X-0.650000X0.075000X0*%
%TD*%
%TA.AperFunction,SMDPad,CuDef*%
%ADD24RoundRect,0.250000X-0.362500X-1.425000X0.362500X-1.425000X0.362500X1.425000X-0.362500X1.425000X0*%
%TD*%
%TA.AperFunction,SMDPad,CuDef*%
%ADD25R,1.500000X1.100000*%
%TD*%
%TA.AperFunction,SMDPad,CuDef*%
%ADD26R,0.400000X1.350000*%
%TD*%
%TA.AperFunction,HeatsinkPad*%
%ADD27O,1.200000X1.900000*%
%TD*%
%TA.AperFunction,SMDPad,CuDef*%
%ADD28R,1.200000X1.900000*%
%TD*%
%TA.AperFunction,HeatsinkPad*%
%ADD29C,1.450000*%
%TD*%
%TA.AperFunction,SMDPad,CuDef*%
%ADD30R,1.500000X1.900000*%
%TD*%
%TA.AperFunction,ComponentPad*%
%ADD31RoundRect,0.250001X-1.149999X-1.149999X1.149999X-1.149999X1.149999X1.149999X-1.149999X1.149999X0*%
%TD*%
%TA.AperFunction,ComponentPad*%
%ADD32C,2.800000*%
%TD*%
%TA.AperFunction,SMDPad,CuDef*%
%ADD33RoundRect,0.100000X-0.712500X-0.100000X0.712500X-0.100000X0.712500X0.100000X-0.712500X0.100000X0*%
%TD*%
%TA.AperFunction,SMDPad,CuDef*%
%ADD34RoundRect,0.250000X-1.000000X-0.650000X1.000000X-0.650000X1.000000X0.650000X-1.000000X0.650000X0*%
%TD*%
%TA.AperFunction,SMDPad,CuDef*%
%ADD35RoundRect,0.225000X-0.225000X-0.375000X0.225000X-0.375000X0.225000X0.375000X-0.225000X0.375000X0*%
%TD*%
%TA.AperFunction,SMDPad,CuDef*%
%ADD36RoundRect,0.062500X-0.275000X-0.062500X0.275000X-0.062500X0.275000X0.062500X-0.275000X0.062500X0*%
%TD*%
%TA.AperFunction,SMDPad,CuDef*%
%ADD37RoundRect,0.062500X-0.062500X-0.275000X0.062500X-0.275000X0.062500X0.275000X-0.062500X0.275000X0*%
%TD*%
%TA.AperFunction,HeatsinkPad*%
%ADD38R,1.450000X1.450000*%
%TD*%
%TA.AperFunction,SMDPad,CuDef*%
%ADD39RoundRect,0.150000X-0.512500X-0.150000X0.512500X-0.150000X0.512500X0.150000X-0.512500X0.150000X0*%
%TD*%
%TA.AperFunction,ViaPad*%
%ADD40C,0.600000*%
%TD*%
%TA.AperFunction,Conductor*%
%ADD41C,0.200000*%
%TD*%
G04 APERTURE END LIST*
D10*
%TO.P,U2,1,VBAT*%
%TO.N,+3V3*%
X85587500Y-88087500D03*
%TO.P,U2,2,PC13*%
%TO.N,/CC2_TX_EN*%
X85587500Y-88587500D03*
%TO.P,U2,3,PC14*%
%TO.N,/CC1_RP3A0*%
X85587500Y-89087500D03*
%TO.P,U2,4,PC15*%
%TO.N,unconnected-(U2-PC15-Pad4)*%
X85587500Y-89587500D03*
%TO.P,U2,5,PF0*%
%TO.N,/OSC_IN*%
X85587500Y-90087500D03*
%TO.P,U2,6,PF1*%
%TO.N,unconnected-(U2-PF1-Pad6)*%
X85587500Y-90587500D03*
%TO.P,U2,7,NRST*%
%TO.N,/NRST*%
X85587500Y-91087500D03*
%TO.P,U2,8,VSSA*%
%TO.N,GND*%
X85587500Y-91587500D03*
%TO.P,U2,9,VDDA*%
%TO.N,Net-(U2-VDDA)*%
X85587500Y-92087500D03*
%TO.P,U2,10,PA0*%
%TO.N,/CC1_EN*%
X85587500Y-92587500D03*
%TO.P,U2,11,PA1*%
%TO.N,/CC1_BUF*%
X85587500Y-93087500D03*
%TO.P,U2,12,PA2*%
%TO.N,/CC2_EN*%
X85587500Y-93587500D03*
D11*
%TO.P,U2,13,PA3*%
%TO.N,/CC2_BUF*%
X87000000Y-95000000D03*
%TO.P,U2,14,PA4*%
%TO.N,DAC*%
X87500000Y-95000000D03*
%TO.P,U2,15,PA5*%
%TO.N,/TX_CLK*%
X88000000Y-95000000D03*
%TO.P,U2,16,PA6*%
%TO.N,/CC2_TX_DATA*%
X88500000Y-95000000D03*
%TO.P,U2,17,PA7*%
%TO.N,unconnected-(U2-PA7-Pad17)*%
X89000000Y-95000000D03*
%TO.P,U2,18,PB0*%
%TO.N,GND*%
X89500000Y-95000000D03*
%TO.P,U2,19,PB1*%
%TO.N,unconnected-(U2-PB1-Pad19)*%
X90000000Y-95000000D03*
%TO.P,U2,20,PB2*%
%TO.N,/VBUS_ALERT_L*%
X90500000Y-95000000D03*
%TO.P,U2,21,PB10*%
%TO.N,unconnected-(U2-PB10-Pad21)*%
X91000000Y-95000000D03*
%TO.P,U2,22,PB11*%
%TO.N,/400*%
X91500000Y-95000000D03*
%TO.P,U2,23,VSS*%
%TO.N,GND*%
X92000000Y-95000000D03*
%TO.P,U2,24,VDD*%
%TO.N,+3V3*%
X92500000Y-95000000D03*
D10*
%TO.P,U2,25,PB12*%
%TO.N,/CC2_RPUSB*%
X93912500Y-93587500D03*
%TO.P,U2,26,PB13*%
%TO.N,/CC2_RD*%
X93912500Y-93087500D03*
%TO.P,U2,27,PB14*%
%TO.N,LED_B_L*%
X93912500Y-92587500D03*
%TO.P,U2,28,PB15*%
%TO.N,/CC2_RP1A5*%
X93912500Y-92087500D03*
%TO.P,U2,29,PA8*%
%TO.N,/CC2_RA*%
X93912500Y-91587500D03*
%TO.P,U2,30,PA9*%
%TO.N,/UART_TX*%
X93912500Y-91087500D03*
%TO.P,U2,31,PA10*%
%TO.N,/UART_RX*%
X93912500Y-90587500D03*
%TO.P,U2,32,PA11*%
%TO.N,USB_B_D-*%
X93912500Y-90087500D03*
%TO.P,U2,33,PA12*%
%TO.N,USB_B_D+*%
X93912500Y-89587500D03*
%TO.P,U2,34,PA13*%
%TO.N,/CC2_RP3A0*%
X93912500Y-89087500D03*
%TO.P,U2,35,VSS*%
%TO.N,GND*%
X93912500Y-88587500D03*
%TO.P,U2,36,VDDIO2*%
%TO.N,+3V3*%
X93912500Y-88087500D03*
D11*
%TO.P,U2,37,PA14*%
%TO.N,/CC1_TX_EN*%
X92500000Y-86675000D03*
%TO.P,U2,38,PA15*%
%TO.N,/CC1_RPUSB*%
X92000000Y-86675000D03*
%TO.P,U2,39,PB3*%
%TO.N,/CC1_RD*%
X91500000Y-86675000D03*
%TO.P,U2,40,PB4*%
%TO.N,/CC1_TX_DATA*%
X91000000Y-86675000D03*
%TO.P,U2,41,PB5*%
%TO.N,/CC1_RP1A5*%
X90500000Y-86675000D03*
%TO.P,U2,42,PB6*%
%TO.N,INA_SCL*%
X90000000Y-86675000D03*
%TO.P,U2,43,PB7*%
%TO.N,INA_SDA*%
X89500000Y-86675000D03*
%TO.P,U2,44,BOOT0*%
%TO.N,/BOOT*%
X89000000Y-86675000D03*
%TO.P,U2,45,PB8*%
%TO.N,/CC1_RA*%
X88500000Y-86675000D03*
%TO.P,U2,46,PB9*%
%TO.N,/TX_CLK*%
X88000000Y-86675000D03*
%TO.P,U2,47,VSS*%
%TO.N,GND*%
X87500000Y-86675000D03*
%TO.P,U2,48,VDD*%
%TO.N,+3V3*%
X87000000Y-86675000D03*
%TD*%
D12*
%TO.P,C7,1*%
%TO.N,+3V3*%
X104050000Y-95000000D03*
%TO.P,C7,2*%
%TO.N,GND*%
X105950000Y-95000000D03*
%TD*%
D13*
%TO.P,C5,1*%
%TO.N,Net-(U2-VDDA)*%
X110000000Y-90000000D03*
%TO.P,C5,2*%
%TO.N,GND*%
X110960000Y-90000000D03*
%TD*%
D14*
%TO.P,R24,1*%
%TO.N,GND*%
X75000000Y-75000000D03*
%TO.P,R24,2*%
%TO.N,Net-(R24-Pad2)*%
X76020000Y-75000000D03*
%TD*%
D13*
%TO.P,C2,1*%
%TO.N,+3V3*%
X95000000Y-85000000D03*
%TO.P,C2,2*%
%TO.N,GND*%
X95960000Y-85000000D03*
%TD*%
D15*
%TO.P,TP2,1,1*%
%TO.N,/UART_TX*%
X130000000Y-130000000D03*
%TD*%
%TO.P,TP3,1,1*%
%TO.N,/UART_RX*%
X140000000Y-130000000D03*
%TD*%
D16*
%TO.P,Q1,1,S*%
%TO.N,/CC1*%
X60000000Y-109350000D03*
%TO.P,Q1,2,G*%
%TO.N,/CC1_TX_DATA*%
X60000000Y-110000000D03*
%TO.P,Q1,3,D*%
%TO.N,Net-(Q1B-D)*%
X60000000Y-110650000D03*
%TO.P,Q1,4,S*%
%TO.N,GND*%
X61900000Y-110650000D03*
%TO.P,Q1,5,G*%
%TO.N,/CC1_TX_EN*%
X61900000Y-110000000D03*
%TO.P,Q1,6,D*%
%TO.N,Net-(Q1A-D)*%
X61900000Y-109350000D03*
%TD*%
D14*
%TO.P,R8,1*%
%TO.N,/CC1_EN*%
X63980000Y-95000000D03*
%TO.P,R8,2*%
%TO.N,GND*%
X65000000Y-95000000D03*
%TD*%
%TO.P,R14,1*%
%TO.N,+3V3*%
X80000000Y-100000000D03*
%TO.P,R14,2*%
%TO.N,Net-(Q1A-D)*%
X81020000Y-100000000D03*
%TD*%
D17*
%TO.P,SW1,1,1*%
%TO.N,Net-(R24-Pad2)*%
X167100000Y-111000000D03*
X172900000Y-111000000D03*
%TO.P,SW1,2,2*%
%TO.N,USB_B_ID*%
X167100000Y-115000000D03*
X172900000Y-115000000D03*
%TD*%
D18*
%TO.P,J3,A1,GND*%
%TO.N,GND*%
X52430000Y-79905000D03*
%TO.P,J3,A4,VBUS*%
%TO.N,/VBUS_RECEP*%
X53230000Y-79905000D03*
D19*
%TO.P,J3,A5,CC1*%
%TO.N,/CC1_RECEP*%
X54430000Y-79905000D03*
%TO.P,J3,A6,D+*%
%TO.N,USBC_D+*%
X55430000Y-79905000D03*
%TO.P,J3,A7,D-*%
%TO.N,USBC_D-*%
X55930000Y-79905000D03*
%TO.P,J3,A8*%
%TO.N,N/C*%
X56930000Y-79905000D03*
D18*
%TO.P,J3,A9,VBUS*%
%TO.N,/VBUS_RECEP*%
X58130000Y-79905000D03*
%TO.P,J3,A12,GND*%
%TO.N,GND*%
X58930000Y-79905000D03*
%TO.P,J3,B1,GND*%
X58930000Y-79905000D03*
%TO.P,J3,B4,VBUS*%
%TO.N,/VBUS_RECEP*%
X58130000Y-79905000D03*
D19*
%TO.P,J3,B5,CC2*%
%TO.N,/CC2_RECEP*%
X57430000Y-79905000D03*
%TO.P,J3,B6,D+*%
%TO.N,USBC_D+*%
X56430000Y-79905000D03*
%TO.P,J3,B7,D-*%
%TO.N,USBC_D-*%
X54930000Y-79905000D03*
%TO.P,J3,B8*%
%TO.N,N/C*%
X53930000Y-79905000D03*
D18*
%TO.P,J3,B9,VBUS*%
%TO.N,/VBUS_RECEP*%
X53230000Y-79905000D03*
%TO.P,J3,B12,GND*%
%TO.N,GND*%
X52430000Y-79905000D03*
D20*
%TO.P,J3,S1,SHIELD*%
X51360000Y-80820000D03*
D21*
X51360000Y-85000000D03*
D20*
X60000000Y-80820000D03*
D21*
X60000000Y-85000000D03*
%TD*%
D14*
%TO.P,R20,1*%
%TO.N,/CC2*%
X133980000Y-85000000D03*
%TO.P,R20,2*%
%TO.N,/CC2_RD*%
X135000000Y-85000000D03*
%TD*%
%TO.P,R22,1*%
%TO.N,+3V3*%
X145000000Y-85000000D03*
%TO.P,R22,2*%
%TO.N,Net-(Q2A-D)*%
X146020000Y-85000000D03*
%TD*%
%TO.P,R5,1*%
%TO.N,Net-(D2-RK)*%
X196880000Y-100000000D03*
%TO.P,R5,2*%
%TO.N,/400*%
X197900000Y-100000000D03*
%TD*%
%TO.P,R9,1*%
%TO.N,/CC1_RP3A0*%
X70000000Y-95000000D03*
%TO.P,R9,2*%
%TO.N,/CC1*%
X71020000Y-95000000D03*
%TD*%
D22*
%TO.P,FB1,1*%
%TO.N,Net-(D1-A)*%
X70000000Y-130000000D03*
%TO.P,FB1,2*%
%TO.N,+5V*%
X70970000Y-130000000D03*
%TD*%
D14*
%TO.P,R27,1*%
%TO.N,USB_B_ID*%
X79490000Y-130000000D03*
%TO.P,R27,2*%
%TO.N,+3V3*%
X80510000Y-130000000D03*
%TD*%
D13*
%TO.P,C4,1*%
%TO.N,+3V3*%
X104520000Y-85000000D03*
%TO.P,C4,2*%
%TO.N,GND*%
X105480000Y-85000000D03*
%TD*%
%TO.P,C3,1*%
%TO.N,+3V3*%
X100000000Y-85000000D03*
%TO.P,C3,2*%
%TO.N,GND*%
X100960000Y-85000000D03*
%TD*%
D23*
%TO.P,U3,1,A1*%
%TO.N,GND*%
X125000000Y-63000000D03*
%TO.P,U3,2,A0*%
X125000000Y-63500000D03*
%TO.P,U3,3,~{Alert}*%
%TO.N,/VBUS_ALERT_L*%
X125000000Y-64000000D03*
%TO.P,U3,4,SDA*%
%TO.N,INA_SDA*%
X125000000Y-64500000D03*
%TO.P,U3,5,SCL*%
%TO.N,INA_SCL*%
X125000000Y-65000000D03*
%TO.P,U3,6,VS*%
%TO.N,+3V3*%
X129400000Y-65000000D03*
%TO.P,U3,7,GND*%
%TO.N,GND*%
X129400000Y-64500000D03*
%TO.P,U3,8,Vbus*%
%TO.N,/VBUS_PLUG*%
X129400000Y-64000000D03*
%TO.P,U3,9,Vin-*%
X129400000Y-63500000D03*
%TO.P,U3,10,Vin+*%
%TO.N,/VBUS_RECEP*%
X129400000Y-63000000D03*
%TD*%
D16*
%TO.P,Q4,1,S*%
%TO.N,GND*%
X75000000Y-109350000D03*
%TO.P,Q4,2,G*%
%TO.N,USB_B_ID*%
X75000000Y-110000000D03*
%TO.P,Q4,3*%
%TO.N,N/C*%
X75000000Y-110650000D03*
%TO.P,Q4,4*%
X76900000Y-110650000D03*
%TO.P,Q4,5*%
X76900000Y-110000000D03*
%TO.P,Q4,6,D*%
%TO.N,/BOOT*%
X76900000Y-109350000D03*
%TD*%
D24*
%TO.P,R28,1*%
%TO.N,/VBUS_PLUG*%
X115000000Y-65000000D03*
%TO.P,R28,2*%
%TO.N,/VBUS_RECEP*%
X120925000Y-65000000D03*
%TD*%
D15*
%TO.P,TP1,1,1*%
%TO.N,/NRST*%
X120000000Y-130000000D03*
%TD*%
D13*
%TO.P,C9,1*%
%TO.N,+3V3*%
X139040000Y-65000000D03*
%TO.P,C9,2*%
%TO.N,GND*%
X140000000Y-65000000D03*
%TD*%
D14*
%TO.P,R13,1*%
%TO.N,/CC1_RPUSB*%
X75000000Y-100000000D03*
%TO.P,R13,2*%
%TO.N,/CC1*%
X76020000Y-100000000D03*
%TD*%
D25*
%TO.P,D2,1,A*%
%TO.N,+5V*%
X164900000Y-100000000D03*
%TO.P,D2,2,RK*%
%TO.N,Net-(D2-RK)*%
X167900000Y-100000000D03*
%TO.P,D2,3,GK*%
%TO.N,Net-(D2-GK)*%
X167900000Y-101500000D03*
%TO.P,D2,4,BK*%
%TO.N,Net-(D2-BK)*%
X164900000Y-101500000D03*
%TD*%
D26*
%TO.P,J1,1,VBUS*%
%TO.N,Net-(D1-A)*%
X50800000Y-122300000D03*
%TO.P,J1,2,D-*%
%TO.N,USB_B_D-*%
X51450000Y-122300000D03*
%TO.P,J1,3,D+*%
%TO.N,USB_B_D+*%
X52100000Y-122300000D03*
%TO.P,J1,4,ID*%
%TO.N,USB_B_ID*%
X52750000Y-122300000D03*
%TO.P,J1,5,GND*%
%TO.N,GND*%
X53400000Y-122300000D03*
D27*
%TO.P,J1,6,Shield*%
X48600000Y-125000000D03*
D28*
X49200000Y-125000000D03*
D29*
X49600000Y-122300000D03*
D30*
X51100000Y-125000000D03*
X53100000Y-125000000D03*
D29*
X54600000Y-122300000D03*
D28*
X55000000Y-125000000D03*
D27*
X55600000Y-125000000D03*
%TD*%
D22*
%TO.P,FB2,1*%
%TO.N,Net-(U2-VDDA)*%
X105000000Y-90000000D03*
%TO.P,FB2,2*%
%TO.N,+3V3*%
X105970000Y-90000000D03*
%TD*%
D14*
%TO.P,R17,1*%
%TO.N,/CC2_RP3A0*%
X85000000Y-115000000D03*
%TO.P,R17,2*%
%TO.N,/CC2*%
X86020000Y-115000000D03*
%TD*%
D16*
%TO.P,Q2,1,S*%
%TO.N,/CC2*%
X65000000Y-109350000D03*
%TO.P,Q2,2,G*%
%TO.N,/CC2_TX_DATA*%
X65000000Y-110000000D03*
%TO.P,Q2,3,D*%
%TO.N,GND*%
X65000000Y-110650000D03*
%TO.P,Q2,4,S*%
%TO.N,Net-(Q2B-S)*%
X66900000Y-110650000D03*
%TO.P,Q2,5,G*%
%TO.N,/CC2_TX_EN*%
X66900000Y-110000000D03*
%TO.P,Q2,6,D*%
%TO.N,Net-(Q2A-D)*%
X66900000Y-109350000D03*
%TD*%
D14*
%TO.P,R15,1*%
%TO.N,/CC1*%
X80000000Y-95000000D03*
%TO.P,R15,2*%
%TO.N,Net-(Q1B-D)*%
X81020000Y-95000000D03*
%TD*%
D31*
%TO.P,J4,1,Pin_1*%
%TO.N,GND*%
X185000000Y-70000000D03*
D32*
%TO.P,J4,2,Pin_2*%
%TO.N,/VBUS_PLUG*%
X190000000Y-70000000D03*
%TD*%
D14*
%TO.P,R4,1*%
%TO.N,Net-(D3-BK)*%
X186880000Y-100000000D03*
%TO.P,R4,2*%
%TO.N,/400*%
X187900000Y-100000000D03*
%TD*%
%TO.P,R11,1*%
%TO.N,/CC1_RP1A5*%
X65000000Y-100000000D03*
%TO.P,R11,2*%
%TO.N,/CC1*%
X66020000Y-100000000D03*
%TD*%
%TO.P,R2,1*%
%TO.N,/400*%
X110000000Y-110000000D03*
%TO.P,R2,2*%
%TO.N,Net-(D3-RK)*%
X111020000Y-110000000D03*
%TD*%
D33*
%TO.P,U5,1*%
%TO.N,/CC1_BUF*%
X90000000Y-105000000D03*
%TO.P,U5,2,-*%
X90000000Y-105650000D03*
%TO.P,U5,3,+*%
%TO.N,/CC1*%
X90000000Y-106300000D03*
%TO.P,U5,4,V-*%
%TO.N,GND*%
X90000000Y-106950000D03*
%TO.P,U5,5,+*%
%TO.N,/CC2*%
X94225000Y-106950000D03*
%TO.P,U5,6,-*%
%TO.N,/CC2_BUF*%
X94225000Y-106300000D03*
%TO.P,U5,7*%
X94225000Y-105650000D03*
%TO.P,U5,8,V+*%
%TO.N,+3V3*%
X94225000Y-105000000D03*
%TD*%
D16*
%TO.P,Q3,1,S*%
%TO.N,/CC1*%
X70000000Y-109350000D03*
%TO.P,Q3,2,G*%
%TO.N,/CC1_RECEP*%
X70000000Y-110000000D03*
%TO.P,Q3,3,D*%
%TO.N,/CC2*%
X70000000Y-110650000D03*
%TO.P,Q3,4,S*%
%TO.N,/CC2_RECEP*%
X71900000Y-110650000D03*
%TO.P,Q3,5,G*%
%TO.N,/CC2_EN*%
X71900000Y-110000000D03*
%TO.P,Q3,6,D*%
%TO.N,/CC1_EN*%
X71900000Y-109350000D03*
%TD*%
D13*
%TO.P,C6,1*%
%TO.N,Net-(U2-VDDA)*%
X115000000Y-90000000D03*
%TO.P,C6,2*%
%TO.N,GND*%
X115960000Y-90000000D03*
%TD*%
D14*
%TO.P,R16,1*%
%TO.N,/CC2_EN*%
X80000000Y-115000000D03*
%TO.P,R16,2*%
%TO.N,GND*%
X81020000Y-115000000D03*
%TD*%
%TO.P,R26,1*%
%TO.N,INA_SDA*%
X90000000Y-80000000D03*
%TO.P,R26,2*%
%TO.N,+3V3*%
X91020000Y-80000000D03*
%TD*%
%TO.P,R6,1*%
%TO.N,Net-(D2-GK)*%
X115000000Y-110000000D03*
%TO.P,R6,2*%
%TO.N,/400*%
X116020000Y-110000000D03*
%TD*%
%TO.P,R10,1*%
%TO.N,/CC1*%
X75000000Y-95000000D03*
%TO.P,R10,2*%
%TO.N,/CC1_RA*%
X76020000Y-95000000D03*
%TD*%
D34*
%TO.P,D4,1,A1*%
%TO.N,GND*%
X105000000Y-65000000D03*
%TO.P,D4,2,A2*%
%TO.N,/VBUS_RECEP*%
X109000000Y-65000000D03*
%TD*%
D14*
%TO.P,R7,1*%
%TO.N,Net-(D2-BK)*%
X58980000Y-105000000D03*
%TO.P,R7,2*%
%TO.N,/400*%
X60000000Y-105000000D03*
%TD*%
D13*
%TO.P,C8,1*%
%TO.N,+3V3*%
X109520000Y-85000000D03*
%TO.P,C8,2*%
%TO.N,GND*%
X110480000Y-85000000D03*
%TD*%
D35*
%TO.P,D1,1,K*%
%TO.N,GND*%
X60000000Y-130000000D03*
%TO.P,D1,2,A*%
%TO.N,Net-(D1-A)*%
X63300000Y-130000000D03*
%TD*%
D14*
%TO.P,R19,1*%
%TO.N,/CC2_RP1A5*%
X129490000Y-85000000D03*
%TO.P,R19,2*%
%TO.N,/CC2*%
X130510000Y-85000000D03*
%TD*%
D13*
%TO.P,C10,1*%
%TO.N,+3V3*%
X80000000Y-70000000D03*
%TO.P,C10,2*%
%TO.N,GND*%
X80960000Y-70000000D03*
%TD*%
D25*
%TO.P,D3,1,A*%
%TO.N,+5V*%
X174900000Y-100000000D03*
%TO.P,D3,2,RK*%
%TO.N,Net-(D3-RK)*%
X177900000Y-100000000D03*
%TO.P,D3,3,GK*%
%TO.N,Net-(D3-GK)*%
X177900000Y-101500000D03*
%TO.P,D3,4,BK*%
%TO.N,Net-(D3-BK)*%
X174900000Y-101500000D03*
%TD*%
D14*
%TO.P,R1,1*%
%TO.N,/BOOT*%
X105000000Y-110000000D03*
%TO.P,R1,2*%
%TO.N,+3V3*%
X106020000Y-110000000D03*
%TD*%
D36*
%TO.P,U6,1,CC2*%
%TO.N,/CC2_RECEP*%
X80000000Y-80000000D03*
%TO.P,U6,2,VBUS*%
%TO.N,/VBUS_RECEP*%
X80000000Y-80500000D03*
%TO.P,U6,3,VDD*%
%TO.N,+3V3*%
X80000000Y-81000000D03*
D37*
%TO.P,U6,4,VDD*%
X80512500Y-81762500D03*
%TO.P,U6,5,INT_N*%
%TO.N,PD_INT*%
X81012500Y-81762500D03*
%TO.P,U6,6,SCL*%
%TO.N,INA_SCL*%
X81512500Y-81762500D03*
%TO.P,U6,7,SDA*%
%TO.N,INA_SDA*%
X82012500Y-81762500D03*
D36*
%TO.P,U6,8,GND*%
%TO.N,GND*%
X82525000Y-81000000D03*
%TO.P,U6,9,GND*%
X82525000Y-80500000D03*
%TO.P,U6,10,CC1*%
%TO.N,/CC1_RECEP*%
X82525000Y-80000000D03*
D37*
%TO.P,U6,11,CC1*%
X82012500Y-79237500D03*
%TO.P,U6,12,VCONN*%
%TO.N,unconnected-(U6-VCONN-Pad12)*%
X81512500Y-79237500D03*
%TO.P,U6,13,VCONN*%
%TO.N,unconnected-(U6-VCONN-Pad13)*%
X81012500Y-79237500D03*
%TO.P,U6,14,CC2*%
%TO.N,/CC2_RECEP*%
X80512500Y-79237500D03*
D38*
%TO.P,U6,15,GND*%
%TO.N,GND*%
X81262500Y-80500000D03*
%TD*%
D14*
%TO.P,R3,1*%
%TO.N,Net-(D3-GK)*%
X53980000Y-105000000D03*
%TO.P,R3,2*%
%TO.N,/400*%
X55000000Y-105000000D03*
%TD*%
%TO.P,R12,1*%
%TO.N,/CC1*%
X70000000Y-100000000D03*
%TO.P,R12,2*%
%TO.N,/CC1_RD*%
X71020000Y-100000000D03*
%TD*%
D13*
%TO.P,C1,1*%
%TO.N,+5V*%
X99040000Y-105000000D03*
%TO.P,C1,2*%
%TO.N,GND*%
X100000000Y-105000000D03*
%TD*%
D14*
%TO.P,R18,1*%
%TO.N,/CC2*%
X124490000Y-85000000D03*
%TO.P,R18,2*%
%TO.N,/CC2_RA*%
X125510000Y-85000000D03*
%TD*%
D39*
%TO.P,U1,1,VIN*%
%TO.N,+5V*%
X100000000Y-98100000D03*
%TO.P,U1,2,GND*%
%TO.N,GND*%
X100000000Y-99050000D03*
%TO.P,U1,3,EN*%
%TO.N,+5V*%
X100000000Y-100000000D03*
%TO.P,U1,4,NC*%
%TO.N,unconnected-(U1-NC-Pad4)*%
X102275000Y-100000000D03*
%TO.P,U1,5,VOUT*%
%TO.N,+3V3*%
X102275000Y-98100000D03*
%TD*%
D14*
%TO.P,R23,1*%
%TO.N,/CC2*%
X70000000Y-75000000D03*
%TO.P,R23,2*%
%TO.N,Net-(Q2B-S)*%
X71020000Y-75000000D03*
%TD*%
D13*
%TO.P,C11,1*%
%TO.N,+3V3*%
X90000000Y-70000000D03*
%TO.P,C11,2*%
%TO.N,GND*%
X90960000Y-70000000D03*
%TD*%
D14*
%TO.P,R21,1*%
%TO.N,/CC2_RPUSB*%
X140000000Y-85000000D03*
%TO.P,R21,2*%
%TO.N,/CC2*%
X141020000Y-85000000D03*
%TD*%
D40*
%TO.N,/CC1_BUF*%
X86747600Y-102663500D03*
X85268200Y-96365900D03*
%TO.N,/CC2_BUF*%
X86922200Y-96286400D03*
X91612500Y-106007200D03*
%TO.N,/VBUS_ALERT_L*%
X99835800Y-61392100D03*
X91504700Y-93169200D03*
%TO.N,INA_SCL*%
X93896800Y-81848200D03*
X94789200Y-67278100D03*
X122564900Y-65374300D03*
X91819000Y-89275800D03*
%TO.N,/UART_RX*%
X132500300Y-128605000D03*
X102805300Y-128605000D03*
X97085800Y-90809000D03*
%TO.N,/UART_TX*%
X92643600Y-91725700D03*
X124384200Y-90615100D03*
X129530800Y-127824400D03*
%TO.N,/NRST*%
X87313900Y-91247100D03*
X112219500Y-90748200D03*
X117584000Y-129344000D03*
%TO.N,INA_SDA*%
X90475600Y-88974800D03*
X90030400Y-81716600D03*
X90927300Y-66114700D03*
X123440500Y-64500000D03*
%TO.N,/VBUS_PLUG*%
X123591800Y-67236700D03*
%TO.N,/CC2_RPUSB*%
X108744300Y-94093000D03*
X138342000Y-85347600D03*
%TO.N,/CC2_RP3A0*%
X90846500Y-113454600D03*
X90846500Y-89896000D03*
%TO.N,/CC1_RPUSB*%
X77004100Y-99900400D03*
X76081000Y-87445300D03*
X91735600Y-84578500D03*
%TO.N,/CC1_RD*%
X72245500Y-99562700D03*
X72556700Y-84770500D03*
X87957800Y-83893900D03*
%TO.N,/CC1_RP1A5*%
X64638400Y-96620700D03*
X85996900Y-95640400D03*
X91509600Y-88284500D03*
%TO.N,/CC1_RA*%
X83764600Y-94343000D03*
X88998200Y-89864800D03*
%TO.N,/CC1_RP3A0*%
X70101700Y-91403200D03*
X82018800Y-89886700D03*
%TO.N,Net-(R24-Pad2)*%
X84988300Y-76003600D03*
X159225800Y-76003600D03*
X164689600Y-111361100D03*
%TO.N,Net-(D2-BK)*%
X60776200Y-104507200D03*
X163203200Y-101520700D03*
%TO.N,Net-(D3-GK)*%
X55293300Y-102304300D03*
X176165400Y-100089600D03*
%TO.N,/400*%
X61311000Y-105925100D03*
X108494500Y-111071200D03*
X91753800Y-98567300D03*
X93896800Y-110552500D03*
X189288000Y-99382000D03*
%TO.N,Net-(D3-RK)*%
X180073500Y-101547400D03*
X112244500Y-110089800D03*
%TO.N,/BOOT*%
X89415600Y-88843100D03*
X89637200Y-109599400D03*
%TO.N,/CC1_EN*%
X76346400Y-93413300D03*
X69336800Y-93385800D03*
X74614200Y-108249100D03*
%TO.N,/CC2_EN*%
X81807800Y-93377900D03*
X79768000Y-113605900D03*
%TO.N,Net-(Q2B-S)*%
X71227200Y-76392600D03*
X67940700Y-110290600D03*
%TO.N,/CC2*%
X71476400Y-77912400D03*
X69906200Y-111819400D03*
X124648000Y-83994400D03*
X90927300Y-116135200D03*
X92934100Y-107612100D03*
%TO.N,/CC2_TX_EN*%
X83181500Y-88483700D03*
X81982800Y-108307100D03*
X68244600Y-108904200D03*
%TO.N,Net-(Q2A-D)*%
X123591800Y-87692800D03*
X123591800Y-106007200D03*
X67918700Y-107942300D03*
%TO.N,/CC1*%
X69850800Y-96805900D03*
X72965500Y-96804300D03*
X72503800Y-107414000D03*
%TO.N,/CC1_TX_EN*%
X93183100Y-86759700D03*
X64201800Y-87692800D03*
X63490200Y-109921100D03*
%TO.N,/CC1_RECEP*%
X57474700Y-77895800D03*
X82663900Y-78893700D03*
X71722700Y-108335000D03*
%TO.N,/CC2_RECEP*%
X73410200Y-110201500D03*
X78613400Y-79690400D03*
%TO.N,/VBUS_RECEP*%
X79049300Y-67236700D03*
X75740800Y-81509300D03*
%TO.N,Net-(U2-VDDA)*%
X104784900Y-92531900D03*
X87383100Y-92972600D03*
%TO.N,USB_B_D+*%
X95520600Y-90372200D03*
X96073900Y-116915800D03*
X52186300Y-119661100D03*
%TO.N,USB_B_D-*%
X88495600Y-90515600D03*
X87957800Y-117696400D03*
X51462600Y-120599900D03*
%TO.N,USB_B_ID*%
X78902000Y-128411700D03*
X75950000Y-109905200D03*
X78902000Y-119838100D03*
X164689600Y-115050400D03*
%TO.N,+5V*%
X90927300Y-125682700D03*
X96866300Y-106007200D03*
X162195300Y-101925800D03*
X99835800Y-102304300D03*
%TO.N,GND*%
X141408800Y-67236700D03*
X58163600Y-128605000D03*
X52323800Y-78276500D03*
X82397000Y-115106800D03*
X51594500Y-126546900D03*
X82372000Y-70159000D03*
X89466300Y-93737100D03*
X102780000Y-84770500D03*
X127309700Y-65397500D03*
X63695800Y-111071200D03*
X87141200Y-88072700D03*
X126407800Y-63552600D03*
X108744300Y-96459700D03*
X82018800Y-90921000D03*
X97295800Y-84770500D03*
X98792500Y-99382000D03*
X117493700Y-90419900D03*
X111979500Y-84503200D03*
X73110300Y-76003600D03*
X67185100Y-95773400D03*
X97420700Y-88223700D03*
X112019500Y-89934200D03*
X107039700Y-84503200D03*
X100800500Y-104446000D03*
X91826300Y-69463100D03*
X54580000Y-126546900D03*
X102534800Y-64314400D03*
X91612500Y-107561000D03*
X92006000Y-96829300D03*
X83388000Y-81024800D03*
X76865200Y-108294600D03*
%TO.N,+3V3*%
X82142000Y-128605000D03*
X89193700Y-70159000D03*
X94015900Y-96459700D03*
X137857000Y-65273600D03*
X79782000Y-82691100D03*
X108434200Y-90802800D03*
X108249500Y-84770500D03*
X94015900Y-87084400D03*
X93567400Y-84623300D03*
X102434800Y-96399000D03*
X94689200Y-104282500D03*
X143801200Y-84760200D03*
X107897700Y-110190600D03*
X78648600Y-99900400D03*
X103593900Y-85585200D03*
X86305600Y-87084400D03*
X90518200Y-80770800D03*
X128171400Y-65187800D03*
X99026900Y-84794500D03*
X78642000Y-70159000D03*
X102027700Y-97249200D03*
X78589200Y-81455000D03*
X84836700Y-87084400D03*
%TD*%
D41*
%TO.N,/CC1_BUF*%
X86410300Y-93087500D02*
X85587500Y-93087500D01*
X86628200Y-93305400D02*
X86410300Y-93087500D01*
X86628200Y-93959300D02*
X86628200Y-93305400D01*
X85268200Y-95319300D02*
X86628200Y-93959300D01*
X85268200Y-96365900D02*
X85268200Y-95319300D01*
X90000000Y-105650000D02*
X90000000Y-105000000D01*
X89084100Y-105000000D02*
X86747600Y-102663500D01*
X90000000Y-105000000D02*
X89084100Y-105000000D01*
%TO.N,/CC2_BUF*%
X86922200Y-95077800D02*
X86922200Y-96286400D01*
X87000000Y-95000000D02*
X86922200Y-95077800D01*
X94225000Y-106300000D02*
X93900000Y-105975000D01*
X93867800Y-106007200D02*
X93900000Y-105975000D01*
X91612500Y-106007200D02*
X93867800Y-106007200D01*
X93900000Y-105975000D02*
X94225000Y-105650000D01*
%TO.N,/VBUS_ALERT_L*%
X90500000Y-94173900D02*
X91504700Y-93169200D01*
X90500000Y-95000000D02*
X90500000Y-94173900D01*
X121183500Y-61392100D02*
X99835800Y-61392100D01*
X123791400Y-64000000D02*
X121183500Y-61392100D01*
X125000000Y-64000000D02*
X123791400Y-64000000D01*
%TO.N,/TX_CLK*%
X88000000Y-90988900D02*
X88000000Y-95000000D01*
X87872600Y-90861500D02*
X88000000Y-90988900D01*
X87872600Y-90097500D02*
X87872600Y-90861500D01*
X88000000Y-89970100D02*
X87872600Y-90097500D01*
X88000000Y-86675000D02*
X88000000Y-89970100D01*
%TO.N,INA_SCL*%
X93282500Y-82462500D02*
X93896800Y-81848200D01*
X81795500Y-82462500D02*
X93282500Y-82462500D01*
X81512500Y-82179500D02*
X81795500Y-82462500D01*
X81512500Y-81762500D02*
X81512500Y-82179500D01*
X124010500Y-65000000D02*
X125000000Y-65000000D01*
X123636200Y-65374300D02*
X124010500Y-65000000D01*
X122564900Y-65374300D02*
X123636200Y-65374300D01*
X91633600Y-89275800D02*
X91819000Y-89275800D01*
X90000000Y-87642200D02*
X91633600Y-89275800D01*
X90000000Y-86675000D02*
X90000000Y-87642200D01*
%TO.N,/UART_RX*%
X133895300Y-130000000D02*
X132500300Y-128605000D01*
X140000000Y-130000000D02*
X133895300Y-130000000D01*
X94683100Y-90587500D02*
X93912500Y-90587500D01*
X95087400Y-90991800D02*
X94683100Y-90587500D01*
X96903000Y-90991800D02*
X95087400Y-90991800D01*
X97085800Y-90809000D02*
X96903000Y-90991800D01*
%TO.N,/UART_TX*%
X92643600Y-91522000D02*
X92643600Y-91725700D01*
X93078100Y-91087500D02*
X92643600Y-91522000D01*
X93912500Y-91087500D02*
X93078100Y-91087500D01*
X130000000Y-128293600D02*
X130000000Y-130000000D01*
X129530800Y-127824400D02*
X130000000Y-128293600D01*
%TO.N,/NRST*%
X118042300Y-129344000D02*
X118698300Y-130000000D01*
X117584000Y-129344000D02*
X118042300Y-129344000D01*
X120000000Y-130000000D02*
X118698300Y-130000000D01*
X87154300Y-91087500D02*
X85587500Y-91087500D01*
X87313900Y-91247100D02*
X87154300Y-91087500D01*
%TO.N,INA_SDA*%
X88237500Y-81762500D02*
X89156900Y-80843100D01*
X82012500Y-81762500D02*
X88237500Y-81762500D01*
X90030400Y-81716600D02*
X89156900Y-80843100D01*
X89156900Y-80843100D02*
X90000000Y-80000000D01*
X123440500Y-64500000D02*
X125000000Y-64500000D01*
X89500000Y-87999200D02*
X90475600Y-88974800D01*
X89500000Y-86675000D02*
X89500000Y-87999200D01*
%TO.N,/VBUS_PLUG*%
X129400000Y-63500000D02*
X129400000Y-64000000D01*
X123591800Y-67236700D02*
X123591800Y-66979300D01*
X116979300Y-66979300D02*
X123591800Y-66979300D01*
X115000000Y-65000000D02*
X116979300Y-66979300D01*
X127856000Y-64000000D02*
X129400000Y-64000000D01*
X127856000Y-64000100D02*
X127856000Y-64000000D01*
X124876800Y-66979300D02*
X127856000Y-64000100D01*
X123591800Y-66979300D02*
X124876800Y-66979300D01*
%TO.N,/CC2_RPUSB*%
X108238800Y-93587500D02*
X108744300Y-94093000D01*
X93912500Y-93587500D02*
X108238800Y-93587500D01*
X139652400Y-85347600D02*
X140000000Y-85000000D01*
X138342000Y-85347600D02*
X139652400Y-85347600D01*
%TO.N,/CC2_RD*%
X134060200Y-85939800D02*
X135000000Y-85000000D01*
X126447200Y-85939800D02*
X134060200Y-85939800D01*
X126047000Y-86340000D02*
X126447200Y-85939800D01*
X125912000Y-86340000D02*
X126047000Y-86340000D01*
X125651600Y-86600400D02*
X125912000Y-86340000D01*
X123192700Y-86600400D02*
X125651600Y-86600400D01*
X116659500Y-93133600D02*
X123192700Y-86600400D01*
X93958600Y-93133600D02*
X116659500Y-93133600D01*
X93912500Y-93087500D02*
X93958600Y-93133600D01*
%TO.N,/CC2_RP1A5*%
X126517700Y-85000000D02*
X129490000Y-85000000D01*
X125319000Y-86198700D02*
X126517700Y-85000000D01*
X106612200Y-86198700D02*
X125319000Y-86198700D01*
X100723400Y-92087500D02*
X106612200Y-86198700D01*
X93912500Y-92087500D02*
X100723400Y-92087500D01*
%TO.N,/CC2_RA*%
X124713000Y-85797000D02*
X125510000Y-85000000D01*
X105075200Y-85797000D02*
X124713000Y-85797000D01*
X99284700Y-91587500D02*
X105075200Y-85797000D01*
X93912500Y-91587500D02*
X99284700Y-91587500D01*
%TO.N,/CC2_RP3A0*%
X92858800Y-89087500D02*
X93912500Y-89087500D01*
X92050300Y-89896000D02*
X92858800Y-89087500D01*
X90846500Y-89896000D02*
X92050300Y-89896000D01*
X86545400Y-113454600D02*
X90846500Y-113454600D01*
X85000000Y-115000000D02*
X86545400Y-113454600D01*
%TO.N,/CC1_RPUSB*%
X77004100Y-99982800D02*
X77004100Y-99900400D01*
X76334400Y-100652500D02*
X77004100Y-99982800D01*
X75652500Y-100652500D02*
X76334400Y-100652500D01*
X75000000Y-100000000D02*
X75652500Y-100652500D01*
X92000000Y-84842900D02*
X92000000Y-86675000D01*
X91735600Y-84578500D02*
X92000000Y-84842900D01*
%TO.N,/CC1_RD*%
X71808200Y-100000000D02*
X72245500Y-99562700D01*
X71020000Y-100000000D02*
X71808200Y-100000000D01*
X89591600Y-83893900D02*
X87957800Y-83893900D01*
X91500000Y-85802300D02*
X89591600Y-83893900D01*
X91500000Y-86675000D02*
X91500000Y-85802300D01*
%TO.N,/CC1_RP1A5*%
X65000000Y-96982300D02*
X64638400Y-96620700D01*
X65000000Y-100000000D02*
X65000000Y-96982300D01*
X90500000Y-87499400D02*
X90500000Y-86675000D01*
X91285100Y-88284500D02*
X90500000Y-87499400D01*
X91509600Y-88284500D02*
X91285100Y-88284500D01*
%TO.N,/CC1_RA*%
X76677000Y-94343000D02*
X83764600Y-94343000D01*
X76020000Y-95000000D02*
X76677000Y-94343000D01*
X88500000Y-89366600D02*
X88998200Y-89864800D01*
X88500000Y-86675000D02*
X88500000Y-89366600D01*
%TO.N,/CC1_RP3A0*%
X70101700Y-94898300D02*
X70101700Y-91403200D01*
X70000000Y-95000000D02*
X70101700Y-94898300D01*
X82818000Y-89087500D02*
X85587500Y-89087500D01*
X82018800Y-89886700D02*
X82818000Y-89087500D01*
%TO.N,Net-(R24-Pad2)*%
X167100000Y-111000000D02*
X172900000Y-111000000D01*
X83984700Y-75000000D02*
X84988300Y-76003600D01*
X76020000Y-75000000D02*
X83984700Y-75000000D01*
X166738900Y-111361100D02*
X167100000Y-111000000D01*
X164689600Y-111361100D02*
X166738900Y-111361100D01*
%TO.N,Net-(D2-BK)*%
X60646800Y-104377800D02*
X60776200Y-104507200D01*
X59602200Y-104377800D02*
X60646800Y-104377800D01*
X58980000Y-105000000D02*
X59602200Y-104377800D01*
X163827600Y-101520700D02*
X163848300Y-101500000D01*
X163203200Y-101520700D02*
X163827600Y-101520700D01*
X164900000Y-101500000D02*
X163848300Y-101500000D01*
%TO.N,Net-(D2-GK)*%
X167900000Y-101500000D02*
X167900000Y-102351700D01*
X167724200Y-102527500D02*
X167900000Y-102351700D01*
X122472500Y-102527500D02*
X167724200Y-102527500D01*
X115000000Y-110000000D02*
X122472500Y-102527500D01*
%TO.N,Net-(D2-RK)*%
X194125300Y-102754700D02*
X196880000Y-100000000D01*
X173437700Y-102754700D02*
X194125300Y-102754700D01*
X170683000Y-100000000D02*
X173437700Y-102754700D01*
X167900000Y-100000000D02*
X170683000Y-100000000D01*
%TO.N,Net-(D3-BK)*%
X174900000Y-101500000D02*
X174900000Y-102351700D01*
X184528300Y-102351700D02*
X174900000Y-102351700D01*
X186880000Y-100000000D02*
X184528300Y-102351700D01*
%TO.N,Net-(D3-GK)*%
X55293300Y-103686700D02*
X55293300Y-102304300D01*
X53980000Y-105000000D02*
X55293300Y-103686700D01*
X177900000Y-101500000D02*
X176848300Y-101500000D01*
X176848300Y-100772500D02*
X176848300Y-101500000D01*
X176165400Y-100089600D02*
X176848300Y-100772500D01*
%TO.N,/400*%
X55639300Y-105639300D02*
X55000000Y-105000000D01*
X59680300Y-105639300D02*
X55639300Y-105639300D01*
X60000000Y-105319600D02*
X59680300Y-105639300D01*
X60000000Y-105000000D02*
X60000000Y-105319600D01*
X60705500Y-105319600D02*
X61311000Y-105925100D01*
X60000000Y-105319600D02*
X60705500Y-105319600D01*
X115328500Y-110691500D02*
X116020000Y-110000000D01*
X110000000Y-110691500D02*
X115328500Y-110691500D01*
X109620300Y-111071200D02*
X110000000Y-110691500D01*
X108494500Y-111071200D02*
X109620300Y-111071200D01*
X110000000Y-110691500D02*
X110000000Y-110000000D01*
X189314200Y-99355800D02*
X189288000Y-99382000D01*
X197255800Y-99355800D02*
X189314200Y-99355800D01*
X197900000Y-100000000D02*
X197255800Y-99355800D01*
X188518000Y-99382000D02*
X187900000Y-100000000D01*
X189288000Y-99382000D02*
X188518000Y-99382000D01*
X91404300Y-98217800D02*
X91753800Y-98567300D01*
X91404300Y-96580200D02*
X91404300Y-98217800D01*
X91500000Y-96484500D02*
X91404300Y-96580200D01*
X91500000Y-95000000D02*
X91500000Y-96484500D01*
%TO.N,Net-(D3-RK)*%
X178951700Y-100425600D02*
X180073500Y-101547400D01*
X178951700Y-100000000D02*
X178951700Y-100425600D01*
X111109800Y-110089800D02*
X111020000Y-110000000D01*
X112244500Y-110089800D02*
X111109800Y-110089800D01*
X177900000Y-100000000D02*
X178951700Y-100000000D01*
%TO.N,/BOOT*%
X104599400Y-109599400D02*
X89637200Y-109599400D01*
X105000000Y-110000000D02*
X104599400Y-109599400D01*
X89387800Y-109350000D02*
X76900000Y-109350000D01*
X89637200Y-109599400D02*
X89387800Y-109350000D01*
X89000000Y-88427500D02*
X89415600Y-88843100D01*
X89000000Y-86675000D02*
X89000000Y-88427500D01*
%TO.N,/CC1_EN*%
X77172200Y-92587500D02*
X76346400Y-93413300D01*
X85587500Y-92587500D02*
X77172200Y-92587500D01*
X65594200Y-93385800D02*
X63980000Y-95000000D01*
X69336800Y-93385800D02*
X65594200Y-93385800D01*
X73513300Y-109350000D02*
X74614200Y-108249100D01*
X71900000Y-109350000D02*
X73513300Y-109350000D01*
%TO.N,/CC2_EN*%
X80000000Y-113837900D02*
X80000000Y-115000000D01*
X79768000Y-113605900D02*
X80000000Y-113837900D01*
X71613900Y-110000000D02*
X71900000Y-110000000D01*
X71256400Y-110357500D02*
X71613900Y-110000000D01*
X71256400Y-110937200D02*
X71256400Y-110357500D01*
X75319200Y-115000000D02*
X71256400Y-110937200D01*
X80000000Y-115000000D02*
X75319200Y-115000000D01*
X82017400Y-93587500D02*
X81807800Y-93377900D01*
X85587500Y-93587500D02*
X82017400Y-93587500D01*
%TO.N,/CC2_TX_DATA*%
X64741000Y-110000000D02*
X65000000Y-110000000D01*
X64363400Y-109622400D02*
X64741000Y-110000000D01*
X64363400Y-109049900D02*
X64363400Y-109622400D01*
X67144200Y-106269100D02*
X64363400Y-109049900D01*
X78078600Y-106269100D02*
X67144200Y-106269100D01*
X88500000Y-95847700D02*
X78078600Y-106269100D01*
X88500000Y-95000000D02*
X88500000Y-95847700D01*
%TO.N,Net-(Q2B-S)*%
X71227200Y-75207200D02*
X71227200Y-76392600D01*
X71020000Y-75000000D02*
X71227200Y-75207200D01*
X67581300Y-110650000D02*
X66900000Y-110650000D01*
X67940700Y-110290600D02*
X67581300Y-110650000D01*
%TO.N,/CC2*%
X133980000Y-85000000D02*
X130510000Y-85000000D01*
X140383500Y-84363500D02*
X141020000Y-85000000D01*
X134616500Y-84363500D02*
X140383500Y-84363500D01*
X133980000Y-85000000D02*
X134616500Y-84363500D01*
X70000000Y-76436000D02*
X71476400Y-77912400D01*
X70000000Y-75000000D02*
X70000000Y-76436000D01*
X70000000Y-111725600D02*
X70000000Y-110650000D01*
X69906200Y-111819400D02*
X70000000Y-111725600D01*
X125071800Y-84418200D02*
X124648000Y-83994400D01*
X124490000Y-85000000D02*
X125071800Y-84418200D01*
X129871600Y-84361600D02*
X130510000Y-85000000D01*
X125128400Y-84361600D02*
X129871600Y-84361600D01*
X125071800Y-84418200D02*
X125128400Y-84361600D01*
X67098400Y-111819400D02*
X69906200Y-111819400D01*
X66097400Y-110818400D02*
X67098400Y-111819400D01*
X66097400Y-110173100D02*
X66097400Y-110818400D01*
X65274300Y-109350000D02*
X66097400Y-110173100D01*
X65000000Y-109350000D02*
X65274300Y-109350000D01*
X73840800Y-115754000D02*
X69906200Y-111819400D01*
X85568000Y-115754000D02*
X73840800Y-115754000D01*
X86020000Y-115302000D02*
X85568000Y-115754000D01*
X93562900Y-107612100D02*
X94225000Y-106950000D01*
X92934100Y-107612100D02*
X93562900Y-107612100D01*
X86020000Y-115000000D02*
X86020000Y-115302000D01*
X90094100Y-115302000D02*
X90927300Y-116135200D01*
X86020000Y-115302000D02*
X90094100Y-115302000D01*
%TO.N,/CC2_TX_EN*%
X67148800Y-110000000D02*
X66900000Y-110000000D01*
X68244600Y-108904200D02*
X67148800Y-110000000D01*
X83285300Y-88587500D02*
X83181500Y-88483700D01*
X85587500Y-88587500D02*
X83285300Y-88587500D01*
%TO.N,Net-(Q2A-D)*%
X143327200Y-87692800D02*
X123591800Y-87692800D01*
X146020000Y-85000000D02*
X143327200Y-87692800D01*
X66900000Y-108961000D02*
X66900000Y-109350000D01*
X67918700Y-107942300D02*
X66900000Y-108961000D01*
%TO.N,Net-(Q1B-D)*%
X78007600Y-98012400D02*
X81020000Y-95000000D01*
X78007600Y-99772800D02*
X78007600Y-98012400D01*
X76151000Y-101629400D02*
X78007600Y-99772800D01*
X68679000Y-101629400D02*
X76151000Y-101629400D01*
X60950000Y-109358400D02*
X68679000Y-101629400D01*
X60950000Y-110012800D02*
X60950000Y-109358400D01*
X60312800Y-110650000D02*
X60950000Y-110012800D01*
X60000000Y-110650000D02*
X60312800Y-110650000D01*
%TO.N,/CC1*%
X73493700Y-96506300D02*
X75000000Y-95000000D01*
X73493700Y-97473700D02*
X73493700Y-96506300D01*
X76020000Y-100000000D02*
X73493700Y-97473700D01*
X72965500Y-96804300D02*
X72965500Y-97473700D01*
X73493700Y-97473700D02*
X72965500Y-97473700D01*
X72526300Y-97473700D02*
X70000000Y-100000000D01*
X72965500Y-97473700D02*
X72526300Y-97473700D01*
X75642600Y-95642600D02*
X75000000Y-95000000D01*
X79357400Y-95642600D02*
X75642600Y-95642600D01*
X80000000Y-95000000D02*
X79357400Y-95642600D01*
X69850800Y-96169200D02*
X71020000Y-95000000D01*
X69850800Y-96805900D02*
X69850800Y-96169200D01*
X70000000Y-109206900D02*
X70000000Y-109350000D01*
X71792900Y-107414000D02*
X70000000Y-109206900D01*
X72503800Y-107414000D02*
X71792900Y-107414000D01*
X81393300Y-107414000D02*
X72503800Y-107414000D01*
X82507300Y-106300000D02*
X81393300Y-107414000D01*
X90000000Y-106300000D02*
X82507300Y-106300000D01*
X69350000Y-100000000D02*
X70000000Y-100000000D01*
X60000000Y-109350000D02*
X69350000Y-100000000D01*
X69214100Y-96805900D02*
X69850800Y-96805900D01*
X66020000Y-100000000D02*
X69214100Y-96805900D01*
%TO.N,/CC1_TX_EN*%
X92584700Y-86759700D02*
X93183100Y-86759700D01*
X92500000Y-86675000D02*
X92584700Y-86759700D01*
X63411300Y-110000000D02*
X63490200Y-109921100D01*
X61900000Y-110000000D02*
X63411300Y-110000000D01*
%TO.N,/CC1_TX_DATA*%
X59675000Y-110000000D02*
X60000000Y-110000000D01*
X59374000Y-109699000D02*
X59675000Y-110000000D01*
X59374000Y-109081000D02*
X59374000Y-109699000D01*
X82823300Y-85631800D02*
X59374000Y-109081000D01*
X90728100Y-85631800D02*
X82823300Y-85631800D01*
X91000000Y-85903700D02*
X90728100Y-85631800D01*
X91000000Y-86675000D02*
X91000000Y-85903700D01*
%TO.N,Net-(Q1A-D)*%
X76607300Y-104412700D02*
X81020000Y-100000000D01*
X66837300Y-104412700D02*
X76607300Y-104412700D01*
X61900000Y-109350000D02*
X66837300Y-104412700D01*
%TO.N,/CC1_RECEP*%
X82525000Y-79355700D02*
X82525000Y-80000000D01*
X82130700Y-79355700D02*
X82012500Y-79237500D01*
X82525000Y-79355700D02*
X82130700Y-79355700D01*
X55412500Y-77895800D02*
X57474700Y-77895800D01*
X54430000Y-78878300D02*
X55412500Y-77895800D01*
X54430000Y-79905000D02*
X54430000Y-78878300D01*
X82663900Y-79216800D02*
X82525000Y-79355700D01*
X82663900Y-78893700D02*
X82663900Y-79216800D01*
X70251000Y-110000000D02*
X70000000Y-110000000D01*
X71722700Y-108528300D02*
X70251000Y-110000000D01*
X71722700Y-108335000D02*
X71722700Y-108528300D01*
%TO.N,/CC2_RECEP*%
X72961700Y-110650000D02*
X73410200Y-110201500D01*
X71900000Y-110650000D02*
X72961700Y-110650000D01*
X79940400Y-79690400D02*
X80000000Y-79750000D01*
X78613400Y-79690400D02*
X79940400Y-79690400D01*
X80000000Y-80000000D02*
X80000000Y-79750000D01*
X80000000Y-79750000D02*
X80512500Y-79237500D01*
X71497300Y-79690400D02*
X78613400Y-79690400D01*
X70265100Y-78458200D02*
X71497300Y-79690400D01*
X57850100Y-78458200D02*
X70265100Y-78458200D01*
X57430000Y-78878300D02*
X57850100Y-78458200D01*
X57430000Y-79905000D02*
X57430000Y-78878300D01*
%TO.N,/VBUS_RECEP*%
X58130000Y-79905000D02*
X58130000Y-78878300D01*
X58130000Y-80506700D02*
X58130000Y-79905000D01*
X57301900Y-81334800D02*
X58130000Y-80506700D01*
X54036500Y-81334800D02*
X57301900Y-81334800D01*
X53230000Y-80528300D02*
X54036500Y-81334800D01*
X53230000Y-79905000D02*
X53230000Y-80528300D01*
X110986000Y-63014000D02*
X109000000Y-65000000D01*
X118939000Y-63014000D02*
X110986000Y-63014000D01*
X120925000Y-65000000D02*
X118939000Y-63014000D01*
X75740800Y-81509300D02*
X75740800Y-80500000D01*
X61463700Y-80500000D02*
X75740800Y-80500000D01*
X59842000Y-78878300D02*
X61463700Y-80500000D01*
X58130000Y-78878300D02*
X59842000Y-78878300D01*
X75740800Y-80500000D02*
X80000000Y-80500000D01*
X128188100Y-63000000D02*
X129400000Y-63000000D01*
X127288100Y-63900000D02*
X128188100Y-63000000D01*
X127288100Y-64000000D02*
X127288100Y-63900000D01*
X125668500Y-65619600D02*
X127288100Y-64000000D01*
X124948400Y-65619600D02*
X125668500Y-65619600D01*
X124592000Y-65976000D02*
X124948400Y-65619600D01*
X121901000Y-65976000D02*
X124592000Y-65976000D01*
X120925000Y-65000000D02*
X121901000Y-65976000D01*
X107446200Y-66553800D02*
X109000000Y-65000000D01*
X91339100Y-66553800D02*
X107446200Y-66553800D01*
X90656200Y-67236700D02*
X91339100Y-66553800D01*
X79049300Y-67236700D02*
X90656200Y-67236700D01*
%TO.N,Net-(D1-A)*%
X50800000Y-122300000D02*
X50800000Y-123276700D01*
X56750500Y-123450500D02*
X63300000Y-130000000D01*
X50973800Y-123450500D02*
X56750500Y-123450500D01*
X50800000Y-123276700D02*
X50973800Y-123450500D01*
X70000000Y-130000000D02*
X63300000Y-130000000D01*
%TO.N,USBC_D-*%
X55930000Y-80931700D02*
X54930000Y-80931700D01*
X55930000Y-79905000D02*
X55930000Y-80931700D01*
X54930000Y-79905000D02*
X54930000Y-80931700D01*
%TO.N,USBC_D+*%
X56430000Y-78878300D02*
X55430000Y-78878300D01*
X56430000Y-79905000D02*
X56430000Y-78878300D01*
X55430000Y-79905000D02*
X55430000Y-78878300D01*
%TO.N,Net-(U2-VDDA)*%
X110000000Y-89320200D02*
X110000000Y-90000000D01*
X114320200Y-89320200D02*
X115000000Y-90000000D01*
X110000000Y-89320200D02*
X114320200Y-89320200D01*
X105679800Y-89320200D02*
X110000000Y-89320200D01*
X105000000Y-90000000D02*
X105679800Y-89320200D01*
X86498000Y-92087500D02*
X85587500Y-92087500D01*
X87383100Y-92972600D02*
X86498000Y-92087500D01*
X105000000Y-92316800D02*
X104784900Y-92531900D01*
X105000000Y-90000000D02*
X105000000Y-92316800D01*
%TO.N,USB_B_D+*%
X52186300Y-121237000D02*
X52100000Y-121323300D01*
X52186300Y-119661100D02*
X52186300Y-121237000D01*
X94735900Y-89587500D02*
X95520600Y-90372200D01*
X93912500Y-89587500D02*
X94735900Y-89587500D01*
X52100000Y-122300000D02*
X52100000Y-121323300D01*
%TO.N,USB_B_D-*%
X51450000Y-120612500D02*
X51462600Y-120599900D01*
X51450000Y-122300000D02*
X51450000Y-120612500D01*
X92426900Y-90087500D02*
X93912500Y-90087500D01*
X91998800Y-90515600D02*
X92426900Y-90087500D01*
X88495600Y-90515600D02*
X91998800Y-90515600D01*
%TO.N,USB_B_ID*%
X78902000Y-129412000D02*
X78902000Y-128411700D01*
X79490000Y-130000000D02*
X78902000Y-129412000D01*
X75094800Y-109905200D02*
X75000000Y-110000000D01*
X75950000Y-109905200D02*
X75094800Y-109905200D01*
X54235200Y-119838100D02*
X78902000Y-119838100D01*
X52750000Y-121323300D02*
X54235200Y-119838100D01*
X52750000Y-122300000D02*
X52750000Y-121323300D01*
X172900000Y-115000000D02*
X167100000Y-115000000D01*
X167049600Y-115050400D02*
X167100000Y-115000000D01*
X164689600Y-115050400D02*
X167049600Y-115050400D01*
%TO.N,+5V*%
X75287300Y-125682700D02*
X90927300Y-125682700D01*
X70970000Y-130000000D02*
X75287300Y-125682700D01*
X98032800Y-106007200D02*
X99040000Y-105000000D01*
X96866300Y-106007200D02*
X98032800Y-106007200D01*
X100375900Y-98100000D02*
X100000000Y-98100000D01*
X101013800Y-98737900D02*
X100375900Y-98100000D01*
X101013800Y-99394900D02*
X101013800Y-98737900D01*
X100408700Y-100000000D02*
X101013800Y-99394900D01*
X100000000Y-100000000D02*
X100408700Y-100000000D01*
X164900000Y-99148300D02*
X174900000Y-99148300D01*
X174900000Y-100000000D02*
X174900000Y-99148300D01*
X164900000Y-100000000D02*
X164900000Y-99799700D01*
X164900000Y-99799700D02*
X164900000Y-99148300D01*
X100000000Y-102140100D02*
X100000000Y-100000000D01*
X99835800Y-102304300D02*
X100000000Y-102140100D01*
X162195300Y-101677800D02*
X162195300Y-101925800D01*
X164073400Y-99799700D02*
X162195300Y-101677800D01*
X164900000Y-99799700D02*
X164073400Y-99799700D01*
%TO.N,GND*%
X125000000Y-63000000D02*
X125000000Y-63500000D01*
X48600000Y-125000000D02*
X49200000Y-125000000D01*
X140000000Y-65827900D02*
X140000000Y-65000000D01*
X141408800Y-67236700D02*
X140000000Y-65827900D01*
X82289200Y-80764200D02*
X82289200Y-80500000D01*
X82525000Y-81000000D02*
X82289200Y-80764200D01*
X81262500Y-80500000D02*
X82289200Y-80500000D01*
X58605000Y-128605000D02*
X60000000Y-130000000D01*
X58163600Y-128605000D02*
X58605000Y-128605000D01*
X81126800Y-115106800D02*
X81020000Y-115000000D01*
X82397000Y-115106800D02*
X81126800Y-115106800D01*
X51299300Y-126251700D02*
X51100000Y-126251700D01*
X51594500Y-126546900D02*
X51299300Y-126251700D01*
X51100000Y-125000000D02*
X51100000Y-126251700D01*
X81119000Y-70159000D02*
X80960000Y-70000000D01*
X82372000Y-70159000D02*
X81119000Y-70159000D01*
X101189500Y-84770500D02*
X100960000Y-85000000D01*
X102780000Y-84770500D02*
X101189500Y-84770500D01*
X53745500Y-121323300D02*
X53400000Y-121323300D01*
X54600000Y-122177800D02*
X53745500Y-121323300D01*
X54600000Y-122300000D02*
X54600000Y-122177800D01*
X53400000Y-122300000D02*
X53400000Y-121323300D01*
X55600000Y-125000000D02*
X55000000Y-125000000D01*
X87500000Y-87716700D02*
X87500000Y-86675000D01*
X87142800Y-88073900D02*
X87500000Y-87716700D01*
X127994900Y-64500000D02*
X129400000Y-64500000D01*
X127309700Y-65185200D02*
X127994900Y-64500000D01*
X127309700Y-65397500D02*
X127309700Y-65185200D01*
X126355200Y-63500000D02*
X125000000Y-63500000D01*
X126407800Y-63552600D02*
X126355200Y-63500000D01*
X107409700Y-96459700D02*
X105950000Y-95000000D01*
X108744300Y-96459700D02*
X107409700Y-96459700D01*
X96189500Y-84770500D02*
X95960000Y-85000000D01*
X97295800Y-84770500D02*
X96189500Y-84770500D01*
X89500000Y-93770800D02*
X89500000Y-95000000D01*
X89466300Y-93737100D02*
X89500000Y-93770800D01*
X116379900Y-90419900D02*
X115960000Y-90000000D01*
X117493700Y-90419900D02*
X116379900Y-90419900D01*
X99668000Y-99382000D02*
X100000000Y-99050000D01*
X98792500Y-99382000D02*
X99668000Y-99382000D01*
X110976800Y-84503200D02*
X110480000Y-85000000D01*
X111979500Y-84503200D02*
X110976800Y-84503200D01*
X82685300Y-91587500D02*
X85587500Y-91587500D01*
X82018800Y-90921000D02*
X82685300Y-91587500D01*
X73996400Y-76003600D02*
X75000000Y-75000000D01*
X73110300Y-76003600D02*
X73996400Y-76003600D01*
X66411700Y-95000000D02*
X65000000Y-95000000D01*
X67185100Y-95773400D02*
X66411700Y-95000000D01*
X97056900Y-88587500D02*
X93912500Y-88587500D01*
X97420700Y-88223700D02*
X97056900Y-88587500D01*
X82525000Y-80500000D02*
X82289200Y-80500000D01*
X111025800Y-89934200D02*
X110960000Y-90000000D01*
X112019500Y-89934200D02*
X111025800Y-89934200D01*
X105976800Y-84503200D02*
X105480000Y-85000000D01*
X107039700Y-84503200D02*
X105976800Y-84503200D01*
X100554000Y-104446000D02*
X100000000Y-105000000D01*
X100800500Y-104446000D02*
X100554000Y-104446000D01*
X91496900Y-69463100D02*
X90960000Y-70000000D01*
X91826300Y-69463100D02*
X91496900Y-69463100D01*
X54284800Y-126251700D02*
X53100000Y-126251700D01*
X54580000Y-126546900D02*
X54284800Y-126251700D01*
X53100000Y-125000000D02*
X53100000Y-126251700D01*
X62321200Y-111071200D02*
X63695800Y-111071200D01*
X61900000Y-110650000D02*
X62321200Y-111071200D01*
X64578800Y-111071200D02*
X65000000Y-110650000D01*
X63695800Y-111071200D02*
X64578800Y-111071200D01*
X104314400Y-64314400D02*
X105000000Y-65000000D01*
X102534800Y-64314400D02*
X104314400Y-64314400D01*
X90611000Y-107561000D02*
X90000000Y-106950000D01*
X91612500Y-107561000D02*
X90611000Y-107561000D01*
X92000000Y-96823300D02*
X92000000Y-95000000D01*
X92006000Y-96829300D02*
X92000000Y-96823300D01*
X52430000Y-78382700D02*
X52323800Y-78276500D01*
X52430000Y-79905000D02*
X52430000Y-78382700D01*
X59085000Y-79905000D02*
X58930000Y-79905000D01*
X60000000Y-80820000D02*
X59085000Y-79905000D01*
X76055400Y-108294600D02*
X75000000Y-109350000D01*
X76865200Y-108294600D02*
X76055400Y-108294600D01*
X82549800Y-81024800D02*
X82525000Y-81000000D01*
X83388000Y-81024800D02*
X82549800Y-81024800D01*
X87141600Y-88072700D02*
X87141200Y-88072700D01*
X87142800Y-88073900D02*
X87141600Y-88072700D01*
%TO.N,+3V3*%
X81905000Y-128605000D02*
X80510000Y-130000000D01*
X82142000Y-128605000D02*
X81905000Y-128605000D01*
X93959700Y-96459700D02*
X92500000Y-95000000D01*
X94015900Y-96459700D02*
X93959700Y-96459700D01*
X138766400Y-65273600D02*
X139040000Y-65000000D01*
X137857000Y-65273600D02*
X138766400Y-65273600D01*
X80512500Y-81960600D02*
X80512500Y-81762500D01*
X79782000Y-82691100D02*
X80512500Y-81960600D01*
X107631400Y-90000000D02*
X105970000Y-90000000D01*
X108434200Y-90802800D02*
X107631400Y-90000000D01*
X109290500Y-84770500D02*
X109520000Y-85000000D01*
X108249500Y-84770500D02*
X109290500Y-84770500D01*
X93912500Y-87187800D02*
X93912500Y-88087500D01*
X94015900Y-87084400D02*
X93912500Y-87187800D01*
X94623300Y-84623300D02*
X95000000Y-85000000D01*
X93565800Y-84623300D02*
X94623300Y-84623300D01*
X102651000Y-96399000D02*
X104050000Y-95000000D01*
X102434800Y-96399000D02*
X102651000Y-96399000D01*
X94225000Y-104746700D02*
X94225000Y-105000000D01*
X94689200Y-104282500D02*
X94225000Y-104746700D01*
X144760200Y-84760200D02*
X145000000Y-85000000D01*
X143801200Y-84760200D02*
X144760200Y-84760200D01*
X106210600Y-110190600D02*
X106020000Y-110000000D01*
X107897700Y-110190600D02*
X106210600Y-110190600D01*
X79900400Y-99900400D02*
X80000000Y-100000000D01*
X78647000Y-99900400D02*
X79900400Y-99900400D01*
X103934800Y-85585200D02*
X104520000Y-85000000D01*
X103593900Y-85585200D02*
X103934800Y-85585200D01*
X89841000Y-70159000D02*
X90000000Y-70000000D01*
X89193700Y-70159000D02*
X89841000Y-70159000D01*
X86590600Y-87084400D02*
X87000000Y-86675000D01*
X86305600Y-87084400D02*
X86590600Y-87084400D01*
X99794500Y-84794500D02*
X100000000Y-85000000D01*
X99026900Y-84794500D02*
X99794500Y-84794500D01*
X129212200Y-65187800D02*
X129400000Y-65000000D01*
X128171400Y-65187800D02*
X129212200Y-65187800D01*
X79841000Y-70159000D02*
X80000000Y-70000000D01*
X78642000Y-70159000D02*
X79841000Y-70159000D01*
X102275000Y-97496500D02*
X102275000Y-98100000D01*
X102027700Y-97249200D02*
X102275000Y-97496500D01*
X79545000Y-81455000D02*
X80000000Y-81000000D01*
X78589200Y-81455000D02*
X79545000Y-81455000D01*
X85587500Y-87835200D02*
X85587500Y-88087500D01*
X84836700Y-87084400D02*
X85587500Y-87835200D01*
X91020000Y-80269000D02*
X90518200Y-80770800D01*
X91020000Y-80000000D02*
X91020000Y-80269000D01*
X78647000Y-99900400D02*
X78648600Y-99900400D01*
X93565800Y-84623300D02*
X93567400Y-84623300D01*
%TD*%
M02*
